<svg width="228" height="148" viewBox="0 0 228 148" fill="none" xmlns="http://www.w3.org/2000/svg">
<rect opacity="0.2" x="34" y="15" width="194" height="133" rx="12" fill="#4AB0A6"/>
<rect x="0.5" y="0.5" width="215" height="134" rx="11.5" fill="white" stroke="#015E5F"/>
<path d="M60.2925 114.827C67.6338 114.827 73.5851 108.876 73.5851 101.534C73.5851 94.1932 67.6338 88.2419 60.2925 88.2419C52.9513 88.2419 47 94.1932 47 101.534C47 108.876 52.9513 114.827 60.2925 114.827Z" fill="white" stroke="#4AB0A6" stroke-width="1.28"/>
<path fill-rule="evenodd" clip-rule="evenodd" d="M61.9136 85C70.8663 85 78.124 92.2576 78.124 101.21H61.9136V85Z" fill="#E3E2E2"/>
<path d="M92.0635 92.6191H171" stroke="#4AB0A6" stroke-width="8" stroke-linecap="round"/>
<path d="M92.064 108.828H138.579" stroke="#4AB0A6" stroke-width="1.92" stroke-linecap="round"/>
<path d="M109.173 71.5264C124.732 71.5264 137.345 58.8725 137.345 43.2632C137.345 27.6539 124.732 15 109.173 15C93.6133 15 81 27.6539 81 43.2632C81 58.8725 93.6133 71.5264 109.173 71.5264Z" fill="#4AB0A6"/>
<path d="M97.0439 46.813L105.706 52.8287L123.593 33.0911" stroke="white" stroke-width="4" stroke-linecap="round"/>
</svg>
