<svg width="16" height="12" viewBox="0 0 16 12" fill="none" xmlns="http://www.w3.org/2000/svg">
<path d="M15.8943 5.50858C14.1547 1.84414 11.5252 0 8.00024 0C4.47343 0 1.84576 1.84414 0.106205 5.51041C0.0364309 5.65816 0.000244141 5.81952 0.000244141 5.98291C0.000244141 6.14631 0.0364309 6.30767 0.106205 6.45542C1.84576 10.1199 4.47527 11.964 8.00024 11.964C11.5271 11.964 14.1547 10.1199 15.8943 6.45358C16.0356 6.15632 16.0356 5.81135 15.8943 5.50858ZM8.00024 10.6428C5.04044 10.6428 2.87334 9.14181 1.34481 5.982C2.87334 2.82218 5.04044 1.32118 8.00024 1.32118C10.96 1.32118 13.1271 2.82218 14.6557 5.982C13.129 9.14181 10.9619 10.6428 8.00024 10.6428ZM7.92684 2.75245C6.14325 2.75245 4.6973 4.19841 4.6973 5.982C4.6973 7.76559 6.14325 9.21154 7.92684 9.21154C9.71043 9.21154 11.1564 7.76559 11.1564 5.982C11.1564 4.19841 9.71043 2.75245 7.92684 2.75245ZM7.92684 8.03716C6.791 8.03716 5.87168 7.11784 5.87168 5.982C5.87168 4.84615 6.791 3.92683 7.92684 3.92683C9.06269 3.92683 9.98201 4.84615 9.98201 5.982C9.98201 7.11784 9.06269 8.03716 7.92684 8.03716Z" fill="#4F4F4F"/>
</svg>
