<svg width="672" height="540" viewBox="0 0 672 540" fill="none" xmlns="http://www.w3.org/2000/svg">
<path d="M143.873 468.855V310.959" stroke="#5A6983" stroke-width="1.28"/>
<path fill-rule="evenodd" clip-rule="evenodd" d="M335.677 305.991H123.863C122.2 305.991 120.853 307.345 120.853 309.015C120.853 310.685 122.2 312.039 123.863 312.039H335.677C337.34 312.039 338.688 310.685 338.688 309.015C338.688 307.345 337.34 305.991 335.677 305.991Z" fill="#CFE2F3"/>
<mask id="mask0_3062_2725" style="mask-type:alpha" maskUnits="userSpaceOnUse" x="120" y="305" width="66" height="8">
<path d="M185.365 305.991H123.863C122.2 305.991 120.853 307.345 120.853 309.015C120.853 310.685 122.2 312.039 123.863 312.039H185.365V305.991Z" fill="white"/>
</mask>
<g mask="url(#mask0_3062_2725)">
<path d="M185.365 305.991H123.863C122.2 305.991 120.853 307.345 120.853 309.015C120.853 310.685 122.2 312.039 123.863 312.039H185.365V305.991Z" fill="#6589A9"/>
<g opacity="0.5">
<g opacity="0.5">
<path opacity="0.5" d="M121.246 306.95C121.945 310.498 124.495 311.68 128.897 310.498C135.5 308.724 135.062 304.599 144.619 305.774C154.176 306.95 128.688 312.73 133.922 314.148C139.156 315.567 148.268 307.944 149.831 309.221C151.395 310.498 149.631 315.493 160.367 309.946C171.103 304.399 178.379 304.925 172.674 308.784C166.968 312.642 175.876 313.915 184.038 308.784C192.2 303.652 194.483 305.116 193.342 306.95C192.2 308.784 189.005 311.049 192.66 310.498C196.314 309.946 197.483 306.863 199.165 309.221C200.847 311.579 204.247 309.794 205.781 308.341C207.315 306.889 215.805 301.743 215.805 309.221C215.805 314.206 217.545 314.396 221.024 309.789" stroke="#F9F9F9" stroke-width="0.64"/>
<path opacity="0.5" fill-rule="evenodd" clip-rule="evenodd" d="M124.911 305.716C124.93 308.873 127.058 309.192 131.297 306.675C137.655 302.9 152.632 302.741 151.369 305.536C150.106 308.332 151.417 311.469 156.537 309.072C161.657 306.675 162.804 305.785 161.439 305.536C160.075 305.288 153.269 309.331 154.506 306.276C155.743 303.221 176.03 303.166 176.692 304.968C177.354 306.771 172.874 310.518 175.731 310.203C178.588 309.887 180.49 309.065 183.931 306.051C187.372 303.037 196.285 301.756 195.699 304.968C195.113 308.181 199.044 308.027 202.258 306.657C205.471 305.288 215.407 300.865 216.92 304.968C218.434 309.072 218.371 309.912 220.63 309.072C222.889 308.232 223.268 313.763 219.308 314.532C215.348 315.301 213.028 313.423 213.287 310.203C213.547 306.982 206.256 309.001 205.82 313.412C205.384 317.823 200.198 311.706 198.27 311.558C196.343 311.41 191.868 313.253 190.294 312.907C188.72 312.561 187.709 311.419 189.136 309.91C190.563 308.401 188.698 307.786 184.246 311.558C179.795 315.33 168.111 315.226 168.867 312.386C169.623 309.547 167.025 308.934 162.468 312.386C159.43 314.688 154.493 315.26 147.659 314.1L132.067 316.053L130.998 313.123C132.859 312.414 133.215 311.976 132.067 311.809C130.345 311.558 128.893 312.907 126.26 312.907C123.628 312.907 119.956 312.593 119.956 310.379C119.956 308.164 120.433 306.051 120.664 306.051C120.818 306.051 122.234 305.939 124.911 305.716Z" stroke="#F9F9F9" stroke-width="0.64"/>
</g>
</g>
</g>
<path d="M309.776 468.855V310.959" stroke="#5A6983" stroke-width="1.28"/>
<mask id="mask1_3062_2725" style="mask-type:alpha" maskUnits="userSpaceOnUse" x="120" y="427" width="38" height="43">
<path d="M157.383 427.41H120.288L122.944 455.421C123.724 463.65 130.605 469.935 138.835 469.935C147.065 469.935 153.946 463.65 154.727 455.421L157.383 427.41Z" fill="white"/>
</mask>
<g mask="url(#mask1_3062_2725)">
<path d="M157.383 427.41H120.288L122.944 455.421C123.724 463.65 130.605 469.935 138.835 469.935C147.065 469.935 153.946 463.65 154.727 455.421L157.383 427.41Z" fill="#5A6983"/>
<path d="M139.28 434.475C127.782 434.475 118.461 432.299 118.461 429.615C118.461 426.931 127.782 424.755 139.28 424.755C150.777 424.755 160.098 426.931 160.098 429.615C160.098 432.299 150.777 434.475 139.28 434.475Z" stroke="#F9F9F9" stroke-width="0.6"/>
<g opacity="0.5">
<g opacity="0.5">
<path opacity="0.5" d="M85.6132 445.172C86.1894 451.824 88.2919 454.041 91.9206 451.824C97.3636 448.498 97.0025 440.764 104.881 442.968C112.76 445.172 91.7483 456.009 96.0628 458.668C100.377 461.328 107.889 447.036 109.178 449.43C110.467 451.824 109.012 461.19 117.863 450.789C126.713 440.388 132.712 441.375 128.008 448.61C123.304 455.845 130.647 458.231 137.376 448.61C144.105 438.989 145.987 441.733 145.046 445.172C144.105 448.61 141.471 452.858 144.483 451.824C147.496 450.789 148.46 445.01 149.846 449.43C151.232 453.85 154.035 450.504 155.3 447.781C156.564 445.057 163.564 435.409 163.564 449.43C163.564 458.777 164.998 459.132 167.866 450.495" stroke="#F9F9F9" stroke-width="0.6"/>
<path opacity="0.5" fill-rule="evenodd" clip-rule="evenodd" d="M88.4832 442.858C88.4985 448.777 90.2509 449.376 93.7404 444.657C98.9746 437.577 111.305 437.28 110.265 442.521C109.225 447.762 110.305 453.645 114.52 449.151C118.735 444.657 119.679 442.987 118.556 442.521C117.433 442.056 111.83 449.637 112.848 443.908C113.866 438.179 130.568 438.077 131.113 441.456C131.658 444.836 127.97 451.863 130.322 451.271C132.674 450.679 134.24 449.136 137.073 443.486C139.905 437.835 147.243 435.433 146.761 441.456C146.278 447.48 149.515 447.19 152.16 444.623C154.806 442.055 162.986 433.762 164.232 441.456C165.477 449.151 165.425 450.725 167.285 449.151C169.145 447.576 169.457 457.947 166.197 459.388C162.937 460.829 161.027 457.309 161.241 451.271C161.454 445.232 155.452 449.017 155.093 457.288C154.734 465.559 150.464 454.09 148.878 453.812C147.291 453.534 143.607 456.989 142.311 456.341C141.015 455.692 140.183 453.551 141.358 450.722C142.533 447.892 140.997 446.739 137.332 453.812C133.667 460.884 124.049 460.689 124.671 455.365C125.293 450.041 123.154 448.891 119.403 455.365C116.901 459.681 112.837 460.752 107.211 458.578L94.3746 462.24L93.4947 456.746C95.0266 455.417 95.3198 454.596 94.3746 454.283C92.9568 453.812 91.7613 456.341 89.5942 456.341C87.4271 456.341 84.4036 455.753 84.4036 451.601C84.4036 447.448 84.7971 443.486 84.9872 443.486C85.1139 443.486 86.2793 443.276 88.4832 442.858Z" stroke="#F9F9F9" stroke-width="0.6"/>
</g>
</g>
</g>
<path d="M138.876 430.628C128.633 430.628 120.329 429.268 120.329 427.59C120.329 425.913 128.633 424.553 138.876 424.553C149.119 424.553 157.423 425.913 157.423 427.59C157.423 429.268 149.119 430.628 138.876 430.628Z" fill="#303256"/>
<path d="M126.035 384.325C125.535 403.401 129.906 418.782 139.147 430.469" stroke="#00BF9A" stroke-width="0.6"/>
<path d="M138.107 411.782C139.313 412.459 145.152 419.801 140.294 430.469" stroke="#00BF9A" stroke-width="0.6"/>
<path d="M142.422 358.6C144.9 364.149 144.9 371.38 142.422 380.293C138.705 393.661 135.607 410.887 140.293 430.469" stroke="#00BF9A" stroke-width="0.6"/>
<path d="M151.361 392.906C144.886 404.303 142.673 416.724 144.723 430.17" stroke="#00BF9A" stroke-width="0.6"/>
<mask id="mask2_3062_2725" style="mask-type:alpha" maskUnits="userSpaceOnUse" x="102" y="384" width="40" height="30">
<path d="M139 412.305C143.323 404.108 141.29 398.325 132.898 394.957C120.312 389.905 109.578 389.502 102.738 384.657C114.119 397.565 122.386 405.955 127.537 409.829C132.688 413.702 136.509 414.527 139 412.305Z" fill="white"/>
</mask>
<g mask="url(#mask2_3062_2725)">
<path d="M139 412.305C143.323 404.108 141.29 398.325 132.898 394.957C120.312 389.905 109.578 389.502 102.738 384.657C114.119 397.565 122.386 405.955 127.537 409.829C132.688 413.702 136.509 414.527 139 412.305Z" fill="#109077"/>
<path fill-rule="evenodd" clip-rule="evenodd" d="M102.427 384.326C106.78 387.926 110.578 390.093 113.823 390.827C118.691 391.928 118.999 392.929 120.641 395.843C122.282 398.757 123.683 398.832 127.251 398.832C130.82 398.832 139.407 401.242 138.554 412.646C139.217 414.781 137.694 415.522 133.985 414.87C130.276 414.218 126.067 411.588 121.358 406.98C112.452 396.984 108 391.986 108 391.986C108 391.986 106.142 389.432 102.427 384.326Z" fill="#14AE90"/>
</g>
<mask id="mask3_3062_2725" style="mask-type:alpha" maskUnits="userSpaceOnUse" x="96" y="336" width="35" height="49">
<path d="M126.035 384.937C130.202 380.965 131.681 376.426 130.471 371.319C128.657 363.659 130.014 360.971 130.014 356.252C130.014 351.533 125.849 344.815 115.976 343.074C106.103 341.333 102.825 337.33 96.383 336.453C99.985 338.656 101.631 340.969 101.32 343.392C100.854 347.026 95.2365 357.649 107.414 363.803C115.532 367.905 121.739 374.95 126.035 384.937Z" fill="white"/>
</mask>
<g mask="url(#mask3_3062_2725)">
<path d="M126.035 384.937C130.202 380.965 131.681 376.426 130.471 371.319C128.657 363.659 130.014 360.971 130.014 356.252C130.014 351.533 125.849 344.815 115.976 343.074C106.103 341.333 102.825 337.33 96.383 336.453C99.985 338.656 101.631 340.969 101.32 343.392C100.854 347.026 95.2365 357.649 107.414 363.803C115.532 367.905 121.739 374.95 126.035 384.937Z" fill="#109077"/>
<path fill-rule="evenodd" clip-rule="evenodd" d="M100.948 341.01C113.267 351.725 121.629 366.367 126.035 384.937C123.321 380.347 120.007 376.91 116.092 374.625C110.219 371.197 103.995 363.289 103.65 362.926C103.305 362.562 97.095 356.743 97.095 355.398C97.095 354.501 98.3795 349.705 100.948 341.01Z" fill="#14AE90"/>
</g>
<mask id="mask4_3062_2725" style="mask-type:alpha" maskUnits="userSpaceOnUse" x="103" y="313" width="49" height="48">
<path d="M142.955 360.695C144.361 358.941 145.269 357.018 145.677 354.928C150.608 351.283 152.33 347.71 150.845 344.208C148.616 338.955 145.449 339.906 136.792 331.25C128.135 322.594 129.833 313.83 103.085 313.2C109.638 314.59 114.276 319.056 117.001 326.598C121.087 337.91 123.623 339.374 131.39 344.964C136.568 348.691 140.423 353.935 142.955 360.695Z" fill="white"/>
</mask>
<g mask="url(#mask4_3062_2725)">
<path d="M142.955 360.695C144.361 358.941 145.269 357.018 145.677 354.928C150.608 351.283 152.33 347.71 150.845 344.208C148.616 338.955 145.449 339.906 136.792 331.25C128.135 322.594 129.833 313.83 103.085 313.2C109.638 314.59 114.276 319.056 117.001 326.598C121.087 337.91 123.623 339.374 131.39 344.964C136.568 348.691 140.423 353.935 142.955 360.695Z" fill="#109077"/>
<path fill-rule="evenodd" clip-rule="evenodd" d="M142.955 360.695C147.33 355.258 146.53 349.787 140.557 344.282C131.597 336.025 125.442 337.51 122.46 331.21C119.477 324.909 117.133 314.787 103.084 313.2L114.792 323.344L119.952 335.875L126.823 343.586L134.535 349.221L142.955 360.695Z" fill="#14AE90"/>
</g>
<mask id="mask5_3062_2725" style="mask-type:alpha" maskUnits="userSpaceOnUse" x="142" y="357" width="55" height="40">
<path d="M149.246 396.962C150.202 394.773 151.503 393.177 153.149 392.174C155.618 390.669 161.412 385.737 164.525 380.419C167.637 375.101 177.12 375.321 181.405 373.001C185.69 370.682 193.048 366.361 196.652 357.884C192.594 361.687 187.629 362.995 181.757 361.808C172.949 360.028 167.166 357.088 160.158 374.211C156.04 373.797 151.231 374.867 145.729 377.423C137.477 381.257 147.131 384.707 148.235 387.941C148.97 390.097 149.308 393.104 149.246 396.962Z" fill="white"/>
</mask>
<g mask="url(#mask5_3062_2725)">
<path d="M149.246 396.962C150.202 394.773 151.503 393.177 153.149 392.174C155.618 390.669 161.412 385.737 164.525 380.419C167.637 375.101 177.12 375.321 181.405 373.001C185.69 370.682 193.048 366.361 196.652 357.884C192.594 361.687 187.629 362.995 181.757 361.808C172.949 360.028 167.166 357.088 160.158 374.211C156.04 373.797 151.231 374.867 145.729 377.423C137.477 381.257 147.131 384.707 148.235 387.941C148.97 390.097 149.308 393.104 149.246 396.962Z" fill="#109077"/>
<path fill-rule="evenodd" clip-rule="evenodd" d="M160.425 373.52C154.53 385.087 150.804 392.901 149.247 396.963C147.69 401.024 146.992 399.428 147.153 392.174C145.468 387.349 144.521 384.937 144.312 384.937C143.999 384.937 137.499 380.056 137.499 380.056C137.499 380.056 140.523 378.509 146.571 375.414L160.425 373.52Z" fill="#14AE90"/>
<path fill-rule="evenodd" clip-rule="evenodd" d="M165.169 362.352C166.896 369.359 166.077 376.363 162.712 383.363C157.664 393.864 167.465 381.054 167.465 381.054C167.465 381.054 172.814 379.011 183.512 374.925L200.525 357.884V354.239C186.006 355.991 178.746 356.867 178.746 356.867C178.746 356.867 174.221 358.696 165.169 362.352Z" fill="#0F6857"/>
</g>
<path fill-rule="evenodd" clip-rule="evenodd" d="M319.062 258.687C319.286 258.687 319.509 258.712 319.727 258.762C321.349 259.131 322.365 260.751 321.998 262.379L313.612 299.531C313.301 300.909 312.082 301.887 310.676 301.887H262.845C262.621 301.887 262.397 301.862 262.179 301.812C260.557 301.443 259.541 299.823 259.908 298.194L268.294 261.042C268.605 259.665 269.824 258.687 271.23 258.687H319.062Z" fill="white" stroke="#5A6983" stroke-width="0.64"/>
<path fill-rule="evenodd" clip-rule="evenodd" d="M322.964 258.687C323.188 258.687 323.411 258.712 323.629 258.762C325.251 259.131 326.267 260.751 325.9 262.379L317.514 299.531C317.203 300.909 315.984 301.887 314.578 301.887H266.747C266.523 301.887 266.299 301.862 266.081 301.812C264.459 301.443 263.443 299.823 263.811 298.194L272.197 261.042C272.507 259.665 273.726 258.687 275.133 258.687H322.964Z" fill="#CFE2F3" stroke="#5A6983" stroke-width="0.64"/>
<path d="M294.968 286.551C291.52 286.551 288.725 283.746 288.725 280.287C288.725 276.827 291.52 274.023 294.968 274.023C298.416 274.023 301.21 276.827 301.21 280.287C301.21 283.746 298.416 286.551 294.968 286.551Z" fill="#F9F9F9"/>
<path fill-rule="evenodd" clip-rule="evenodd" d="M314.739 301.887H241.202C240.251 301.887 239.481 302.66 239.481 303.615C239.481 304.569 240.251 305.343 241.202 305.343H311.09C313.036 305.343 314.628 303.814 314.739 301.887Z" fill="white" stroke="#5A6983" stroke-width="0.64"/>
<path fill-rule="evenodd" clip-rule="evenodd" d="M241.201 301.671H258.62V305.559H241.201C240.133 305.559 239.266 304.688 239.266 303.615C239.266 302.541 240.133 301.671 241.201 301.671Z" fill="#6BA4D7"/>
<path fill-rule="evenodd" clip-rule="evenodd" d="M278.286 429.382L294.268 453.453L280.408 455.873L268.668 449.28V443.21C268.668 440.165 267.927 437.167 266.509 434.475L278.286 429.382Z" fill="#FFCECA"/>
<path fill-rule="evenodd" clip-rule="evenodd" d="M242.487 415.417L241.558 426.78C241.123 432.097 242.79 437.372 246.196 441.465L250.125 446.185L240.462 447.968L226.946 436.854L227.659 435.132C228.444 433.239 228.848 431.208 228.848 429.157V413.2L242.487 415.417Z" fill="#FFCECA"/>
<path fill-rule="evenodd" clip-rule="evenodd" d="M289.861 446.702L305.455 462.49C306.598 463.648 307.067 465.315 306.697 466.902C306.348 468.397 305.021 469.453 303.493 469.453H299.249C295.416 469.453 291.652 468.424 288.347 466.472L276.161 459.272C275.029 458.603 273.691 458.379 272.405 458.643L265.801 453.627C264.628 452.736 264.343 451.084 265.149 449.848L268.752 444.328C271.095 449.882 274.845 452.557 280.001 452.352C285.157 452.147 288.444 450.263 289.861 446.702Z" fill="#349A48"/>
<path fill-rule="evenodd" clip-rule="evenodd" d="M244.795 439.568C248.344 443.529 251.001 446.684 252.767 449.033C253.914 450.558 255.865 453.349 258.618 457.405C259.833 459.194 259.374 461.634 257.593 462.855C256.752 463.431 255.721 463.654 254.718 463.478L253.213 463.212C248.328 462.352 243.89 459.822 240.649 456.051L232.912 447.048L230.433 447.968L224.903 442.402C223.969 441.462 223.818 439.994 224.542 438.882L228.848 432.264V432.386C228.848 438.732 233.97 443.877 240.288 443.877C243.443 443.877 244.945 442.441 244.795 439.568Z" fill="#349A48"/>
<path fill-rule="evenodd" clip-rule="evenodd" d="M248.175 395.299L244.429 414.333C244.25 415.244 243.387 415.849 242.474 415.705L228.292 413.46C227.375 413.315 226.738 412.465 226.853 411.539L232.075 369.575L248.175 395.299Z" fill="#303256"/>
<mask id="mask6_3062_2725" style="mask-type:alpha" maskUnits="userSpaceOnUse" x="176" y="273" width="104" height="163">
<path d="M180.744 273.855C173.54 292.656 175.409 306.58 186.35 315.624L227.257 365.827C228.258 367.057 229.122 368.393 229.832 369.812L261.865 433.865C262.629 435.393 264.443 436.062 266.01 435.393L277.461 430.502C279.092 429.805 279.858 427.917 279.177 426.274L256.713 372.117L244.505 344.443L256.713 372.117L265.571 345.812C266.803 342.155 266.898 338.207 265.842 334.494L265.296 332.572C264.586 330.073 263.432 327.724 261.891 325.637L226.318 277.45L225.195 273.855H180.744Z" fill="white"/>
</mask>
<g mask="url(#mask6_3062_2725)">
<path d="M180.744 273.855C173.54 292.656 175.409 306.58 186.35 315.624L227.257 365.827C228.258 367.057 229.122 368.393 229.832 369.812L261.865 433.865C262.629 435.393 264.443 436.062 266.01 435.393L277.461 430.502C279.092 429.805 279.858 427.917 279.177 426.274L256.713 372.117L244.505 344.443L256.713 372.117L265.571 345.812C266.803 342.155 266.898 338.207 265.842 334.494L265.296 332.572C264.586 330.073 263.432 327.724 261.891 325.637L226.318 277.45L225.195 273.855H180.744Z" fill="#534FA0"/>
<path d="M256.713 372.117L247.575 347.667C246.872 345.788 245.912 344.015 244.722 342.402L218.319 306.598C216.234 303.771 215.109 300.345 215.109 296.827V287.767" stroke="#022D69" stroke-width="0.5"/>
<path fill-rule="evenodd" clip-rule="evenodd" d="M176.454 296.015C179.462 305.588 183.62 311.894 188.928 314.935C207.147 333.164 220.723 349.798 229.655 364.837C238.586 379.876 250.589 403.791 265.663 436.583H261.724L231.315 376.128L228.431 369.576L186.14 316.446C181.914 312.702 179.329 309.563 178.388 307.028C177.446 304.494 176.801 300.823 176.454 296.015Z" fill="#534FA0"/>
<path fill-rule="evenodd" clip-rule="evenodd" d="M182.306 275.941C198.394 280.191 210.607 282.719 218.944 283.526C227.281 284.333 235.056 289.436 242.269 298.834L226.588 273.891L182.306 275.941Z" fill="#534FA0"/>
<path opacity="0.1" fill-rule="evenodd" clip-rule="evenodd" d="M221.059 278.053L255.377 326.722C258.783 331.552 260.066 337.574 258.927 343.381L254.698 364.945C253.851 369.264 254.338 373.74 256.094 377.774L279.083 430.584L280.389 427.367L257.353 371.579L269.366 337.031L264.589 327.011L227.384 278.053L225.382 273.891L221.059 278.053Z" fill="#FAFAFA"/>
<path fill-rule="evenodd" clip-rule="evenodd" d="M215.108 296.628C215.08 300.702 216.342 304.356 218.894 307.59C221.446 310.824 230.428 322.924 245.839 343.89C247.026 346.431 248.655 350.493 250.724 356.078C252.793 361.662 254.789 366.876 256.713 371.719L259.868 363.255C254.105 352.663 249.428 345.168 245.839 340.771C242.431 336.595 233.667 325.265 219.548 306.78C218.027 304.789 216.879 302.537 216.159 300.134L215.108 296.628Z" fill="#303256"/>
</g>
<mask id="mask7_3062_2725" style="mask-type:alpha" maskUnits="userSpaceOnUse" x="178" y="160" width="18" height="23">
<path d="M195.878 165.829C195.279 162.541 193.626 160.645 190.921 160.142C186.864 159.387 181.159 162.562 179.016 169.228C176.873 175.894 182.288 184.995 189.489 182.51C194.29 180.853 196.42 175.293 195.878 165.829Z" fill="white"/>
</mask>
<g mask="url(#mask7_3062_2725)">
<path d="M195.878 165.829C195.279 162.541 193.626 160.645 190.921 160.142C186.864 159.387 181.159 162.562 179.016 169.228C176.873 175.894 182.288 184.995 189.489 182.51C194.29 180.853 196.42 175.293 195.878 165.829Z" fill="#04295C"/>
<path fill-rule="evenodd" clip-rule="evenodd" d="M193.648 169.979C186.578 169.789 181.973 172.344 179.833 177.642C181.973 182.116 185.347 183.75 189.954 182.545C194.562 181.339 195.793 177.15 193.648 169.979Z" fill="#021633"/>
<path d="M195.674 164.989C193.174 165.957 191.258 167.777 189.927 170.446" stroke="white" stroke-width="0.5"/>
</g>
<path fill-rule="evenodd" clip-rule="evenodd" d="M214.696 180.877C216.564 173.338 214.449 168.15 208.351 165.313C199.204 161.057 190.209 166.259 188.327 175.122C187.072 181.031 189.165 187.007 194.606 193.051L214.696 180.877Z" fill="#04295C"/>
<mask id="mask8_3062_2725" style="mask-type:alpha" maskUnits="userSpaceOnUse" x="190" y="172" width="25" height="38">
<path d="M214.663 175.894C214.663 179.077 214.663 182.134 214.663 185.062C214.663 186.718 214.423 188.591 213.943 190.682C213.226 193.803 210.715 196.186 207.573 196.729C207.06 197.805 206.771 198.947 206.706 200.157C206.641 201.366 206.641 203.469 206.706 206.467C203.589 209.89 198.308 210.15 194.873 207.05L194.194 206.437V192.33L195.03 188.4C192.848 188.37 191.468 187.173 190.891 184.809C190.026 181.263 193.098 180.096 194.827 181.817C196.156 181.431 197.4 180.291 198.559 178.397C199.619 176.665 199.839 174.686 199.219 172.458L199.219 172.458C199.187 172.343 199.254 172.224 199.368 172.192C199.432 172.174 199.501 172.187 199.554 172.226C202.014 174.056 204.282 175.279 206.359 175.894C208.958 176.663 211.726 176.663 214.663 175.894Z" fill="white"/>
</mask>
<g mask="url(#mask8_3062_2725)">
<path d="M214.663 175.894C214.663 179.077 214.663 182.134 214.663 185.062C214.663 186.718 214.423 188.591 213.943 190.682C213.226 193.803 210.715 196.186 207.573 196.729C207.06 197.805 206.771 198.947 206.706 200.157C206.641 201.366 206.641 203.469 206.706 206.467C203.589 209.89 198.308 210.15 194.873 207.05L194.194 206.437V192.33L195.03 188.4C192.848 188.37 191.468 187.173 190.891 184.809C190.026 181.263 193.098 180.096 194.827 181.817C196.156 181.431 197.4 180.291 198.559 178.397C199.619 176.665 199.839 174.686 199.219 172.458L199.219 172.458C199.187 172.343 199.254 172.224 199.368 172.192C199.432 172.174 199.501 172.187 199.554 172.226C202.014 174.056 204.282 175.279 206.359 175.894C208.958 176.663 211.726 176.663 214.663 175.894Z" fill="#F6C5C1"/>
<path fill-rule="evenodd" clip-rule="evenodd" d="M198.621 193.052C200.852 195.767 203.995 196.983 208.051 196.699L207.753 206.549L198.621 193.052Z" fill="#D49995"/>
<path d="M214.663 175.894C209.964 177.739 204.855 176.507 199.336 172.199C200.888 176.256 199.404 179.41 194.886 181.661" stroke="#04295C" stroke-width="0.5"/>
</g>
<path d="M194.885 191.353C193.816 191.353 192.95 190.483 192.95 189.409C192.95 188.335 193.816 187.465 194.885 187.465C195.954 187.465 196.821 188.335 196.821 189.409C196.821 190.483 195.954 191.353 194.885 191.353Z" stroke="white" stroke-width="0.64"/>
<path opacity="0.2" d="M204.885 185.521C203.4 185.521 202.197 185.086 202.197 184.549C202.197 184.012 203.4 183.577 204.885 183.577C206.369 183.577 207.573 184.012 207.573 184.549C207.573 185.086 206.369 185.521 204.885 185.521Z" fill="#250000"/>
<path opacity="0.2" d="M213.701 185.521C212.692 185.521 211.874 185.086 211.874 184.549C211.874 184.012 212.692 183.577 213.701 183.577C214.711 183.577 215.529 184.012 215.529 184.549C215.529 185.086 214.711 185.521 213.701 185.521Z" fill="#250000"/>
<path d="M212.56 182.525C213.035 182.525 213.42 182.139 213.42 181.661C213.42 181.184 213.035 180.797 212.56 180.797C212.085 180.797 211.7 181.184 211.7 181.661C211.7 182.139 212.085 182.525 212.56 182.525Z" fill="#71524F"/>
<path d="M206.754 182.525C207.229 182.525 207.614 182.139 207.614 181.661C207.614 181.184 207.229 180.797 206.754 180.797C206.279 180.797 205.894 181.184 205.894 181.661C205.894 182.139 206.279 182.525 206.754 182.525Z" fill="#71524F"/>
<path d="M193.021 183.289L195.279 185.546C195.37 185.636 195.393 185.774 195.338 185.89C195.292 185.986 195.177 186.026 195.082 185.98C195.077 185.978 195.072 185.975 195.067 185.972C193.746 185.183 192.859 185.282 192.407 186.269" stroke="#87615E" stroke-width="0.64" stroke-linecap="round"/>
<path d="M209.607 181.943L211.399 186.435C211.532 186.767 211.371 187.144 211.04 187.277C210.964 187.308 210.882 187.324 210.8 187.324H209.022" stroke="#87615E" stroke-width="0.64" stroke-linecap="round"/>
<path fill-rule="evenodd" clip-rule="evenodd" d="M206.67 189.504H211.754C211.497 190.979 210.729 191.717 209.448 191.717C208.167 191.717 207.241 190.979 206.67 189.504Z" fill="white"/>
<path d="M211.055 178.86C212.479 178.325 213.682 178.325 214.663 178.86" stroke="#04295C" stroke-width="0.96" stroke-linecap="round"/>
<path d="M208.204 178.86C206.612 178.036 205.02 178.096 203.428 179.039" stroke="#04295C" stroke-width="0.96" stroke-linecap="round"/>
<path d="M199.336 172.199L198.089 170.848" stroke="white" stroke-width="0.5"/>
<path fill-rule="evenodd" clip-rule="evenodd" d="M147.304 291.873L144.856 298.559C144.089 300.654 142.269 302.181 140.079 302.566L123.11 305.551C122.821 305.602 122.628 305.878 122.679 306.168C122.684 306.199 122.692 306.229 122.703 306.258C122.832 306.616 123.17 306.855 123.55 306.855L141.208 306.879L138.286 310.629C138.03 310.958 138.088 311.433 138.415 311.69C138.451 311.718 138.489 311.743 138.529 311.764C139.016 312.021 139.606 311.968 140.04 311.629L143.286 309.094C144.421 308.208 145.671 307.48 147.001 306.933L147.192 306.854C148.353 306.376 149.278 305.453 149.762 304.29L154.131 293.788L147.304 291.873Z" fill="#F6C5C1"/>
<path fill-rule="evenodd" clip-rule="evenodd" d="M265.498 186.639L272.015 182.458C273.238 181.674 274.564 181.064 275.954 180.645L281.927 178.848C282.275 178.743 282.643 178.942 282.747 179.292C282.775 179.384 282.782 179.481 282.768 179.577C282.677 180.217 282.271 180.769 281.689 181.046L280.267 181.723C278.76 182.441 277.6 183.733 277.046 185.313L276.434 187.059L267.859 190.602L265.498 186.639Z" fill="#D39D99"/>
<path fill-rule="evenodd" clip-rule="evenodd" d="M266.497 185.929C270.776 183.727 275.317 183.763 280.121 186.037L285.146 184.952C286.212 184.722 287.252 184.381 288.247 183.934L291.582 182.438C292.014 182.244 292.522 182.361 292.826 182.724C293.073 183.019 293.036 183.459 292.742 183.707C292.718 183.728 292.691 183.747 292.664 183.765L287.952 186.732H292.116C292.666 186.732 293.152 187.091 293.315 187.619C293.436 188.011 293.217 188.428 292.827 188.55C292.775 188.566 292.721 188.576 292.667 188.581L282.925 189.367C282.717 189.384 282.509 189.405 282.302 189.43L276.433 190.142C273.949 190.443 271.587 191.391 269.581 192.891H260.881L264.362 187.812C264.907 187.017 265.641 186.37 266.497 185.929Z" fill="#F6C5C1"/>
<path d="M288.149 186.592C286.161 187.793 283.745 188.808 280.901 189.638" stroke="#B9817D" stroke-width="0.64"/>
<path fill-rule="evenodd" clip-rule="evenodd" d="M253.971 202.693L257.552 193.285C257.711 192.867 258.111 192.591 258.556 192.591H270.197C270.672 192.591 271.057 192.977 271.057 193.455C271.057 193.563 271.036 193.671 270.997 193.772L267.49 202.693H253.971Z" fill="#F3F3F3"/>
<path d="M259.398 195.397C259.769 195.397 260.07 195.095 260.07 194.722C260.07 194.349 259.769 194.047 259.398 194.047C259.026 194.047 258.726 194.349 258.726 194.722C258.726 195.095 259.026 195.397 259.398 195.397Z" fill="#534FA0"/>
<path fill-rule="evenodd" clip-rule="evenodd" d="M145.208 289.574L141.225 299.138C141.088 299.468 141.243 299.848 141.571 299.986C141.65 300.019 141.735 300.036 141.82 300.036H153.692C153.961 300.036 154.202 299.868 154.296 299.614L158.017 289.574H145.208Z" fill="#F3F3F3"/>
<path d="M151.381 297.732C151.752 297.732 152.053 297.43 152.053 297.057C152.053 296.684 151.752 296.382 151.381 296.382C151.01 296.382 150.709 296.684 150.709 297.057C150.709 297.43 151.01 297.732 151.381 297.732Z" fill="#534FA0"/>
<mask id="mask9_3062_2725" style="mask-type:alpha" maskUnits="userSpaceOnUse" x="140" y="195" width="132" height="101">
<path d="M222.023 212.464L244.504 226.258L249.648 207.58C251.354 201.386 256.572 196.812 262.912 195.952L264.909 195.681C267.852 195.282 270.559 197.354 270.957 200.31C271.064 201.109 270.992 201.922 270.745 202.69L256.958 245.638C256.272 247.773 254.667 249.486 252.586 250.302C250.529 251.109 248.208 250.84 246.389 249.583L223.879 234.036C224.335 239.146 222.689 242.831 218.944 245.092L225.826 275.444C223.141 278.132 217.358 279.476 208.477 279.476C199.596 279.476 190.048 278.378 179.833 276.183C178.771 274.939 178.327 272.737 178.502 269.576C178.648 266.94 179.83 261.146 182.048 252.195C182.977 248.442 182.772 244.496 181.457 240.861L179.833 236.372L163.143 286.611C161.178 292.526 155.457 296.339 149.268 295.859L144.189 295.466C141.939 295.292 140.256 293.318 140.43 291.058C140.46 290.665 140.546 290.279 140.686 289.911L171.708 208.27C173.34 203.974 177.856 201.524 182.327 202.509L194.046 205.09C194.525 207.264 196.049 208.616 198.62 209.146C201.192 209.676 203.244 209.112 204.777 207.454L215.419 209.798C217.753 210.312 219.984 211.213 222.023 212.464Z" fill="white"/>
</mask>
<g mask="url(#mask9_3062_2725)">
<path d="M222.023 212.464L244.504 226.258L249.648 207.58C251.354 201.386 256.572 196.812 262.912 195.952L264.909 195.681C267.852 195.282 270.559 197.354 270.957 200.31C271.064 201.109 270.992 201.922 270.745 202.69L256.958 245.638C256.272 247.773 254.667 249.486 252.586 250.302C250.529 251.109 248.208 250.84 246.389 249.583L223.879 234.036C224.335 239.146 222.689 242.831 218.944 245.092L225.826 275.444C223.141 278.132 217.358 279.476 208.477 279.476C199.596 279.476 190.048 278.378 179.833 276.183C178.771 274.939 178.327 272.737 178.502 269.576C178.648 266.94 179.83 261.146 182.048 252.195C182.977 248.442 182.772 244.496 181.457 240.861L179.833 236.372L163.143 286.611C161.178 292.526 155.457 296.339 149.268 295.859L144.189 295.466C141.939 295.292 140.256 293.318 140.43 291.058C140.46 290.665 140.546 290.279 140.686 289.911L171.708 208.27C173.34 203.974 177.856 201.524 182.327 202.509L194.046 205.09C194.525 207.264 196.049 208.616 198.62 209.146C201.192 209.676 203.244 209.112 204.777 207.454L215.419 209.798C217.753 210.312 219.984 211.213 222.023 212.464Z" fill="#233984"/>
<path fill-rule="evenodd" clip-rule="evenodd" d="M182.306 229.382C168.893 265.778 160.604 286.264 157.439 290.84C154.274 295.415 151.775 298.08 149.942 298.834L157.823 296.559C159.878 295.376 162.162 291.559 164.675 285.107C167.187 278.655 170.193 269.302 173.692 257.049L182.306 229.382Z" fill="#172B70"/>
<path fill-rule="evenodd" clip-rule="evenodd" d="M183.692 203.114C186.185 210.451 189.09 216.706 192.407 221.878C195.127 226.12 199.236 228.918 204.732 230.274C207.095 230.856 209.585 230.1 211.231 228.3C213.227 226.117 214.66 223.976 215.529 221.878C216.748 218.935 216.889 214.793 215.952 209.449C205.841 206.516 198.465 204.661 193.826 203.886C189.187 203.111 185.809 202.854 183.692 203.114Z" fill="#F3F3F3"/>
<path fill-rule="evenodd" clip-rule="evenodd" d="M182.306 229.382C190.46 244.826 192.382 261.05 188.073 278.053L178.686 276.311C177.942 274.354 177.942 271.217 178.686 266.899C179.43 262.581 180.724 256.209 182.568 247.782L179.82 236.495L182.306 229.382Z" fill="#172B70"/>
<path fill-rule="evenodd" clip-rule="evenodd" d="M221.947 223.573C225.389 231.671 228.557 236.805 231.449 238.975L230.234 238.64L223.738 233.715C222.996 231.228 222.502 229.291 222.257 227.902C222.012 226.513 221.909 225.071 221.947 223.573Z" fill="#172B70"/>
<path d="M182.306 229.203L179.182 238.171" stroke="#0E0A1B" stroke-width="0.64" stroke-linecap="round"/>
<path d="M221.948 223.573C221.94 225.255 222.043 226.698 222.257 227.902C222.471 229.106 222.965 231.022 223.738 233.65" stroke="#0E0A1B" stroke-width="0.64" stroke-linecap="round"/>
<path fill-rule="evenodd" clip-rule="evenodd" d="M205.466 244.532C210.572 246.87 214.594 250.529 217.532 255.508C220.47 260.488 223.489 266.595 226.588 273.83L218.943 245.092C217.014 245.493 215.398 245.694 214.095 245.694C212.792 245.694 209.915 245.307 205.466 244.532Z" fill="#172B70"/>
<path d="M208.477 245.092C212.342 245.894 215.831 245.894 218.943 245.092" stroke="#0E0A1B" stroke-width="0.64" stroke-linecap="round"/>
<path fill-rule="evenodd" clip-rule="evenodd" d="M244.504 227.338C247.519 218.13 250.232 211.103 252.642 206.257C255.051 201.411 257.741 198.117 260.71 196.375C258.116 197.252 256.296 198.024 255.252 198.692C254.207 199.359 252.754 200.54 250.891 202.233L244.504 227.338Z" fill="#172B70"/>
<path d="M244.729 225.675L243.256 231.274" stroke="#0E0A1B" stroke-width="0.64" stroke-linecap="round"/>
</g>
<path fill-rule="evenodd" clip-rule="evenodd" d="M193.984 204.927C194.802 206.424 195.896 207.521 197.266 208.216C198.635 208.912 200.101 209.222 201.664 209.146L196.996 212.469C196.318 212.952 195.378 212.791 194.898 212.11C194.747 211.896 194.654 211.647 194.628 211.386L193.984 204.927Z" fill="#534FA0"/>
<path fill-rule="evenodd" clip-rule="evenodd" d="M201.663 209.146C202.95 208.578 203.908 207.999 204.536 207.409C205.164 206.819 205.88 205.825 206.683 204.428L209.232 210.215C209.472 210.76 209.227 211.398 208.684 211.639C208.418 211.757 208.116 211.762 207.846 211.653L201.663 209.146Z" fill="#534FA0"/>
<path d="M201.663 209.146L205.298 229.382" stroke="#534FA0" stroke-width="0.64"/>
<path d="M203.487 213.757C203.858 213.757 204.159 213.455 204.159 213.082C204.159 212.709 203.858 212.407 203.487 212.407C203.116 212.407 202.815 212.709 202.815 213.082C202.815 213.455 203.116 213.757 203.487 213.757Z" fill="#534FA0"/>
<path d="M204.562 220.021C204.933 220.021 205.234 219.718 205.234 219.346C205.234 218.973 204.933 218.671 204.562 218.671C204.191 218.671 203.89 218.973 203.89 219.346C203.89 219.718 204.191 220.021 204.562 220.021Z" fill="#534FA0"/>
<path d="M205.638 227.149C206.009 227.149 206.31 226.847 206.31 226.474C206.31 226.101 206.009 225.799 205.638 225.799C205.266 225.799 204.966 226.101 204.966 226.474C204.966 226.847 205.266 227.149 205.638 227.149Z" fill="#534FA0"/>
<path fill-rule="evenodd" clip-rule="evenodd" d="M258.048 101.038L306.212 90.442C312.763 89.0008 319.603 90.855 324.542 95.4116C329.497 99.9816 336.32 101.912 342.92 100.611L390.186 91.2968V150.591L343.113 161.454C336.446 162.992 329.457 161.036 324.542 156.256C319.617 151.465 312.64 149.453 305.935 150.891L258.048 161.155V101.038Z" fill="#19243D"/>
<path fill-rule="evenodd" clip-rule="evenodd" d="M258.472 100.191L306.635 89.5949C313.187 88.1536 320.026 90.0079 324.966 94.5644C329.92 99.1345 336.743 101.065 343.344 99.7642L390.609 90.4497V149.744L343.536 160.607C336.869 162.145 329.88 160.189 324.966 155.409C320.041 150.618 313.064 148.606 306.359 150.043L258.472 160.307V100.191Z" fill="#279F70"/>
<path d="M360.908 131.108C364.887 131.108 368.113 127.885 368.113 123.908C368.113 119.932 364.887 116.708 360.908 116.708C356.929 116.708 353.704 119.932 353.704 123.908C353.704 127.885 356.929 131.108 360.908 131.108Z" fill="white"/>
<path d="M287.17 131.108C291.149 131.108 294.374 127.885 294.374 123.908C294.374 119.932 291.149 116.708 287.17 116.708C283.191 116.708 279.966 119.932 279.966 123.908C279.966 127.885 283.191 131.108 287.17 131.108Z" fill="white"/>
<path fill-rule="evenodd" clip-rule="evenodd" d="M326.16 110.073L329.126 111.767L329.126 114.819L329.237 114.904C330.731 116.041 332.558 116.657 334.437 116.657H336.344V120.469H334.437C332.589 120.469 330.776 120.057 329.126 119.275L329.126 122.502L330.133 123.114C330.871 123.562 331.718 123.799 332.582 123.799C334.659 123.799 336.344 125.483 336.344 127.559V133.152C336.344 135.181 334.697 136.826 332.667 136.826C331.428 136.826 330.213 136.523 329.126 135.95L329.126 138.873L326.16 137.179L326.16 134.012C324.703 133.179 323.049 132.737 321.361 132.737H318.59V128.925H321.361C323.01 128.925 324.636 129.228 326.16 129.808L326.159 125.16L325.882 124.992C324.932 124.415 323.842 124.11 322.731 124.11C320.444 124.11 318.59 122.257 318.59 119.971V116.28C318.59 113.994 320.444 112.142 322.731 112.142C323.919 112.142 325.086 112.389 326.16 112.861L326.16 110.073ZM329.126 126.88L329.126 131.384L330.523 132.347C331.116 132.756 331.812 132.986 332.529 133.012V127.611C331.353 127.604 330.195 127.353 329.126 126.88ZM322.731 115.953C322.55 115.953 322.404 116.099 322.404 116.28V119.971C322.404 120.152 322.55 120.298 322.731 120.298C323.906 120.298 325.067 120.507 326.16 120.912L326.159 117.352L325.586 116.916C324.765 116.292 323.762 115.953 322.731 115.953Z" fill="white"/>
<path d="M380.614 146.779C382.37 146.779 383.793 145.357 383.793 143.602C383.793 141.848 382.37 140.426 380.614 140.426C378.859 140.426 377.436 141.848 377.436 143.602C377.436 145.357 378.859 146.779 380.614 146.779Z" stroke="white"/>
<path d="M382.733 102.732C384.489 102.732 385.912 101.31 385.912 99.5554C385.912 97.8011 384.489 96.3789 382.733 96.3789C380.978 96.3789 379.555 97.8011 379.555 99.5554C379.555 101.31 380.978 102.732 382.733 102.732Z" stroke="white"/>
<path d="M268.311 109.509C270.067 109.509 271.49 108.087 271.49 106.332C271.49 104.578 270.067 103.156 268.311 103.156C266.556 103.156 265.133 104.578 265.133 106.332C265.133 108.087 266.556 109.509 268.311 109.509Z" stroke="white"/>
<path d="M267.888 152.708C269.643 152.708 271.066 151.286 271.066 149.532C271.066 147.778 269.643 146.355 267.888 146.355C266.132 146.355 264.709 147.778 264.709 149.532C264.709 151.286 266.132 152.708 267.888 152.708Z" stroke="white"/>
<path fill-rule="evenodd" clip-rule="evenodd" d="M326.221 99.6118C330.908 103.728 337.232 105.429 343.34 104.215L374.47 98.0298L374.472 98.0726C374.584 103.472 378.999 107.815 384.428 107.815C384.974 107.815 385.509 107.771 386.03 107.687L386.03 135.341C385.049 135.067 384.014 134.921 382.945 134.921C376.626 134.921 371.503 140.04 371.503 146.356C371.503 147.197 371.594 148.017 371.766 148.806L343.495 155.306C337.334 156.722 330.874 155.003 326.221 150.708C321.547 146.395 315.109 144.573 308.881 145.801L277.818 151.925C277.364 145.741 271.574 140.85 264.498 140.85C264.037 140.85 263.582 140.871 263.133 140.911V114.53C263.582 114.57 264.037 114.591 264.498 114.591C271.87 114.591 277.847 109.282 277.847 102.732C277.847 102.275 277.818 101.823 277.761 101.379L309.107 95.0413C315.209 93.8076 321.535 95.497 326.221 99.6118Z" stroke="white"/>
<path fill-rule="evenodd" clip-rule="evenodd" d="M327.157 108.502L327.005 108.39C324.292 106.375 320.967 105.369 317.597 105.543L316.217 105.614C313.084 105.776 310.143 107.178 308.037 109.513C305.921 111.859 304.749 114.912 304.749 118.078V127.578C304.749 130.581 306.23 133.389 308.703 135.076C311.281 136.835 314.319 137.792 317.435 137.826L317.733 137.829C321.009 137.865 324.166 139.073 326.636 141.236L328.66 143.009C330.859 144.934 333.873 145.623 336.685 144.844L336.72 144.834C339.637 144.026 342.258 142.387 344.268 140.115C346.252 137.873 347.347 134.977 347.347 131.978V123.505C347.347 120.195 346.266 116.977 344.268 114.344L344.238 114.305C342.349 111.815 339.289 110.518 336.196 110.896C332.989 111.288 329.755 110.431 327.157 108.502Z" stroke="white"/>
<path d="M215.933 118.008C224.404 123.967 236.073 121.908 241.996 113.408C247.92 104.909 245.854 93.1876 237.384 87.2283C228.913 81.269 217.244 83.3282 211.321 91.8276C205.398 100.327 207.463 112.048 215.933 118.008Z" fill="#E3B400"/>
<path d="M237.116 91.1709L245.241 96.8859" stroke="white" stroke-width="0.8"/>
<path d="M237.78 94.9561L245.905 100.671" stroke="white" stroke-width="0.8"/>
<path d="M240.66 100.3L248.785 106.015" stroke="white" stroke-width="0.8"/>
<path d="M238.849 102.897L246.975 108.612" stroke="white" stroke-width="0.8"/>
<path d="M237.038 105.495L245.164 111.21" stroke="white" stroke-width="0.8"/>
<path d="M234.969 108.463L243.095 114.178" stroke="white" stroke-width="0.8"/>
<path d="M211.501 114.889C219.972 120.848 231.641 118.789 237.564 110.29C243.488 101.79 241.423 90.0696 232.952 84.1106C224.481 78.1516 212.812 80.2108 206.888 88.7101C200.965 97.2094 203.03 108.93 211.501 114.889Z" fill="#FFC935"/>
<path fill-rule="evenodd" clip-rule="evenodd" d="M224.78 104.137C224.239 104.912 223.523 105.337 222.63 105.41C221.738 105.484 220.751 105.21 219.67 104.587L218.625 106.087L217.616 105.377L218.641 103.907C217.46 103.04 216.556 102.091 215.928 101.06L217.274 99.1291C217.555 99.6393 217.94 100.186 218.429 100.77C218.918 101.354 219.388 101.827 219.839 102.188L221.42 99.9196L221.059 99.3823C220.352 98.3181 219.952 97.4204 219.858 96.6892C219.764 95.958 219.946 95.2632 220.405 94.6047C220.898 93.8975 221.582 93.5119 222.457 93.4478C223.332 93.3838 224.302 93.6535 225.366 94.257L226.146 93.1377L227.155 93.8474L226.395 94.9375C227.485 95.7771 228.345 96.7164 228.975 97.7552L227.089 98.9802C226.541 98.1293 225.888 97.3865 225.131 96.7519L223.627 98.9101C224.329 99.9493 224.789 100.746 225.007 101.299C225.225 101.852 225.317 102.356 225.281 102.811C225.246 103.266 225.079 103.708 224.78 104.137ZM222.487 102.687C222.629 102.482 222.667 102.251 222.598 101.992C222.53 101.733 222.382 101.41 222.153 101.024L220.884 102.846C221.629 103.204 222.164 103.151 222.487 102.687ZM222.621 96.164C222.472 96.3786 222.424 96.6081 222.476 96.8524C222.529 97.0968 222.672 97.4095 222.903 97.7907L224.102 96.0714C223.404 95.7186 222.91 95.7494 222.621 96.164Z" fill="white"/>
<path d="M214.27 111.312C220.598 115.764 229.314 114.226 233.739 107.877C238.164 101.528 236.621 92.772 230.294 88.3205C223.966 83.8689 215.25 85.4071 210.825 91.7561C206.4 98.1051 207.943 106.861 214.27 111.312Z" stroke="white" stroke-width="0.8"/>
<path d="M374.639 193.279C383.11 199.238 394.779 197.179 400.702 188.679C406.625 180.18 404.56 168.459 396.089 162.499C387.619 156.54 375.95 158.599 370.027 167.099C364.103 175.598 366.168 187.319 374.639 193.279Z" fill="#E3B400"/>
<path d="M395.821 166.441L403.947 172.156" stroke="white" stroke-width="0.8"/>
<path d="M396.485 170.227L404.611 175.942" stroke="white" stroke-width="0.8"/>
<path d="M399.365 175.57L407.491 181.285" stroke="white" stroke-width="0.8"/>
<path d="M397.555 178.168L405.681 183.883" stroke="white" stroke-width="0.8"/>
<path d="M395.744 180.765L403.87 186.48" stroke="white" stroke-width="0.8"/>
<path d="M393.675 183.734L401.801 189.449" stroke="white" stroke-width="0.8"/>
<path d="M370.206 190.16C378.677 196.119 390.346 194.06 396.27 185.56C402.194 177.061 400.129 165.34 391.658 159.381C383.187 153.422 371.518 155.482 365.594 163.981C359.671 172.48 361.736 184.201 370.206 190.16Z" fill="#FFC935"/>
<path fill-rule="evenodd" clip-rule="evenodd" d="M383.485 179.408C382.945 180.183 382.228 180.608 381.336 180.681C380.443 180.755 379.456 180.481 378.376 179.858L377.33 181.358L376.322 180.648L377.347 179.178C376.166 178.311 375.261 177.362 374.633 176.331L375.979 174.4C376.26 174.91 376.645 175.457 377.135 176.041C377.624 176.625 378.094 177.098 378.545 177.459L380.125 175.191L379.764 174.653C379.058 173.589 378.657 172.691 378.563 171.96C378.469 171.229 378.652 170.534 379.111 169.876C379.603 169.169 380.287 168.783 381.162 168.719C382.037 168.655 383.007 168.925 384.072 169.528L384.852 168.409L385.861 169.118L385.101 170.208C386.191 171.048 387.051 171.987 387.68 173.026L385.795 174.251C385.247 173.4 384.594 172.658 383.836 172.023L382.332 174.181C383.035 175.22 383.495 176.017 383.713 176.57C383.931 177.123 384.022 177.627 383.987 178.082C383.952 178.537 383.784 178.979 383.485 179.408ZM381.192 177.958C381.335 177.753 381.372 177.522 381.304 177.263C381.236 177.004 381.087 176.681 380.859 176.295L379.589 178.117C380.335 178.475 380.869 178.422 381.192 177.958ZM381.327 171.435C381.177 171.65 381.129 171.879 381.182 172.123C381.235 172.368 381.377 172.681 381.609 173.062L382.807 171.342C382.109 170.99 381.616 171.02 381.327 171.435Z" fill="white"/>
<path d="M372.976 186.583C379.304 191.035 388.02 189.496 392.445 183.147C396.869 176.798 395.327 168.043 388.999 163.591C382.672 159.14 373.955 160.678 369.531 167.027C365.106 173.376 366.649 182.131 372.976 186.583Z" stroke="white" stroke-width="0.8"/>
<path d="M254.012 88.3485C259.61 92.2864 267.32 90.9266 271.233 85.3112C275.146 79.6959 273.781 71.9514 268.184 68.0135C262.586 64.0756 254.876 65.4354 250.963 71.0508C247.05 76.6661 248.415 84.4106 254.012 88.3485Z" fill="#E3B400"/>
<path d="M267.595 70.6523L272.879 74.3691" stroke="white" stroke-width="0.8"/>
<path d="M268.133 72.813L273.417 76.5298" stroke="white" stroke-width="0.8"/>
<path d="M270.283 76.5928L275.567 80.3095" stroke="white" stroke-width="0.8"/>
<path d="M269.208 78.2129L274.492 81.9297" stroke="white" stroke-width="0.8"/>
<path d="M267.595 79.833L272.879 83.5498" stroke="white" stroke-width="0.8"/>
<path d="M266.52 81.9927L271.804 85.7094" stroke="white" stroke-width="0.8"/>
<path d="M250.786 86.188C256.384 90.1257 264.094 88.7659 268.007 83.1506C271.921 77.5354 270.556 69.7912 264.958 65.8535C259.361 61.9158 251.65 63.2757 247.737 68.8909C243.823 74.5061 245.188 82.2503 250.786 86.188Z" fill="#FFC935"/>
<path fill-rule="evenodd" clip-rule="evenodd" d="M259.701 78.9656C259.35 79.4698 258.883 79.7447 258.299 79.7903C257.716 79.8359 257.07 79.6545 256.361 79.2459L255.682 80.2211L255.02 79.7557L255.687 78.7995C254.912 78.2311 254.318 77.6101 253.905 76.9365L254.78 75.6806C254.965 76.014 255.218 76.3718 255.54 76.7538C255.861 77.1359 256.17 77.4452 256.466 77.6816L257.493 76.207L257.256 75.8557C256.791 75.1599 256.527 74.5735 256.463 74.0965C256.4 73.6194 256.518 73.1669 256.816 72.7387C257.137 72.2789 257.583 72.0292 258.155 71.9897C258.727 71.9503 259.362 72.1287 260.059 72.525L260.567 71.7972L261.228 72.2626L260.734 72.9714C261.449 73.5217 262.014 74.1364 262.428 74.8154L261.199 75.6092C260.838 75.053 260.409 74.5669 259.912 74.1511L258.934 75.5544C259.396 76.2339 259.699 76.7543 259.843 77.1156C259.987 77.4768 260.048 77.8057 260.026 78.1022C260.004 78.3987 259.896 78.6865 259.701 78.9656ZM258.198 78.0144C258.291 77.8812 258.315 77.7301 258.269 77.5612C258.224 77.3922 258.126 77.1815 257.976 76.9292L257.15 78.1137C257.639 78.3488 257.988 78.3157 258.198 78.0144ZM258.269 73.7613C258.172 73.9008 258.141 74.0503 258.176 74.2098C258.212 74.3692 258.305 74.5735 258.458 74.8227L259.237 73.7047C258.78 73.4729 258.457 73.4917 258.269 73.7613Z" fill="white"/>
<path d="M252.635 83.5362C256.772 86.4468 262.471 85.4417 265.363 81.2912C268.256 77.1408 267.247 71.4166 263.11 68.506C258.973 65.5954 253.274 66.6005 250.381 70.7509C247.489 74.9014 248.498 80.6256 252.635 83.5362Z" stroke="white" stroke-width="0.8"/>
<mask id="mask10_3062_2725" style="mask-type:alpha" maskUnits="userSpaceOnUse" x="442" y="443" width="23" height="16">
<path d="M446.088 443.028L442.696 456.863L461.038 458.926L464.109 443.028H446.088Z" fill="white"/>
</mask>
<g mask="url(#mask10_3062_2725)">
<path d="M446.088 443.028L442.696 456.863L461.038 458.926L464.109 443.028H446.088Z" fill="#EEB3AE"/>
<path fill-rule="evenodd" clip-rule="evenodd" d="M444.389 449.788L462.581 451.895L461.038 459.844L442.582 456.905L444.389 449.788Z" fill="#E4F1F1"/>
</g>
<mask id="mask11_3062_2725" style="mask-type:alpha" maskUnits="userSpaceOnUse" x="498" y="443" width="19" height="17">
<path d="M498.867 443.028L499.359 457.781L516.559 459.844L515.746 443.028H498.867Z" fill="white"/>
</mask>
<g mask="url(#mask11_3062_2725)">
<path d="M498.867 443.028L499.359 457.781L516.559 459.844L515.746 443.028H498.867Z" fill="#EEB3AE"/>
<path fill-rule="evenodd" clip-rule="evenodd" d="M499.125 451.436L516.109 449.951L516.559 458.531H499.296L499.125 451.436Z" fill="#E4F1F1"/>
</g>
<path fill-rule="evenodd" clip-rule="evenodd" d="M442.494 455.089L462.038 457.276L460.559 469.547H449.489L450.025 465.793L440.197 469.547H419.414C418.836 465.208 421.17 462.798 426.417 462.318C431.665 461.837 437.024 459.428 442.494 455.089Z" fill="black"/>
<path fill-rule="evenodd" clip-rule="evenodd" d="M499.067 457.306L517.313 456.466L518.001 460.223C526.667 458.599 531.622 461.707 532.867 469.547H499.117L499.067 457.306Z" fill="black"/>
<mask id="mask12_3062_2725" style="mask-type:alpha" maskUnits="userSpaceOnUse" x="442" y="221" width="78" height="226">
<path d="M455.452 221.751H517.375L519.023 444.602L494.364 446.29L485.244 255.643C485.216 255.059 484.736 254.6 484.154 254.6C483.567 254.6 483.077 255.052 483.029 255.641L467.29 446.897L442.971 444.602L455.452 221.751Z" fill="white"/>
</mask>
<g mask="url(#mask12_3062_2725)">
<path d="M455.452 221.751H517.375L519.023 444.602L494.364 446.29L485.244 255.643C485.216 255.059 484.736 254.6 484.154 254.6C483.567 254.6 483.077 255.052 483.029 255.641L467.29 446.897L442.971 444.602L455.452 221.751Z" fill="#191B43"/>
<path opacity="0.1" fill-rule="evenodd" clip-rule="evenodd" d="M442.947 444.602L455.453 221.751H482.464L477.503 223.122C468.189 225.695 461.493 233.875 460.778 243.552L445.928 444.602H442.947Z" fill="white"/>
</g>
<mask id="mask13_3062_2725" style="mask-type:alpha" maskUnits="userSpaceOnUse" x="426" y="157" width="99" height="100">
<path d="M520.297 256.703L505.635 256.382L504.234 229.227C494.893 230.757 487.407 231.522 481.777 231.522C476.147 231.522 470.63 230.757 465.226 229.227L461.318 256.382H448.341C447.079 256.382 446.056 255.354 446.056 254.087C446.056 253.949 446.068 253.811 446.093 253.676L451.921 221.521L440.965 226.33C436.868 228.128 432.084 227.073 429.114 223.717C426.133 220.349 425.609 215.453 427.808 211.525L454.776 163.359C456.884 159.593 460.853 157.266 465.153 157.274L510.912 157.36C515.281 157.368 518.817 160.932 518.808 165.321C518.807 165.8 518.763 166.278 518.677 166.749L515.508 197.538L517.571 222.862L523.948 252.25C524.378 254.231 523.128 256.188 521.155 256.62C520.873 256.681 520.585 256.709 520.297 256.703Z" fill="white"/>
</mask>
<g mask="url(#mask13_3062_2725)">
<path d="M520.297 256.703L505.635 256.382L504.234 229.227C494.893 230.757 487.407 231.522 481.777 231.522C476.147 231.522 470.63 230.757 465.226 229.227L461.318 256.382H448.341C447.079 256.382 446.056 255.354 446.056 254.087C446.056 253.949 446.068 253.811 446.093 253.676L451.921 221.521L440.965 226.33C436.868 228.128 432.084 227.073 429.114 223.717C426.133 220.349 425.609 215.453 427.808 211.525L454.776 163.359C456.884 159.593 460.853 157.266 465.153 157.274L510.912 157.36C515.281 157.368 518.817 160.932 518.808 165.321C518.807 165.8 518.763 166.278 518.677 166.749L515.508 197.538L517.571 222.862L523.948 252.25C524.378 254.231 523.128 256.188 521.155 256.62C520.873 256.681 520.585 256.709 520.297 256.703Z" fill="#7E83FF"/>
<path fill-rule="evenodd" clip-rule="evenodd" d="M477.456 152.698L463.955 238.07C473.492 239.482 486.981 238.397 504.421 234.817L502.923 154.392L477.456 152.698Z" fill="#F3F3F3"/>
<path fill-rule="evenodd" clip-rule="evenodd" d="M490.5 165.753C495.989 165.753 500.438 161.283 500.438 155.769C500.438 150.256 495.989 145.786 490.5 145.786C485.01 145.786 480.26 150.256 480.26 155.769C480.26 158.117 480.701 159.984 482.087 162.181C483.719 164.77 487.348 165.753 490.5 165.753Z" fill="#7E83FF"/>
<path fill-rule="evenodd" clip-rule="evenodd" d="M504.225 225.541C504.356 225.541 509.195 225.975 518.743 226.843L523.859 246.148C510.639 232.41 504.094 225.541 504.225 225.541Z" fill="#6166D4"/>
<path fill-rule="evenodd" clip-rule="evenodd" d="M507.293 237.586H520.088C520.466 237.586 520.773 237.894 520.773 238.275C520.773 238.655 520.466 238.963 520.088 238.963H507.293C506.914 238.963 506.608 238.655 506.608 238.275C506.608 237.894 506.914 237.586 507.293 237.586Z" fill="#191B43"/>
<path fill-rule="evenodd" clip-rule="evenodd" d="M467.674 214.576L451.921 221.522L448.936 234.648L467.674 214.576Z" fill="#6166D4"/>
<path fill-rule="evenodd" clip-rule="evenodd" d="M512.297 189.139L515.757 199.804L517.063 210.468H509.972L512.297 189.139Z" fill="#6166D4"/>
<path d="M454.48 201.255L435.571 208.44" stroke="#2A1B12" stroke-width="0.68"/>
</g>
<mask id="mask14_3062_2725" style="mask-type:alpha" maskUnits="userSpaceOnUse" x="490" y="160" width="52" height="69">
<path d="M517.593 160.997L540.04 210.691C541.773 214.526 542.072 218.859 540.884 222.897C539.815 226.529 536.326 228.883 532.575 228.503L490.099 224.201L492.869 210.218H521.181L515.701 199.606L512.93 191.625L517.593 160.997Z" fill="white"/>
</mask>
<g mask="url(#mask14_3062_2725)">
<path d="M517.593 160.997L540.04 210.691C541.773 214.526 542.072 218.859 540.884 222.897C539.815 226.529 536.326 228.883 532.575 228.503L490.099 224.201L492.869 210.218H521.181L515.701 199.606L512.93 191.625L517.593 160.997Z" fill="#7E83FF"/>
<path fill-rule="evenodd" clip-rule="evenodd" d="M521.181 210.217H530.404L512.93 192.292L515.701 199.605L521.181 210.217Z" fill="#6166D4"/>
<path d="M520.773 210.218H532.993" stroke="#2A1B12" stroke-width="0.68"/>
</g>
<path fill-rule="evenodd" clip-rule="evenodd" d="M476.601 127.449C472.488 125.833 470.626 122.783 471.015 118.298C471.599 111.571 483.403 108.611 495.124 118.03C497.582 116.717 499.812 116.806 501.816 118.298C504.821 120.535 502.735 135.437 498.93 142.572C496.393 147.328 488.95 142.287 476.601 127.449Z" fill="#191B43"/>
<mask id="mask15_3062_2725" style="mask-type:alpha" maskUnits="userSpaceOnUse" x="476" y="122" width="28" height="42">
<path d="M476.601 124.26V143.504C476.601 147.323 479.683 150.419 483.485 150.419L482.115 159.989C485.399 164.315 491.553 165.147 495.86 161.847C496.429 161.411 496.949 160.913 497.411 160.363L497.724 159.989L499.14 139.417C501.136 139.633 502.433 138.256 503.028 135.288C503.921 130.836 499.221 131.448 498.184 133.181C497.357 131.895 496.818 130.487 496.569 128.956C496.389 127.851 496.339 126.336 496.419 124.414L496.419 124.414C496.451 123.654 495.863 123.012 495.107 122.98C494.876 122.971 494.647 123.019 494.441 123.122C489.593 125.534 485.941 126.628 483.485 126.405C480.682 126.149 478.387 125.435 476.601 124.26Z" fill="white"/>
</mask>
<g mask="url(#mask15_3062_2725)">
<path d="M476.601 124.26V143.504C476.601 147.323 479.683 150.419 483.485 150.419L482.115 159.989C485.399 164.315 491.553 165.147 495.86 161.847C496.429 161.411 496.949 160.913 497.411 160.363L497.724 159.989L499.14 139.417C501.136 139.633 502.433 138.256 503.028 135.288C503.921 130.836 499.221 131.448 498.184 133.181C497.357 131.895 496.818 130.487 496.569 128.956C496.389 127.851 496.339 126.336 496.419 124.414L496.419 124.414C496.451 123.654 495.863 123.012 495.107 122.98C494.876 122.971 494.647 123.019 494.441 123.122C489.593 125.534 485.941 126.628 483.485 126.405C480.682 126.149 478.387 125.435 476.601 124.26Z" fill="#EEB3AE"/>
<path fill-rule="evenodd" clip-rule="evenodd" d="M482.743 150.347C486.84 150.769 490.844 149.113 494.757 145.377L481.903 160.207L482.743 150.347Z" fill="#B9817D"/>
</g>
<path d="M502.125 133.691L498.579 136.092C499.737 135.842 500.429 136.022 500.654 136.633" stroke="#8D6663" stroke-width="0.68" stroke-linecap="round"/>
<path d="M478.307 136.75C480.2 136.75 481.734 135.209 481.734 133.308C481.734 131.406 480.2 129.865 478.307 129.865C476.415 129.865 474.88 131.406 474.88 133.308C474.88 135.209 476.415 136.75 478.307 136.75Z" stroke="#191B43" stroke-width="1.36"/>
<path d="M482.956 131.548L481.583 139.238C481.471 139.862 481.884 140.458 482.505 140.57C482.622 140.591 482.742 140.594 482.86 140.578L485.465 140.224" stroke="#8D6663" stroke-width="0.68" stroke-linecap="round"/>
<path d="M487.218 136.75C489.111 136.75 490.645 135.209 490.645 133.308C490.645 131.406 489.111 129.865 487.218 129.865C485.325 129.865 483.791 131.406 483.791 133.308C483.791 135.209 485.325 136.75 487.218 136.75Z" stroke="#191B43" stroke-width="1.36"/>
<path d="M481.735 133.068C482.42 132.514 483.106 132.514 483.791 133.068" stroke="#191B43" stroke-width="1.36"/>
<path d="M490.645 132.861L498.694 132.109" stroke="#191B43" stroke-width="1.36"/>
<path fill-rule="evenodd" clip-rule="evenodd" d="M481.3 142.924C484.148 143.005 486.501 142.691 488.359 141.979C487.751 144.177 486.571 145.308 484.819 145.373C483.067 145.438 481.894 144.622 481.3 142.924Z" fill="white"/>
<path d="M476.141 129.301C477.144 128.089 478.615 127.598 480.556 127.83" stroke="#191B43" stroke-width="1.36" stroke-linecap="round"/>
<path d="M485.774 127.773C487.989 127.46 489.751 128.046 491.06 129.531" stroke="#191B43" stroke-width="1.36" stroke-linecap="round"/>
<path d="M487.218 134.226C487.597 134.226 487.904 133.917 487.904 133.537C487.904 133.157 487.597 132.849 487.218 132.849C486.84 132.849 486.533 133.157 486.533 133.537C486.533 133.917 486.84 134.226 487.218 134.226Z" fill="black"/>
<path d="M479.221 134.226C479.6 134.226 479.907 133.917 479.907 133.537C479.907 133.157 479.6 132.849 479.221 132.849C478.843 132.849 478.536 133.157 478.536 133.537C478.536 133.917 478.843 134.226 479.221 134.226Z" fill="black"/>
<path fill-rule="evenodd" clip-rule="evenodd" d="M461.124 186.686L456.201 200.747L451.5 202.672L461.124 186.686Z" fill="#6166D4"/>
<path fill-rule="evenodd" clip-rule="evenodd" d="M451.5 202.673L470.819 194.977L456.803 198.438L451.5 202.673Z" fill="#6166D4"/>
<path d="M511.405 174.933H457.941C456.932 174.933 456.113 175.755 456.113 176.769V213.259C456.113 214.273 456.932 215.095 457.941 215.095H511.405C512.415 215.095 513.233 214.273 513.233 213.259V176.769C513.233 175.755 512.415 174.933 511.405 174.933Z" fill="#694B8C"/>
<path opacity="0.2" d="M484.673 200.407C487.575 200.407 489.928 198.044 489.928 195.129C489.928 192.213 487.575 189.85 484.673 189.85C481.771 189.85 479.418 192.213 479.418 195.129C479.418 198.044 481.771 200.407 484.673 200.407Z" fill="white"/>
<path d="M511.52 214.865H457.827C457.259 214.865 456.799 215.328 456.799 215.898C456.799 216.469 457.259 216.931 457.827 216.931H511.52C512.087 216.931 512.548 216.469 512.548 215.898C512.548 215.328 512.087 214.865 511.52 214.865Z" fill="#191B43"/>
<path fill-rule="evenodd" clip-rule="evenodd" d="M481.434 221.98C480.205 220.193 479.99 216.174 480.789 209.924C480.868 209.309 481.389 208.848 482.007 208.848C482.606 208.848 483.098 209.323 483.122 209.925L483.381 216.558L483.647 208.438C483.672 207.675 484.295 207.069 485.055 207.069C485.815 207.069 486.437 207.675 486.46 208.438L486.706 216.558L487.3 208.033C487.351 207.293 487.964 206.719 488.704 206.719C489.438 206.719 490.043 207.298 490.077 208.035L490.47 216.558L490.873 207.974C490.906 207.271 491.483 206.719 492.183 206.719C492.898 206.719 493.499 207.254 493.585 207.967L494.832 218.299L499.714 216.329C500.622 215.962 501.657 216.129 502.406 216.762C502.841 217.131 502.897 217.784 502.53 218.221C502.439 218.329 502.327 218.418 502.201 218.481C499.473 219.843 497.267 221.193 495.583 222.528C492.632 224.869 483.381 224.812 481.434 221.98Z" fill="#EEB3AE"/>
</svg>
