<svg width="133" height="255" viewBox="0 0 133 255" fill="none" xmlns="http://www.w3.org/2000/svg">
<path fill-rule="evenodd" clip-rule="evenodd" d="M68.7466 254.183C65.3829 254.183 62.0192 253.443 59.4562 251.965L10.175 223.51C7.61447 222.032 6.20703 220.038 6.20703 217.898C6.20703 215.758 7.61447 213.764 10.175 212.286L59.4562 183.834C64.5722 180.876 72.9082 180.876 78.0343 183.834L127.316 212.289C129.876 213.764 131.284 215.758 131.284 217.901C131.284 220.041 129.876 222.035 127.316 223.51L78.0369 251.965C75.4738 253.443 72.1102 254.183 68.7466 254.183L68.7466 254.183ZM59.8896 251.218C64.7713 254.035 72.7223 254.038 77.6041 251.218L126.883 222.763C129.166 221.449 130.423 219.719 130.423 217.902C130.423 216.081 129.166 214.352 126.883 213.037L77.6015 184.582C72.7198 181.765 64.7713 181.768 59.8896 184.582L10.6083 213.035C8.32472 214.352 7.06839 216.079 7.06839 217.899C7.06839 219.719 8.32469 221.446 10.6083 222.763L59.8896 251.218Z" fill="#4AB0A6"/>
<path opacity="0.4" d="M132.817 206.98V190.104L129.73 188.387C128.857 193.656 122.656 197.128 117.469 197.851L82.1559 218.501L66.7452 224.065L17.5544 198.679L18.69 198.022C14.4879 196.058 12.222 191.567 9.9485 187.468L6.63773 189.444L4.66895 189.996V207.159C4.66895 209.347 6.11158 211.534 8.99683 213.199L58.2807 241.654C64.0488 244.984 73.4397 244.984 79.2078 241.654L128.492 213.201C131.329 211.562 132.769 209.417 132.817 207.264C132.819 207.169 132.814 207.073 132.812 206.977L132.817 206.98Z" fill="#7FE6E0"/>
<path d="M132.816 191.976V180.81L129.729 179.093C128.856 184.362 122.655 187.834 117.468 188.554L82.1549 209.204L66.7442 214.771L17.5535 189.385L18.689 188.728C14.4869 186.764 12.221 182.273 9.94752 178.174L6.63675 180.15L4.66797 180.702V192.155C4.66797 194.34 6.11061 196.53 8.99586 198.194L58.2797 226.649C64.0478 229.98 73.4388 229.98 79.2068 226.649L128.491 198.197C131.328 196.558 132.768 194.413 132.816 192.26C132.818 192.165 132.813 192.069 132.811 191.973L132.816 191.976Z" fill="#4AB0A6"/>
<path opacity="0.3" d="M117.469 188.554L82.1563 209.204L68.7446 214.048V229.147C72.5338 229.147 76.3254 228.314 79.2082 226.649L128.492 198.197C131.329 196.558 132.77 194.413 132.817 192.26C132.82 192.165 132.815 192.069 132.812 191.973L132.817 191.976V180.81L129.995 179.239H129.701C128.739 184.425 122.606 187.839 117.469 188.554L117.469 188.554Z" fill="#66CCFF"/>
<path d="M58.2797 215.306L8.99586 186.851C3.22534 183.52 3.22534 178.1 8.99586 174.769L58.2772 146.317C64.0478 142.986 73.4361 142.986 79.2068 146.317L128.488 174.769C134.259 178.1 134.259 183.523 128.488 186.854L79.2068 215.306C73.4387 218.637 64.0478 218.637 58.2797 215.306H58.2797Z" fill="#E7F5F5"/>
<path d="M128.492 186.854L79.208 215.307C73.4399 218.638 64.049 218.638 58.2809 215.307L8.99706 186.852C6.41896 185.364 4.99392 183.458 4.72201 181.507C4.3821 183.921 5.8046 186.401 8.99706 188.244L58.2809 216.697C64.049 220.028 73.4399 220.03 79.208 216.697L128.492 188.244C131.682 186.404 133.104 183.921 132.767 181.507C132.492 183.458 131.07 185.364 128.492 186.854V186.854Z" fill="white"/>
<path d="M88.1575 77.4771C84.1812 90.8112 77.4335 101.919 69.7639 109.104C62.084 116.298 53.5616 119.494 45.9814 117.234C38.4012 114.973 33.0214 107.631 30.5363 97.4057C28.0545 87.1936 28.4926 74.2045 32.469 60.8705C36.4453 47.5364 43.1929 36.4288 50.8625 29.244C58.5425 22.0495 67.0648 18.8534 74.645 21.1138C82.2252 23.3743 87.6051 30.7161 90.0902 40.9419C92.5719 51.154 92.1338 64.143 88.1575 77.4771Z" fill="url(#paint0_linear_5042_6325)" stroke="url(#paint1_linear_5042_6325)"/>
<path d="M77.7064 25.4447L57.9843 24.2512L61.1344 34.9031L57.8259 33.2467M35.0738 86.7604L29.3597 76.1072L35.2142 69.4702M35.0738 86.7604L40.7879 97.4136L33.0974 94.8457L35.0738 86.7604ZM38.1414 66.1517L46.9232 56.1963L50.8813 29.7699L57.8259 33.2467M38.1414 66.1517L42.5927 39.627L57.8259 33.2467M38.1414 66.1517L35.2142 69.4702M35.2142 69.4702L40.4981 85.6784L38.2174 110.232L47.7807 114.477" stroke="white" stroke-width="0.3"/>
<g filter="url(#filter0_d_5042_6325)">
<ellipse cx="71.3614" cy="73.124" rx="29.556" ry="50.6514" transform="rotate(16.6049 71.3614 73.124)" fill="url(#paint2_linear_5042_6325)"/>
<path d="M99.2057 81.4273C95.2294 94.7614 88.4817 105.869 80.8121 113.054C73.1322 120.248 64.6099 123.444 57.0296 121.184C49.4494 118.923 44.0696 111.582 41.5845 101.356C39.1027 91.1438 39.5409 78.1547 43.5172 64.8207C47.4935 51.4866 54.2411 40.379 61.9107 33.1942C69.5907 25.9997 78.113 22.8036 85.6932 25.064C93.2734 27.3245 98.6533 34.6663 101.138 44.8921C103.62 55.1041 103.182 68.0932 99.2057 81.4273Z" stroke="white"/>
</g>
<path d="M93.0301 79.5882C86.9125 100.103 72.2491 113.839 60.2784 110.27C48.3078 106.7 43.563 87.1757 49.6806 66.6611C55.7982 46.1465 70.4616 32.4099 82.4322 35.9797C94.4028 39.5494 99.1476 59.0736 93.0301 79.5882Z" fill="url(#paint3_linear_5042_6325)"/>
<path fill-rule="evenodd" clip-rule="evenodd" d="M76.5995 101.559C82.0307 96.4712 86.9546 88.447 89.8768 78.6478C92.799 68.8487 93.0742 59.4382 91.3168 52.2066C89.5373 44.8844 85.8905 40.4447 81.4919 39.1329C77.0932 37.8212 71.6104 39.5385 66.1111 44.6901C60.6799 49.778 55.756 57.8022 52.8339 67.6014C49.9117 77.4006 49.6364 86.811 51.3939 94.0426C53.1733 101.365 56.8201 105.805 61.2188 107.116C65.6175 108.428 71.1003 106.711 76.5995 101.559ZM60.2784 110.27C72.2491 113.839 86.9125 100.103 93.0301 79.5882C99.1476 59.0736 94.4028 39.5494 82.4322 35.9797C70.4616 32.4099 55.7982 46.1465 49.6806 66.6611C43.563 87.1757 48.3078 106.7 60.2784 110.27Z" fill="url(#paint4_linear_5042_6325)"/>
<g filter="url(#filter1_d_5042_6325)">
<path fill-rule="evenodd" clip-rule="evenodd" d="M68.6094 84.1213C68.8611 83.8855 69.1469 83.4509 69.3245 82.8554C69.5021 82.2599 69.501 81.7397 69.4195 81.4046C69.4061 81.3495 69.3924 81.3047 69.3794 81.2685C69.3486 81.2916 69.3126 81.3216 69.2712 81.3604C69.0196 81.5962 68.7337 82.0308 68.5561 82.6263C68.3785 83.2218 68.3797 83.742 68.4611 84.0771C68.4745 84.1322 68.4882 84.177 68.5012 84.2132C68.532 84.1901 68.568 84.1601 68.6094 84.1213ZM68.3644 84.2889C68.3644 84.2884 68.3689 84.2868 68.3778 84.286C68.3688 84.289 68.3644 84.2894 68.3644 84.2889ZM68.5647 84.3417C68.5716 84.3473 68.5746 84.351 68.5743 84.3515C68.574 84.352 68.5705 84.3492 68.5647 84.3417ZM69.5162 81.1928C69.5162 81.1933 69.5117 81.1949 69.5028 81.1957C69.5118 81.1927 69.5163 81.1923 69.5162 81.1928ZM69.316 81.14C69.309 81.1344 69.3061 81.1307 69.3063 81.1302C69.3066 81.1297 69.3101 81.1325 69.316 81.14ZM68.0994 85.5608C69.0082 85.8318 70.1214 84.789 70.5858 83.2315C71.0503 81.6741 70.69 80.1919 69.7812 79.9209C68.8725 79.6499 67.7592 80.6927 67.2948 82.2501C66.8304 83.8076 67.1906 85.2898 68.0994 85.5608Z" fill="#EDFFFA"/>
<path fill-rule="evenodd" clip-rule="evenodd" d="M77.3654 64.5369C77.3577 62.3082 77.2915 59.7493 77.2328 58.0732L78.5482 58.0272C78.6072 59.7117 78.6738 62.2854 78.6816 64.5323C78.6855 65.6548 78.6748 66.7032 78.6405 67.5208C78.6234 67.9287 78.6 68.2885 78.5684 68.5754C78.5526 68.7185 78.5338 68.8521 78.5106 68.9689C78.4897 69.0744 78.4571 69.2102 78.3985 69.3325C78.3284 69.479 78.1735 69.7153 77.9962 69.9747C77.8059 70.2531 77.553 70.6102 77.2543 71.0248C76.6564 71.8546 75.8661 72.9261 75.0058 74.0809C73.2849 76.3912 71.2774 79.0433 69.9539 80.7807L68.9069 79.9831C70.2287 78.248 72.2331 75.5999 73.9503 73.2946C74.8092 72.1417 75.5946 71.0767 76.1865 70.2554C76.4826 69.8443 76.7282 69.4972 76.9096 69.2319C77.0004 69.0991 77.0729 68.9899 77.1268 68.9052C77.1536 68.8629 77.1744 68.829 77.1897 68.8029C77.1966 68.791 77.2016 68.7821 77.2051 68.7759C77.2076 68.7668 77.2128 68.7469 77.2195 68.713C77.2327 68.6464 77.2466 68.5532 77.2601 68.4309C77.2871 68.1868 77.3089 67.8606 77.3254 67.4657C77.3585 66.6775 77.3693 65.6523 77.3654 64.5369Z" fill="#EDFFFA"/>
<path fill-rule="evenodd" clip-rule="evenodd" d="M78.5645 57.0236C78.8161 56.7879 79.102 56.3532 79.2796 55.7578C79.4572 55.1623 79.456 54.6421 79.3746 54.307C79.3612 54.2519 79.3475 54.207 79.3345 54.1708C79.3037 54.194 79.2677 54.224 79.2263 54.2628C78.9746 54.4985 78.6888 54.9332 78.5112 55.5286C78.3336 56.1241 78.3347 56.6443 78.4162 56.9794C78.4296 57.0345 78.4433 57.0793 78.4563 57.1156C78.4871 57.0924 78.5231 57.0624 78.5645 57.0236ZM78.3195 57.1912C78.3195 57.1907 78.324 57.1892 78.3329 57.1883C78.3239 57.1914 78.3194 57.1918 78.3195 57.1912ZM78.5197 57.2441C78.5267 57.2496 78.5296 57.2534 78.5294 57.2538C78.5291 57.2543 78.5256 57.2515 78.5197 57.2441ZM79.4713 54.0951C79.4713 54.0957 79.4668 54.0972 79.4579 54.098C79.4669 54.095 79.4713 54.0946 79.4713 54.0951ZM79.271 54.0423C79.2641 54.0367 79.2611 54.033 79.2614 54.0326C79.2617 54.0321 79.2652 54.0349 79.271 54.0423ZM78.0545 58.4632C78.9632 58.7342 80.0765 57.6913 80.5409 56.1339C81.0053 54.5765 80.6451 53.0942 79.7363 52.8232C78.8275 52.5522 77.7143 53.5951 77.2499 55.1525C76.7855 56.7099 77.1457 58.1922 78.0545 58.4632Z" fill="#EDFFFA"/>
</g>
<g filter="url(#filter2_d_5042_6325)">
<path fill-rule="evenodd" clip-rule="evenodd" d="M67.5762 70.8742C67.8279 70.6385 68.1137 70.2038 68.2913 69.6083C68.4689 69.0129 68.4677 68.4927 68.3863 68.1576C68.3729 68.1025 68.3592 68.0576 68.3462 68.0214C68.3154 68.0446 68.2794 68.0746 68.238 68.1133C67.9864 68.3491 67.7005 68.7837 67.5229 69.3792C67.3453 69.9747 67.3465 70.4949 67.4279 70.83C67.4413 70.8851 67.455 70.9299 67.468 70.9662C67.4988 70.943 67.5348 70.913 67.5762 70.8742ZM67.3312 71.0418C67.3312 71.0413 67.3357 71.0398 67.3446 71.0389C67.3356 71.0419 67.3312 71.0424 67.3312 71.0418ZM67.5315 71.0947C67.5384 71.1002 67.5414 71.1039 67.5411 71.1044C67.5408 71.1049 67.5373 71.1021 67.5315 71.0947ZM68.483 67.9457C68.483 67.9463 68.4785 67.9478 68.4696 67.9486C68.4786 67.9456 68.483 67.9452 68.483 67.9457ZM68.2828 67.8929C68.2758 67.8873 68.2729 67.8836 68.2731 67.8831C68.2734 67.8827 68.2769 67.8855 68.2828 67.8929ZM67.0662 72.3138C67.975 72.5848 69.0882 71.5419 69.5526 69.9845C70.017 68.4271 69.6568 66.9448 68.748 66.6738C67.8393 66.4028 66.726 67.4457 66.2616 69.0031C65.7972 70.5605 66.1574 72.0427 67.0662 72.3138Z" fill="#EDFFFA"/>
<path fill-rule="evenodd" clip-rule="evenodd" d="M59.793 87.2038C60.0447 86.968 60.3305 86.5334 60.5081 85.9379C60.6857 85.3425 60.6845 84.8223 60.6031 84.4871C60.5897 84.432 60.576 84.3872 60.563 84.351C60.5322 84.3742 60.4962 84.4042 60.4548 84.4429C60.2032 84.6787 59.9173 85.1133 59.7397 85.7088C59.5621 86.3043 59.5633 86.8245 59.6447 87.1596C59.6581 87.2147 59.6718 87.2595 59.6848 87.2957C59.7156 87.2726 59.7516 87.2426 59.793 87.2038ZM59.548 87.3714C59.548 87.3709 59.5525 87.3694 59.5614 87.3685C59.5524 87.3715 59.548 87.372 59.548 87.3714ZM59.7483 87.4242C59.7552 87.4298 59.7582 87.4335 59.7579 87.434C59.7576 87.4345 59.7541 87.4317 59.7483 87.4242ZM60.6998 84.2753C60.6998 84.2759 60.6953 84.2774 60.6864 84.2782C60.6954 84.2752 60.6998 84.2748 60.6998 84.2753ZM60.4996 84.2225C60.4926 84.2169 60.4897 84.2132 60.4899 84.2127C60.4902 84.2123 60.4937 84.2151 60.4996 84.2225ZM59.283 88.6433C60.1918 88.9143 61.305 87.8715 61.7694 86.3141C62.2338 84.7566 61.8736 83.2744 60.9648 83.0034C60.0561 82.7324 58.9428 83.7752 58.4784 85.3327C58.014 86.8901 58.3742 88.3723 59.283 88.6433Z" fill="#EDFFFA"/>
<path fill-rule="evenodd" clip-rule="evenodd" d="M66.4545 71.5661L67.4219 72.4586L61.1019 79.3091L61.1577 83.3453L59.8416 83.3635L59.7786 78.8024L66.4545 71.5661Z" fill="#EDFFFA"/>
</g>
<g filter="url(#filter3_d_5042_6325)">
<path fill-rule="evenodd" clip-rule="evenodd" d="M76.7163 47.0588C76.968 46.823 77.2539 46.3884 77.4314 45.7929C77.609 45.1974 77.6079 44.6772 77.5264 44.3421C77.5131 44.287 77.4994 44.2422 77.4863 44.206C77.4556 44.2291 77.4196 44.2591 77.3782 44.2979C77.1265 44.5337 76.8406 44.9683 76.6631 45.5638C76.4855 46.1593 76.4866 46.6795 76.568 47.0146C76.5814 47.0697 76.5951 47.1145 76.6082 47.1507C76.6389 47.1276 76.6749 47.0976 76.7163 47.0588ZM76.4713 47.2264C76.4714 47.2259 76.4758 47.2243 76.4847 47.2235C76.4757 47.2265 76.4713 47.2269 76.4713 47.2264ZM76.6716 47.2792C76.6786 47.2848 76.6815 47.2885 76.6812 47.289C76.6809 47.2895 76.6775 47.2867 76.6716 47.2792ZM77.6232 44.1303C77.6231 44.1308 77.6186 44.1324 77.6098 44.1332C77.6187 44.1302 77.6232 44.1298 77.6232 44.1303ZM77.4229 44.0775C77.4159 44.0719 77.413 44.0682 77.4133 44.0677C77.4135 44.0672 77.417 44.07 77.4229 44.0775ZM76.2063 48.4983C77.1151 48.7693 78.2283 47.7265 78.6927 46.169C79.1572 44.6116 78.797 43.1294 77.8882 42.8584C76.9794 42.5874 75.8662 43.6302 75.4017 45.1876C74.9373 46.7451 75.2975 48.2273 76.2063 48.4983Z" fill="#EDFFFA"/>
<path fill-rule="evenodd" clip-rule="evenodd" d="M68.8526 62.9987C69.1042 62.763 69.3901 62.3283 69.5677 61.7329C69.7452 61.1374 69.7441 60.6172 69.6627 60.2821C69.6493 60.227 69.6356 60.1821 69.6225 60.1459C69.5918 60.1691 69.5558 60.1991 69.5144 60.2378C69.2627 60.4736 68.9769 60.9083 68.7993 61.5037C68.6217 62.0992 68.6228 62.6194 68.7043 62.9545C68.7177 63.0096 68.7314 63.0544 68.7444 63.0907C68.7752 63.0675 68.8112 63.0375 68.8526 62.9987ZM68.6076 63.1663C68.6076 63.1658 68.6121 63.1643 68.621 63.1634C68.612 63.1665 68.6075 63.1669 68.6076 63.1663ZM68.8078 63.2192C68.8148 63.2247 68.8177 63.2285 68.8175 63.2289C68.8172 63.2294 68.8137 63.2266 68.8078 63.2192ZM69.7594 60.0702C69.7594 60.0708 69.7549 60.0723 69.746 60.0731C69.755 60.0701 69.7594 60.0697 69.7594 60.0702ZM69.5591 60.0174C69.5522 60.0118 69.5492 60.0081 69.5495 60.0077C69.5498 60.0072 69.5533 60.01 69.5591 60.0174ZM68.3425 64.4383C69.2513 64.7093 70.3645 63.6664 70.829 62.109C71.2934 60.5516 70.9332 59.0693 70.0244 58.7983C69.1156 58.5273 68.0024 59.5702 67.538 61.1276C67.0735 62.685 67.4338 64.1673 68.3425 64.4383Z" fill="#EDFFFA"/>
<path fill-rule="evenodd" clip-rule="evenodd" d="M75.6933 47.2361L76.6607 48.1286L70.3407 54.979L70.3965 59.0152L69.0804 59.0334L69.0174 54.4724L75.6933 47.2361Z" fill="#EDFFFA"/>
</g>
<path fill-rule="evenodd" clip-rule="evenodd" d="M83.3198 72.7917C83.5715 72.5559 83.8574 72.1213 84.035 71.5258C84.2125 70.9304 84.2114 70.4101 84.13 70.075C84.1166 70.0199 84.1029 69.9751 84.0898 69.9389C84.0591 69.962 84.0231 69.9921 83.9817 70.0308C83.73 70.2666 83.4441 70.7012 83.2666 71.2967C83.089 71.8922 83.0901 72.4124 83.1716 72.7475C83.1849 72.8026 83.1987 72.8474 83.2117 72.8836C83.2424 72.8605 83.2785 72.8305 83.3198 72.7917ZM83.0748 72.9593C83.0749 72.9588 83.0794 72.9573 83.0882 72.9564C83.0793 72.9594 83.0748 72.9598 83.0748 72.9593ZM83.2751 73.0121C83.2821 73.0177 83.285 73.0214 83.2847 73.0219C83.2845 73.0224 83.281 73.0196 83.2751 73.0121ZM84.2267 69.8632C84.2267 69.8638 84.2222 69.8653 84.2133 69.8661C84.2223 69.8631 84.2267 69.8627 84.2267 69.8632ZM84.0264 69.8104C84.0194 69.8048 84.0165 69.8011 84.0168 69.8006C84.0171 69.8002 84.0205 69.8029 84.0264 69.8104ZM82.8098 74.2312C83.7186 74.5022 84.8318 73.4594 85.2963 71.902C85.7607 70.3445 85.4005 68.8623 84.4917 68.5913C83.5829 68.3203 82.4697 69.3631 82.0053 70.9206C81.5408 72.478 81.901 73.9602 82.8098 74.2312Z" fill="#EDFFFA"/>
<path fill-rule="evenodd" clip-rule="evenodd" d="M75.4082 88.6096C75.6599 88.3738 75.9458 87.9392 76.1233 87.3437C76.3009 86.7482 76.2998 86.228 76.2183 85.8929C76.205 85.8378 76.1912 85.793 76.1782 85.7568C76.1475 85.7799 76.1114 85.8099 76.0701 85.8487C75.8184 86.0845 75.5325 86.5191 75.3549 87.1146C75.1774 87.71 75.1785 88.2302 75.2599 88.5654C75.2733 88.6205 75.287 88.6653 75.3001 88.7015C75.3308 88.6783 75.3668 88.6483 75.4082 88.6096ZM75.1632 88.7772C75.1633 88.7766 75.1677 88.7751 75.1766 88.7743C75.1676 88.7773 75.1632 88.7777 75.1632 88.7772ZM75.3635 88.83C75.3705 88.8356 75.3734 88.8393 75.3731 88.8398C75.3728 88.8402 75.3694 88.8374 75.3635 88.83ZM76.3151 85.6811C76.315 85.6816 76.3105 85.6831 76.3017 85.684C76.3106 85.681 76.3151 85.6805 76.3151 85.6811ZM76.1148 85.6283C76.1078 85.6227 76.1049 85.619 76.1052 85.6185C76.1054 85.618 76.1089 85.6208 76.1148 85.6283ZM74.8982 90.0491C75.807 90.3201 76.9202 89.2773 77.3846 87.7198C77.8491 86.1624 77.4889 84.6802 76.5801 84.4092C75.6713 84.1382 74.5581 85.181 74.0936 86.7384C73.6292 88.2959 73.9894 89.7781 74.8982 90.0491Z" fill="#EDFFFA"/>
<g filter="url(#filter4_d_5042_6325)">
<path fill-rule="evenodd" clip-rule="evenodd" d="M65.585 97.8913C65.8367 97.6555 66.1225 97.2209 66.3001 96.6254C66.4777 96.03 66.4765 95.5098 66.3951 95.1746C66.3817 95.1195 66.368 95.0747 66.355 95.0385C66.3242 95.0617 66.2882 95.0917 66.2468 95.1304C65.9951 95.3662 65.7093 95.8008 65.5317 96.3963C65.3541 96.9918 65.3553 97.512 65.4367 97.8471C65.4501 97.9022 65.4638 97.947 65.4768 97.9832C65.5076 97.9601 65.5436 97.9301 65.585 97.8913ZM65.34 98.0589C65.34 98.0584 65.3445 98.0569 65.3534 98.056C65.3444 98.059 65.34 98.0595 65.34 98.0589ZM65.5402 98.1117C65.5472 98.1173 65.5501 98.121 65.5499 98.1215C65.5496 98.122 65.5461 98.1192 65.5402 98.1117ZM66.4918 94.9628C66.4918 94.9634 66.4873 94.9649 66.4784 94.9657C66.4874 94.9627 66.4918 94.9623 66.4918 94.9628ZM66.2915 94.91C66.2846 94.9044 66.2816 94.9007 66.2819 94.9002C66.2822 94.8998 66.2857 94.9026 66.2915 94.91ZM65.075 99.3308C65.9837 99.6018 67.097 98.559 67.5614 97.0016C68.0258 95.4441 67.6656 93.9619 66.7568 93.6909C65.848 93.4199 64.7348 94.4627 64.2704 96.0202C63.806 97.5776 64.1662 99.0598 65.075 99.3308Z" fill="#EDFFFA"/>
</g>
<path fill-rule="evenodd" clip-rule="evenodd" d="M81.935 73.2917L82.9024 74.1842L76.5824 81.0347L76.6382 85.0709L75.3221 85.0891L75.2591 80.528L81.935 73.2917Z" fill="#EDFFFA"/>
<g filter="url(#filter5_d_5042_6325)">
<path fill-rule="evenodd" clip-rule="evenodd" d="M58.3468 73.6933C58.115 73.9487 57.8653 74.4051 57.7366 75.013C57.6079 75.6209 57.6512 76.1393 57.7596 76.4667C57.7774 76.5205 57.7947 76.5641 57.8106 76.5992C57.8394 76.5736 57.8728 76.5408 57.911 76.4988C58.1427 76.2434 58.3924 75.787 58.5211 75.1791C58.6498 74.5712 58.6065 74.0528 58.4981 73.7254C58.4803 73.6715 58.463 73.6279 58.4471 73.5929C58.4183 73.6185 58.3849 73.6513 58.3468 73.6933ZM58.5773 73.5064C58.5774 73.5069 58.573 73.5088 58.5642 73.5104C58.5729 73.5066 58.5773 73.5058 58.5773 73.5064ZM58.3735 73.47C58.3661 73.465 58.3628 73.4615 58.3631 73.461C58.3633 73.4605 58.367 73.463 58.3735 73.47ZM57.6804 76.6857C57.6803 76.6851 57.6847 76.6833 57.6935 76.6817C57.6848 76.6854 57.6804 76.6862 57.6804 76.6857ZM57.8843 76.7221C57.8916 76.7271 57.8949 76.7306 57.8946 76.731C57.8944 76.7315 57.8907 76.729 57.8843 76.7221ZM58.7384 72.2172C57.8106 72.0207 56.7856 73.1504 56.449 74.7404C56.1124 76.3303 56.5916 77.7785 57.5193 77.9749C58.4471 78.1713 59.4721 77.0417 59.8087 75.4517C60.1453 73.8617 59.6661 72.4136 58.7384 72.2172Z" fill="#EDFFFA"/>
<path fill-rule="evenodd" clip-rule="evenodd" d="M64.892 57.0991C64.6603 57.3545 64.4106 57.8108 64.2819 58.4188C64.1532 59.0267 64.1965 59.5451 64.3049 59.8725C64.3227 59.9263 64.34 59.9699 64.3559 60.0049C64.3847 59.9793 64.4181 59.9465 64.4562 59.9045C64.688 59.6491 64.9377 59.1927 65.0664 58.5848C65.1951 57.9769 65.1518 57.4585 65.0434 57.1311C65.0256 57.0773 65.0083 57.0337 64.9924 56.9987C64.9636 57.0242 64.9301 57.0571 64.892 57.0991ZM65.1226 56.9122C65.1227 56.9127 65.1183 56.9146 65.1095 56.9161C65.1182 56.9124 65.1226 56.9116 65.1226 56.9122ZM64.9187 56.8757C64.9114 56.8707 64.9081 56.8673 64.9084 56.8668C64.9086 56.8663 64.9123 56.8688 64.9187 56.8757ZM64.2256 60.0914C64.2256 60.0909 64.23 60.089 64.2388 60.0875C64.2301 60.0912 64.2257 60.092 64.2256 60.0914ZM64.4295 60.1279C64.4369 60.1328 64.4402 60.1363 64.4399 60.1368C64.4397 60.1373 64.436 60.1348 64.4295 60.1279ZM65.2836 55.6229C64.3559 55.4265 63.3309 56.5562 62.9943 58.1461C62.6576 59.7361 63.1369 61.1842 64.0646 61.3807C64.9924 61.5771 66.0174 60.4474 66.354 58.8575C66.6906 57.2675 66.2114 55.8193 65.2836 55.6229Z" fill="#EDFFFA"/>
<path fill-rule="evenodd" clip-rule="evenodd" d="M59.6484 73.2338L58.6118 72.4227L64.3555 65.0823L63.9727 61.0639L65.2829 60.9391L65.7156 65.4801L59.6484 73.2338Z" fill="#EDFFFA"/>
</g>
<ellipse rx="5.33344" ry="5.33002" transform="matrix(0.980681 -0.195612 -0.195612 -0.980681 58.0696 24.2316)" fill="url(#paint5_radial_5042_6325)"/>
<ellipse rx="5.33344" ry="5.33002" transform="matrix(0.980681 -0.195612 -0.195612 -0.980681 74.7176 25.5378)" fill="url(#paint6_radial_5042_6325)"/>
<ellipse rx="5.33344" ry="5.33002" transform="matrix(0.980681 -0.195612 -0.195612 -0.980681 50.0673 36.6955)" fill="url(#paint7_radial_5042_6325)"/>
<ellipse rx="5.33344" ry="5.33002" transform="matrix(0.980681 -0.195612 -0.195612 -0.980681 61.0219 34.8981)" fill="url(#paint8_radial_5042_6325)"/>
<ellipse rx="5.33344" ry="5.33002" transform="matrix(0.980681 -0.195612 -0.195612 -0.980681 78.0789 43.5021)" fill="url(#paint9_radial_5042_6325)"/>
<ellipse rx="19.5336" ry="19.5211" transform="matrix(0.980681 -0.195612 -0.195612 -0.980681 74.2571 36.8021)" fill="url(#paint10_radial_5042_6325)"/>
<ellipse rx="5.33344" ry="5.33002" transform="matrix(0.980681 -0.195612 -0.195612 -0.980681 61.1766 78.5934)" fill="url(#paint11_radial_5042_6325)"/>
<ellipse rx="5.33344" ry="5.33002" transform="matrix(0.980681 -0.195612 -0.195612 -0.980681 76.8416 80.2863)" fill="url(#paint12_radial_5042_6325)"/>
<ellipse rx="5.33344" ry="5.33002" transform="matrix(0.980681 -0.195612 -0.195612 -0.980681 77.8226 69.4772)" fill="url(#paint13_radial_5042_6325)"/>
<ellipse rx="5.33344" ry="5.33002" transform="matrix(0.980681 -0.195612 -0.195612 -0.980681 38.6443 66.0099)" fill="url(#paint14_radial_5042_6325)"/>
<ellipse rx="5.33344" ry="5.33002" transform="matrix(0.980681 -0.195612 -0.195612 -0.980681 42.5364 40.5148)" fill="url(#paint15_radial_5042_6325)"/>
<ellipse rx="5.33344" ry="5.33002" transform="matrix(0.980681 -0.195612 -0.195612 -0.980681 29.9295 76.8659)" fill="url(#paint16_radial_5042_6325)"/>
<ellipse rx="5.33344" ry="5.33002" transform="matrix(0.980681 -0.195612 -0.195612 -0.980681 40.2581 83.6432)" fill="url(#paint17_radial_5042_6325)"/>
<ellipse rx="5.33344" ry="5.33002" transform="matrix(0.980681 -0.195612 -0.195612 -0.980681 38.5125 110.886)" fill="url(#paint18_radial_5042_6325)"/>
<ellipse rx="5.33344" ry="5.33002" transform="matrix(0.980681 -0.195612 -0.195612 -0.980681 40.3147 97.0759)" fill="url(#paint19_radial_5042_6325)"/>
<ellipse rx="5.33344" ry="5.33002" transform="matrix(0.980681 -0.195612 -0.195612 -0.980681 49.6287 116.489)" fill="url(#paint20_radial_5042_6325)"/>
<ellipse cx="69.5" cy="175.5" rx="37.5" ry="17.5" fill="url(#paint21_radial_5042_6325)" fill-opacity="0.7"/>
<defs>
<filter id="filter0_d_5042_6325" x="36.547" y="20.8472" width="69.6289" height="104.553" filterUnits="userSpaceOnUse" color-interpolation-filters="sRGB">
<feFlood flood-opacity="0" result="BackgroundImageFix"/>
<feColorMatrix in="SourceAlpha" type="matrix" values="0 0 0 0 0 0 0 0 0 0 0 0 0 0 0 0 0 0 127 0" result="hardAlpha"/>
<feOffset/>
<feGaussianBlur stdDeviation="1.5"/>
<feColorMatrix type="matrix" values="0 0 0 0 0.501961 0 0 0 0 0.976471 0 0 0 0 0.834118 0 0 0 1 0"/>
<feBlend mode="normal" in2="BackgroundImageFix" result="effect1_dropShadow_5042_6325"/>
<feBlend mode="normal" in="SourceGraphic" in2="effect1_dropShadow_5042_6325" result="shape"/>
</filter>
<filter id="filter1_d_5042_6325" x="64.092" y="49.7803" width="19.6517" height="38.8232" filterUnits="userSpaceOnUse" color-interpolation-filters="sRGB">
<feFlood flood-opacity="0" result="BackgroundImageFix"/>
<feColorMatrix in="SourceAlpha" type="matrix" values="0 0 0 0 0 0 0 0 0 0 0 0 0 0 0 0 0 0 127 0" result="hardAlpha"/>
<feOffset/>
<feGaussianBlur stdDeviation="1.5"/>
<feColorMatrix type="matrix" values="0 0 0 0 0.501961 0 0 0 0 0.976471 0 0 0 0 0.919529 0 0 0 1 0"/>
<feBlend mode="normal" in2="BackgroundImageFix" result="effect1_dropShadow_5042_6325"/>
<feBlend mode="normal" in="SourceGraphic" in2="effect1_dropShadow_5042_6325" result="shape"/>
</filter>
<filter id="filter2_d_5042_6325" x="55.2756" y="63.6309" width="17.4799" height="28.0552" filterUnits="userSpaceOnUse" color-interpolation-filters="sRGB">
<feFlood flood-opacity="0" result="BackgroundImageFix"/>
<feColorMatrix in="SourceAlpha" type="matrix" values="0 0 0 0 0 0 0 0 0 0 0 0 0 0 0 0 0 0 127 0" result="hardAlpha"/>
<feOffset/>
<feGaussianBlur stdDeviation="1.5"/>
<feColorMatrix type="matrix" values="0 0 0 0 0.501961 0 0 0 0 0.827451 0 0 0 0 0.976471 0 0 0 1 0"/>
<feBlend mode="normal" in2="BackgroundImageFix" result="effect1_dropShadow_5042_6325"/>
<feBlend mode="normal" in="SourceGraphic" in2="effect1_dropShadow_5042_6325" result="shape"/>
</filter>
<filter id="filter3_d_5042_6325" x="64.3352" y="39.8154" width="17.5604" height="27.6655" filterUnits="userSpaceOnUse" color-interpolation-filters="sRGB">
<feFlood flood-opacity="0" result="BackgroundImageFix"/>
<feColorMatrix in="SourceAlpha" type="matrix" values="0 0 0 0 0 0 0 0 0 0 0 0 0 0 0 0 0 0 127 0" result="hardAlpha"/>
<feOffset/>
<feGaussianBlur stdDeviation="1.5"/>
<feColorMatrix type="matrix" values="0 0 0 0 0.501961 0 0 0 0 0.976471 0 0 0 0 0.862588 0 0 0 1 0"/>
<feBlend mode="normal" in2="BackgroundImageFix" result="effect1_dropShadow_5042_6325"/>
<feBlend mode="normal" in="SourceGraphic" in2="effect1_dropShadow_5042_6325" result="shape"/>
</filter>
<filter id="filter4_d_5042_6325" x="61.0676" y="90.6479" width="9.69666" height="11.7256" filterUnits="userSpaceOnUse" color-interpolation-filters="sRGB">
<feFlood flood-opacity="0" result="BackgroundImageFix"/>
<feColorMatrix in="SourceAlpha" type="matrix" values="0 0 0 0 0 0 0 0 0 0 0 0 0 0 0 0 0 0 127 0" result="hardAlpha"/>
<feOffset/>
<feGaussianBlur stdDeviation="1.5"/>
<feColorMatrix type="matrix" values="0 0 0 0 0.501961 0 0 0 0 0.827451 0 0 0 0 0.976471 0 0 0 1 0"/>
<feBlend mode="normal" in2="BackgroundImageFix" result="effect1_dropShadow_5042_6325"/>
<feBlend mode="normal" in="SourceGraphic" in2="effect1_dropShadow_5042_6325" result="shape"/>
</filter>
<filter id="filter5_d_5042_6325" x="53.3413" y="52.6006" width="16.1204" height="28.3965" filterUnits="userSpaceOnUse" color-interpolation-filters="sRGB">
<feFlood flood-opacity="0" result="BackgroundImageFix"/>
<feColorMatrix in="SourceAlpha" type="matrix" values="0 0 0 0 0 0 0 0 0 0 0 0 0 0 0 0 0 0 127 0" result="hardAlpha"/>
<feOffset/>
<feGaussianBlur stdDeviation="1.5"/>
<feColorMatrix type="matrix" values="0 0 0 0 0.501961 0 0 0 0 0.976471 0 0 0 0 0.862588 0 0 0 1 0"/>
<feBlend mode="normal" in2="BackgroundImageFix" result="effect1_dropShadow_5042_6325"/>
<feBlend mode="normal" in="SourceGraphic" in2="effect1_dropShadow_5042_6325" result="shape"/>
</filter>
<linearGradient id="paint0_linear_5042_6325" x1="74.7879" y1="20.6347" x2="45.8385" y2="117.713" gradientUnits="userSpaceOnUse">
<stop stop-color="#9DFAE4" stop-opacity="0.85"/>
<stop offset="1" stop-color="#ABF4E2" stop-opacity="0.2"/>
</linearGradient>
<linearGradient id="paint1_linear_5042_6325" x1="33.7073" y1="56.7776" x2="66.4393" y2="71.7836" gradientUnits="userSpaceOnUse">
<stop stop-color="#ABFFE6"/>
<stop offset="1" stop-color="#51F0E1"/>
</linearGradient>
<linearGradient id="paint2_linear_5042_6325" x1="78.6478" y1="122.444" x2="70.9827" y2="24.1003" gradientUnits="userSpaceOnUse">
<stop stop-color="#B1EEE8"/>
<stop offset="1" stop-color="white"/>
</linearGradient>
<linearGradient id="paint3_linear_5042_6325" x1="90.4941" y1="84.4192" x2="47.9051" y2="61.1245" gradientUnits="userSpaceOnUse">
<stop stop-color="#4AB0A6"/>
<stop offset="1" stop-color="#ABF4DE" stop-opacity="0"/>
</linearGradient>
<linearGradient id="paint4_linear_5042_6325" x1="95.4276" y1="78.3077" x2="73.9376" y2="63.1102" gradientUnits="userSpaceOnUse">
<stop stop-color="#EDFFFD"/>
<stop offset="0.237689" stop-color="#B0FFE7" stop-opacity="0.9"/>
<stop offset="0.677083" stop-color="white"/>
<stop offset="1" stop-color="#C3FFED" stop-opacity="0"/>
</linearGradient>
<radialGradient id="paint5_radial_5042_6325" cx="0" cy="0" r="1" gradientUnits="userSpaceOnUse" gradientTransform="translate(5.33344 5.33002) rotate(89.999) scale(4.63541 4.63838)">
<stop offset="0.0499999" stop-color="white" stop-opacity="0.77"/>
<stop offset="0.148958" stop-color="white" stop-opacity="0.9"/>
<stop offset="0.211458" stop-color="white" stop-opacity="0.85"/>
<stop offset="0.320833" stop-color="white" stop-opacity="0.66"/>
<stop offset="0.747917" stop-color="white" stop-opacity="0.12"/>
<stop offset="1" stop-color="#5CC7F7" stop-opacity="0"/>
</radialGradient>
<radialGradient id="paint6_radial_5042_6325" cx="0" cy="0" r="1" gradientUnits="userSpaceOnUse" gradientTransform="translate(5.33344 5.33002) rotate(89.999) scale(4.63541 4.63838)">
<stop offset="0.0499999" stop-color="white" stop-opacity="0.77"/>
<stop offset="0.148958" stop-color="white" stop-opacity="0.9"/>
<stop offset="0.211458" stop-color="white" stop-opacity="0.85"/>
<stop offset="0.320833" stop-color="white" stop-opacity="0.66"/>
<stop offset="0.747917" stop-color="white" stop-opacity="0.12"/>
<stop offset="1" stop-color="#5CC7F7" stop-opacity="0"/>
</radialGradient>
<radialGradient id="paint7_radial_5042_6325" cx="0" cy="0" r="1" gradientUnits="userSpaceOnUse" gradientTransform="translate(5.33344 5.33002) rotate(89.999) scale(4.63541 4.63838)">
<stop offset="0.0499999" stop-color="white" stop-opacity="0.77"/>
<stop offset="0.148958" stop-color="white" stop-opacity="0.9"/>
<stop offset="0.211458" stop-color="white" stop-opacity="0.85"/>
<stop offset="0.320833" stop-color="white" stop-opacity="0.66"/>
<stop offset="0.747917" stop-color="white" stop-opacity="0.12"/>
<stop offset="1" stop-color="#5CC7F7" stop-opacity="0"/>
</radialGradient>
<radialGradient id="paint8_radial_5042_6325" cx="0" cy="0" r="1" gradientUnits="userSpaceOnUse" gradientTransform="translate(5.33344 5.33002) rotate(89.999) scale(4.63541 4.63838)">
<stop offset="0.0499999" stop-color="white" stop-opacity="0.77"/>
<stop offset="0.148958" stop-color="white" stop-opacity="0.9"/>
<stop offset="0.211458" stop-color="white" stop-opacity="0.85"/>
<stop offset="0.320833" stop-color="white" stop-opacity="0.66"/>
<stop offset="0.747917" stop-color="white" stop-opacity="0.12"/>
<stop offset="1" stop-color="#5CC7F7" stop-opacity="0"/>
</radialGradient>
<radialGradient id="paint9_radial_5042_6325" cx="0" cy="0" r="1" gradientUnits="userSpaceOnUse" gradientTransform="translate(5.33344 5.33002) rotate(89.999) scale(4.63541 4.63838)">
<stop offset="0.0499999" stop-color="white" stop-opacity="0.77"/>
<stop offset="0.148958" stop-color="white" stop-opacity="0.9"/>
<stop offset="0.211458" stop-color="white" stop-opacity="0.85"/>
<stop offset="0.320833" stop-color="white" stop-opacity="0.66"/>
<stop offset="0.747917" stop-color="white" stop-opacity="0.12"/>
<stop offset="1" stop-color="#5CC7F7" stop-opacity="0"/>
</radialGradient>
<radialGradient id="paint10_radial_5042_6325" cx="0" cy="0" r="1" gradientUnits="userSpaceOnUse" gradientTransform="translate(19.5336 19.5211) rotate(89.9999) scale(12.6122 12.6203)">
<stop stop-color="white"/>
<stop offset="0.128125" stop-color="#B9F4E3" stop-opacity="0.45"/>
<stop offset="0.378125" stop-color="#76EAD5" stop-opacity="0.22"/>
<stop offset="1" stop-color="#5CF7D2" stop-opacity="0"/>
</radialGradient>
<radialGradient id="paint11_radial_5042_6325" cx="0" cy="0" r="1" gradientUnits="userSpaceOnUse" gradientTransform="translate(5.33344 5.33002) rotate(89.999) scale(4.63541 4.63838)">
<stop offset="0.0499999" stop-color="white" stop-opacity="0.77"/>
<stop offset="0.148958" stop-color="white" stop-opacity="0.9"/>
<stop offset="0.211458" stop-color="white" stop-opacity="0.85"/>
<stop offset="0.320833" stop-color="white" stop-opacity="0.66"/>
<stop offset="0.747917" stop-color="white" stop-opacity="0.12"/>
<stop offset="1" stop-color="#5CC7F7" stop-opacity="0"/>
</radialGradient>
<radialGradient id="paint12_radial_5042_6325" cx="0" cy="0" r="1" gradientUnits="userSpaceOnUse" gradientTransform="translate(5.33344 5.33002) rotate(89.999) scale(4.63541 4.63838)">
<stop offset="0.0499999" stop-color="white" stop-opacity="0.77"/>
<stop offset="0.148958" stop-color="white" stop-opacity="0.9"/>
<stop offset="0.211458" stop-color="white" stop-opacity="0.85"/>
<stop offset="0.320833" stop-color="white" stop-opacity="0.66"/>
<stop offset="0.747917" stop-color="white" stop-opacity="0.12"/>
<stop offset="1" stop-color="#5CC7F7" stop-opacity="0"/>
</radialGradient>
<radialGradient id="paint13_radial_5042_6325" cx="0" cy="0" r="1" gradientUnits="userSpaceOnUse" gradientTransform="translate(5.33344 5.33002) rotate(89.999) scale(4.63541 4.63838)">
<stop offset="0.0499999" stop-color="white" stop-opacity="0.77"/>
<stop offset="0.148958" stop-color="white" stop-opacity="0.9"/>
<stop offset="0.211458" stop-color="white" stop-opacity="0.85"/>
<stop offset="0.320833" stop-color="white" stop-opacity="0.66"/>
<stop offset="0.747917" stop-color="white" stop-opacity="0.12"/>
<stop offset="1" stop-color="#5CC7F7" stop-opacity="0"/>
</radialGradient>
<radialGradient id="paint14_radial_5042_6325" cx="0" cy="0" r="1" gradientUnits="userSpaceOnUse" gradientTransform="translate(5.33344 5.33002) rotate(89.999) scale(4.63541 4.63838)">
<stop offset="0.0499999" stop-color="white" stop-opacity="0.77"/>
<stop offset="0.148958" stop-color="white" stop-opacity="0.9"/>
<stop offset="0.211458" stop-color="white" stop-opacity="0.85"/>
<stop offset="0.320833" stop-color="white" stop-opacity="0.66"/>
<stop offset="0.747917" stop-color="white" stop-opacity="0.12"/>
<stop offset="1" stop-color="#5CC7F7" stop-opacity="0"/>
</radialGradient>
<radialGradient id="paint15_radial_5042_6325" cx="0" cy="0" r="1" gradientUnits="userSpaceOnUse" gradientTransform="translate(5.33344 5.33002) rotate(89.999) scale(4.63541 4.63838)">
<stop offset="0.0499999" stop-color="white" stop-opacity="0.77"/>
<stop offset="0.148958" stop-color="white" stop-opacity="0.9"/>
<stop offset="0.211458" stop-color="white" stop-opacity="0.85"/>
<stop offset="0.320833" stop-color="white" stop-opacity="0.66"/>
<stop offset="0.747917" stop-color="white" stop-opacity="0.12"/>
<stop offset="1" stop-color="#5CC7F7" stop-opacity="0"/>
</radialGradient>
<radialGradient id="paint16_radial_5042_6325" cx="0" cy="0" r="1" gradientUnits="userSpaceOnUse" gradientTransform="translate(5.33344 5.33002) rotate(89.999) scale(4.63541 4.63838)">
<stop offset="0.0499999" stop-color="white" stop-opacity="0.77"/>
<stop offset="0.148958" stop-color="white" stop-opacity="0.9"/>
<stop offset="0.211458" stop-color="white" stop-opacity="0.85"/>
<stop offset="0.320833" stop-color="white" stop-opacity="0.66"/>
<stop offset="0.747917" stop-color="white" stop-opacity="0.12"/>
<stop offset="1" stop-color="#5CC7F7" stop-opacity="0"/>
</radialGradient>
<radialGradient id="paint17_radial_5042_6325" cx="0" cy="0" r="1" gradientUnits="userSpaceOnUse" gradientTransform="translate(5.33344 5.33002) rotate(89.999) scale(4.63541 4.63838)">
<stop offset="0.0499999" stop-color="white" stop-opacity="0.77"/>
<stop offset="0.148958" stop-color="white" stop-opacity="0.9"/>
<stop offset="0.211458" stop-color="white" stop-opacity="0.85"/>
<stop offset="0.320833" stop-color="white" stop-opacity="0.66"/>
<stop offset="0.747917" stop-color="white" stop-opacity="0.12"/>
<stop offset="1" stop-color="#5CC7F7" stop-opacity="0"/>
</radialGradient>
<radialGradient id="paint18_radial_5042_6325" cx="0" cy="0" r="1" gradientUnits="userSpaceOnUse" gradientTransform="translate(5.33344 5.33002) rotate(89.999) scale(4.63541 4.63838)">
<stop offset="0.0499999" stop-color="white" stop-opacity="0.77"/>
<stop offset="0.148958" stop-color="white" stop-opacity="0.9"/>
<stop offset="0.211458" stop-color="white" stop-opacity="0.85"/>
<stop offset="0.320833" stop-color="white" stop-opacity="0.66"/>
<stop offset="0.747917" stop-color="white" stop-opacity="0.12"/>
<stop offset="1" stop-color="#5CC7F7" stop-opacity="0"/>
</radialGradient>
<radialGradient id="paint19_radial_5042_6325" cx="0" cy="0" r="1" gradientUnits="userSpaceOnUse" gradientTransform="translate(5.33344 5.33002) rotate(89.999) scale(4.63541 4.63838)">
<stop offset="0.0499999" stop-color="white" stop-opacity="0.77"/>
<stop offset="0.148958" stop-color="white" stop-opacity="0.9"/>
<stop offset="0.211458" stop-color="white" stop-opacity="0.85"/>
<stop offset="0.320833" stop-color="white" stop-opacity="0.66"/>
<stop offset="0.747917" stop-color="white" stop-opacity="0.12"/>
<stop offset="1" stop-color="#5CC7F7" stop-opacity="0"/>
</radialGradient>
<radialGradient id="paint20_radial_5042_6325" cx="0" cy="0" r="1" gradientUnits="userSpaceOnUse" gradientTransform="translate(5.33344 5.33002) rotate(89.999) scale(4.63541 4.63838)">
<stop offset="0.0499999" stop-color="white" stop-opacity="0.77"/>
<stop offset="0.148958" stop-color="white" stop-opacity="0.9"/>
<stop offset="0.211458" stop-color="white" stop-opacity="0.85"/>
<stop offset="0.320833" stop-color="white" stop-opacity="0.66"/>
<stop offset="0.747917" stop-color="white" stop-opacity="0.12"/>
<stop offset="1" stop-color="#5CC7F7" stop-opacity="0"/>
</radialGradient>
<radialGradient id="paint21_radial_5042_6325" cx="0" cy="0" r="1" gradientUnits="userSpaceOnUse" gradientTransform="translate(69.5 175.5) rotate(91.3972) scale(20.5061 43.9416)">
<stop stop-color="#82E7DD" stop-opacity="0.71"/>
<stop offset="1" stop-color="#CCF3EF" stop-opacity="0"/>
</radialGradient>
</defs>
</svg>
