<svg width="134" height="224" viewBox="0 0 134 224" fill="none" xmlns="http://www.w3.org/2000/svg">
<path fill-rule="evenodd" clip-rule="evenodd" d="M60.3331 223.529C57.3906 223.529 54.4479 222.882 52.2058 221.589L9.094 196.696C6.85405 195.403 5.6228 193.659 5.6228 191.787C5.6228 189.915 6.85405 188.17 9.094 186.877L52.2058 161.987C56.6813 159.399 63.9738 159.399 68.4581 161.987L111.57 186.88C113.81 188.17 115.041 189.915 115.041 191.789C115.041 193.661 113.81 195.405 111.57 196.696L68.4604 221.589C66.2182 222.882 63.2757 223.529 60.3331 223.529L60.3331 223.529ZM52.5849 220.935C56.8555 223.399 63.8111 223.402 68.0818 220.935L111.191 196.042C113.189 194.892 114.288 193.379 114.288 191.789C114.288 190.197 113.189 188.684 111.191 187.534L68.0795 162.641C63.8089 160.177 56.8555 160.179 52.5849 162.641L9.47307 187.532C7.47538 188.684 6.37633 190.194 6.37633 191.787C6.37633 193.379 7.47536 194.89 9.47307 196.042L52.5849 220.935Z" fill="#80D3F9"/>
<path opacity="0.4" d="M116.382 182.234V167.471L113.682 165.969C112.918 170.579 107.493 173.616 102.956 174.248L72.0636 192.313L58.5821 197.18L15.5495 174.973L16.5429 174.398C12.8669 172.68 10.8846 168.751 8.89571 165.165L5.99942 166.894L4.2771 167.376V182.391C4.2771 184.305 5.53914 186.219 8.06319 187.674L51.1773 212.567C56.2233 215.481 64.4386 215.481 69.4845 212.567L112.598 187.677C115.081 186.243 116.341 184.366 116.382 182.483C116.385 182.399 116.38 182.316 116.378 182.232L116.382 182.234Z" fill="#80D3F9"/>
<path d="M116.381 169.111V159.343L113.681 157.841C112.917 162.451 107.492 165.488 102.955 166.118L72.0626 184.183L58.5811 189.053L15.5485 166.845L16.5419 166.27C12.8659 164.552 10.8836 160.623 8.89474 157.037L5.99844 158.766L4.27612 159.248V169.267C4.27612 171.179 5.53816 173.095 8.06221 174.551L51.1763 199.444C56.2223 202.358 64.4376 202.358 69.4836 199.444L112.598 174.553C115.08 173.12 116.34 171.243 116.381 169.36C116.384 169.276 116.379 169.193 116.377 169.109L116.381 169.111Z" fill="#97ACC6"/>
<path opacity="0.3" d="M102.956 166.118L72.0637 184.182L60.3311 188.42V201.629C63.6458 201.629 66.9628 200.899 69.4847 199.444L112.599 174.553C115.081 173.119 116.341 171.243 116.383 169.36C116.385 169.276 116.38 169.192 116.378 169.109L116.383 169.111V159.343L113.914 157.968H113.656C112.815 162.505 107.449 165.492 102.956 166.118L102.956 166.118Z" fill="#66CCFF"/>
<path d="M51.1765 189.52L8.06246 164.627C3.01434 161.713 3.01434 156.971 8.06246 154.057L51.1743 129.167C56.2225 126.253 64.4356 126.253 69.4838 129.167L112.596 154.057C117.644 156.971 117.644 161.715 112.596 164.629L69.4838 189.52C64.4378 192.434 56.2225 192.434 51.1766 189.52H51.1765Z" fill="#E9F4FF"/>
<path d="M112.598 164.631L69.4845 189.521C64.4385 192.435 56.2232 192.435 51.1772 189.521L8.06314 164.629C5.80779 163.327 4.56115 161.66 4.32328 159.953C4.02592 162.065 5.27034 164.234 8.06314 165.847L51.1772 190.737C56.2232 193.651 64.4385 193.653 69.4845 190.737L112.598 165.847C115.389 164.237 116.633 162.065 116.338 159.953C116.098 161.66 114.854 163.327 112.598 164.631V164.631Z" fill="white"/>
<path d="M83.1086 72.4002C79.4233 84.7583 73.1701 95.051 66.0644 101.707C58.9485 108.374 51.0598 111.328 44.0491 109.237C37.0385 107.147 32.0562 100.354 29.7536 90.8794C27.4544 81.4183 27.8599 69.3817 31.5451 57.0237C35.2303 44.6657 41.4836 34.3729 48.5892 27.7164C55.7052 21.0503 63.5939 18.096 70.6046 20.1867C77.6152 22.2773 82.5974 29.0697 84.9 38.5446C87.1993 48.0056 86.7938 60.0422 83.1086 72.4002Z" fill="url(#paint0_linear_4346_6980)" stroke="url(#paint1_linear_4346_6980)"/>
<path d="M73.4535 24.1647L55.1675 23.0581L58.0883 32.9343L55.0207 31.3985M33.9255 81.0153L28.6274 71.1379L34.0556 64.9843M33.9255 81.0153L39.2235 90.8928L32.093 88.5119L33.9255 81.0153ZM36.7697 61.9074L44.9119 52.677L48.5818 28.175L55.0207 31.3985M36.7697 61.9074L40.8968 37.3142L55.0207 31.3985M36.7697 61.9074L34.0556 64.9843M34.0556 64.9843L38.9548 80.0122L36.8401 102.778L45.707 106.714" stroke="white" stroke-width="0.3"/>
<g filter="url(#filter0_d_4346_6980)">
<ellipse cx="67.5703" cy="68.3746" rx="27.4037" ry="46.9629" transform="rotate(16.6049 67.5703 68.3746)" fill="url(#paint2_linear_4346_6980)"/>
<path d="M93.352 76.0628C89.6667 88.4209 83.4135 98.7136 76.3079 105.37C69.1919 112.036 61.3032 114.99 54.2925 112.9C47.2819 110.809 42.2997 104.017 39.997 94.542C37.6978 85.0809 38.1033 73.0443 41.7885 60.6863C45.4738 48.3283 51.727 38.0355 58.8326 31.379C65.9486 24.7129 73.8373 21.7586 80.848 23.8493C87.8586 25.9399 92.8408 32.7323 95.1434 42.2071C97.4427 51.6682 97.0372 63.7048 93.352 76.0628Z" stroke="white"/>
</g>
<path d="M87.6613 74.3683C81.9892 93.389 68.3936 106.125 57.2946 102.815C46.1957 99.5057 41.7964 81.4033 47.4685 62.3826C53.1406 43.3618 66.7362 30.6256 77.8351 33.9354C88.9341 37.2451 93.3334 55.3476 87.6613 74.3683Z" fill="url(#paint3_linear_4346_6980)"/>
<path fill-rule="evenodd" clip-rule="evenodd" d="M72.4272 94.7393C77.4629 90.0219 82.0282 82.5821 84.7376 73.4964C87.447 64.4108 87.7022 55.6857 86.0727 48.9807C84.4228 42.1917 81.0417 38.0752 76.9633 36.859C72.8849 35.6428 67.8014 37.235 62.7026 42.0116C57.6669 46.7289 53.1016 54.1688 50.3922 63.2544C47.6828 72.34 47.4276 81.0652 49.0571 87.7702C50.7069 94.5592 54.0881 98.6756 58.1665 99.8918C62.2449 101.108 67.3284 99.5158 72.4272 94.7393ZM57.2946 102.815C68.3936 106.125 81.9892 93.389 87.6613 74.3683C93.3334 55.3476 88.9341 37.2451 77.8351 33.9354C66.7362 30.6256 53.1406 43.3618 47.4685 62.3826C41.7964 81.4033 46.1957 99.5057 57.2946 102.815Z" fill="url(#paint4_linear_4346_6980)"/>
<g filter="url(#filter1_d_4346_6980)">
<path fill-rule="evenodd" clip-rule="evenodd" d="M65.019 78.5702C65.2523 78.3516 65.5174 77.9486 65.682 77.3965C65.8467 76.8444 65.8456 76.3621 65.7701 76.0514C65.7577 76.0003 65.745 75.9587 65.7329 75.9251C65.7044 75.9466 65.671 75.9744 65.6326 76.0104C65.3993 76.229 65.1342 76.632 64.9696 77.1841C64.805 77.7362 64.806 78.2185 64.8815 78.5292C64.8939 78.5803 64.9066 78.6219 64.9187 78.6554C64.9472 78.634 64.9806 78.6062 65.019 78.5702ZM64.7918 78.7256C64.7919 78.7251 64.796 78.7237 64.8043 78.7229C64.7959 78.7257 64.7918 78.7261 64.7918 78.7256ZM64.9775 78.7746C64.984 78.7798 64.9867 78.7832 64.9864 78.7836C64.9862 78.7841 64.983 78.7815 64.9775 78.7746ZM65.8598 75.855C65.8598 75.8555 65.8556 75.8569 65.8474 75.8577C65.8557 75.8549 65.8598 75.8545 65.8598 75.855ZM65.6741 75.806C65.6676 75.8008 65.6649 75.7974 65.6652 75.7969C65.6654 75.7965 65.6687 75.7991 65.6741 75.806ZM64.5461 79.9049C65.3887 80.1562 66.4209 79.1893 66.8515 77.7453C67.2821 76.3012 66.9481 74.9269 66.1055 74.6757C65.2629 74.4244 64.2308 75.3913 63.8001 76.8353C63.3695 78.2793 63.7035 79.6536 64.5461 79.9049Z" fill="#EDF9FF"/>
<path fill-rule="evenodd" clip-rule="evenodd" d="M73.1372 60.413C73.1301 58.3466 73.0687 55.974 73.0143 54.42L74.2339 54.3773C74.2886 55.9392 74.3503 58.3254 74.3576 60.4088C74.3612 61.4495 74.3512 62.4215 74.3195 63.1796C74.3036 63.5578 74.282 63.8914 74.2526 64.1574C74.2379 64.2901 74.2205 64.414 74.199 64.5223C74.1797 64.6201 74.1495 64.746 74.0951 64.8594C74.0301 64.9952 73.8865 65.2143 73.7221 65.4548C73.5456 65.7129 73.3112 66.0441 73.0342 66.4285C72.4798 67.1978 71.7471 68.1913 70.9495 69.262C69.3538 71.404 67.4926 73.8631 66.2655 75.4739L65.2947 74.7344C66.5202 73.1257 68.3786 70.6704 69.9708 68.533C70.7671 67.4641 71.4954 66.4766 72.0441 65.715C72.3187 65.3339 72.5465 65.0121 72.7146 64.7661C72.7988 64.643 72.866 64.5417 72.916 64.4632C72.9409 64.424 72.9601 64.3925 72.9743 64.3683C72.9808 64.3573 72.9854 64.3491 72.9886 64.3433C72.9909 64.3348 72.9958 64.3164 73.002 64.285C73.0142 64.2233 73.0271 64.1369 73.0396 64.0234C73.0646 63.7971 73.0848 63.4947 73.1002 63.1285C73.1308 62.3978 73.1408 61.4471 73.1372 60.413Z" fill="#EDF9FF"/>
<path fill-rule="evenodd" clip-rule="evenodd" d="M74.249 53.4466C74.4823 53.228 74.7474 52.825 74.912 52.2729C75.0767 51.7208 75.0756 51.2384 75.0001 50.9277C74.9877 50.8766 74.975 50.8351 74.9629 50.8015C74.9344 50.823 74.901 50.8508 74.8626 50.8867C74.6293 51.1053 74.3642 51.5083 74.1996 52.0604C74.0349 52.6125 74.036 53.0949 74.1115 53.4056C74.1239 53.4566 74.1366 53.4982 74.1487 53.5318C74.1772 53.5103 74.2106 53.4825 74.249 53.4466ZM74.0218 53.602C74.0218 53.6014 74.026 53.6001 74.0342 53.5993C74.0259 53.6021 74.0218 53.6025 74.0218 53.602ZM74.2075 53.6509C74.214 53.6561 74.2167 53.6595 74.2164 53.66C74.2162 53.6604 74.2129 53.6578 74.2075 53.6509ZM75.0898 50.7313C75.0897 50.7318 75.0856 50.7332 75.0774 50.734C75.0857 50.7312 75.0898 50.7308 75.0898 50.7313ZM74.9041 50.6823C74.8976 50.6772 74.8949 50.6737 74.8952 50.6733C74.8954 50.6729 74.8986 50.6754 74.9041 50.6823ZM73.7761 54.7813C74.6187 55.0325 75.6509 54.0656 76.0815 52.6216C76.5121 51.1776 76.1781 49.8033 75.3355 49.552C74.4929 49.3007 73.4607 50.2677 73.0301 51.7117C72.5995 53.1557 72.9335 54.53 73.7761 54.7813Z" fill="#EDF9FF"/>
</g>
<g filter="url(#filter2_d_4346_6980)">
<path fill-rule="evenodd" clip-rule="evenodd" d="M64.061 66.2869C64.2943 66.0683 64.5594 65.6653 64.724 65.1132C64.8887 64.5611 64.8876 64.0788 64.8121 63.768C64.7997 63.717 64.787 63.6754 64.7749 63.6418C64.7464 63.6633 64.713 63.6911 64.6746 63.727C64.4413 63.9457 64.1762 64.3486 64.0116 64.9007C63.847 65.4529 63.848 65.9352 63.9235 66.2459C63.9359 66.297 63.9486 66.3385 63.9607 66.3721C63.9892 66.3506 64.0226 66.3228 64.061 66.2869ZM63.8338 66.4423C63.8339 66.4418 63.838 66.4404 63.8462 66.4396C63.8379 66.4424 63.8338 66.4428 63.8338 66.4423ZM64.0195 66.4913C64.026 66.4964 64.0287 66.4999 64.0284 66.5003C64.0282 66.5007 64.025 66.4982 64.0195 66.4913ZM64.9018 63.5717C64.9018 63.5722 64.8976 63.5735 64.8894 63.5743C64.8977 63.5715 64.9018 63.5711 64.9018 63.5717ZM64.7161 63.5227C64.7096 63.5175 64.7069 63.5141 64.7072 63.5136C64.7074 63.5132 64.7107 63.5158 64.7161 63.5227ZM63.5881 67.6216C64.4307 67.8729 65.4629 66.9059 65.8935 65.4619C66.3241 64.0179 65.9901 62.6436 65.1475 62.3923C64.3049 62.1411 63.2727 63.108 62.8421 64.552C62.4115 65.996 62.7455 67.3703 63.5881 67.6216Z" fill="#EDF9FF"/>
<path fill-rule="evenodd" clip-rule="evenodd" d="M56.8447 81.4281C57.078 81.2095 57.3431 80.8065 57.5077 80.2544C57.6724 79.7023 57.6713 79.22 57.5958 78.9093C57.5834 78.8582 57.5707 78.8166 57.5586 78.783C57.5301 78.8045 57.4967 78.8323 57.4583 78.8683C57.225 79.0869 56.9599 79.4899 56.7953 80.042C56.6306 80.5941 56.6317 81.0764 56.7072 81.3871C56.7196 81.4382 56.7323 81.4798 56.7444 81.5134C56.7729 81.4919 56.8063 81.4641 56.8447 81.4281ZM56.6175 81.5835C56.6175 81.583 56.6217 81.5816 56.6299 81.5808C56.6216 81.5836 56.6175 81.584 56.6175 81.5835ZM56.8032 81.6325C56.8097 81.6377 56.8124 81.6411 56.8121 81.6416C56.8119 81.642 56.8086 81.6394 56.8032 81.6325ZM57.6855 78.7129C57.6855 78.7134 57.6813 78.7148 57.6731 78.7156C57.6814 78.7128 57.6855 78.7124 57.6855 78.7129ZM57.4998 78.6639C57.4933 78.6587 57.4906 78.6553 57.4909 78.6549C57.4911 78.6544 57.4944 78.657 57.4998 78.6639ZM56.3718 82.7628C57.2144 83.0141 58.2466 82.0472 58.6772 80.6032C59.1078 79.1592 58.7738 77.7849 57.9312 77.5336C57.0886 77.2823 56.0564 78.2492 55.6258 79.6932C55.1952 81.1373 55.5292 82.5116 56.3718 82.7628Z" fill="#EDF9FF"/>
<path fill-rule="evenodd" clip-rule="evenodd" d="M63.0209 66.9281L63.9179 67.7556L58.0581 74.1072L58.1098 77.8495L56.8896 77.8664L56.8312 73.6374L63.0209 66.9281Z" fill="#EDF9FF"/>
</g>
<g filter="url(#filter3_d_4346_6980)">
<path fill-rule="evenodd" clip-rule="evenodd" d="M72.5358 44.2079C72.7692 43.9893 73.0342 43.5863 73.1989 43.0342C73.3635 42.4821 73.3625 41.9998 73.287 41.6891C73.2746 41.638 73.2618 41.5964 73.2498 41.5628C73.2213 41.5843 73.1879 41.6121 73.1495 41.6481C72.9161 41.8667 72.6511 42.2697 72.4864 42.8218C72.3218 43.3739 72.3228 43.8562 72.3984 44.1669C72.4108 44.218 72.4235 44.2596 72.4356 44.2931C72.4641 44.2717 72.4975 44.2438 72.5358 44.2079ZM72.3087 44.3633C72.3087 44.3628 72.3129 44.3614 72.3211 44.3606C72.3128 44.3634 72.3087 44.3638 72.3087 44.3633ZM72.4944 44.4123C72.5008 44.4175 72.5035 44.4209 72.5033 44.4213C72.503 44.4218 72.4998 44.4192 72.4944 44.4123ZM73.3766 41.4927C73.3766 41.4932 73.3724 41.4946 73.3642 41.4954C73.3725 41.4926 73.3767 41.4922 73.3766 41.4927ZM73.191 41.4437C73.1845 41.4385 73.1818 41.4351 73.182 41.4346C73.1823 41.4342 73.1855 41.4368 73.191 41.4437ZM72.063 45.5426C72.9056 45.7939 73.9377 44.827 74.3683 43.383C74.799 41.9389 74.465 40.5646 73.6224 40.3134C72.7797 40.0621 71.7476 41.029 71.317 42.473C70.8864 43.917 71.2204 45.2913 72.063 45.5426Z" fill="#EDF9FF"/>
<path fill-rule="evenodd" clip-rule="evenodd" d="M65.2448 58.9889C65.4782 58.7703 65.7432 58.3673 65.9079 57.8152C66.0725 57.2631 66.0715 56.7808 65.996 56.4701C65.9835 56.419 65.9708 56.3774 65.9587 56.3438C65.9302 56.3653 65.8968 56.3931 65.8585 56.4291C65.6251 56.6477 65.3601 57.0507 65.1954 57.6028C65.0308 58.1549 65.0318 58.6372 65.1073 58.9479C65.1198 58.999 65.1325 59.0406 65.1445 59.0741C65.1731 59.0527 65.2064 59.0249 65.2448 58.9889ZM65.0177 59.1443C65.0177 59.1438 65.0219 59.1424 65.0301 59.1416C65.0218 59.1444 65.0176 59.1448 65.0177 59.1443ZM65.2034 59.1933C65.2098 59.1985 65.2125 59.2019 65.2123 59.2023C65.212 59.2028 65.2088 59.2002 65.2034 59.1933ZM66.0856 56.2737C66.0856 56.2742 66.0814 56.2756 66.0732 56.2764C66.0815 56.2736 66.0856 56.2732 66.0856 56.2737ZM65.8999 56.2247C65.8935 56.2195 65.8908 56.2161 65.891 56.2156C65.8913 56.2152 65.8945 56.2178 65.8999 56.2247ZM64.7719 60.3236C65.6146 60.5749 66.6467 59.608 67.0773 58.164C67.5079 56.7199 67.1739 55.3456 66.3313 55.0944C65.4887 54.8431 64.4566 55.81 64.026 57.254C63.5954 58.698 63.9293 60.0723 64.7719 60.3236Z" fill="#EDF9FF"/>
<path fill-rule="evenodd" clip-rule="evenodd" d="M71.5878 44.3746L72.4848 45.2021L66.625 51.5537L66.6767 55.296L65.4565 55.3129L65.398 51.084L71.5878 44.3746Z" fill="#EDF9FF"/>
</g>
<path fill-rule="evenodd" clip-rule="evenodd" d="M78.6589 68.0654C78.8922 67.8468 79.1573 67.4439 79.3219 66.8918C79.4866 66.3396 79.4855 65.8573 79.41 65.5466C79.3976 65.4955 79.3849 65.454 79.3728 65.4204C79.3443 65.4419 79.3109 65.4697 79.2725 65.5056C79.0392 65.7242 78.7741 66.1272 78.6095 66.6793C78.4449 67.2314 78.4459 67.7137 78.5214 68.0245C78.5338 68.0755 78.5465 68.1171 78.5586 68.1507C78.5871 68.1292 78.6205 68.1014 78.6589 68.0654ZM78.4317 68.2208C78.4318 68.2203 78.4359 68.2189 78.4442 68.2182C78.4358 68.221 78.4317 68.2213 78.4317 68.2208ZM78.6174 68.2698C78.6239 68.275 78.6266 68.2784 78.6263 68.2789C78.6261 68.2793 78.6229 68.2767 78.6174 68.2698ZM79.4997 65.3502C79.4997 65.3507 79.4955 65.3521 79.4873 65.3529C79.4956 65.3501 79.4997 65.3497 79.4997 65.3502ZM79.314 65.3012C79.3075 65.2961 79.3048 65.2926 79.3051 65.2922C79.3053 65.2917 79.3086 65.2943 79.314 65.3012ZM78.186 69.4002C79.0286 69.6514 80.0608 68.6845 80.4914 67.2405C80.922 65.7965 80.588 64.4222 79.7454 64.1709C78.9028 63.9196 77.8706 64.8865 77.44 66.3306C77.0094 67.7746 77.3434 69.1489 78.186 69.4002Z" fill="#EDF9FF"/>
<path fill-rule="evenodd" clip-rule="evenodd" d="M71.3232 82.7331C71.5565 82.5145 71.8216 82.1115 71.9862 81.5594C72.1509 81.0073 72.1498 80.5249 72.0743 80.2142C72.0619 80.1631 72.0492 80.1216 72.0371 80.088C72.0086 80.1095 71.9752 80.1373 71.9368 80.1732C71.7035 80.3918 71.4384 80.7948 71.2738 81.3469C71.1092 81.899 71.1102 82.3813 71.1857 82.6921C71.1981 82.7431 71.2108 82.7847 71.2229 82.8183C71.2514 82.7968 71.2848 82.769 71.3232 82.7331ZM71.096 82.8884C71.0961 82.8879 71.1002 82.8866 71.1085 82.8858C71.1001 82.8886 71.096 82.889 71.096 82.8884ZM71.2817 82.9374C71.2882 82.9426 71.2909 82.946 71.2906 82.9465C71.2904 82.9469 71.2872 82.9443 71.2817 82.9374ZM72.164 80.0178C72.164 80.0183 72.1598 80.0197 72.1516 80.0205C72.1599 80.0177 72.164 80.0173 72.164 80.0178ZM71.9783 79.9688C71.9718 79.9637 71.9691 79.9602 71.9694 79.9598C71.9696 79.9594 71.9729 79.9619 71.9783 79.9688ZM70.8503 84.0678C71.6929 84.319 72.7251 83.3521 73.1557 81.9081C73.5863 80.4641 73.2523 79.0898 72.4097 78.8385C71.5671 78.5872 70.535 79.5542 70.1043 80.9982C69.6737 82.4422 70.0077 83.8165 70.8503 84.0678Z" fill="#EDF9FF"/>
<g filter="url(#filter4_d_4346_6980)">
<path fill-rule="evenodd" clip-rule="evenodd" d="M62.2153 91.34C62.4486 91.1214 62.7137 90.7184 62.8783 90.1663C63.043 89.6142 63.0419 89.1319 62.9664 88.8211C62.954 88.7701 62.9413 88.7285 62.9292 88.6949C62.9007 88.7164 62.8673 88.7442 62.8289 88.7801C62.5956 88.9988 62.3305 89.4017 62.1659 89.9538C62.0012 90.506 62.0023 90.9883 62.0778 91.299C62.0902 91.3501 62.1029 91.3916 62.115 91.4252C62.1435 91.4037 62.1769 91.3759 62.2153 91.34ZM61.9881 91.4954C61.9882 91.4949 61.9923 91.4935 62.0005 91.4927C61.9922 91.4955 61.9881 91.4959 61.9881 91.4954ZM62.1738 91.5444C62.1803 91.5495 62.183 91.553 62.1827 91.5534C62.1825 91.5538 62.1792 91.5513 62.1738 91.5444ZM63.0561 88.6248C63.0561 88.6253 63.0519 88.6266 63.0437 88.6274C63.052 88.6246 63.0561 88.6242 63.0561 88.6248ZM62.8704 88.5758C62.8639 88.5706 62.8612 88.5672 62.8615 88.5667C62.8617 88.5663 62.865 88.5689 62.8704 88.5758ZM61.7424 92.6747C62.585 92.926 63.6172 91.959 64.0478 90.515C64.4784 89.071 64.1444 87.6967 63.3018 87.4454C62.4592 87.1942 61.427 88.1611 60.9964 89.6051C60.5658 91.0491 60.8998 92.4234 61.7424 92.6747Z" fill="#EDF9FF"/>
</g>
<path fill-rule="evenodd" clip-rule="evenodd" d="M77.3747 68.5315L78.2716 69.359L72.4119 75.7106L72.4636 79.4529L71.2434 79.4698L71.1849 75.2408L77.3747 68.5315Z" fill="#EDF9FF"/>
<g filter="url(#filter5_d_4346_6980)">
<path fill-rule="evenodd" clip-rule="evenodd" d="M55.5033 68.9031C55.2885 69.1399 55.057 69.563 54.9376 70.1267C54.8183 70.6903 54.8584 71.171 54.9589 71.4745C54.9754 71.5244 54.9914 71.5648 55.0062 71.5973C55.0329 71.5736 55.0639 71.5432 55.0992 71.5042C55.3141 71.2674 55.5456 70.8443 55.6649 70.2806C55.7843 69.717 55.7441 69.2363 55.6437 68.9328C55.6271 68.8829 55.6111 68.8425 55.5963 68.81C55.5697 68.8337 55.5386 68.8641 55.5033 68.9031ZM55.7171 68.7298C55.7171 68.7303 55.7131 68.732 55.705 68.7334C55.713 68.73 55.7171 68.7293 55.7171 68.7298ZM55.5281 68.696C55.5212 68.6914 55.5182 68.6881 55.5184 68.6877C55.5187 68.6872 55.5221 68.6896 55.5281 68.696ZM54.8854 71.6775C54.8854 71.677 54.8895 71.6753 54.8976 71.6738C54.8895 71.6773 54.8855 71.678 54.8854 71.6775ZM55.0745 71.7113C55.0813 71.7159 55.0843 71.7191 55.0841 71.7196C55.0839 71.72 55.0805 71.7177 55.0745 71.7113ZM55.8664 67.5344C55.0062 67.3523 54.0558 68.3997 53.7437 69.8739C53.4316 71.3481 53.8759 72.6908 54.7362 72.8729C55.5964 73.055 56.5467 72.0076 56.8588 70.5334C57.1709 69.0592 56.7266 67.7165 55.8664 67.5344Z" fill="#EDF9FF"/>
<path fill-rule="evenodd" clip-rule="evenodd" d="M61.5722 53.5174C61.3573 53.7542 61.1258 54.1774 61.0065 54.741C60.8871 55.3047 60.9273 55.7853 61.0277 56.0889C61.0443 56.1388 61.0603 56.1792 61.0751 56.2117C61.1017 56.188 61.1328 56.1575 61.1681 56.1186C61.3829 55.8818 61.6144 55.4587 61.7338 54.895C61.8531 54.3314 61.813 53.8507 61.7125 53.5472C61.696 53.4972 61.68 53.4568 61.6652 53.4244C61.6385 53.4481 61.6075 53.4785 61.5722 53.5174ZM61.786 53.3441C61.786 53.3446 61.7819 53.3464 61.7738 53.3478C61.7819 53.3444 61.7859 53.3436 61.786 53.3441ZM61.5969 53.3104C61.5901 53.3057 61.5871 53.3025 61.5873 53.3021C61.5875 53.3016 61.5909 53.3039 61.5969 53.3104ZM60.9543 56.2919C60.9543 56.2914 60.9583 56.2897 60.9665 56.2882C60.9584 56.2917 60.9543 56.2924 60.9543 56.2919ZM61.1433 56.3257C61.1502 56.3303 61.1532 56.3335 61.153 56.334C61.1527 56.3344 61.1493 56.3321 61.1433 56.3257ZM61.9353 52.1488C61.075 51.9667 60.1247 53.0141 59.8126 54.4883C59.5005 55.9624 59.9448 57.3051 60.805 57.4873C61.6652 57.6694 62.6156 56.622 62.9277 55.1478C63.2398 53.6736 62.7955 52.3309 61.9353 52.1488Z" fill="#EDF9FF"/>
<path fill-rule="evenodd" clip-rule="evenodd" d="M56.7101 68.4774L55.7491 67.7253L61.0745 60.9195L60.7195 57.1937L61.9344 57.078L62.3355 61.2882L56.7101 68.4774Z" fill="#EDF9FF"/>
</g>
<ellipse rx="4.94506" ry="4.94188" transform="matrix(0.980681 -0.195612 -0.195612 -0.980681 55.2473 23.0404)" fill="url(#paint5_radial_4346_6980)"/>
<ellipse rx="4.94506" ry="4.94188" transform="matrix(0.980681 -0.195612 -0.195612 -0.980681 70.6826 24.256)" fill="url(#paint6_radial_4346_6980)"/>
<ellipse rx="4.94506" ry="4.94188" transform="matrix(0.980681 -0.195612 -0.195612 -0.980681 47.8277 34.5986)" fill="url(#paint7_radial_4346_6980)"/>
<ellipse rx="4.94506" ry="4.94188" transform="matrix(0.980681 -0.195612 -0.195612 -0.980681 57.9844 32.932)" fill="url(#paint8_radial_4346_6980)"/>
<ellipse rx="4.94506" ry="4.94188" transform="matrix(0.980681 -0.195612 -0.195612 -0.980681 73.7991 40.9137)" fill="url(#paint9_radial_4346_6980)"/>
<ellipse rx="18.1112" ry="18.0995" transform="matrix(0.980681 -0.195612 -0.195612 -0.980681 70.2559 34.6989)" fill="url(#paint10_radial_4346_6980)"/>
<ellipse rx="4.94506" ry="4.94188" transform="matrix(0.980681 -0.195612 -0.195612 -0.980681 58.1275 73.447)" fill="url(#paint11_radial_4346_6980)"/>
<ellipse rx="4.94506" ry="4.94188" transform="matrix(0.980681 -0.195612 -0.195612 -0.980681 72.6519 75.0171)" fill="url(#paint12_radial_4346_6980)"/>
<ellipse rx="4.94506" ry="4.94188" transform="matrix(0.980681 -0.195612 -0.195612 -0.980681 73.5615 64.9929)" fill="url(#paint13_radial_4346_6980)"/>
<ellipse rx="4.94506" ry="4.94188" transform="matrix(0.980681 -0.195612 -0.195612 -0.980681 37.2361 61.7826)" fill="url(#paint14_radial_4346_6980)"/>
<ellipse rx="4.94506" ry="4.94188" transform="matrix(0.980681 -0.195612 -0.195612 -0.980681 40.845 38.1431)" fill="url(#paint15_radial_4346_6980)"/>
<ellipse rx="4.94506" ry="4.94188" transform="matrix(0.980681 -0.195612 -0.195612 -0.980681 29.1563 71.8455)" fill="url(#paint16_radial_4346_6980)"/>
<ellipse rx="4.94506" ry="4.94188" transform="matrix(0.980681 -0.195612 -0.195612 -0.980681 38.7327 78.1291)" fill="url(#paint17_radial_4346_6980)"/>
<ellipse rx="4.94506" ry="4.94188" transform="matrix(0.980681 -0.195612 -0.195612 -0.980681 37.114 103.385)" fill="url(#paint18_radial_4346_6980)"/>
<ellipse rx="4.94506" ry="4.94188" transform="matrix(0.980681 -0.195612 -0.195612 -0.980681 38.7852 90.5859)" fill="url(#paint19_radial_4346_6980)"/>
<ellipse rx="4.94506" ry="4.94188" transform="matrix(0.980681 -0.195612 -0.195612 -0.980681 47.4207 108.581)" fill="url(#paint20_radial_4346_6980)"/>
<ellipse cx="60.133" cy="158.487" rx="29.9415" ry="12.9235" transform="rotate(-21.964 60.133 158.487)" fill="url(#paint21_radial_4346_6980)" fill-opacity="0.79"/>
<defs>
<filter id="filter0_d_4346_6980" x="35.0725" y="19.6863" width="64.9954" height="97.3765" filterUnits="userSpaceOnUse" color-interpolation-filters="sRGB">
<feFlood flood-opacity="0" result="BackgroundImageFix"/>
<feColorMatrix in="SourceAlpha" type="matrix" values="0 0 0 0 0 0 0 0 0 0 0 0 0 0 0 0 0 0 127 0" result="hardAlpha"/>
<feOffset/>
<feGaussianBlur stdDeviation="1.5"/>
<feColorMatrix type="matrix" values="0 0 0 0 0.501961 0 0 0 0 0.827451 0 0 0 0 0.976471 0 0 0 1 0"/>
<feBlend mode="normal" in2="BackgroundImageFix" result="effect1_dropShadow_4346_6980"/>
<feBlend mode="normal" in="SourceGraphic" in2="effect1_dropShadow_4346_6980" result="shape"/>
</filter>
<filter id="filter1_d_4346_6980" x="60.6121" y="46.5123" width="18.6575" height="36.4323" filterUnits="userSpaceOnUse" color-interpolation-filters="sRGB">
<feFlood flood-opacity="0" result="BackgroundImageFix"/>
<feColorMatrix in="SourceAlpha" type="matrix" values="0 0 0 0 0 0 0 0 0 0 0 0 0 0 0 0 0 0 127 0" result="hardAlpha"/>
<feOffset/>
<feGaussianBlur stdDeviation="1.5"/>
<feColorMatrix type="matrix" values="0 0 0 0 0.501961 0 0 0 0 0.827451 0 0 0 0 0.976471 0 0 0 1 0"/>
<feBlend mode="normal" in2="BackgroundImageFix" result="effect1_dropShadow_4346_6980"/>
<feBlend mode="normal" in="SourceGraphic" in2="effect1_dropShadow_4346_6980" result="shape"/>
</filter>
<filter id="filter2_d_4346_6980" x="52.4377" y="59.3527" width="16.6438" height="26.4498" filterUnits="userSpaceOnUse" color-interpolation-filters="sRGB">
<feFlood flood-opacity="0" result="BackgroundImageFix"/>
<feColorMatrix in="SourceAlpha" type="matrix" values="0 0 0 0 0 0 0 0 0 0 0 0 0 0 0 0 0 0 127 0" result="hardAlpha"/>
<feOffset/>
<feGaussianBlur stdDeviation="1.5"/>
<feColorMatrix type="matrix" values="0 0 0 0 0.501961 0 0 0 0 0.827451 0 0 0 0 0.976471 0 0 0 1 0"/>
<feBlend mode="normal" in2="BackgroundImageFix" result="effect1_dropShadow_4346_6980"/>
<feBlend mode="normal" in="SourceGraphic" in2="effect1_dropShadow_4346_6980" result="shape"/>
</filter>
<filter id="filter3_d_4346_6980" x="60.8379" y="37.2737" width="16.7185" height="26.0896" filterUnits="userSpaceOnUse" color-interpolation-filters="sRGB">
<feFlood flood-opacity="0" result="BackgroundImageFix"/>
<feColorMatrix in="SourceAlpha" type="matrix" values="0 0 0 0 0 0 0 0 0 0 0 0 0 0 0 0 0 0 127 0" result="hardAlpha"/>
<feOffset/>
<feGaussianBlur stdDeviation="1.5"/>
<feColorMatrix type="matrix" values="0 0 0 0 0.501961 0 0 0 0 0.827451 0 0 0 0 0.976471 0 0 0 1 0"/>
<feBlend mode="normal" in2="BackgroundImageFix" result="effect1_dropShadow_4346_6980"/>
<feBlend mode="normal" in="SourceGraphic" in2="effect1_dropShadow_4346_6980" result="shape"/>
</filter>
<filter id="filter4_d_4346_6980" x="57.8083" y="84.4058" width="9.42749" height="11.3086" filterUnits="userSpaceOnUse" color-interpolation-filters="sRGB">
<feFlood flood-opacity="0" result="BackgroundImageFix"/>
<feColorMatrix in="SourceAlpha" type="matrix" values="0 0 0 0 0 0 0 0 0 0 0 0 0 0 0 0 0 0 127 0" result="hardAlpha"/>
<feOffset/>
<feGaussianBlur stdDeviation="1.5"/>
<feColorMatrix type="matrix" values="0 0 0 0 0.501961 0 0 0 0 0.827451 0 0 0 0 0.976471 0 0 0 1 0"/>
<feBlend mode="normal" in2="BackgroundImageFix" result="effect1_dropShadow_4346_6980"/>
<feBlend mode="normal" in="SourceGraphic" in2="effect1_dropShadow_4346_6980" result="shape"/>
</filter>
<filter id="filter5_d_4346_6980" x="50.644" y="49.1282" width="15.3835" height="26.7653" filterUnits="userSpaceOnUse" color-interpolation-filters="sRGB">
<feFlood flood-opacity="0" result="BackgroundImageFix"/>
<feColorMatrix in="SourceAlpha" type="matrix" values="0 0 0 0 0 0 0 0 0 0 0 0 0 0 0 0 0 0 127 0" result="hardAlpha"/>
<feOffset/>
<feGaussianBlur stdDeviation="1.5"/>
<feColorMatrix type="matrix" values="0 0 0 0 0.501961 0 0 0 0 0.827451 0 0 0 0 0.976471 0 0 0 1 0"/>
<feBlend mode="normal" in2="BackgroundImageFix" result="effect1_dropShadow_4346_6980"/>
<feBlend mode="normal" in="SourceGraphic" in2="effect1_dropShadow_4346_6980" result="shape"/>
</filter>
<linearGradient id="paint0_linear_4346_6980" x1="70.7475" y1="19.7075" x2="43.9062" y2="109.716" gradientUnits="userSpaceOnUse">
<stop stop-color="#9DDDFA" stop-opacity="0.85"/>
<stop offset="1" stop-color="#ABD6F4" stop-opacity="0.2"/>
</linearGradient>
<linearGradient id="paint1_linear_4346_6980" x1="32.6584" y1="53.2184" x2="63.0068" y2="67.1317" gradientUnits="userSpaceOnUse">
<stop stop-color="#ABE5FF"/>
<stop offset="1" stop-color="#66CCFF" stop-opacity="0"/>
</linearGradient>
<linearGradient id="paint2_linear_4346_6980" x1="74.326" y1="114.103" x2="67.2191" y2="22.9208" gradientUnits="userSpaceOnUse">
<stop stop-color="#E8F6FF"/>
<stop offset="1" stop-color="white" stop-opacity="0"/>
</linearGradient>
<linearGradient id="paint3_linear_4346_6980" x1="85.31" y1="78.8475" x2="45.8223" y2="57.2492" gradientUnits="userSpaceOnUse">
<stop stop-color="#4C93C7"/>
<stop offset="1" stop-color="#ABD6F4" stop-opacity="0"/>
</linearGradient>
<linearGradient id="paint4_linear_4346_6980" x1="89.8842" y1="73.181" x2="69.9592" y2="59.0902" gradientUnits="userSpaceOnUse">
<stop stop-color="#9ACCE9"/>
<stop offset="0.237689" stop-color="#B0E6FF" stop-opacity="0.9"/>
<stop offset="0.677083" stop-color="white"/>
<stop offset="1" stop-color="#C3EBFF" stop-opacity="0"/>
</linearGradient>
<radialGradient id="paint5_radial_4346_6980" cx="0" cy="0" r="1" gradientUnits="userSpaceOnUse" gradientTransform="translate(4.94506 4.94188) rotate(89.999) scale(4.29785 4.30061)">
<stop offset="0.0499999" stop-color="white" stop-opacity="0.77"/>
<stop offset="0.148958" stop-color="white" stop-opacity="0.9"/>
<stop offset="0.211458" stop-color="white" stop-opacity="0.85"/>
<stop offset="0.320833" stop-color="white" stop-opacity="0.66"/>
<stop offset="0.747917" stop-color="white" stop-opacity="0.12"/>
<stop offset="1" stop-color="#5CC7F7" stop-opacity="0"/>
</radialGradient>
<radialGradient id="paint6_radial_4346_6980" cx="0" cy="0" r="1" gradientUnits="userSpaceOnUse" gradientTransform="translate(4.94506 4.94188) rotate(89.999) scale(4.29785 4.30061)">
<stop offset="0.0499999" stop-color="white" stop-opacity="0.77"/>
<stop offset="0.148958" stop-color="white" stop-opacity="0.9"/>
<stop offset="0.211458" stop-color="white" stop-opacity="0.85"/>
<stop offset="0.320833" stop-color="white" stop-opacity="0.66"/>
<stop offset="0.747917" stop-color="white" stop-opacity="0.12"/>
<stop offset="1" stop-color="#5CC7F7" stop-opacity="0"/>
</radialGradient>
<radialGradient id="paint7_radial_4346_6980" cx="0" cy="0" r="1" gradientUnits="userSpaceOnUse" gradientTransform="translate(4.94506 4.94188) rotate(89.999) scale(4.29785 4.30061)">
<stop offset="0.0499999" stop-color="white" stop-opacity="0.77"/>
<stop offset="0.148958" stop-color="white" stop-opacity="0.9"/>
<stop offset="0.211458" stop-color="white" stop-opacity="0.85"/>
<stop offset="0.320833" stop-color="white" stop-opacity="0.66"/>
<stop offset="0.747917" stop-color="white" stop-opacity="0.12"/>
<stop offset="1" stop-color="#5CC7F7" stop-opacity="0"/>
</radialGradient>
<radialGradient id="paint8_radial_4346_6980" cx="0" cy="0" r="1" gradientUnits="userSpaceOnUse" gradientTransform="translate(4.94506 4.94188) rotate(89.999) scale(4.29785 4.30061)">
<stop offset="0.0499999" stop-color="white" stop-opacity="0.77"/>
<stop offset="0.148958" stop-color="white" stop-opacity="0.9"/>
<stop offset="0.211458" stop-color="white" stop-opacity="0.85"/>
<stop offset="0.320833" stop-color="white" stop-opacity="0.66"/>
<stop offset="0.747917" stop-color="white" stop-opacity="0.12"/>
<stop offset="1" stop-color="#5CC7F7" stop-opacity="0"/>
</radialGradient>
<radialGradient id="paint9_radial_4346_6980" cx="0" cy="0" r="1" gradientUnits="userSpaceOnUse" gradientTransform="translate(4.94506 4.94188) rotate(89.999) scale(4.29785 4.30061)">
<stop offset="0.0499999" stop-color="white" stop-opacity="0.77"/>
<stop offset="0.148958" stop-color="white" stop-opacity="0.9"/>
<stop offset="0.211458" stop-color="white" stop-opacity="0.85"/>
<stop offset="0.320833" stop-color="white" stop-opacity="0.66"/>
<stop offset="0.747917" stop-color="white" stop-opacity="0.12"/>
<stop offset="1" stop-color="#5CC7F7" stop-opacity="0"/>
</radialGradient>
<radialGradient id="paint10_radial_4346_6980" cx="0" cy="0" r="1" gradientUnits="userSpaceOnUse" gradientTransform="translate(18.1112 18.0995) rotate(89.9999) scale(11.6938 11.7013)">
<stop stop-color="white"/>
<stop offset="0.128125" stop-color="#B9E1F4" stop-opacity="0.45"/>
<stop offset="0.378125" stop-color="#76C4EA" stop-opacity="0.22"/>
<stop offset="1" stop-color="#5CC7F7" stop-opacity="0"/>
</radialGradient>
<radialGradient id="paint11_radial_4346_6980" cx="0" cy="0" r="1" gradientUnits="userSpaceOnUse" gradientTransform="translate(4.94506 4.94188) rotate(89.999) scale(4.29785 4.30061)">
<stop offset="0.0499999" stop-color="white" stop-opacity="0.77"/>
<stop offset="0.148958" stop-color="white" stop-opacity="0.9"/>
<stop offset="0.211458" stop-color="white" stop-opacity="0.85"/>
<stop offset="0.320833" stop-color="white" stop-opacity="0.66"/>
<stop offset="0.747917" stop-color="white" stop-opacity="0.12"/>
<stop offset="1" stop-color="#5CC7F7" stop-opacity="0"/>
</radialGradient>
<radialGradient id="paint12_radial_4346_6980" cx="0" cy="0" r="1" gradientUnits="userSpaceOnUse" gradientTransform="translate(4.94506 4.94188) rotate(89.999) scale(4.29785 4.30061)">
<stop offset="0.0499999" stop-color="white" stop-opacity="0.77"/>
<stop offset="0.148958" stop-color="white" stop-opacity="0.9"/>
<stop offset="0.211458" stop-color="white" stop-opacity="0.85"/>
<stop offset="0.320833" stop-color="white" stop-opacity="0.66"/>
<stop offset="0.747917" stop-color="white" stop-opacity="0.12"/>
<stop offset="1" stop-color="#5CC7F7" stop-opacity="0"/>
</radialGradient>
<radialGradient id="paint13_radial_4346_6980" cx="0" cy="0" r="1" gradientUnits="userSpaceOnUse" gradientTransform="translate(4.94506 4.94188) rotate(89.999) scale(4.29785 4.30061)">
<stop offset="0.0499999" stop-color="white" stop-opacity="0.77"/>
<stop offset="0.148958" stop-color="white" stop-opacity="0.9"/>
<stop offset="0.211458" stop-color="white" stop-opacity="0.85"/>
<stop offset="0.320833" stop-color="white" stop-opacity="0.66"/>
<stop offset="0.747917" stop-color="white" stop-opacity="0.12"/>
<stop offset="1" stop-color="#5CC7F7" stop-opacity="0"/>
</radialGradient>
<radialGradient id="paint14_radial_4346_6980" cx="0" cy="0" r="1" gradientUnits="userSpaceOnUse" gradientTransform="translate(4.94506 4.94188) rotate(89.999) scale(4.29785 4.30061)">
<stop offset="0.0499999" stop-color="white" stop-opacity="0.77"/>
<stop offset="0.148958" stop-color="white" stop-opacity="0.9"/>
<stop offset="0.211458" stop-color="white" stop-opacity="0.85"/>
<stop offset="0.320833" stop-color="white" stop-opacity="0.66"/>
<stop offset="0.747917" stop-color="white" stop-opacity="0.12"/>
<stop offset="1" stop-color="#5CC7F7" stop-opacity="0"/>
</radialGradient>
<radialGradient id="paint15_radial_4346_6980" cx="0" cy="0" r="1" gradientUnits="userSpaceOnUse" gradientTransform="translate(4.94506 4.94188) rotate(89.999) scale(4.29785 4.30061)">
<stop offset="0.0499999" stop-color="white" stop-opacity="0.77"/>
<stop offset="0.148958" stop-color="white" stop-opacity="0.9"/>
<stop offset="0.211458" stop-color="white" stop-opacity="0.85"/>
<stop offset="0.320833" stop-color="white" stop-opacity="0.66"/>
<stop offset="0.747917" stop-color="white" stop-opacity="0.12"/>
<stop offset="1" stop-color="#5CC7F7" stop-opacity="0"/>
</radialGradient>
<radialGradient id="paint16_radial_4346_6980" cx="0" cy="0" r="1" gradientUnits="userSpaceOnUse" gradientTransform="translate(4.94506 4.94188) rotate(89.999) scale(4.29785 4.30061)">
<stop offset="0.0499999" stop-color="white" stop-opacity="0.77"/>
<stop offset="0.148958" stop-color="white" stop-opacity="0.9"/>
<stop offset="0.211458" stop-color="white" stop-opacity="0.85"/>
<stop offset="0.320833" stop-color="white" stop-opacity="0.66"/>
<stop offset="0.747917" stop-color="white" stop-opacity="0.12"/>
<stop offset="1" stop-color="#5CC7F7" stop-opacity="0"/>
</radialGradient>
<radialGradient id="paint17_radial_4346_6980" cx="0" cy="0" r="1" gradientUnits="userSpaceOnUse" gradientTransform="translate(4.94506 4.94188) rotate(89.999) scale(4.29785 4.30061)">
<stop offset="0.0499999" stop-color="white" stop-opacity="0.77"/>
<stop offset="0.148958" stop-color="white" stop-opacity="0.9"/>
<stop offset="0.211458" stop-color="white" stop-opacity="0.85"/>
<stop offset="0.320833" stop-color="white" stop-opacity="0.66"/>
<stop offset="0.747917" stop-color="white" stop-opacity="0.12"/>
<stop offset="1" stop-color="#5CC7F7" stop-opacity="0"/>
</radialGradient>
<radialGradient id="paint18_radial_4346_6980" cx="0" cy="0" r="1" gradientUnits="userSpaceOnUse" gradientTransform="translate(4.94506 4.94188) rotate(89.999) scale(4.29785 4.30061)">
<stop offset="0.0499999" stop-color="white" stop-opacity="0.77"/>
<stop offset="0.148958" stop-color="white" stop-opacity="0.9"/>
<stop offset="0.211458" stop-color="white" stop-opacity="0.85"/>
<stop offset="0.320833" stop-color="white" stop-opacity="0.66"/>
<stop offset="0.747917" stop-color="white" stop-opacity="0.12"/>
<stop offset="1" stop-color="#5CC7F7" stop-opacity="0"/>
</radialGradient>
<radialGradient id="paint19_radial_4346_6980" cx="0" cy="0" r="1" gradientUnits="userSpaceOnUse" gradientTransform="translate(4.94506 4.94188) rotate(89.999) scale(4.29785 4.30061)">
<stop offset="0.0499999" stop-color="white" stop-opacity="0.77"/>
<stop offset="0.148958" stop-color="white" stop-opacity="0.9"/>
<stop offset="0.211458" stop-color="white" stop-opacity="0.85"/>
<stop offset="0.320833" stop-color="white" stop-opacity="0.66"/>
<stop offset="0.747917" stop-color="white" stop-opacity="0.12"/>
<stop offset="1" stop-color="#5CC7F7" stop-opacity="0"/>
</radialGradient>
<radialGradient id="paint20_radial_4346_6980" cx="0" cy="0" r="1" gradientUnits="userSpaceOnUse" gradientTransform="translate(4.94506 4.94188) rotate(89.999) scale(4.29785 4.30061)">
<stop offset="0.0499999" stop-color="white" stop-opacity="0.77"/>
<stop offset="0.148958" stop-color="white" stop-opacity="0.9"/>
<stop offset="0.211458" stop-color="white" stop-opacity="0.85"/>
<stop offset="0.320833" stop-color="white" stop-opacity="0.66"/>
<stop offset="0.747917" stop-color="white" stop-opacity="0.12"/>
<stop offset="1" stop-color="#5CC7F7" stop-opacity="0"/>
</radialGradient>
<radialGradient id="paint21_radial_4346_6980" cx="0" cy="0" r="1" gradientUnits="userSpaceOnUse" gradientTransform="translate(60.133 158.487) rotate(93.1138) scale(11.6239 27.0078)">
<stop stop-color="#93D2F1" stop-opacity="0.43"/>
<stop offset="1" stop-color="#3FBFFF" stop-opacity="0"/>
</radialGradient>
</defs>
</svg>
