<svg width="20" height="20" viewBox="0 0 20 20" fill="none" xmlns="http://www.w3.org/2000/svg">
<path d="M12.9194 6.35844L6.18411 13.0937C5.98874 13.2891 5.98866 13.6055 6.18411 13.8008L12.9194 6.35844ZM12.9194 6.35844H12.9191L13.0901 6.18773L13.0902 6.18768C13.2856 5.99255 13.6018 5.99258 13.7973 6.18765L13.7973 6.18768C13.9928 6.38292 13.9928 6.69939 13.7974 6.89478L6.89138 13.8008L6.89128 13.8009C6.79361 13.8983 6.66568 13.9471 6.53775 13.9471C6.40994 13.9471 6.28184 13.8985 6.18416 13.8008L12.9194 6.35844ZM15.3213 4.32728V4.32219L15.492 4.4929C18.5254 7.52624 18.5254 12.4621 15.492 15.4955C14.0227 16.9649 12.0687 17.7742 9.99074 17.7742C7.91279 17.7742 5.95878 16.9649 4.48946 15.4956C1.45612 12.4622 1.45612 7.52633 4.48945 4.49299L15.3213 4.32728ZM15.3213 4.32728C13.873 2.96285 11.9892 2.21427 9.99074 2.21427C7.91279 2.21427 5.95878 3.02357 4.48946 4.49299L15.3213 4.32728ZM5.19667 5.19985C6.47746 3.91948 8.17992 3.21427 9.99083 3.21427C11.8017 3.21427 13.5043 3.91937 14.785 5.20004C17.418 7.83332 17.4283 12.1117 14.8156 14.7578L14.785 14.7884C13.5042 16.069 11.8017 16.7742 9.99083 16.7742C8.17992 16.7742 6.47735 16.0691 5.19668 14.7884C2.55336 12.1448 2.55334 7.84337 5.19667 5.19985ZM5.19667 5.19985L5.12597 5.12913L5.19667 5.19985ZM12.983 11.1621L12.9831 11.1621C13.4859 11.6652 13.486 12.4835 12.983 12.9864L12.983 11.1621ZM12.983 11.1621C12.7394 10.9187 12.4154 10.7843 12.0709 10.7843C11.7264 10.7843 11.4023 10.9185 11.1587 11.162C10.9152 11.4055 10.7808 11.7297 10.7808 12.0743C10.7808 12.4189 10.915 12.7429 11.1587 12.9864C11.4021 13.2298 11.7264 13.3644 12.0709 13.3644C12.4154 13.3644 12.7395 13.2299 12.983 12.9864L12.983 11.1621ZM12.276 12.2795C12.389 12.1663 12.389 11.9823 12.2761 11.8693L12.276 12.2795ZM12.276 12.2795C12.1679 12.3877 11.9741 12.3878 11.8659 12.2795L11.8658 12.2793M12.276 12.2795L11.8658 12.2793M11.8658 12.2793C11.8109 12.2246 11.7809 12.1523 11.7809 12.0745C11.7809 11.9966 11.8109 11.9243 11.8659 11.8693L11.8661 11.8692M11.8658 12.2793L11.8661 11.8692M11.8661 11.8692C11.9208 11.8143 11.9931 11.7843 12.071 11.7843M11.8661 11.8692L12.071 11.7843M6.99825 8.82631L6.99822 8.82628C6.75482 8.58276 6.62065 8.25847 6.62063 7.91426C6.62063 7.91423 6.62063 7.91421 6.62063 7.91419H6.72063L6.99825 8.82631ZM6.99825 8.82631C7.24186 9.0698 7.56593 9.20424 7.91046 9.20424C8.25494 9.20424 8.57906 9.07005 8.82261 8.82626L6.99825 8.82631ZM12.071 11.7843C12.1488 11.7843 12.2211 11.8142 12.2761 11.8692L12.071 11.7843ZM7.70429 7.70998L7.70528 7.70898C7.76011 7.65415 7.83268 7.62398 7.91046 7.62398C7.98826 7.62398 8.06071 7.65405 8.11564 7.70898C8.17047 7.76381 8.20064 7.83638 8.20064 7.91416C8.20064 7.99195 8.17058 8.06438 8.11558 8.11929L8.11545 8.11942C8.00735 8.22777 7.81414 8.22788 7.70561 8.11934C7.65088 8.06462 7.62083 7.99209 7.62083 7.91416L7.62083 7.91384C7.62059 7.83678 7.65014 7.76474 7.70429 7.70998Z" fill="#6F5CC9" stroke="#ffffff" stroke-width="0.2"/>
</svg>
