<svg width="40" height="40" viewBox="0 0 40 40" fill="none" xmlns="http://www.w3.org/2000/svg">
<circle opacity="0.15" cx="20" cy="20" r="20" fill="#C89720"/>
<path d="M22.3333 26.4444H13V14.7778C13 14.3484 13.3484 14 13.7778 14H21.5556C21.9849 14 22.3333 14.3484 22.3333 14.7778V26.4444ZM22.3333 26.4444H27V17.8889C27 17.4596 26.6516 17.1111 26.2222 17.1111H22.3333" stroke="#C89720" stroke-width="1.5" stroke-miterlimit="10"/>
<path d="M15.333 16.6333C15.333 16.4676 15.4673 16.3333 15.633 16.3333H16.5886C16.7542 16.3333 16.8886 16.4676 16.8886 16.6333V17.5888C16.8886 17.7545 16.7542 17.8888 16.5886 17.8888H15.633C15.4673 17.8888 15.333 17.7545 15.333 17.5888V16.6333ZM15.333 19.7444C15.333 19.5787 15.4673 19.4444 15.633 19.4444H16.5886C16.7542 19.4444 16.8886 19.5787 16.8886 19.7444V20.6999C16.8886 20.8656 16.7542 20.9999 16.5886 20.9999H15.633C15.4673 20.9999 15.333 20.8656 15.333 20.6999V19.7444ZM15.333 22.8555C15.333 22.6898 15.4673 22.5555 15.633 22.5555H16.5886C16.7542 22.5555 16.8886 22.6898 16.8886 22.8555V23.811C16.8886 23.9767 16.7542 24.111 16.5886 24.111H15.633C15.4673 24.111 15.333 23.9767 15.333 23.811V22.8555ZM18.4441 16.6333C18.4441 16.4676 18.5784 16.3333 18.7441 16.3333H19.6997C19.8654 16.3333 19.9997 16.4676 19.9997 16.6333V17.5888C19.9997 17.7545 19.8654 17.8888 19.6997 17.8888H18.7441C18.5784 17.8888 18.4441 17.7545 18.4441 17.5888V16.6333ZM18.4441 19.7444C18.4441 19.5787 18.5784 19.4444 18.7441 19.4444H19.6997C19.8654 19.4444 19.9997 19.5787 19.9997 19.7444V20.6999C19.9997 20.8656 19.8654 20.9999 19.6997 20.9999H18.7441C18.5784 20.9999 18.4441 20.8656 18.4441 20.6999V19.7444ZM18.4441 22.8555C18.4441 22.6898 18.5784 22.5555 18.7441 22.5555H19.6997C19.8654 22.5555 19.9997 22.6898 19.9997 22.8555V23.811C19.9997 23.9767 19.8654 24.111 19.6997 24.111H18.7441C18.5784 24.111 18.4441 23.9767 18.4441 23.811V22.8555ZM23.1108 19.7444C23.1108 19.5787 23.2451 19.4444 23.4108 19.4444H24.3663C24.532 19.4444 24.6663 19.5787 24.6663 19.7444V20.6999C24.6663 20.8656 24.532 20.9999 24.3663 20.9999H23.4108C23.2451 20.9999 23.1108 20.8656 23.1108 20.6999V19.7444ZM23.1108 22.8555C23.1108 22.6898 23.2451 22.5555 23.4108 22.5555H24.3663C24.532 22.5555 24.6663 22.6898 24.6663 22.8555V23.811C24.6663 23.9767 24.532 24.111 24.3663 24.111H23.4108C23.2451 24.111 23.1108 23.9767 23.1108 23.811V22.8555Z" fill="#C89720"/>
</svg>
