<svg width="115" height="40" viewBox="0 0 115 40" fill="none" xmlns="http://www.w3.org/2000/svg">
<path d="M51.752 15.4V14.14C50.3613 14.0373 49.274 13.552 48.49 12.684L49.4 11.424C50.044 12.1147 50.828 12.53 51.752 12.67V9.968C51.3133 9.856 50.9493 9.74867 50.66 9.646C50.3707 9.534 50.0673 9.38 49.75 9.184C49.4327 8.97867 49.19 8.71733 49.022 8.4C48.8633 8.07333 48.784 7.69067 48.784 7.252C48.784 6.53333 49.0547 5.922 49.596 5.418C50.1373 4.914 50.856 4.62467 51.752 4.55V3.248H52.872V4.564C54.0013 4.68533 54.9393 5.10533 55.686 5.824L54.748 7.042C54.2347 6.538 53.6093 6.21133 52.872 6.062V8.47C53.2173 8.56333 53.5113 8.652 53.754 8.736C53.9967 8.82 54.2627 8.94133 54.552 9.1C54.8507 9.24933 55.0887 9.41733 55.266 9.604C55.4433 9.78133 55.5927 10.0147 55.714 10.304C55.8353 10.5933 55.896 10.92 55.896 11.284C55.896 12.0493 55.6393 12.698 55.126 13.23C54.622 13.7527 53.8707 14.056 52.872 14.14V15.4H51.752ZM53.894 12.222C54.118 11.9887 54.23 11.7273 54.23 11.438C54.23 11.1487 54.1133 10.9153 53.88 10.738C53.6467 10.5513 53.3107 10.3927 52.872 10.262V12.684C53.3293 12.6093 53.67 12.4553 53.894 12.222ZM50.464 7.14C50.464 7.588 50.8933 7.93333 51.752 8.176V5.992C51.3507 6.02933 51.0333 6.15533 50.8 6.37C50.576 6.57533 50.464 6.832 50.464 7.14ZM63.9386 14H57.1766V12.712C59.1272 11.2373 60.4526 10.1453 61.1526 9.436C61.8619 8.71733 62.2166 8.04067 62.2166 7.406C62.2166 6.94867 62.0486 6.59867 61.7126 6.356C61.3859 6.104 60.9892 5.978 60.5226 5.978C59.4959 5.978 58.6559 6.35133 58.0026 7.098L57.0506 6.02C57.4519 5.53467 57.9559 5.166 58.5626 4.914C59.1786 4.65267 59.8226 4.522 60.4946 4.522C61.4466 4.522 62.2492 4.77867 62.9026 5.292C63.5559 5.80533 63.8826 6.51 63.8826 7.406C63.8826 8.20867 63.5466 9.00667 62.8746 9.8C62.2026 10.5933 61.1759 11.5127 59.7946 12.558H63.9386V14ZM67.1967 13.874C67.0007 14.0607 66.7721 14.154 66.5107 14.154C66.2494 14.154 66.0207 14.0607 65.8247 13.874C65.6287 13.678 65.5307 13.4447 65.5307 13.174C65.5307 12.9033 65.6287 12.6747 65.8247 12.488C66.0207 12.292 66.2494 12.194 66.5107 12.194C66.7721 12.194 67.0007 12.292 67.1967 12.488C67.3927 12.6747 67.4907 12.9033 67.4907 13.174C67.4907 13.4447 67.3927 13.678 67.1967 13.874ZM72.0984 14.168C71.305 14.168 70.6004 14.028 69.9844 13.748C69.3777 13.468 68.9064 13.104 68.5704 12.656L69.4524 11.578C69.751 11.9233 70.1337 12.1987 70.6004 12.404C71.067 12.6093 71.5477 12.712 72.0424 12.712C72.649 12.712 73.125 12.586 73.4704 12.334C73.8157 12.0727 73.9884 11.7227 73.9884 11.284C73.9884 10.4067 73.2977 9.968 71.9164 9.968C71.291 9.968 70.9317 9.97267 70.8384 9.982V8.512C70.9504 8.52133 71.3097 8.526 71.9164 8.526C72.495 8.526 72.957 8.42333 73.3024 8.218C73.657 8.01267 73.8344 7.70467 73.8344 7.294C73.8344 6.874 73.657 6.552 73.3024 6.328C72.9477 6.09467 72.495 5.978 71.9444 5.978C71.0297 5.978 70.227 6.32333 69.5364 7.014L68.6964 5.992C69.527 5.012 70.661 4.522 72.0984 4.522C73.1157 4.522 73.9324 4.75067 74.5484 5.208C75.1644 5.656 75.4724 6.26733 75.4724 7.042C75.4724 7.62067 75.267 8.10133 74.8564 8.484C74.455 8.85733 73.9837 9.09067 73.4424 9.184C73.9744 9.23067 74.469 9.45467 74.9264 9.856C75.3837 10.2573 75.6124 10.7893 75.6124 11.452C75.6124 12.2547 75.2904 12.908 74.6464 13.412C74.0117 13.916 73.1624 14.168 72.0984 14.168ZM79.7594 14H77.9674L81.4954 6.104H76.6514V4.662H83.3854V5.796L79.7594 14ZM89.4366 14H84.7186V4.662H89.3106C90.1413 4.662 90.7899 4.89067 91.2566 5.348C91.7326 5.796 91.9706 6.36067 91.9706 7.042C91.9706 7.602 91.8119 8.078 91.4946 8.47C91.1866 8.85267 90.8039 9.09067 90.3466 9.184C90.8506 9.25867 91.2753 9.52 91.6206 9.968C91.9753 10.4067 92.1526 10.9107 92.1526 11.48C92.1526 12.2267 91.9099 12.8333 91.4246 13.3C90.9486 13.7667 90.2859 14 89.4366 14ZM88.9746 8.526C89.3853 8.526 89.7073 8.414 89.9406 8.19C90.1739 7.966 90.2906 7.67667 90.2906 7.322C90.2906 6.958 90.1739 6.664 89.9406 6.44C89.7073 6.216 89.3853 6.104 88.9746 6.104H86.3566V8.526H88.9746ZM89.0446 12.558C89.4926 12.558 89.8426 12.446 90.0946 12.222C90.3466 11.9887 90.4726 11.6667 90.4726 11.256C90.4726 10.892 90.3466 10.5887 90.0946 10.346C89.8426 10.094 89.4926 9.968 89.0446 9.968H86.3566V12.558H89.0446Z" fill="#2E2E2E"/>
<path d="M55.608 36H54.612V32.328H49.932V36H48.936V27.996H49.932V31.44H54.612V27.996H55.608V36ZM60.455 36H59.459V28.884H56.927V27.996H62.999V28.884H60.455V36ZM67.7866 36.156C66.6266 36.156 65.6506 35.772 64.8586 35.004C64.0666 34.228 63.6706 33.228 63.6706 32.004C63.6706 30.78 64.0666 29.784 64.8586 29.016C65.6506 28.248 66.6266 27.864 67.7866 27.864C69.0506 27.864 70.0866 28.364 70.8946 29.364L70.1026 29.856C69.8466 29.52 69.5106 29.252 69.0946 29.052C68.6866 28.852 68.2506 28.752 67.7866 28.752C66.9066 28.752 66.1706 29.06 65.5786 29.676C64.9946 30.284 64.7026 31.06 64.7026 32.004C64.7026 32.948 64.9946 33.728 65.5786 34.344C66.1706 34.96 66.9066 35.268 67.7866 35.268C68.2266 35.268 68.6346 35.184 69.0106 35.016C69.3946 34.84 69.7026 34.636 69.9346 34.404V32.772H67.1866V31.884H70.9306V34.776C70.1066 35.696 69.0586 36.156 67.7866 36.156ZM82.063 36H80.815C80.575 35.792 80.283 35.512 79.939 35.16C79.283 35.816 78.515 36.144 77.635 36.144C76.907 36.144 76.307 35.952 75.835 35.568C75.371 35.176 75.139 34.624 75.139 33.912C75.139 33.344 75.295 32.88 75.607 32.52C75.919 32.16 76.351 31.832 76.903 31.536C76.495 30.84 76.291 30.24 76.291 29.736C76.291 29.208 76.483 28.768 76.867 28.416C77.259 28.056 77.739 27.876 78.307 27.876C78.843 27.876 79.279 28.016 79.615 28.296C79.951 28.568 80.119 28.952 80.119 29.448C80.119 29.736 80.067 29.996 79.963 30.228C79.859 30.452 79.691 30.66 79.459 30.852C79.227 31.036 79.023 31.18 78.847 31.284C78.679 31.388 78.423 31.528 78.079 31.704C78.335 32.056 78.643 32.436 79.003 32.844C79.291 33.188 79.607 33.544 79.951 33.912C80.303 33.392 80.591 32.784 80.815 32.088L81.595 32.424C81.203 33.336 80.839 34.024 80.503 34.488C80.903 34.904 81.423 35.408 82.063 36ZM77.719 35.4C78.311 35.4 78.871 35.136 79.399 34.608C78.871 34.056 78.503 33.652 78.295 33.396C77.927 32.972 77.591 32.548 77.287 32.124C76.911 32.356 76.619 32.608 76.411 32.88C76.211 33.144 76.111 33.468 76.111 33.852C76.111 34.332 76.267 34.712 76.579 34.992C76.899 35.264 77.279 35.4 77.719 35.4ZM77.227 29.748C77.227 30.124 77.387 30.584 77.707 31.128C78.227 30.872 78.619 30.624 78.883 30.384C79.155 30.144 79.291 29.844 79.291 29.484C79.291 29.196 79.203 28.976 79.027 28.824C78.851 28.664 78.623 28.584 78.343 28.584C78.031 28.584 77.767 28.696 77.551 28.92C77.335 29.136 77.227 29.412 77.227 29.748ZM90.0723 36H86.4243V27.996H89.9883C90.6763 27.996 91.2203 28.184 91.6203 28.56C92.0283 28.936 92.2323 29.428 92.2323 30.036C92.2323 30.516 92.0963 30.924 91.8243 31.26C91.5523 31.588 91.2203 31.792 90.8283 31.872C91.2523 31.936 91.6163 32.16 91.9203 32.544C92.2323 32.928 92.3883 33.36 92.3883 33.84C92.3883 34.488 92.1803 35.012 91.7643 35.412C91.3563 35.804 90.7923 36 90.0723 36ZM89.8203 31.464C90.2603 31.464 90.6003 31.344 90.8403 31.104C91.0803 30.864 91.2003 30.556 91.2003 30.18C91.2003 29.804 91.0763 29.496 90.8283 29.256C90.5883 29.008 90.2523 28.884 89.8203 28.884H87.4203V31.464H89.8203ZM89.8683 35.112C90.3323 35.112 90.6963 34.988 90.9603 34.74C91.2243 34.492 91.3563 34.156 91.3563 33.732C91.3563 33.34 91.2243 33.012 90.9603 32.748C90.7043 32.484 90.3403 32.352 89.8683 32.352H87.4203V35.112H89.8683ZM96.7479 36H95.7519V28.884H93.2199V27.996H99.2919V28.884H96.7479V36ZM106.688 36H105.452L102.416 32.4L101.612 33.312V36H100.616V27.996H101.612V32.136L105.152 27.996H106.4L103.064 31.8L106.688 36ZM111.471 36H107.823V27.996H111.387C112.075 27.996 112.619 28.184 113.019 28.56C113.427 28.936 113.631 29.428 113.631 30.036C113.631 30.516 113.495 30.924 113.223 31.26C112.951 31.588 112.619 31.792 112.227 31.872C112.651 31.936 113.015 32.16 113.319 32.544C113.631 32.928 113.787 33.36 113.787 33.84C113.787 34.488 113.579 35.012 113.163 35.412C112.755 35.804 112.191 36 111.471 36ZM111.219 31.464C111.659 31.464 111.999 31.344 112.239 31.104C112.479 30.864 112.599 30.556 112.599 30.18C112.599 29.804 112.475 29.496 112.227 29.256C111.987 29.008 111.651 28.884 111.219 28.884H108.819V31.464H111.219ZM111.267 35.112C111.731 35.112 112.095 34.988 112.359 34.74C112.623 34.492 112.755 34.156 112.755 33.732C112.755 33.34 112.623 33.012 112.359 32.748C112.103 32.484 111.739 32.352 111.267 32.352H108.819V35.112H111.267Z" fill="#2E2E2E"/>
<circle opacity="0.2" cx="20" cy="20" r="20" fill="#233984"/>
<path d="M20.859 23.4211H17.239V16.7511H20.749C21.3556 16.7511 21.8256 16.9178 22.159 17.2511C22.499 17.5778 22.669 17.9778 22.669 18.4511C22.669 18.8578 22.559 19.1978 22.339 19.4711C22.119 19.7444 21.8456 19.9144 21.519 19.9811C21.879 20.0344 22.1823 20.2178 22.429 20.5311C22.6756 20.8444 22.799 21.2078 22.799 21.6211C22.799 22.1411 22.629 22.5711 22.289 22.9111C21.949 23.2511 21.4723 23.4211 20.859 23.4211ZM20.439 19.4211C20.679 19.4211 20.869 19.3544 21.009 19.2211C21.149 19.0878 21.219 18.9144 21.219 18.7011C21.219 18.4878 21.1456 18.3144 20.999 18.1811C20.859 18.0411 20.6723 17.9711 20.439 17.9711H18.659V19.4211H20.439ZM20.489 22.1911C20.7556 22.1911 20.9656 22.1244 21.119 21.9911C21.2723 21.8511 21.349 21.6611 21.349 21.4211C21.349 21.2011 21.2723 21.0178 21.119 20.8711C20.9656 20.7178 20.7556 20.6411 20.489 20.6411H18.659V22.1911H20.489Z" fill="#233984"/>
<path d="M11.9035 17.3463C12.4699 15.0652 14.2788 13.3014 16.5731 12.793L16.9553 12.7083C18.6835 12.3253 20.4744 12.3253 22.2026 12.7083L22.5848 12.793C24.8791 13.3014 26.688 15.0652 27.2544 17.3463C27.6871 19.089 27.6871 20.9111 27.2544 22.6537C26.688 24.9349 24.8791 26.6987 22.5848 27.2071L22.2026 27.2918C20.4744 27.6747 18.6835 27.6747 16.9553 27.2918L16.5731 27.2071C14.2787 26.6987 12.4699 24.9349 11.9035 22.6537C11.4708 20.9111 11.4708 19.089 11.9035 17.3463Z" stroke="#233984" stroke-width="1.5"/>
</svg>
