<svg width="32" height="32" viewBox="0 0 32 32" fill="none" xmlns="http://www.w3.org/2000/svg">
<path d="M4.4705 10.9393C5.33916 7.54462 8.23068 4.89407 11.9339 4.0978C14.6083 3.52274 17.3917 3.52274 20.0661 4.0978C23.7693 4.89407 26.6608 7.54463 27.5295 10.9393C28.1568 13.3908 28.1568 15.9422 27.5295 18.3938C26.6608 21.7884 23.7693 24.4389 20.0661 25.2352C17.3917 25.8103 14.6083 25.8103 11.9339 25.2352C8.23068 24.4389 5.33917 21.7884 4.4705 18.3938C3.84317 15.9422 3.84317 13.3908 4.4705 10.9393Z" fill="white" fill-opacity="0.12"/>
<path d="M4.4705 18.3938L3.74392 18.5797L4.4705 18.3938ZM4.4705 10.9393L3.74392 10.7533L4.4705 10.9393ZM27.5295 10.9393L26.8029 11.1252L27.5295 10.9393ZM27.5295 18.3938L26.8029 18.2078L27.5295 18.3938ZM20.0661 25.2352L19.9084 24.502L20.0661 25.2352ZM11.9339 25.2352L12.0916 24.502L11.9339 25.2352ZM11.9339 4.0978L12.0916 4.83104L11.9339 4.0978ZM20.0661 4.0978L19.9084 4.83104L20.0661 4.0978ZM11.0889 18.4808C11.0889 18.8951 11.4247 19.2308 11.8389 19.2308C12.2531 19.2308 12.5889 18.8951 12.5889 18.4808H11.0889ZM12.5889 13.3951C12.5889 12.9808 12.2531 12.6451 11.8389 12.6451C11.4247 12.6451 11.0889 12.9808 11.0889 13.3951H12.5889ZM19.4111 18.4808C19.4111 18.8951 19.7469 19.2308 20.1611 19.2308C20.5753 19.2308 20.9111 18.8951 20.9111 18.4808H19.4111ZM20.9111 14.6665C20.9111 14.2523 20.5753 13.9165 20.1611 13.9165C19.7469 13.9165 19.4111 14.2523 19.4111 14.6665H20.9111ZM15.25 17.2094C15.25 17.6236 15.5858 17.9594 16 17.9594C16.4142 17.9594 16.75 17.6236 16.75 17.2094H15.25ZM16.75 10.8522C16.75 10.438 16.4142 10.1022 16 10.1022C15.5858 10.1022 15.25 10.438 15.25 10.8522H16.75ZM5.19709 18.2078C4.60097 15.8783 4.60097 13.4548 5.19709 11.1252L3.74392 10.7533C3.08536 13.3269 3.08536 16.0061 3.74392 18.5797L5.19709 18.2078ZM26.8029 11.1252C27.399 13.4548 27.399 15.8783 26.8029 18.2078L28.2561 18.5797C28.9146 16.0061 28.9146 13.3269 28.2561 10.7533L26.8029 11.1252ZM19.9084 24.502C17.3379 25.0547 14.6621 25.0547 12.0916 24.502L11.7763 25.9685C14.5546 26.5659 17.4454 26.5659 20.2237 25.9685L19.9084 24.502ZM12.0916 4.83104C14.6621 4.27833 17.3379 4.27833 19.9084 4.83104L20.2238 3.36456C17.4454 2.76715 14.5546 2.76715 11.7762 3.36456L12.0916 4.83104ZM12.0916 24.502C8.63819 23.7594 5.98835 21.3 5.19709 18.2078L3.74392 18.5797C4.68998 22.2768 7.82317 25.1185 11.7763 25.9685L12.0916 24.502ZM20.2237 25.9685C24.1768 25.1185 27.31 22.2768 28.2561 18.5797L26.8029 18.2078C26.0117 21.3 23.3618 23.7594 19.9084 24.502L20.2237 25.9685ZM19.9084 4.83104C23.3618 5.57359 26.0117 8.03303 26.8029 11.1252L28.2561 10.7533C27.31 7.05623 24.1768 4.21455 20.2238 3.36456L19.9084 4.83104ZM11.7762 3.36456C7.82317 4.21455 4.68998 7.05622 3.74392 10.7533L5.19709 11.1252C5.98835 8.03302 8.63819 5.57359 12.0916 4.83104L11.7762 3.36456ZM12.5889 18.4808V13.3951H11.0889V18.4808H12.5889ZM20.9111 18.4808V14.6665H19.4111V18.4808H20.9111ZM16.75 17.2094V10.8522H15.25V17.2094H16.75Z" fill="#E3E2E2"/>
</svg>
