<svg width="26" height="25" viewBox="0 0 26 25" fill="none" xmlns="http://www.w3.org/2000/svg">
<path d="M1.4705 8.93925C2.33916 5.54462 5.23068 2.89407 8.93391 2.0978C11.6083 1.52274 14.3917 1.52274 17.0661 2.0978C20.7693 2.89407 23.6608 5.54463 24.5295 8.93926C25.1568 11.3908 25.1568 13.9422 24.5295 16.3938C23.6608 19.7884 20.7693 22.4389 17.0661 23.2352C14.3917 23.8103 11.6083 23.8103 8.93391 23.2352C5.23068 22.4389 2.33917 19.7884 1.4705 16.3938C0.843165 13.9422 0.843166 11.3908 1.4705 8.93925Z" fill="#4AB0A6" fill-opacity="0.2"/>
<path d="M1.4705 16.3938L0.743915 16.5797L1.4705 16.3938ZM1.4705 8.93925L0.743915 8.75332L1.4705 8.93925ZM24.5295 8.93926L23.8029 9.12519L24.5295 8.93926ZM24.5295 16.3938L23.8029 16.2078L24.5295 16.3938ZM17.0661 23.2352L16.9084 22.502L17.0661 23.2352ZM8.93391 23.2352L9.09158 22.502L8.93391 23.2352ZM8.93391 2.0978L9.09157 2.83104L8.93391 2.0978ZM17.0661 2.0978L16.9084 2.83104L17.0661 2.0978ZM8.08891 16.4808C8.08891 16.8951 8.42469 17.2308 8.83891 17.2308C9.25312 17.2308 9.58891 16.8951 9.58891 16.4808H8.08891ZM9.58891 11.3951C9.58891 10.9808 9.25312 10.6451 8.83891 10.6451C8.42469 10.6451 8.08891 10.9808 8.08891 11.3951H9.58891ZM16.4111 16.4808C16.4111 16.8951 16.7469 17.2308 17.1611 17.2308C17.5753 17.2308 17.9111 16.8951 17.9111 16.4808H16.4111ZM17.9111 12.6665C17.9111 12.2523 17.5753 11.9165 17.1611 11.9165C16.7469 11.9165 16.4111 12.2523 16.4111 12.6665H17.9111ZM12.25 15.2094C12.25 15.6236 12.5858 15.9594 13 15.9594C13.4142 15.9594 13.75 15.6236 13.75 15.2094H12.25ZM13.75 8.85217C13.75 8.43796 13.4142 8.10217 13 8.10217C12.5858 8.10217 12.25 8.43796 12.25 8.85217H13.75ZM2.19709 16.2078C1.60097 13.8783 1.60097 11.4548 2.19709 9.12518L0.743915 8.75332C0.0853616 11.3269 0.0853615 14.0061 0.743915 16.5797L2.19709 16.2078ZM23.8029 9.12519C24.399 11.4548 24.399 13.8783 23.8029 16.2078L25.2561 16.5797C25.9146 14.0061 25.9146 11.3269 25.2561 8.75333L23.8029 9.12519ZM16.9084 22.502C14.3379 23.0547 11.6621 23.0547 9.09158 22.502L8.77625 23.9685C11.5546 24.5659 14.4454 24.5659 17.2237 23.9685L16.9084 22.502ZM9.09157 2.83104C11.6621 2.27833 14.3379 2.27833 16.9084 2.83104L17.2238 1.36456C14.4454 0.767153 11.5546 0.767153 8.77625 1.36456L9.09157 2.83104ZM9.09158 22.502C5.63819 21.7594 2.98835 19.3 2.19709 16.2078L0.743915 16.5797C1.68998 20.2768 4.82317 23.1185 8.77625 23.9685L9.09158 22.502ZM17.2237 23.9685C21.1768 23.1185 24.31 20.2768 25.2561 16.5797L23.8029 16.2078C23.0117 19.3 20.3618 21.7594 16.9084 22.502L17.2237 23.9685ZM16.9084 2.83104C20.3618 3.57359 23.0117 6.03303 23.8029 9.12519L25.2561 8.75333C24.31 5.05623 21.1768 2.21455 17.2238 1.36456L16.9084 2.83104ZM8.77625 1.36456C4.82317 2.21455 1.68998 5.05622 0.743915 8.75332L2.19709 9.12518C2.98835 6.03302 5.63819 3.57359 9.09157 2.83104L8.77625 1.36456ZM9.58891 16.4808V11.3951H8.08891V16.4808H9.58891ZM17.9111 16.4808V12.6665H16.4111V16.4808H17.9111ZM13.75 15.2094V8.85217H12.25V15.2094H13.75Z" fill="#4AB0A6"/>
</svg>
