<svg width="24" height="24" viewBox="0 0 24 24" fill="none" xmlns="http://www.w3.org/2000/svg">
<path d="M3.79624 13.8875L4.52729 13.72L3.79624 13.8875ZM3.79624 8.64731L4.52729 8.81487L3.79624 8.64731ZM18.3149 8.64732L17.5838 8.81487L18.3149 8.64732ZM18.3149 13.8875L17.5838 13.72L18.3149 13.8875ZM13.6157 18.6968L13.7908 19.4261L13.6157 18.6968ZM8.49543 18.6968L8.6705 17.9675L8.49543 18.6968ZM8.49543 3.83804L8.6705 4.56732L8.49543 3.83804ZM13.6157 3.83804L13.7908 3.10876L13.6157 3.83804ZM8.31229 3C8.31229 2.58579 7.97651 2.25 7.56229 2.25C7.14808 2.25 6.81229 2.58579 6.81229 3H8.31229ZM6.81229 5.23444C6.81229 5.64865 7.14808 5.98444 7.56229 5.98444C7.97651 5.98444 8.31229 5.64865 8.31229 5.23444H6.81229ZM15.2988 3C15.2988 2.58579 14.963 2.25 14.5488 2.25C14.1346 2.25 13.7988 2.58579 13.7988 3H15.2988ZM13.7988 5.23444C13.7988 5.64865 14.1346 5.98444 14.5488 5.98444C14.963 5.98444 15.2988 5.64865 15.2988 5.23444H13.7988ZM4.52729 13.72C4.15757 12.1069 4.15757 10.428 4.52729 8.81487L3.0652 8.47976C2.64493 10.3134 2.64493 12.2215 3.0652 14.0551L4.52729 13.72ZM17.5838 8.81487C17.9535 10.428 17.9535 12.1069 17.5838 13.72L19.0459 14.0551C19.4662 12.2215 19.4662 10.3134 19.0459 8.47976L17.5838 8.81487ZM13.4406 17.9675C11.8718 18.3442 10.2393 18.3442 8.6705 17.9675L8.32035 19.4261C10.1193 19.858 11.9918 19.858 13.7908 19.4261L13.4406 17.9675ZM8.6705 4.56732C10.2393 4.1907 11.8718 4.1907 13.4406 4.56732L13.7908 3.10876C11.9918 2.67689 10.1193 2.67689 8.32035 3.10876L8.6705 4.56732ZM8.6705 17.9675C6.6231 17.476 5.01229 15.8361 4.52729 13.72L3.0652 14.0551C3.67407 16.7116 5.70442 18.7981 8.32035 19.4261L8.6705 17.9675ZM13.7908 19.4261C16.4067 18.7981 18.437 16.7116 19.0459 14.0551L17.5838 13.72C17.0988 15.8361 15.488 17.476 13.4406 17.9675L13.7908 19.4261ZM13.4406 4.56732C15.488 5.05882 17.0988 6.69879 17.5838 8.81487L19.0459 8.47976C18.437 5.82326 16.4067 3.73675 13.7908 3.10876L13.4406 4.56732ZM8.32035 3.10876C5.70442 3.73675 3.67407 5.82326 3.0652 8.47976L4.52729 8.81487C5.01229 6.69879 6.6231 5.05882 8.6705 4.56732L8.32035 3.10876ZM4.06903 8.44232H18.0421V6.94232H4.06903V8.44232ZM6.81229 3V5.23444H8.31229V3H6.81229ZM13.7988 3V5.23444H15.2988V3H13.7988Z" fill="#4F4F4F"/>
</svg>
