<svg width="40" height="40" viewBox="0 0 40 40" fill="none" xmlns="http://www.w3.org/2000/svg">
<circle opacity="0.2" cx="20" cy="20" r="20" fill="#4AB0A6"/>
<path d="M13.5 21.6259H15.3193C15.4385 21.6259 15.538 21.578 15.6057 21.4993C15.6707 21.4238 15.6995 21.3281 15.6995 21.238C15.6995 21.1478 15.6707 21.0521 15.6057 20.9766C15.538 20.8979 15.4385 20.85 15.3193 20.85H13.5C13.3808 20.85 13.2813 20.8979 13.2136 20.9766C13.1487 21.0521 13.1198 21.1478 13.1198 21.238C13.1198 21.3281 13.1487 21.4238 13.2136 21.4993C13.2813 21.578 13.3808 21.6259 13.5 21.6259Z" fill="#4AB0A6" stroke="#4AB0A6" stroke-width="0.3"/>
<path d="M17 21.65H18.8193C18.9385 21.65 19.038 21.6021 19.1057 21.5234C19.1707 21.4479 19.1995 21.3522 19.1995 21.262C19.1995 21.1719 19.1707 21.0762 19.1057 21.0007C19.038 20.922 18.9385 20.8741 18.8193 20.8741H17C16.8808 20.8741 16.7813 20.922 16.7137 21.0007C16.6488 21.0762 16.6199 21.1719 16.6199 21.262C16.6199 21.3522 16.6488 21.4479 16.7137 21.5234C16.7813 21.6021 16.8808 21.65 17 21.65Z" fill="#4AB0A6" stroke="#4AB0A6" stroke-width="0.3"/>
<path d="M20.5 21.6259H22.3193C22.4385 21.6259 22.5381 21.578 22.6057 21.4993C22.6707 21.4238 22.6995 21.3281 22.6995 21.238C22.6995 21.1478 22.6707 21.0521 22.6057 20.9766C22.5381 20.8979 22.4385 20.85 22.3193 20.85H20.5C20.3808 20.85 20.2813 20.8979 20.2136 20.9766C20.1487 21.0521 20.1198 21.1478 20.1198 21.238C20.1198 21.3281 20.1487 21.4238 20.2136 21.4993C20.2813 21.578 20.3808 21.6259 20.5 21.6259Z" fill="#4AB0A6" stroke="#4AB0A6" stroke-width="0.3"/>
<path d="M24.0425 21.6259H25.8618C25.981 21.6259 26.0806 21.578 26.1482 21.4993C26.2132 21.4238 26.242 21.3281 26.242 21.238C26.242 21.1478 26.2132 21.0521 26.1482 20.9766C26.0806 20.8979 25.981 20.85 25.8618 20.85H24.0425C23.9233 20.85 23.8238 20.8979 23.7561 20.9766C23.6912 21.0521 23.6623 21.1478 23.6623 21.238C23.6623 21.3281 23.6912 21.4238 23.7561 21.4993C23.8238 21.578 23.9233 21.6259 24.0425 21.6259Z" fill="#4AB0A6" stroke="#4AB0A6" stroke-width="0.3"/>
<path d="M12.4059 26.0306L12.4059 26.0306C12.5064 26.0543 12.6078 26.0594 12.7259 26.0594H13.5235H16.9671H21.4195H25.1339H26.1685C26.5191 26.0594 26.8061 26.039 27.0398 25.8414L27.1367 25.9559L27.0398 25.8414C27.2913 25.6287 27.4288 25.3439 27.4288 25.0193V24.6115V22.7366V20.0276C27.0972 20.0576 26.7637 20.0486 26.4311 19.9992M12.4059 26.0306L11.637 25.1957C11.6243 25.1286 11.6249 25.0539 11.6257 24.965C11.6259 24.9428 11.6261 24.9196 11.6261 24.8955V24.4168V22.7224V18.3931V16.9053V16.5816C11.6261 16.3164 11.7104 16.0703 11.8809 15.8769L11.8809 15.8769C12.0786 15.6526 12.3609 15.5304 12.6608 15.5304H12.8928H14.0933H18.1966H22.2005H23.052C22.9093 16.55 23.1151 17.5208 23.751 18.3784L23.751 18.3784C24.3925 19.2433 25.3607 19.8404 26.4311 19.9992M12.4059 26.0306C12.0064 25.9361 11.7149 25.6048 11.637 25.1957L12.4059 26.0306ZM26.4311 19.9992L26.4531 19.8509M26.4311 19.9992L26.4531 19.8509M26.4531 19.8509C25.4234 19.698 24.49 19.123 23.8715 18.2891L27.4288 19.877C27.1043 19.9074 26.7782 19.8991 26.4531 19.8509ZM28.0916 19.3061C28.1623 19.3732 28.2049 19.4679 28.205 19.5802V19.5803V22.4214V24.4161C28.205 24.4745 28.2057 24.5342 28.2065 24.5949C28.2117 25.0055 28.2174 25.464 27.9959 25.8783C27.712 26.4095 27.1775 26.7656 26.5793 26.8256C26.4852 26.8351 26.3936 26.8351 26.309 26.8351H25.4718H21.9815H17.5262H13.8526H12.8548H12.6612C12.2402 26.8351 11.8369 26.692 11.5102 26.4275L28.0916 19.3061ZM28.0916 19.3061C27.9949 19.2113 27.8524 19.1776 27.7235 19.2039L27.7234 19.2039C26.7304 19.4074 25.6798 19.1422 24.91 18.4913L24.8132 18.6058L24.91 18.4913C24.1872 17.8801 23.757 16.9834 23.7291 16.04L23.7291 16.04C23.7211 15.7703 23.7469 15.5019 23.804 15.2374L23.804 15.2374C23.8532 15.0094 23.7001 14.7545 23.4278 14.7545H21.3644H17.0691H13.3851H12.6607C11.674 14.7545 10.85 15.5643 10.85 16.557V19.158V23.4566V24.8088V25.0346C10.85 25.5686 11.0933 26.0899 11.5102 26.4274L28.0916 19.3061Z" fill="#4AB0A6" stroke="#4AB0A6" stroke-width="0.3"/>
<path d="M28.8021 13.1238C29.7745 13.7199 30.3681 14.8077 30.3739 15.9465L30.3739 15.9481C30.3697 16.9286 29.9384 17.8477 29.1955 18.4881L29.1955 18.4881C28.4211 19.1559 27.3314 19.4116 26.3378 19.1954C25.4248 18.9966 24.6351 18.4077 24.1665 17.6005C23.6572 16.7229 23.5838 15.6057 23.9824 14.6654L23.9824 14.6654C24.3581 13.7792 25.1095 13.0851 26.0241 12.7869L26.0241 12.7869C26.9523 12.4843 27.9741 12.6161 28.8021 13.1238ZM31.15 15.9493C31.15 15.9435 31.1499 15.9378 31.1497 15.9321L29.8222 13.1354C29.0738 12.3931 28.0363 11.9866 26.9849 12.0003C25.9052 12.0144 24.8606 12.4926 24.1333 13.2877L24.0226 13.1865C24.0226 13.1865 24.0226 13.1865 24.0226 13.1865C23.2167 14.0675 22.8314 15.2874 22.9869 16.4718L22.9869 16.4718C23.1299 17.56 23.7013 18.5437 24.5717 19.211L24.5717 19.211C25.5087 19.9294 26.7168 20.1874 27.8671 19.9656L27.8671 19.9656C28.7719 19.791 29.6068 19.2815 30.1939 18.5787L30.1939 18.5787C30.8097 17.8414 31.1458 16.9086 31.15 15.9493L31.15 15.9493Z" fill="#4AB0A6" stroke="#4AB0A6" stroke-width="0.3"/>
<path d="M27.3309 14.6077C27.4152 14.5235 27.4518 14.4193 27.444 14.3157C27.4366 14.2163 27.3893 14.1283 27.3256 14.0645C27.2618 14.0008 27.1737 13.9535 27.0743 13.946C26.9709 13.9382 26.8666 13.9747 26.7823 14.059L26.7822 14.059L25.691 15.1502C25.6067 15.2345 25.5702 15.3388 25.5779 15.4423C25.5854 15.5417 25.6326 15.6298 25.6964 15.6936C25.7601 15.7573 25.8483 15.8046 25.9477 15.812C26.0512 15.8198 26.1554 15.7832 26.2397 15.6989L26.2397 15.6989L27.3309 14.6077ZM27.3309 14.6077L27.2248 14.5016M27.3309 14.6077L27.3309 14.6077L27.2248 14.5016M27.2248 14.5016L26.1336 15.5928C25.9164 15.8101 25.5799 15.4735 25.7971 15.2563L26.8883 14.1651C27.1055 13.948 27.4421 14.2846 27.2248 14.5016Z" fill="#4AB0A6" stroke="#4AB0A6" stroke-width="0.3"/>
<path d="M26.6687 14.3334V17.5272V17.5723C26.6687 17.6915 26.7166 17.7911 26.7952 17.8587C26.8708 17.9237 26.9665 17.9525 27.0566 17.9525C27.1468 17.9525 27.2425 17.9237 27.318 17.8587C27.3967 17.7911 27.4446 17.6915 27.4446 17.5723V14.3785V14.3334C27.4446 14.2141 27.3967 14.1146 27.318 14.047C27.2425 13.982 27.1468 13.9532 27.0566 13.9532C26.9665 13.9532 26.8708 13.982 26.7952 14.047C26.7166 14.1146 26.6687 14.2141 26.6687 14.3334Z" fill="#4AB0A6" stroke="#4AB0A6" stroke-width="0.3"/>
<path d="M28.4222 15.1502L28.4222 15.1502L27.331 14.059L27.3309 14.059C27.2466 13.9747 27.1423 13.9382 27.0389 13.946C26.9395 13.9534 26.8514 14.0007 26.7876 14.0645C26.7239 14.1282 26.6766 14.2163 26.6692 14.3157C26.6614 14.4192 26.698 14.5234 26.7823 14.6077C26.7823 14.6077 26.7823 14.6077 26.7823 14.6077L27.8735 15.6989C27.9578 15.7832 28.062 15.8198 28.1655 15.812C28.2649 15.8046 28.353 15.7573 28.4168 15.6935C28.4806 15.6298 28.5278 15.5417 28.5353 15.4423C28.543 15.3388 28.5065 15.2345 28.4222 15.1502Z" fill="#4AB0A6" stroke="#4AB0A6" stroke-width="0.3"/>
</svg>
