<svg width="40" height="40" viewBox="0 0 40 40" fill="none" xmlns="http://www.w3.org/2000/svg">
<circle opacity="0.2" cx="20" cy="19.9999" r="20" fill="#E8A825"/>
<g clip-path="url(#clip0_3505_2313)">
<path d="M13.5 21.6258H15.3193C15.4385 21.6258 15.538 21.5779 15.6057 21.4992C15.6707 21.4237 15.6995 21.328 15.6995 21.2378C15.6995 21.1477 15.6707 21.052 15.6057 20.9764C15.538 20.8978 15.4385 20.8499 15.3193 20.8499H13.5C13.3808 20.8499 13.2813 20.8978 13.2136 20.9764C13.1486 21.052 13.1198 21.1477 13.1198 21.2378C13.1198 21.328 13.1486 21.4237 13.2136 21.4992C13.2813 21.5779 13.3808 21.6258 13.5 21.6258Z" fill="#E8A825" stroke="#E8A825" stroke-width="0.3"/>
<path d="M17 21.6499H18.8193C18.9385 21.6499 19.0381 21.602 19.1057 21.5233C19.1707 21.4478 19.1995 21.3521 19.1995 21.2619C19.1995 21.1718 19.1707 21.0761 19.1057 21.0005C19.0381 20.9219 18.9385 20.874 18.8193 20.874H17C16.8808 20.874 16.7813 20.9219 16.7137 21.0006C16.6488 21.0761 16.6199 21.1718 16.6199 21.2619C16.6199 21.352 16.6488 21.4477 16.7137 21.5233C16.7813 21.602 16.8808 21.6499 17 21.6499Z" fill="#E8A825" stroke="#E8A825" stroke-width="0.3"/>
<path d="M20.5 21.6258H22.3194C22.4386 21.6258 22.5381 21.5779 22.6057 21.4992C22.6707 21.4237 22.6995 21.328 22.6995 21.2378C22.6995 21.1477 22.6707 21.052 22.6057 20.9764C22.5381 20.8978 22.4386 20.8499 22.3194 20.8499H20.5C20.3808 20.8499 20.2813 20.8978 20.2136 20.9764C20.1487 21.052 20.1198 21.1477 20.1198 21.2378C20.1198 21.328 20.1487 21.4237 20.2136 21.4992C20.2813 21.5779 20.3808 21.6258 20.5 21.6258Z" fill="#E8A825" stroke="#E8A825" stroke-width="0.3"/>
<path d="M24.0425 21.6258H25.8618C25.981 21.6258 26.0806 21.5779 26.1482 21.4992C26.2132 21.4237 26.242 21.328 26.242 21.2378C26.242 21.1477 26.2132 21.052 26.1482 20.9764C26.0806 20.8978 25.981 20.8499 25.8618 20.8499H24.0425C23.9233 20.8499 23.8238 20.8978 23.7561 20.9764C23.6912 21.052 23.6623 21.1477 23.6623 21.2378C23.6623 21.328 23.6912 21.4237 23.7561 21.4992C23.8238 21.5779 23.9233 21.6258 24.0425 21.6258Z" fill="#E8A825" stroke="#E8A825" stroke-width="0.3"/>
<path d="M12.4059 26.0304L12.4059 26.0305C12.5064 26.0542 12.6078 26.0593 12.7259 26.0593H13.5235H16.9671H21.4195H25.1339H26.1685C26.5191 26.0593 26.8061 26.0389 27.0398 25.8412L27.1367 25.9558L27.0398 25.8412C27.2913 25.6286 27.4288 25.3438 27.4288 25.0191V24.6114V22.7365V20.0275C27.0972 20.0575 26.7637 20.0485 26.4311 19.9991M12.4059 26.0304L11.637 25.1956C11.6243 25.1284 11.6249 25.0538 11.6257 24.9649C11.6259 24.9426 11.6261 24.9195 11.6261 24.8953V24.4167V22.7223V18.393V16.9052V16.5814C11.6261 16.3163 11.7104 16.0701 11.8809 15.8768L11.8809 15.8768C12.0786 15.6525 12.3609 15.5303 12.6608 15.5303H12.8928H14.0933H18.1966H22.2005H23.2227H23.2505C23.1062 16.5085 23.1468 17.5635 23.751 18.3783L23.751 18.3783C24.3925 19.2431 25.3607 19.8402 26.4311 19.9991M12.4059 26.0304C12.0064 25.936 11.7149 25.6047 11.637 25.1956L12.4059 26.0304ZM26.4311 19.9991L26.4531 19.8507M26.4311 19.9991L26.4531 19.8507M26.4531 19.8507C25.4234 19.6979 24.49 19.1229 23.8715 18.2889L27.4288 19.8769C27.1043 19.9073 26.7782 19.899 26.4531 19.8507ZM23.422 14.6503L23.3995 14.7544H21.3644H17.0691H13.3851H12.6607C11.674 14.7544 10.85 15.5642 10.85 16.5568V19.1579V23.4565V24.8087V25.0345C10.85 25.5685 11.0933 26.0898 11.5102 26.4273C11.8369 26.6919 12.2402 26.835 12.6612 26.835H12.8548H13.8526H17.5262H21.9815H25.4718H26.309C26.3936 26.835 26.4852 26.835 26.5793 26.8255C27.1775 26.7655 27.712 26.4094 27.9959 25.8782C28.2174 25.4639 28.2117 25.0054 28.2065 24.5948C28.2057 24.5341 28.205 24.4743 28.205 24.416V22.4213V19.5802V19.58C28.2049 19.4678 28.1623 19.3731 28.0916 19.306C27.9948 19.2112 27.8524 19.1774 27.7235 19.2037L27.7234 19.2038C26.7304 19.4073 25.6798 19.1421 24.91 18.4912L24.8132 18.6057L24.91 18.4912C24.1872 17.88 23.757 16.9833 23.7291 16.0399L23.7291 16.0399C23.7211 15.7701 23.7469 15.5017 23.804 15.2373L23.804 15.2373C23.8482 15.0325 23.7291 14.806 23.5072 14.762L23.422 14.6503Z" fill="#E8A825" stroke="#E8A825" stroke-width="0.3"/>
<path d="M30.9998 15.9486C30.9994 15.8431 30.9947 15.7379 30.986 15.6335C30.9992 15.6421 31.012 15.6518 31.0242 15.6623C31.1013 15.7288 31.1483 15.8259 31.1498 15.9419C31.1498 15.9441 31.1498 15.9463 31.1498 15.9486M30.9998 15.9486L31.1498 15.9479C31.1498 15.9482 31.1498 15.9484 31.1498 15.9486M30.9998 15.9486L31.1498 15.9492C31.1498 15.9515 31.1498 15.9537 31.1498 15.9559M30.9998 15.9486L31.1498 15.9492C31.1498 15.949 31.1498 15.9488 31.1498 15.9486M29.1955 18.488L29.1955 18.488C28.4211 19.1558 27.3314 19.4115 26.3377 19.1953C25.4247 18.9965 24.6351 18.4076 24.1665 17.6003C23.6572 16.7228 23.5838 15.6056 23.9824 14.6653L23.9824 14.6653C24.358 13.7791 25.1095 13.085 26.0241 12.7868L26.0241 12.7868C26.9523 12.4842 27.9741 12.616 28.8021 13.1237C29.7751 13.7202 30.3689 14.8089 30.3739 15.9486C30.3695 16.9289 29.9382 17.8477 29.1955 18.488Z" fill="#E8A825" stroke="#E8A825" stroke-width="0.3"/>
<path d="M27.3309 17.8384L27.3309 17.8384L27.8765 17.2927L28.4221 16.7471C28.5064 16.6628 28.543 16.5586 28.5353 16.4551C28.5278 16.3557 28.4806 16.2676 28.4168 16.2038C28.353 16.1401 28.2649 16.0928 28.1655 16.0854C28.062 16.0776 27.9578 16.1142 27.8735 16.1985L27.8735 16.1985L27.3279 16.7441L26.7823 17.2896C26.7823 17.2897 26.7823 17.2897 26.7823 17.2897C26.698 17.3739 26.6614 17.4781 26.6691 17.5816C26.6766 17.681 26.7239 17.7691 26.7876 17.8329C26.8514 17.8966 26.9395 17.9439 27.0388 17.9514C27.1423 17.9592 27.2466 17.9227 27.3309 17.8384Z" fill="#E8A825" stroke="#E8A825" stroke-width="0.3"/>
<path d="M27.4445 17.564V14.3702V14.325C27.4445 14.2058 27.3966 14.1063 27.3179 14.0386C27.2424 13.9737 27.1467 13.9448 27.0565 13.9448C26.9664 13.9448 26.8707 13.9737 26.7951 14.0386C26.7165 14.1063 26.6686 14.2058 26.6686 14.325V17.5188V17.564C26.6686 17.6832 26.7165 17.7827 26.7951 17.8504C26.8707 17.9153 26.9664 17.9442 27.0565 17.9442C27.1467 17.9442 27.2424 17.9153 27.3179 17.8504C27.3966 17.7827 27.4445 17.6832 27.4445 17.564Z" fill="#E8A825" stroke="#E8A825" stroke-width="0.3"/>
<path d="M25.691 16.7472L25.691 16.7472L26.7822 17.8384L26.7823 17.8384C26.8666 17.9227 26.9708 17.9592 27.0743 17.9514C27.1737 17.9439 27.2618 17.8967 27.3255 17.8329C27.3893 17.7692 27.4366 17.6811 27.444 17.5817C27.4518 17.4782 27.4152 17.374 27.3309 17.2897C27.3309 17.2897 27.3309 17.2897 27.3309 17.2897L26.7853 16.7441L26.2397 16.1985C26.1554 16.1142 26.0512 16.0776 25.9476 16.0854C25.8482 16.0928 25.7601 16.1401 25.6964 16.2038C25.6326 16.2676 25.5853 16.3557 25.5779 16.4551C25.5702 16.5586 25.6067 16.6629 25.691 16.7472Z" fill="#E8A825" stroke="#E8A825" stroke-width="0.3"/>
</g>
<defs>
<clipPath id="clip0_3505_2313">
<rect width="24" height="24" fill="white" transform="translate(8 7.99988)"/>
</clipPath>
</defs>
</svg>
