<svg width="154" height="155" viewBox="0 0 154 155" fill="none" xmlns="http://www.w3.org/2000/svg">
<g style="mix-blend-mode:luminosity">
<g opacity="0.3">
<path d="M151.452 107.343C154.402 109.047 154.418 111.814 151.487 113.517L82.4128 153.659C79.4769 155.365 74.7032 155.362 71.7526 153.659L2.22729 113.518C-0.728066 111.812 -0.743821 109.05 2.1926 107.344L71.2664 67.2022C74.1975 65.499 78.9712 65.4958 81.926 67.2022L151.452 107.343Z" fill="#8499B1"/>
</g>
<path d="M151.599 97.245C151.548 97.2139 151.504 97.1813 151.452 97.1508L81.9257 57.0103C78.9704 55.3039 74.1973 55.3071 71.2661 57.0103L2.1923 97.152C2.14026 97.1819 2.09662 97.2145 2.04721 97.245H0.000244141V100.239C0.00653122 101.356 0.74878 102.473 2.22698 103.326L71.7528 143.467C74.7029 145.17 79.4766 145.173 82.4125 143.467L151.486 103.326C152.866 102.524 153.584 101.487 153.659 100.436H153.675V97.245H151.599Z" fill="#7F99AE"/>
<path d="M151.452 94.2559C154.402 95.9596 154.418 98.7272 151.487 100.431L82.4128 140.572C79.4769 142.278 74.7032 142.275 71.7526 140.572L2.22729 100.431C-0.728066 98.7252 -0.743821 95.9627 2.1926 94.2569L71.2664 54.1153C74.1975 52.4121 78.9712 52.4089 81.926 54.1153L151.452 94.2559Z" fill="#D2E4F3"/>
<mask id="mask0_4346_6467" style="mask-type:alpha" maskUnits="userSpaceOnUse" x="33" y="0" width="88" height="108">
<rect x="33.7809" width="87.128" height="107.85" fill="black"/>
</mask>
<g mask="url(#mask0_4346_6467)">
<mask id="mask1_4346_6467" style="mask-type:alpha" maskUnits="userSpaceOnUse" x="33" y="-1" width="88" height="109">
<rect x="33.7806" y="-0.000488281" width="87.128" height="107.85" fill="black"/>
</mask>
<g mask="url(#mask1_4346_6467)">
<g opacity="0.5">
<mask id="mask2_4346_6467" style="mask-type:alpha" maskUnits="userSpaceOnUse" x="56" y="88" width="41" height="23">
<rect x="56.9159" y="88.0637" width="39.0909" height="22.0074" fill="black"/>
</mask>
<g mask="url(#mask2_4346_6467)">
<mask id="mask3_4346_6467" style="mask-type:alpha" maskUnits="userSpaceOnUse" x="56" y="88" width="41" height="23">
<rect x="56.9156" y="88.0642" width="39.0911" height="22.0073" fill="black"/>
</mask>
<g mask="url(#mask3_4346_6467)">
<g opacity="0.669998">
<mask id="mask4_4346_6467" style="mask-type:alpha" maskUnits="userSpaceOnUse" x="56" y="88" width="41" height="23">
<rect x="56.9159" y="88.0645" width="39.0909" height="22.0074" fill="black"/>
</mask>
<g mask="url(#mask4_4346_6467)">
<mask id="mask5_4346_6467" style="mask-type:alpha" maskUnits="userSpaceOnUse" x="56" y="88" width="41" height="23">
<rect x="56.9154" y="88.0649" width="39.0911" height="22.0073" fill="black"/>
</mask>
<g mask="url(#mask5_4346_6467)">
<path d="M90.2816 106.85C82.6493 111.147 70.2737 111.147 62.6407 106.849C55.0069 102.552 55.0069 95.5849 62.64 91.2876C70.2723 86.9903 82.6479 86.9903 90.2816 91.2883C97.9146 95.5849 97.9146 102.552 90.2816 106.85" fill="#94B0CD"/>
</g>
</g>
</g>
<g opacity="0.669998">
<mask id="mask6_4346_6467" style="mask-type:alpha" maskUnits="userSpaceOnUse" x="60" y="89" width="33" height="20">
<rect x="60.3104" y="89.9758" width="32.2995" height="18.1841" fill="black"/>
</mask>
<g mask="url(#mask6_4346_6467)">
<mask id="mask7_4346_6467" style="mask-type:alpha" maskUnits="userSpaceOnUse" x="60" y="89" width="33" height="20">
<rect x="60.3104" y="89.9761" width="32.2994" height="18.1838" fill="black"/>
</mask>
<g mask="url(#mask7_4346_6467)">
<path d="M87.88 105.497C81.5732 109.047 71.3477 109.047 65.0409 105.497C58.7341 101.946 58.7334 96.1891 65.0402 92.639C71.347 89.0878 81.5725 89.0878 87.8793 92.639C94.1869 96.1898 94.1869 101.946 87.88 105.497Z" fill="#94B0CD"/>
</g>
</g>
</g>
<g opacity="0.899994">
<mask id="mask8_4346_6467" style="mask-type:alpha" maskUnits="userSpaceOnUse" x="63" y="91" width="27" height="16">
<rect x="63.6866" y="91.8757" width="25.549" height="14.3832" fill="black"/>
</mask>
<g mask="url(#mask8_4346_6467)">
<mask id="mask9_4346_6467" style="mask-type:alpha" maskUnits="userSpaceOnUse" x="63" y="91" width="27" height="16">
<rect x="63.6876" y="91.8755" width="25.5487" height="14.3832" fill="black"/>
</mask>
<g mask="url(#mask9_4346_6467)">
<path d="M85.494 104.153C80.5056 106.961 72.4172 106.961 67.4287 104.153C62.4396 101.344 62.4396 96.7905 67.4287 93.9817C72.4172 91.1736 80.5056 91.1736 85.494 93.9824C90.4831 96.7905 90.4831 101.344 85.494 104.153Z" fill="#8DA8C7"/>
</g>
</g>
</g>
</g>
</g>
</g>
<mask id="mask10_4346_6467" style="mask-type:alpha" maskUnits="userSpaceOnUse" x="46" y="58" width="9" height="12">
<path d="M51.6256 58.8801C53.8149 59.5224 55.0555 61.7743 54.3964 63.9099C53.7379 66.0452 50.1968 70.1959 48.0069 69.5522C45.8176 68.9096 45.8077 63.7172 46.4676 61.582C47.0064 59.8349 48.6511 58.7077 50.4298 58.707C50.8253 58.707 51.228 58.7634 51.6256 58.8801" fill="black"/>
</mask>
<g mask="url(#mask10_4346_6467)">
<rect width="13.6295" height="12.227" transform="matrix(0.295038 -0.955486 0.959499 0.281711 42.5551 69.2405)" fill="url(#paint0_radial_4346_6467)"/>
<rect width="13.6295" height="12.227" transform="matrix(0.295038 -0.955486 0.959499 0.281711 42.5551 69.2405)" fill="url(#paint1_linear_4346_6467)"/>
</g>
<mask id="mask11_4346_6467" style="mask-type:alpha" maskUnits="userSpaceOnUse" x="33" y="-1" width="88" height="109">
<rect x="33.7804" y="-0.000976562" width="87.128" height="107.85" fill="black"/>
</mask>
<g mask="url(#mask11_4346_6467)">
<g style="mix-blend-mode:lighten">
<mask id="mask12_4346_6467" style="mask-type:alpha" maskUnits="userSpaceOnUse" x="40" y="54" width="21" height="21">
<rect x="40.4497" y="54.2966" width="19.9621" height="19.8371" fill="black"/>
</mask>
<g mask="url(#mask12_4346_6467)">
<mask id="mask13_4346_6467" style="mask-type:alpha" maskUnits="userSpaceOnUse" x="46" y="58" width="9" height="12">
<path d="M51.6248 58.8796C53.4106 59.4035 54.5651 60.9992 54.5722 62.728V62.7606C54.5708 63.1409 54.5137 63.527 54.3955 63.9094C53.7363 66.0447 50.1952 70.1954 48.006 69.5517C46.6 69.1391 46.0926 66.8502 46.0847 64.6993V64.5938C46.0891 63.4341 46.2373 62.3235 46.4667 61.5815C47.0055 59.8344 48.6495 58.7072 50.429 58.7065C50.8244 58.7065 51.2264 58.7629 51.6248 58.8796" fill="black"/>
</mask>
<g mask="url(#mask13_4346_6467)">
<rect width="13.203" height="14.1912" transform="matrix(0.867632 -0.497208 0.516192 0.856473 40.9381 61.656)" fill="url(#paint2_linear_4346_6467)"/>
</g>
</g>
</g>
<path d="M50.1812 58.9042C51.3314 58.8042 52.8022 59.4699 53.4664 60.3914C54.1306 61.3126 53.7365 62.1412 52.5863 62.241C51.4354 62.3411 49.9646 61.6753 49.3004 60.7541C48.6362 59.8333 49.031 59.0043 50.1812 58.9042Z" fill="#8499B1"/>
<g style="mix-blend-mode:lighten" opacity="0.5">
<mask id="mask14_4346_6467" style="mask-type:alpha" maskUnits="userSpaceOnUse" x="48" y="58" width="7" height="5">
<rect x="48.3145" y="58.3296" width="6.13664" height="4.4865" fill="black"/>
</mask>
<g mask="url(#mask14_4346_6467)">
<mask id="mask15_4346_6467" style="mask-type:alpha" maskUnits="userSpaceOnUse" x="48" y="58" width="6" height="5">
<path d="M50.4525 58.895C51.5528 58.9083 52.8533 59.5414 53.4662 60.3913C54.1304 61.3126 53.7363 62.1411 52.5854 62.2409C52.5142 62.2473 52.4407 62.2507 52.3666 62.2507H52.3396C51.2336 62.2467 49.918 61.6115 49.3002 60.7541C48.636 59.8332 49.0301 59.0043 50.181 58.9042C50.2451 58.8988 50.3107 58.895 50.377 58.895H50.4525Z" fill="black"/>
</mask>
<g mask="url(#mask15_4346_6467)">
<rect width="5.77722" height="3.82024" transform="matrix(0.996225 -0.0868035 0.0912554 0.995828 48.3318 58.9209)" fill="#A8E5FF"/>
</g>
</g>
</g>
<path d="M48.9808 59.95C49.1846 59.7827 49.4789 59.6701 49.8567 59.6375C51.0061 59.5374 52.4777 60.2031 53.1419 61.1236C53.3457 61.4073 53.449 61.6811 53.4618 61.9285C53.8794 61.5864 53.9129 61.0103 53.4668 60.3914C52.8026 59.4699 51.3318 58.8042 50.1816 58.9042C49.3841 58.9738 48.9508 59.3928 48.9808 59.95" fill="#2E3B4A"/>
<g opacity="0.600006">
<mask id="mask16_4346_6467" style="mask-type:alpha" maskUnits="userSpaceOnUse" x="53" y="57" width="2" height="2">
<rect x="53.7059" y="57.8127" width="0.651995" height="0.63576" fill="black"/>
</mask>
<g mask="url(#mask16_4346_6467)">
<mask id="mask17_4346_6467" style="mask-type:alpha" maskUnits="userSpaceOnUse" x="53" y="57" width="2" height="2">
<rect x="53.7052" y="57.8135" width="0.651686" height="0.635765" fill="black"/>
</mask>
<g mask="url(#mask17_4346_6467)">
<path d="M54.0388 57.8136C53.8592 57.8092 53.7096 57.9483 53.7053 58.1234C53.701 58.2991 53.8435 58.4443 54.0239 58.4484C54.2034 58.4528 54.3523 58.3137 54.3573 58.1386C54.3616 57.9629 54.2184 57.817 54.0388 57.8136Z" fill="#2E3B4A"/>
</g>
</g>
</g>
<path d="M50.9626 55.5952C50.5073 55.585 50.131 55.9365 50.1196 56.38C50.1089 56.8231 50.4696 57.1909 50.9249 57.2018C51.3796 57.2116 51.7573 56.8608 51.7672 56.4173C51.7779 55.9735 51.4174 55.605 50.9626 55.5952" fill="#2E3B4A"/>
<g opacity="0.600006">
<mask id="mask18_4346_6467" style="mask-type:alpha" maskUnits="userSpaceOnUse" x="55" y="53" width="2" height="2">
<rect x="55.2052" y="53.7866" width="0.922837" height="0.899569" fill="black"/>
</mask>
<g mask="url(#mask18_4346_6467)">
<mask id="mask19_4346_6467" style="mask-type:alpha" maskUnits="userSpaceOnUse" x="55" y="53" width="2" height="2">
<rect x="55.2057" y="53.7864" width="0.922533" height="0.899569" fill="black"/>
</mask>
<g mask="url(#mask19_4346_6467)">
<path d="M55.6776 53.7865C55.4225 53.7807 55.2115 53.9775 55.2058 54.2262C55.1994 54.4743 55.4011 54.6799 55.6562 54.6857C55.9106 54.6918 56.1223 54.495 56.128 54.2463C56.1337 53.9982 55.9327 53.7926 55.6776 53.7865Z" fill="#2E3B4A"/>
</g>
</g>
</g>
<path d="M53.8333 54.1441C53.6587 54.1401 53.514 54.2741 53.5105 54.4451C53.5062 54.6148 53.6444 54.7556 53.819 54.76C53.9922 54.7634 54.1376 54.6287 54.1419 54.459C54.1454 54.2887 54.0072 54.1475 53.8333 54.1441" fill="#2E3B4A"/>
<path d="M54.1832 53.4524C54.0642 53.4504 53.9651 53.5423 53.9623 53.6584C53.9595 53.7751 54.0535 53.8715 54.1732 53.8745C54.2923 53.8766 54.3913 53.7846 54.3942 53.6686C54.397 53.5518 54.3029 53.4555 54.1832 53.4524Z" fill="#2E3B4A"/>
<g opacity="0.600006">
<mask id="mask20_4346_6467" style="mask-type:alpha" maskUnits="userSpaceOnUse" x="51" y="59" width="1" height="2">
<rect x="51.0568" y="59.3767" width="0.914875" height="0.891801" fill="black"/>
</mask>
<g mask="url(#mask20_4346_6467)">
<mask id="mask21_4346_6467" style="mask-type:alpha" maskUnits="userSpaceOnUse" x="51" y="59" width="1" height="2">
<rect x="51.0577" y="59.3772" width="0.914258" height="0.8915" fill="black"/>
</mask>
<g mask="url(#mask21_4346_6467)">
<path d="M51.5259 59.3776C51.2736 59.3711 51.0641 59.5666 51.0577 59.8126C51.0527 60.0586 51.2522 60.2628 51.5045 60.2683C51.7568 60.274 51.9663 60.0793 51.972 59.8333C51.9784 59.5873 51.7782 59.383 51.5259 59.3776Z" fill="#2E3B4A"/>
</g>
</g>
</g>
<path d="M52.9105 59.2287C52.5328 59.2205 52.22 59.5117 52.2108 59.8798C52.2021 60.2476 52.5008 60.5533 52.8785 60.5615C53.2561 60.5706 53.569 60.2788 53.5783 59.9103C53.5868 59.5429 53.2882 59.2372 52.9105 59.2287Z" fill="#2E3B4A"/>
</g>
<mask id="mask22_4346_6467" style="mask-type:alpha" maskUnits="userSpaceOnUse" x="54" y="44" width="13" height="13">
<path d="M61.4735 44.5083C64.8521 45.1608 67.0491 48.3601 66.3786 51.6544C65.7102 54.949 62.4299 57.0907 59.0513 56.4382C55.6727 55.7864 53.4763 52.5871 54.1448 49.2925C54.7327 46.3969 57.3395 44.3916 60.2556 44.3916C60.6575 44.3916 61.0645 44.4289 61.4735 44.5083" fill="black"/>
</mask>
<g mask="url(#mask22_4346_6467)">
<rect width="15.0424" height="15.8287" transform="matrix(0.198956 -0.980008 0.981874 0.189535 50.9954 56.6123)" fill="url(#paint3_radial_4346_6467)"/>
<rect width="15.0424" height="15.8287" transform="matrix(0.198956 -0.980008 0.981874 0.189535 50.9954 56.6123)" fill="url(#paint4_linear_4346_6467)"/>
</g>
<mask id="mask23_4346_6467" style="mask-type:alpha" maskUnits="userSpaceOnUse" x="33" y="-1" width="88" height="109">
<g style="mix-blend-mode:lighten">
<rect x="33.7804" y="-0.000976562" width="87.128" height="107.85" fill="black"/>
</g>
</mask>
<g mask="url(#mask23_4346_6467)">
<g style="mix-blend-mode:lighten">
<mask id="mask24_4346_6467" style="mask-type:alpha" maskUnits="userSpaceOnUse" x="46" y="37" width="28" height="27">
<rect x="46.7065" y="37.2573" width="27.107" height="26.4323" fill="black"/>
</mask>
<g mask="url(#mask24_4346_6467)">
<mask id="mask25_4346_6467" style="mask-type:alpha" maskUnits="userSpaceOnUse" x="54" y="44" width="13" height="13">
<path d="M63.6103 45.3445C66.515 47.1485 67.3701 50.9074 65.5202 53.7402C63.6694 56.5727 59.8148 57.4067 56.9101 55.602C55.053 54.4483 54.0339 52.4963 54.0232 50.4985V50.4367C54.0289 49.3292 54.3453 48.2095 55.0003 47.2062C56.1896 45.3862 58.2056 44.3914 60.2659 44.3914C61.4125 44.3914 62.572 44.6998 63.6103 45.3445" fill="black"/>
</mask>
<g mask="url(#mask25_4346_6467)">
<rect x="54.0232" y="44.3916" width="13.3465" height="13.0149" fill="url(#paint5_linear_4346_6467)"/>
</g>
</g>
</g>
</g>
<mask id="mask26_4346_6467" style="mask-type:alpha" maskUnits="userSpaceOnUse" x="59" y="46" width="33" height="37">
<path d="M91.3611 61.3922V61.6389C91.3111 73.3859 84.1214 82.8881 75.2598 82.8881C66.3676 82.8881 59.1593 73.3194 59.1593 61.515C59.1593 49.711 66.3676 46.1741 75.2598 46.1741C84.1214 46.1741 91.3112 49.6859 91.3611 61.3922Z" fill="black"/>
</mask>
<g mask="url(#mask26_4346_6467)">
<rect x="59.1593" y="46.1736" width="32.2019" height="36.7141" fill="url(#paint6_radial_4346_6467)"/>
<rect x="59.1593" y="46.1736" width="32.2019" height="36.7141" fill="url(#paint7_linear_4346_6467)"/>
<rect x="59.1593" y="46.1736" width="32.2019" height="36.7141" fill="url(#paint8_linear_4346_6467)"/>
</g>
<mask id="mask27_4346_6467" style="mask-type:alpha" maskUnits="userSpaceOnUse" x="33" y="-1" width="88" height="109">
<rect x="33.7804" y="-0.000976562" width="87.128" height="107.85" fill="black"/>
</mask>
<g mask="url(#mask27_4346_6467)">
<g style="mix-blend-mode:lighten">
<mask id="mask28_4346_6467" style="mask-type:alpha" maskUnits="userSpaceOnUse" x="59" y="46" width="33" height="37">
<rect x="59.1571" y="46.1741" width="32.2026" height="36.7143" fill="black"/>
</mask>
<g mask="url(#mask28_4346_6467)">
<mask id="mask29_4346_6467" style="mask-type:alpha" maskUnits="userSpaceOnUse" x="59" y="46" width="33" height="37">
<path d="M91.3594 61.3924V61.6391C91.3095 73.3862 84.1197 82.8884 75.2582 82.8884C66.3965 82.8884 59.2068 73.3855 59.1569 61.6384V61.3931C59.2068 49.6868 66.3965 46.1743 75.2582 46.1743C84.1197 46.1743 91.3095 49.6861 91.3594 61.3924" fill="black"/>
</mask>
<g mask="url(#mask29_4346_6467)">
<rect x="59.1569" y="46.1738" width="32.2022" height="36.7141" fill="url(#paint9_linear_4346_6467)"/>
</g>
</g>
</g>
<path d="M83.0301 56.8947C78.7387 59.3102 71.7812 59.3102 67.4897 56.8947C63.1976 54.4778 63.1976 50.5615 67.489 48.1454C71.7805 45.7299 78.738 45.7299 83.0294 48.1454C87.3209 50.5615 87.3209 54.4785 83.0301 56.8947Z" fill="#8499B1"/>
<g style="mix-blend-mode:lighten" opacity="0.5">
<mask id="mask30_4346_6467" style="mask-type:alpha" maskUnits="userSpaceOnUse" x="63" y="45" width="25" height="15">
<rect x="63.1979" y="45.73" width="24.1231" height="13.5811" fill="black"/>
</mask>
<g mask="url(#mask30_4346_6467)">
<mask id="mask31_4346_6467" style="mask-type:alpha" maskUnits="userSpaceOnUse" x="64" y="46" width="23" height="13">
<path d="M75.3424 46.3347C78.1267 46.3466 80.9046 46.9502 83.0289 48.1469C85.1689 49.3511 86.2422 50.9286 86.2479 52.508V52.5345C86.2422 54.1133 85.1689 55.6914 83.0296 56.8956C80.9053 58.0916 78.1274 58.6956 75.3438 58.7071H75.1757C72.3914 58.6956 69.6136 58.0916 67.4885 56.8949C65.3564 55.6948 64.2838 54.1238 64.2703 52.5504V52.4914C64.2838 50.9174 65.3564 49.3471 67.4885 48.1463C69.6128 46.9502 72.3907 46.3466 75.1743 46.3347L75.3424 46.3347Z" fill="black"/>
</mask>
<g mask="url(#mask31_4346_6467)">
<rect width="22.4289" height="13.1535" transform="matrix(0.999356 -0.0358922 0.0377455 0.999287 63.8041 46.3513)" fill="#A8E5FF"/>
</g>
</g>
</g>
<path d="M67.4885 49.7934C71.78 47.3772 78.7375 47.3772 83.029 49.7934C84.802 50.7913 85.8396 52.0454 86.1481 53.3442C86.5864 51.4984 85.5481 49.5634 83.029 48.1457C78.7375 45.7289 71.78 45.7289 67.4885 48.1451C64.9701 49.5634 63.9318 51.4977 64.3694 53.3435C64.6779 52.0454 65.7162 50.7913 67.4885 49.7934" fill="#2E3B4A"/>
<path d="M70.4649 29.6625C70.4649 32.5449 68.3897 36.0499 65.8299 37.4906C63.2709 38.9316 61.1957 37.7638 61.1957 34.8814C61.1957 31.9997 63.2709 28.4943 65.8299 27.0533C68.3897 25.6126 70.4649 26.7808 70.4649 29.6625Z" fill="#EAF4FF"/>
</g>
<mask id="mask32_4346_6467" style="mask-type:alpha" maskUnits="userSpaceOnUse" x="59" y="21" width="34" height="33">
<path d="M92.3194 37.7543C92.3194 46.5983 84.9671 53.7674 75.8975 53.7674C66.8278 53.7674 59.4762 46.5983 59.4762 37.7543C59.4762 28.911 66.8278 21.7412 75.8975 21.7412C84.9671 21.7412 92.3194 28.911 92.3194 37.7543Z" fill="black"/>
</mask>
<g mask="url(#mask32_4346_6467)">
<rect x="59.4762" y="21.7417" width="32.8432" height="32.0257" fill="url(#paint10_radial_4346_6467)"/>
<rect x="59.4762" y="21.7417" width="32.8432" height="32.0257" fill="url(#paint11_linear_4346_6467)"/>
</g>
<mask id="mask33_4346_6467" style="mask-type:alpha" maskUnits="userSpaceOnUse" x="33" y="-1" width="88" height="109">
<rect x="33.7804" y="-0.000976562" width="87.128" height="107.85" fill="black"/>
</mask>
<g mask="url(#mask33_4346_6467)">
<g style="mix-blend-mode:lighten">
<mask id="mask34_4346_6467" style="mask-type:alpha" maskUnits="userSpaceOnUse" x="54" y="17" width="43" height="42">
<rect x="54.9509" y="17.3274" width="41.8958" height="40.8529" fill="black"/>
</mask>
<g mask="url(#mask34_4346_6467)">
<mask id="mask35_4346_6467" style="mask-type:alpha" maskUnits="userSpaceOnUse" x="59" y="21" width="34" height="33">
<path d="M92.3208 37.7536C92.3208 46.5975 84.9679 53.7667 75.8989 53.7667C66.8292 53.7667 59.4777 46.5976 59.4777 37.7536C59.4777 28.9103 66.8292 21.7405 75.8989 21.7405C84.9679 21.7405 92.3208 28.9103 92.3208 37.7536Z" fill="black"/>
</mask>
<g mask="url(#mask35_4346_6467)">
<rect width="36.1892" height="37.0768" transform="matrix(0.142654 -0.989773 0.99074 0.135773 54.9513 53.1465)" fill="url(#paint12_linear_4346_6467)"/>
</g>
</g>
</g>
<path d="M70.7741 45.3386C70.3551 48.487 67.9172 49.476 65.3304 47.5478C62.7435 45.6185 60.9861 41.5027 61.4058 38.3533C61.8249 35.2049 64.2621 34.2162 66.849 36.1445C69.4365 38.0727 71.1938 42.1892 70.7741 45.3386" fill="#8499B1"/>
<g style="mix-blend-mode:lighten" opacity="0.5">
<mask id="mask36_4346_6467" style="mask-type:alpha" maskUnits="userSpaceOnUse" x="60" y="34" width="12" height="16">
<rect x="60.9872" y="34.2163" width="10.2073" height="15.2607" fill="black"/>
</mask>
<g mask="url(#mask36_4346_6467)">
<mask id="mask37_4346_6467" style="mask-type:alpha" maskUnits="userSpaceOnUse" x="61" y="35" width="10" height="14">
<path d="M66.8503 36.1445C69.4379 38.0735 71.1952 42.1892 70.7754 45.3386C70.3557 48.487 67.9185 49.4761 65.3317 47.5478C63.0113 45.8181 61.3587 42.3283 61.3452 39.3557V39.2814C61.3466 38.9652 61.3665 38.655 61.4071 38.3534C61.6815 36.2945 62.8189 35.1592 64.2962 35.1592C65.0779 35.1585 65.9552 35.4768 66.8503 36.1445" fill="black"/>
</mask>
<g mask="url(#mask37_4346_6467)">
<rect x="61.3452" y="35.1587" width="9.84975" height="14.3175" fill="#A8E5FF"/>
</g>
</g>
</g>
<path d="M68.6377 42.6121C68.4852 43.7566 67.5994 44.1156 66.6594 43.4153C65.7187 42.7143 65.0802 41.2179 65.2334 40.0735C65.3852 38.929 66.271 38.5697 67.2117 39.2703C68.1517 39.9713 68.7902 41.4677 68.6377 42.6121Z" fill="#2E3B4A"/>
<path d="M66.5724 47.0886C63.9856 45.1596 62.2282 41.0435 62.6473 37.8951C62.819 36.6109 63.3249 35.6866 64.0404 35.1719C62.6879 35.2961 61.6638 36.4144 61.4058 38.3535C60.9861 41.5029 62.7435 45.6194 65.3304 47.548C66.8624 48.6901 68.3419 48.8092 69.3816 48.0607C68.5379 48.1384 67.5666 47.8299 66.5724 47.0886" fill="#2E3B4A"/>
<path d="M65.5526 47.4448C62.9658 45.5165 61.2091 41.4001 61.6282 38.2513C61.8228 36.7937 62.4499 35.7999 63.3236 35.3435C62.3344 35.7402 61.6161 36.7747 61.4058 38.3535C60.9861 41.5029 62.7435 45.6186 65.3304 47.5479C66.7193 48.5831 68.0633 48.7749 69.0773 48.2455C68.0932 48.6402 66.8425 48.4067 65.5526 47.4448" fill="#2E3B4A"/>
</g>
<mask id="mask38_4346_6467" style="mask-type:alpha" maskUnits="userSpaceOnUse" x="86" y="59" width="14" height="13">
<path d="M94.1688 59.6121C97.5467 60.2646 99.7437 63.4639 99.0746 66.7585C98.4061 70.0528 95.1245 72.1945 91.7458 71.5427C88.3679 70.8895 86.1709 67.6909 86.8401 64.3963C87.428 61.5006 90.0341 59.4954 92.9509 59.4954C93.3521 59.4954 93.7598 59.5327 94.1688 59.6121" fill="black"/>
</mask>
<g mask="url(#mask38_4346_6467)">
<rect width="15.0424" height="15.8287" transform="matrix(0.198956 -0.980008 0.981874 0.189535 83.6898 71.7156)" fill="#425D7C"/>
</g>
<mask id="mask39_4346_6467" style="mask-type:alpha" maskUnits="userSpaceOnUse" x="33" y="-1" width="88" height="109">
<rect x="33.7804" y="-0.000976562" width="87.128" height="107.85" fill="black"/>
</mask>
<g mask="url(#mask39_4346_6467)">
<g style="mix-blend-mode:lighten">
<mask id="mask40_4346_6467" style="mask-type:alpha" maskUnits="userSpaceOnUse" x="79" y="52" width="28" height="27">
<rect x="79.7157" y="52.6658" width="26.4811" height="25.8219" fill="black"/>
</mask>
<g mask="url(#mask40_4346_6467)">
<mask id="mask41_4346_6467" style="mask-type:alpha" maskUnits="userSpaceOnUse" x="86" y="59" width="14" height="13">
<path d="M94.1683 59.6116C97.5462 60.2641 99.7432 63.4634 99.0741 66.758C98.4861 69.6526 95.88 71.6582 92.964 71.6589H92.9632C92.5613 71.6589 92.1544 71.6206 91.7453 71.5422C88.7851 70.9705 86.7312 68.4423 86.7198 65.6084V65.5593C86.7213 65.1755 86.7605 64.7856 86.8396 64.3958C87.4275 61.4995 90.0336 59.4949 92.9504 59.4949C93.3516 59.4949 93.7593 59.5322 94.1683 59.6116Z" fill="black"/>
</mask>
<g mask="url(#mask41_4346_6467)">
<rect width="17.7161" height="17.4593" transform="matrix(0.815959 -0.578109 0.597501 0.801868 80.787 63.6973)" fill="url(#paint13_linear_4346_6467)"/>
<rect width="17.7161" height="17.4593" transform="matrix(0.815959 -0.578109 0.597501 0.801868 80.787 63.6973)" fill="url(#paint14_linear_4346_6467)"/>
</g>
</g>
</g>
<path d="M98.9496 65.6951C98.9496 67.4096 97.7154 69.4943 96.1925 70.351C94.6696 71.2077 93.436 70.5135 93.436 68.7994C93.436 67.0849 94.6696 65.0002 96.1925 64.1428C97.7154 63.286 98.9496 63.9809 98.9496 65.6951" fill="#8499B1"/>
<g style="mix-blend-mode:lighten" opacity="0.5">
<mask id="mask42_4346_6467" style="mask-type:alpha" maskUnits="userSpaceOnUse" x="93" y="63" width="6" height="9">
<rect x="93.4363" y="63.2854" width="5.51323" height="7.92224" fill="black"/>
</mask>
<g mask="url(#mask42_4346_6467)">
<mask id="mask43_4346_6467" style="mask-type:alpha" maskUnits="userSpaceOnUse" x="93" y="63" width="6" height="8">
<path d="M98.95 65.6945C98.95 67.408 97.7165 69.4937 96.1936 70.3504C95.7588 70.5957 95.3477 70.7138 94.9821 70.7172H94.945C94.05 70.7081 93.4371 70.0071 93.4371 68.7988C93.4371 67.0843 94.6714 64.9996 96.1936 64.1429C96.6362 63.8935 97.0552 63.7754 97.425 63.7754C98.3294 63.7754 98.95 64.4784 98.95 65.6945Z" fill="black"/>
</mask>
<g mask="url(#mask43_4346_6467)">
<rect x="93.4371" y="63.7756" width="5.51283" height="6.94201" fill="#A8E5FF"/>
</g>
</g>
</g>
<path d="M97.4866 63.7786C97.7189 64.1023 97.8536 64.5525 97.8536 65.1154C97.8536 66.8296 96.6201 68.9143 95.0971 69.7714C94.6289 70.0347 94.1893 70.15 93.8037 70.1361C94.279 70.7998 95.1698 70.926 96.1932 70.3509C97.7154 69.4931 98.9496 67.4095 98.9496 65.695C98.9496 64.5074 98.3568 63.8105 97.4866 63.7786Z" fill="#2E3B4A"/>
<path d="M89.7581 43.6116L83.8096 46.9602V40.263L89.7581 36.9141V43.6116Z" fill="#8499B1"/>
<g opacity="0.800003">
<mask id="mask44_4346_6467" style="mask-type:alpha" maskUnits="userSpaceOnUse" x="83" y="36" width="7" height="11">
<rect x="83.8085" y="36.9136" width="5.94882" height="10.0461" fill="black"/>
</mask>
<g mask="url(#mask44_4346_6467)">
<mask id="mask45_4346_6467" style="mask-type:alpha" maskUnits="userSpaceOnUse" x="83" y="36" width="7" height="11">
<path d="M89.7581 43.6105L83.809 46.9598V45.9951L88.8739 43.144V37.4107L89.7581 36.9133V43.6105Z" fill="black"/>
</mask>
<g mask="url(#mask45_4346_6467)">
<rect x="83.809" y="36.9136" width="5.94913" height="10.0467" fill="#3D536C"/>
</g>
</g>
</g>
<path d="M84.9447 42.0929L84.4119 42.3928V41.793L84.9447 41.4927V42.0929Z" fill="#2E3B4A"/>
<path d="M86.0757 40.6871L85.5428 40.9871V40.3872L86.0757 40.0869V40.6871Z" fill="#2E3B4A"/>
<path d="M87.2064 40.8197L86.6737 41.1197V40.5198L87.2064 40.2195V40.8197Z" fill="#2E3B4A"/>
<path d="M87.2064 42.3932L86.6737 42.6931V42.0933L87.2064 41.793V42.3932Z" fill="#2E3B4A"/>
<path d="M86.5256 43.6029L85.9928 43.9029V43.303L86.5256 43.0027V43.6029Z" fill="#2E3B4A"/>
<path d="M88.3738 41.7363L87.8409 42.0362V41.4363L88.3738 41.1367V41.7363Z" fill="#2E3B4A"/>
</g>
<path d="M95.2029 40.7458L94.5515 41.8462V47.0776L89.9048 49.6936L89.2543 50.7929L88.6033 50.4268V43.7293L94.5515 40.3804L95.2029 40.7458Z" fill="#3F5064"/>
<mask id="mask46_4346_6467" style="mask-type:alpha" maskUnits="userSpaceOnUse" x="88" y="40" width="8" height="11">
<path d="M95.2029 40.7458L94.5515 41.8462V47.0776L89.9048 49.6936L89.2543 50.7929L88.6033 50.4268V43.7293L94.5515 40.3804L95.2029 40.7458Z" fill="black"/>
</mask>
<g mask="url(#mask46_4346_6467)">
<rect width="9.40116" height="11.8601" transform="matrix(0.95874 -0.284286 0.297712 0.954656 85.631 41.2617)" fill="#3F5064"/>
</g>
<mask id="mask47_4346_6467" style="mask-type:alpha" maskUnits="userSpaceOnUse" x="89" y="40" width="7" height="11">
<path d="M95.203 40.7464V47.4436L89.2544 50.7932V50.7929V44.0954L95.203 40.7461V40.7464Z" fill="black"/>
</mask>
<g mask="url(#mask47_4346_6467)">
<rect width="7.12319" height="10.6665" transform="matrix(0.99332 -0.115396 0.121277 0.992619 88.0439 40.8865)" fill="url(#paint15_linear_4346_6467)"/>
</g>
<mask id="mask48_4346_6467" style="mask-type:alpha" maskUnits="userSpaceOnUse" x="33" y="-1" width="88" height="109">
<g style="mix-blend-mode:lighten">
<rect x="33.7804" y="-0.000976562" width="87.128" height="107.85" fill="black"/>
</g>
</mask>
<g mask="url(#mask48_4346_6467)">
<g style="mix-blend-mode:lighten">
<mask id="mask49_4346_6467" style="mask-type:alpha" maskUnits="userSpaceOnUse" x="84" y="38" width="16" height="16">
<rect x="84.6932" y="38.1775" width="15.0717" height="15.1827" fill="black"/>
</mask>
<g mask="url(#mask49_4346_6467)">
<mask id="mask50_4346_6467" style="mask-type:alpha" maskUnits="userSpaceOnUse" x="89" y="40" width="7" height="11">
<path d="M95.2036 47.4429L89.2554 50.7918L89.255 50.7915V44.0946L95.2036 40.7454V47.4429Z" fill="black"/>
</mask>
<g mask="url(#mask50_4346_6467)">
<rect width="11.6783" height="10.3522" transform="matrix(0.526958 -0.849891 0.86144 0.507859 84.6932 48.1023)" fill="url(#paint16_linear_4346_6467)"/>
<rect width="11.6783" height="10.3522" transform="matrix(0.526958 -0.849891 0.86144 0.507859 84.6932 48.1023)" fill="url(#paint17_linear_4346_6467)"/>
</g>
</g>
</g>
</g>
<mask id="mask51_4346_6467" style="mask-type:alpha" maskUnits="userSpaceOnUse" x="88" y="77" width="10" height="12">
<path d="M94.4677 77.6213C96.6569 78.2633 97.8976 80.5163 97.2384 82.6508C96.5792 84.7864 93.0374 88.9361 90.8483 88.2935C88.6583 87.6508 88.6497 82.4578 89.3096 80.3229C89.8484 78.5761 91.4931 77.449 93.2719 77.449C93.6674 77.449 94.0693 77.5039 94.4677 77.6213" fill="black"/>
</mask>
<g mask="url(#mask51_4346_6467)">
<rect width="13.6293" height="12.2269" transform="matrix(0.295038 -0.955486 0.959499 0.281711 85.3975 87.9814)" fill="url(#paint18_linear_4346_6467)"/>
</g>
<g style="mix-blend-mode:lighten">
<mask id="mask52_4346_6467" style="mask-type:alpha" maskUnits="userSpaceOnUse" x="83" y="73" width="21" height="20">
<rect x="83.2924" y="73.0386" width="19.9618" height="19.8364" fill="black"/>
</mask>
<g mask="url(#mask52_4346_6467)">
<mask id="mask53_4346_6467" style="mask-type:alpha" maskUnits="userSpaceOnUse" x="88" y="77" width="10" height="12">
<path d="M93.2911 77.4485C93.6802 77.4498 94.0756 77.5055 94.4676 77.6209C96.6568 78.2628 97.8975 80.5158 97.2383 82.6504C96.5792 84.7859 93.0381 88.9356 90.8482 88.293C89.4471 87.8817 88.9383 85.6064 88.9269 83.462V83.3134C88.9333 82.1611 89.0815 81.0597 89.3089 80.3224C89.8469 78.5811 91.4831 77.4553 93.2561 77.4485L93.2911 77.4485Z" fill="black"/>
</mask>
<g mask="url(#mask53_4346_6467)">
<rect width="13.6162" height="14.431" transform="matrix(0.867631 -0.497208 0.516192 0.856473 83.7812 80.397)" fill="url(#paint19_linear_4346_6467)"/>
</g>
</g>
</g>
<path d="M93.0228 77.6459C94.1729 77.5459 95.6438 78.2116 96.308 79.1328C96.9729 80.0537 96.578 80.8819 95.4279 80.982C94.2777 81.0821 92.8068 80.4164 92.1426 79.4948C91.4784 78.5743 91.8726 77.746 93.0228 77.6459Z" fill="#8499B1"/>
<g style="mix-blend-mode:lighten" opacity="0.5">
<mask id="mask54_4346_6467" style="mask-type:alpha" maskUnits="userSpaceOnUse" x="91" y="77" width="7" height="5">
<rect x="91.1575" y="77.0706" width="6.13725" height="4.48661" fill="black"/>
</mask>
<g mask="url(#mask54_4346_6467)">
<mask id="mask55_4346_6467" style="mask-type:alpha" maskUnits="userSpaceOnUse" x="91" y="77" width="6" height="4">
<path d="M93.2948 77.6362C94.3958 77.6495 95.6957 78.2819 96.3092 79.1322C96.523 79.4298 96.627 79.7168 96.6314 79.9737V80.0053C96.6228 80.5285 96.1923 80.9153 95.4285 80.9821C94.2783 81.0822 92.8073 80.4165 92.1431 79.4949C91.9287 79.1984 91.8247 78.9107 91.8203 78.6535V78.6229C91.8289 78.0997 92.2594 77.7119 93.0233 77.6454C93.0881 77.6396 93.1529 77.6362 93.2192 77.6362L93.2948 77.6362Z" fill="black"/>
</mask>
<g mask="url(#mask55_4346_6467)">
<rect width="5.10508" height="3.85111" transform="matrix(0.996225 -0.0868041 0.091256 0.995827 91.5072 77.6633)" fill="#A8E5FF"/>
</g>
</g>
</g>
<path d="M91.8224 78.691C92.027 78.5234 92.3205 78.4107 92.6983 78.3782C93.8485 78.2781 95.3193 78.9438 95.9842 79.8653C96.188 80.148 96.2914 80.4225 96.3041 80.6698C96.7218 80.3275 96.7553 79.7513 96.3092 79.1328C95.645 78.2116 94.1742 77.5459 93.0233 77.6459C92.2265 77.7145 91.7932 78.1335 91.8224 78.691" fill="#2E3B4A"/>
<g opacity="0.600006">
<mask id="mask56_4346_6467" style="mask-type:alpha" maskUnits="userSpaceOnUse" x="95" y="74" width="2" height="2">
<rect x="95.7238" y="74.5327" width="0.651931" height="0.635464" fill="black"/>
</mask>
<g mask="url(#mask56_4346_6467)">
<mask id="mask57_4346_6467" style="mask-type:alpha" maskUnits="userSpaceOnUse" x="95" y="74" width="2" height="2">
<rect x="95.7245" y="74.533" width="0.651992" height="0.635464" fill="black"/>
</mask>
<g mask="url(#mask57_4346_6467)">
<path d="M96.2733 75.0821C96.4044 74.9626 96.4108 74.7611 96.2875 74.6332C96.165 74.5056 95.9584 74.4991 95.8272 74.6196C95.6961 74.739 95.6896 74.9406 95.8129 75.0685C95.9355 75.1961 96.1422 75.2025 96.2733 75.0821Z" fill="#2E3B4A"/>
</g>
</g>
</g>
<path d="M100.062 74.5591C100.394 74.2554 100.411 73.7468 100.099 73.4238C99.7878 73.1001 99.2662 73.0838 98.9341 73.3874C98.6027 73.6911 98.5863 74.2001 98.8977 74.5238C99.2091 74.8468 99.7308 74.8627 100.062 74.5591" fill="#2E3B4A"/>
<g opacity="0.600006">
<mask id="mask58_4346_6467" style="mask-type:alpha" maskUnits="userSpaceOnUse" x="97" y="78" width="2" height="2">
<rect x="97.2233" y="78.2949" width="0.922655" height="0.899569" fill="black"/>
</mask>
<g mask="url(#mask58_4346_6467)">
<mask id="mask59_4346_6467" style="mask-type:alpha" maskUnits="userSpaceOnUse" x="97" y="78" width="2" height="2">
<rect x="97.2234" y="78.2942" width="0.922533" height="0.899569" fill="black"/>
</mask>
<g mask="url(#mask59_4346_6467)">
<path d="M98.0006 79.0726C98.1859 78.9023 98.1951 78.6183 98.0212 78.4367C97.8466 78.2562 97.5552 78.2464 97.3692 78.4167C97.1831 78.587 97.1739 78.8717 97.3485 79.0526C97.5224 79.2331 97.8146 79.2429 98.0006 79.0726Z" fill="#2E3B4A"/>
</g>
</g>
</g>
<path d="M99.0581 77.5565C99.1856 77.4405 99.1921 77.246 99.0724 77.1215C98.9526 76.998 98.7538 76.9916 98.6262 77.1083C98.4993 77.2247 98.493 77.4191 98.612 77.5436C98.7317 77.6671 98.9313 77.6736 99.0581 77.5565" fill="#2E3B4A"/>
<path d="M99.3062 78.2884C99.3931 78.2083 99.3974 78.0756 99.3155 77.9908C99.2342 77.9056 99.0974 77.9019 99.0105 77.982C98.9235 78.061 98.9192 78.1937 99.0005 78.2792C99.0824 78.364 99.2192 78.3684 99.3062 78.2883" fill="#2E3B4A"/>
<g opacity="0.600006">
<mask id="mask60_4346_6467" style="mask-type:alpha" maskUnits="userSpaceOnUse" x="96" y="71" width="2" height="2">
<rect x="96.1726" y="71.4766" width="0.914291" height="0.891503" fill="black"/>
</mask>
<g mask="url(#mask60_4346_6467)">
<mask id="mask61_4346_6467" style="mask-type:alpha" maskUnits="userSpaceOnUse" x="96" y="71" width="2" height="2">
<rect x="96.1729" y="71.4763" width="0.913954" height="0.891503" fill="black"/>
</mask>
<g mask="url(#mask61_4346_6467)">
<path d="M96.9435 72.248C97.1273 72.0797 97.1366 71.7971 96.9641 71.6176C96.791 71.4384 96.5016 71.4293 96.3177 71.5976C96.1339 71.7662 96.1246 72.0485 96.2971 72.2277C96.4702 72.4071 96.7596 72.416 96.9435 72.248Z" fill="#2E3B4A"/>
</g>
</g>
</g>
<path d="M96.0615 73.2999C96.3366 73.0485 96.3502 72.6268 96.0921 72.3584C95.8342 72.0896 95.4009 72.0764 95.1258 72.3278C94.8501 72.5803 94.8372 73.002 95.0952 73.2708C95.3539 73.5391 95.7865 73.5524 96.0615 73.2999" fill="#2E3B4A"/>
<g opacity="0.399994">
<mask id="mask62_4346_6467" style="mask-type:alpha" maskUnits="userSpaceOnUse" x="33" y="53" width="23" height="23">
<rect x="33.7799" y="53.072" width="21.426" height="22.1806" fill="black"/>
</mask>
<g mask="url(#mask62_4346_6467)">
<mask id="mask63_4346_6467" style="mask-type:alpha" maskUnits="userSpaceOnUse" x="33" y="53" width="23" height="23">
<rect x="33.7799" y="53.0725" width="21.4257" height="22.1806" fill="black"/>
</mask>
<g mask="url(#mask63_4346_6467)">
<path d="M37.019 55.6912L33.7799 53.8677V53.0728L37.019 54.8962V55.6912Z" fill="#2E3B4A"/>
<path d="M39.7835 57.2474L38.1643 56.3357V55.54L39.7835 56.4524V57.2474Z" fill="#2E3B4A"/>
<path d="M37.9745 58.0945L36.5946 57.3175V56.5222L37.9745 57.2996V58.0945Z" fill="#2E3B4A"/>
<path d="M40.2857 59.3958L38.6665 58.4844V57.6887L40.2857 58.6008V59.3958Z" fill="#2E3B4A"/>
<path d="M42.9592 62.7651L36.5946 59.182V58.3867L42.9592 61.9701V62.7651Z" fill="#2E3B4A"/>
<path d="M37.9745 61.8235L36.5946 61.0465V60.2515L37.9745 61.0285V61.8235Z" fill="#2E3B4A"/>
<path d="M40.2857 63.1245L38.6665 62.2125V61.4175L40.2857 62.3295V63.1245Z" fill="#2E3B4A"/>
<path d="M40.0936 64.8811L36.5946 62.9114V62.1165L40.0936 64.0861V64.8811Z" fill="#2E3B4A"/>
<path d="M42.4355 66.1998L40.8163 65.2881V64.4924L42.4355 65.4048V66.1998Z" fill="#2E3B4A"/>
<path d="M44.7895 67.5247L43.1703 66.6133V65.8176L44.7895 66.7297V67.5247Z" fill="#2E3B4A"/>
<path d="M48.5885 69.6637L45.524 67.9383V67.1433L48.5885 68.8687V69.6637Z" fill="#2E3B4A"/>
<path d="M46.7526 72.3589L45.1333 71.4475V70.6519L46.7526 71.5639V72.3589Z" fill="#2E3B4A"/>
<path d="M50.5522 74.4976L47.4874 72.7723V71.9773L50.5522 73.7027V74.4976Z" fill="#2E3B4A"/>
<path d="M38.2146 67.5523L36.5953 66.64V65.845L38.2146 66.7574V67.5523Z" fill="#2E3B4A"/>
<path d="M40.5684 68.878L38.9491 67.9663V67.1707L40.5684 68.083V68.878Z" fill="#2E3B4A"/>
<path d="M44.3673 71.0169L41.3027 69.2916V68.4966L44.3673 70.2219V71.0169Z" fill="#2E3B4A"/>
<path d="M49.052 71.7886L47.4327 70.8765V70.0815L49.052 70.9936V71.7886Z" fill="#2E3B4A"/>
<path d="M51.4059 73.1145L49.7866 72.2031V71.4075L51.4059 72.3195V73.1145Z" fill="#2E3B4A"/>
<path d="M55.2049 75.253L52.1404 73.5277V72.7327L55.2049 74.458V75.253Z" fill="#2E3B4A"/>
<path d="M38.2146 71.2813L36.5953 70.3692V69.5742L38.2146 70.4863V71.2813Z" fill="#2E3B4A"/>
<path d="M42.0129 73.4202L38.9481 71.6949V70.8999L42.0129 72.6253V73.4202Z" fill="#2E3B4A"/>
<path d="M47.8013 65.4903L46.182 64.5779V63.783L47.8013 64.6953V65.4903Z" fill="#2E3B4A"/>
<path d="M45.3523 64.1121L43.733 63.2V62.405L45.3523 63.3171V64.1121Z" fill="#2E3B4A"/>
<path d="M51.5997 67.6295L48.5349 65.9045V65.1091L51.5997 66.8345V67.6295Z" fill="#2E3B4A"/>
<path d="M38.0561 65.5983L36.5946 64.7758V63.9805L38.0561 64.8033V65.5983Z" fill="#2E3B4A"/>
<path d="M42.389 68.038L38.8373 66.0385V65.2432L42.389 67.243V68.038Z" fill="#2E3B4A"/>
<path d="M46.7215 70.4774L43.1698 68.4782V67.6829L46.7215 69.6824V70.4774Z" fill="#2E3B4A"/>
<path d="M53.8509 68.8965L52.3894 68.074V67.2783L53.8509 68.1015V68.8965Z" fill="#2E3B4A"/>
<path d="M40.1777 70.5221L36.626 68.523V67.7273L40.1777 69.7272V70.5221Z" fill="#2E3B4A"/>
<path d="M42.0498 71.5765L40.9587 70.9623V70.167L42.0498 70.7815V71.5765Z" fill="#2E3B4A"/>
<path d="M43.9265 72.6332L42.8358 72.0191V71.2234L43.9265 71.8382V72.6332Z" fill="#2E3B4A"/>
<path d="M47.3949 74.5858L44.7113 73.0753V72.2803L47.3949 73.7909V74.5858Z" fill="#2E3B4A"/>
<path d="M48.1242 74.9961L45.4406 73.4852V72.6902L48.1242 74.2011V74.9961Z" fill="#2E3B4A"/>
<path d="M50.4006 70.6836L49.3096 70.0698V69.2742L50.4006 69.8887V70.6836Z" fill="#2E3B4A"/>
<path d="M53.8696 72.6365L51.1859 71.1256V70.3306L53.8696 71.8415V72.6365Z" fill="#2E3B4A"/>
<path d="M34.9025 71.2813L33.8114 70.6672V69.8718L34.9025 70.4863V71.2813Z" fill="#2E3B4A"/>
<path d="M38.371 73.2344L35.6874 71.7235V70.9285L38.371 72.4394V73.2344Z" fill="#2E3B4A"/>
<path d="M41.9145 75.2294L39.2308 73.7188V72.9238L41.9145 74.4344V75.2294Z" fill="#2E3B4A"/>
</g>
</g>
</g>
<mask id="mask64_4346_6467" style="mask-type:alpha" maskUnits="userSpaceOnUse" x="33" y="-1" width="88" height="109">
<rect x="33.7804" y="-0.000976562" width="87.128" height="107.85" fill="black"/>
</mask>
<g mask="url(#mask64_4346_6467)">
</g>
</g>
</g>
</g>
<defs>
<radialGradient id="paint0_radial_4346_6467" cx="0" cy="0" r="1" gradientUnits="userSpaceOnUse" gradientTransform="translate(11.12 7.48868) rotate(-141.829) scale(7992.16 7850.19)">
<stop stop-color="#6A7E95"/>
<stop offset="1" stop-color="#E4E4E4"/>
</radialGradient>
<linearGradient id="paint1_linear_4346_6467" x1="6.81477" y1="0" x2="6.81477" y2="12.227" gradientUnits="userSpaceOnUse">
<stop stop-color="#D5E5F7"/>
<stop offset="1" stop-color="#B3CCE8" stop-opacity="0"/>
</linearGradient>
<linearGradient id="paint2_linear_4346_6467" x1="6.60148" y1="0" x2="6.60148" y2="14.1912" gradientUnits="userSpaceOnUse">
<stop stop-color="#D5E5F7"/>
<stop offset="1" stop-color="#B3CCE8" stop-opacity="0"/>
</linearGradient>
<radialGradient id="paint3_radial_4346_6467" cx="0" cy="0" r="1" gradientUnits="userSpaceOnUse" gradientTransform="translate(32.5135 33.2281) rotate(-143.114) scale(8001.16 8175.61)">
<stop stop-color="#6A7E95"/>
<stop offset="1" stop-color="#E4E4E4"/>
</radialGradient>
<linearGradient id="paint4_linear_4346_6467" x1="7.52121" y1="0" x2="7.52121" y2="15.8287" gradientUnits="userSpaceOnUse">
<stop stop-color="#D5E5F7"/>
<stop offset="1" stop-color="#B3CCE8" stop-opacity="0"/>
</linearGradient>
<linearGradient id="paint5_linear_4346_6467" x1="60.6965" y1="44.3916" x2="60.6965" y2="57.4065" gradientUnits="userSpaceOnUse">
<stop stop-color="#D5E5F7"/>
<stop offset="1" stop-color="#B3CCE8" stop-opacity="0"/>
</linearGradient>
<radialGradient id="paint6_radial_4346_6467" cx="0" cy="0" r="1" gradientUnits="userSpaceOnUse" gradientTransform="translate(84.7601 58.312) rotate(85.1229) scale(2013.14 1799.23)">
<stop stop-color="#6A7E95"/>
<stop offset="1" stop-color="#E4E4E4"/>
</radialGradient>
<linearGradient id="paint7_linear_4346_6467" x1="75.2603" y1="46.1736" x2="75.2603" y2="82.8877" gradientUnits="userSpaceOnUse">
<stop stop-color="#D5E5F7"/>
<stop offset="1" stop-color="#B3CCE8" stop-opacity="0"/>
</linearGradient>
<linearGradient id="paint8_linear_4346_6467" x1="75.2603" y1="46.1736" x2="75.2603" y2="82.8877" gradientUnits="userSpaceOnUse">
<stop stop-color="#D5E5F7"/>
<stop offset="1" stop-color="#B3CCE8" stop-opacity="0"/>
</linearGradient>
<linearGradient id="paint9_linear_4346_6467" x1="75.258" y1="46.1738" x2="75.258" y2="82.8879" gradientUnits="userSpaceOnUse">
<stop stop-color="#D5E5F7"/>
<stop offset="1" stop-color="#B3CCE8" stop-opacity="0"/>
</linearGradient>
<radialGradient id="paint10_radial_4346_6467" cx="0" cy="0" r="1" gradientUnits="userSpaceOnUse" gradientTransform="translate(86.146 35.3824) scale(27.7533 27.0647)">
<stop stop-color="#6A7E95"/>
<stop offset="1" stop-color="#E4E4E4"/>
</radialGradient>
<linearGradient id="paint11_linear_4346_6467" x1="75.8978" y1="21.7417" x2="75.8978" y2="53.7674" gradientUnits="userSpaceOnUse">
<stop stop-color="#D5E5F7"/>
<stop offset="1" stop-color="#B3CCE8" stop-opacity="0"/>
</linearGradient>
<linearGradient id="paint12_linear_4346_6467" x1="18.0946" y1="0" x2="18.0946" y2="37.0768" gradientUnits="userSpaceOnUse">
<stop stop-color="#D5E5F7"/>
<stop offset="1" stop-color="#B3CCE8" stop-opacity="0"/>
</linearGradient>
<linearGradient id="paint13_linear_4346_6467" x1="8.85805" y1="0" x2="8.85805" y2="17.4593" gradientUnits="userSpaceOnUse">
<stop stop-color="#E6F2FF"/>
<stop offset="1" stop-color="#CBE4FF" stop-opacity="0"/>
</linearGradient>
<linearGradient id="paint14_linear_4346_6467" x1="8.85805" y1="0" x2="8.85805" y2="17.4593" gradientUnits="userSpaceOnUse">
<stop stop-color="#D5E5F7"/>
<stop offset="1" stop-color="#B3CCE8" stop-opacity="0"/>
</linearGradient>
<linearGradient id="paint15_linear_4346_6467" x1="-861.541" y1="-5613.66" x2="-861.228" y2="-5613.66" gradientUnits="userSpaceOnUse">
<stop stop-color="#687D94"/>
<stop offset="0.130511" stop-color="#7B837E"/>
<stop offset="0.371932" stop-color="#988C5E"/>
<stop offset="0.603299" stop-color="#AE9346"/>
<stop offset="0.818091" stop-color="#BB9737"/>
<stop offset="1" stop-color="#C09933"/>
</linearGradient>
<linearGradient id="paint16_linear_4346_6467" x1="-878.41" y1="-5633.31" x2="-878.103" y2="-5633.31" gradientUnits="userSpaceOnUse">
<stop stop-color="#687D94"/>
<stop offset="5.32779e-09" stop-color="#687D94"/>
<stop offset="0.340224" stop-color="#425C8A"/>
<stop offset="0.729802" stop-color="#A4AEC0"/>
<stop offset="1" stop-color="#E4E4E4"/>
</linearGradient>
<linearGradient id="paint17_linear_4346_6467" x1="5.83916" y1="0" x2="5.83916" y2="10.3522" gradientUnits="userSpaceOnUse">
<stop stop-color="#D5E5F7"/>
<stop offset="1" stop-color="#B3CCE8" stop-opacity="0"/>
</linearGradient>
<linearGradient id="paint18_linear_4346_6467" x1="6.81463" y1="0" x2="6.81463" y2="12.2269" gradientUnits="userSpaceOnUse">
<stop stop-color="#789BAF"/>
<stop offset="1" stop-color="#B4D0F0"/>
</linearGradient>
<linearGradient id="paint19_linear_4346_6467" x1="6.8081" y1="0" x2="6.8081" y2="14.431" gradientUnits="userSpaceOnUse">
<stop stop-color="#D5E5F7"/>
<stop offset="1" stop-color="#697F98"/>
</linearGradient>
</defs>
</svg>
