<svg width="32" height="32" viewBox="0 0 32 32" fill="none" xmlns="http://www.w3.org/2000/svg">
<path d="M10.223 25.7388C8.335 24.6502 7.39103 24.1059 6.68079 23.3599C5.87187 22.5103 5.27853 21.4703 4.95272 20.331C4.66666 19.3307 4.66666 18.2205 4.66666 16C4.66666 13.7795 4.66666 12.6693 4.95272 11.669C5.27853 10.5297 5.87187 9.48975 6.68079 8.64013C7.39103 7.89414 8.335 7.34983 10.223 6.26122L10.4437 6.13393C12.4705 4.96527 13.4838 4.38094 14.5584 4.15197C15.5093 3.94934 16.4907 3.94934 17.4416 4.15197C18.5161 4.38094 19.5295 4.96527 21.5563 6.13393L21.777 6.26122C23.665 7.34983 24.609 7.89414 25.3192 8.64013C26.1281 9.48975 26.7215 10.5297 27.0473 11.669C27.3333 12.6693 27.3333 13.7795 27.3333 16C27.3333 18.2205 27.3333 19.3307 27.0473 20.331C26.7215 21.4703 26.1281 22.5103 25.3192 23.3599C24.609 24.1059 23.665 24.6502 21.777 25.7388L21.5563 25.8661C19.5295 27.0347 18.5161 27.6191 17.4416 27.848C16.4907 28.0507 15.5093 28.0507 14.5584 27.848C13.4839 27.6191 12.4705 27.0347 10.4437 25.8661L10.223 25.7388Z" fill="white" fill-opacity="0.2"/>
<path d="M12.4583 16C12.4583 13.9949 14.044 12.3695 16 12.3695C17.956 12.3695 19.5417 13.9949 19.5417 16C19.5417 18.0051 17.956 19.6305 16 19.6305C14.044 19.6305 12.4583 18.0051 12.4583 16Z" fill="white" fill-opacity="0.2"/>
<path d="M21.5563 25.8661L21.1817 25.2163H21.1816L21.5563 25.8661ZM17.4416 27.848L17.2853 27.1145L17.4416 27.848ZM10.4437 25.8661L10.0691 26.5158H10.0691L10.4437 25.8661ZM14.5584 27.848L14.7147 27.1145L14.5584 27.848ZM27.0473 20.331L26.3262 20.1248L27.0473 20.331ZM21.777 25.7388L22.1517 26.3885L21.777 25.7388ZM25.3192 23.3599L24.776 22.8427L25.3192 23.3599ZM21.777 6.26122L22.1517 5.61149V5.61149L21.777 6.26122ZM25.3192 8.64013L24.776 9.15728L25.3192 8.64013ZM27.0473 11.669L26.3262 11.8752L27.0473 11.669ZM10.4437 6.13393L10.0691 5.48421L10.0691 5.48421L10.4437 6.13393ZM14.5584 4.15197L14.7147 4.8855L14.5584 4.15197ZM21.5563 6.13393L21.1816 6.78366H21.1816L21.5563 6.13393ZM17.4416 4.15197L17.2853 4.8855L17.4416 4.15197ZM4.66666 16H3.91666H4.66666ZM4.95272 11.669L5.67381 11.8752L4.95272 11.669ZM10.223 6.26122L10.5976 6.91094L10.223 6.26122ZM6.68079 8.64013L6.1376 8.12297L6.68079 8.64013ZM4.95272 20.331L4.23163 20.5372L4.95272 20.331ZM10.223 25.7388L10.5976 25.0891H10.5976L10.223 25.7388ZM6.68079 23.3599L6.1376 23.877L6.68079 23.3599ZM10.5976 6.91094L10.8183 6.78366L10.0691 5.48421L9.84831 5.61149L10.5976 6.91094ZM21.1816 6.78366L21.4024 6.91095L22.1517 5.61149L21.9309 5.48421L21.1816 6.78366ZM21.4024 25.0891L21.1817 25.2163L21.9309 26.5158L22.1517 26.3885L21.4024 25.0891ZM10.8183 25.2163L10.5976 25.0891L9.84831 26.3885L10.0691 26.5158L10.8183 25.2163ZM21.1816 25.2163C19.1111 26.4103 18.2165 26.9161 17.2853 27.1145L17.5979 28.5816C18.8158 28.3221 19.948 27.6592 21.9309 26.5158L21.1816 25.2163ZM10.0691 26.5158C12.052 27.6592 13.1842 28.3221 14.4021 28.5816L14.7147 27.1145C13.7835 26.9161 12.8889 26.4103 10.8183 25.2163L10.0691 26.5158ZM17.2853 27.1145C16.4374 27.2952 15.5625 27.2952 14.7147 27.1145L14.4021 28.5816C15.456 28.8061 16.544 28.8061 17.5979 28.5816L17.2853 27.1145ZM26.5833 16C26.5833 18.2653 26.5764 19.2496 26.3262 20.1248L27.7684 20.5372C28.0902 19.4118 28.0833 18.1757 28.0833 16H26.5833ZM22.1517 26.3885C24.0001 25.3227 25.0598 24.72 25.8624 23.877L24.776 22.8427C24.1581 23.4917 23.3299 23.9776 21.4024 25.0891L22.1517 26.3885ZM26.3262 20.1248C26.0333 21.1488 25.5005 22.0818 24.776 22.8427L25.8624 23.877C26.7557 22.9387 27.4096 21.7918 27.7684 20.5372L26.3262 20.1248ZM21.4024 6.91095C23.3299 8.02235 24.1581 8.50832 24.776 9.15728L25.8624 8.12297C25.0598 7.27997 24.0001 6.67732 22.1517 5.61149L21.4024 6.91095ZM28.0833 16C28.0833 13.8243 28.0902 12.5882 27.7684 11.4628L26.3262 11.8752C26.5764 12.7504 26.5833 13.7347 26.5833 16H28.0833ZM24.776 9.15728C25.5005 9.91824 26.0333 10.8512 26.3262 11.8752L27.7684 11.4628C27.4096 10.2082 26.7557 9.06126 25.8624 8.12297L24.776 9.15728ZM10.8183 6.78366C12.8889 5.58973 13.7835 5.08394 14.7147 4.8855L14.4021 3.41844C13.1842 3.67795 12.052 4.34081 10.0691 5.48421L10.8183 6.78366ZM21.9309 5.48421C19.948 4.34081 18.8157 3.67795 17.5979 3.41844L17.2853 4.8855C18.2165 5.08394 19.1111 5.58973 21.1816 6.78366L21.9309 5.48421ZM14.7147 4.8855C15.5625 4.70483 16.4374 4.70483 17.2853 4.8855L17.5979 3.41844C16.544 3.19385 15.456 3.19385 14.4021 3.41844L14.7147 4.8855ZM5.41666 16C5.41666 13.7347 5.42353 12.7504 5.67381 11.8752L4.23163 11.4628C3.90978 12.5882 3.91666 13.8243 3.91666 16H5.41666ZM9.84831 5.61149C7.99988 6.67732 6.94021 7.27997 6.1376 8.12297L7.22397 9.15728C7.84184 8.50832 8.67012 8.02235 10.5976 6.91094L9.84831 5.61149ZM5.67381 11.8752C5.96665 10.8512 6.49948 9.91824 7.22397 9.15728L6.1376 8.12297C5.24427 9.06126 4.5904 10.2082 4.23163 11.4628L5.67381 11.8752ZM3.91666 16C3.91666 18.1757 3.90978 19.4118 4.23163 20.5372L5.67381 20.1248C5.42353 19.2496 5.41666 18.2653 5.41666 16H3.91666ZM10.5976 25.0891C8.67012 23.9776 7.84184 23.4917 7.22397 22.8427L6.1376 23.877C6.94021 24.72 7.99988 25.3227 9.84831 26.3885L10.5976 25.0891ZM4.23163 20.5372C4.5904 21.7918 5.24427 22.9387 6.1376 23.877L7.22397 22.8427C6.49948 22.0818 5.96666 21.1488 5.67381 20.1248L4.23163 20.5372ZM16 18.8805C14.4756 18.8805 13.2083 17.6085 13.2083 16H11.7083C11.7083 18.4017 13.6124 20.3805 16 20.3805V18.8805ZM18.7917 16C18.7917 17.6085 17.5244 18.8805 16 18.8805V20.3805C18.3876 20.3805 20.2917 18.4017 20.2917 16H18.7917ZM16 13.1195C17.5244 13.1195 18.7917 14.3915 18.7917 16H20.2917C20.2917 13.5983 18.3876 11.6195 16 11.6195V13.1195ZM16 11.6195C13.6124 11.6195 11.7083 13.5983 11.7083 16H13.2083C13.2083 14.3915 14.4756 13.1195 16 13.1195V11.6195Z" fill="white"/>
</svg>
