<svg width="40" height="40" viewBox="0 0 40 40" fill="none" xmlns="http://www.w3.org/2000/svg">
<circle opacity="0.2" cx="20" cy="20" r="20" fill="#4AB0A6"/>
<path d="M12.3245 16.9253C12.891 14.6441 14.6998 12.8803 16.9942 12.3719L17.3764 12.2872C19.1045 11.9043 20.8955 11.9043 22.6236 12.2872L23.0058 12.3719C25.3002 12.8803 27.109 14.6441 27.6755 16.9253C28.1082 18.6679 28.1082 20.49 27.6755 22.2326C27.109 24.5138 25.3002 26.2776 23.0058 26.786L22.6236 26.8707C20.8955 27.2536 19.1045 27.2536 17.3764 26.8707L16.9942 26.786C14.6998 26.2776 12.891 24.5138 12.3245 22.2326C11.8918 20.49 11.8918 18.6679 12.3245 16.9253Z" stroke="#4AB0A6" stroke-width="1.5"/>
<path fill-rule="evenodd" clip-rule="evenodd" d="M20.0002 15.3684C20.3222 15.3684 20.5832 15.6143 20.5832 15.9176V16.3669H20.6478C21.732 16.3669 22.5263 17.2549 22.5263 18.2475C22.5263 18.5508 22.2653 18.7967 21.9433 18.7967C21.6213 18.7967 21.3603 18.5508 21.3603 18.2475C21.3603 17.7696 20.9946 17.4653 20.6478 17.4653H20.5832V19.1943L21.3704 19.4639C22.0857 19.709 22.5263 20.3754 22.5263 21.0811C22.5263 21.9794 21.8064 22.7909 20.814 22.7909H20.5832V23.2403C20.5832 23.5436 20.3222 23.7895 20.0002 23.7895C19.6782 23.7895 19.4172 23.5436 19.4172 23.2403V22.7909H19.3522C18.268 22.7909 17.4737 21.903 17.4737 20.9103C17.4737 20.607 17.7347 20.3611 18.0567 20.3611C18.3787 20.3611 18.6397 20.607 18.6397 20.9103C18.6397 21.3882 19.0054 21.6925 19.3522 21.6925H19.4172V19.9636L18.6297 19.6939C17.9144 19.4488 17.4737 18.7825 17.4737 18.0767C17.4737 17.1784 18.1936 16.3669 19.186 16.3669H19.4172V15.9176C19.4172 15.6143 19.6782 15.3684 20.0002 15.3684ZM19.4172 17.4653H19.186C18.931 17.4653 18.6397 17.6931 18.6397 18.0767C18.6397 18.3701 18.8211 18.5907 19.0281 18.6616L19.4172 18.7949V17.4653ZM20.5832 20.3631V21.6925H20.814C21.069 21.6925 21.3603 21.4647 21.3603 21.0811C21.3603 20.7877 21.1789 20.5671 20.9719 20.4962L20.5832 20.3631Z" fill="#4AB0A6"/>
</svg>
