<svg width="24" height="24" viewBox="0 0 24 24" fill="none" xmlns="http://www.w3.org/2000/svg">
<path d="M9.65719 5.56839C10.4277 5.38766 11.2138 5.2973 12 5.2973C12.3582 5.2973 12.6486 5.00689 12.6486 4.64865C12.6486 4.29041 12.3582 4 12 4C11.1144 4 10.2288 4.10179 9.36093 4.30538C6.85244 4.89379 4.89379 6.85244 4.30538 9.36093C3.89821 11.0968 3.89821 12.9032 4.30538 14.6391C4.89379 17.1476 6.85244 19.1062 9.36093 19.6946C11.0968 20.1018 12.9032 20.1018 14.6391 19.6946C17.1476 19.1062 19.1062 17.1476 19.6946 14.6391C19.8982 13.7711 20 12.8856 20 12C20 11.6417 19.7096 11.3513 19.3514 11.3513C18.9931 11.3513 18.7027 11.6417 18.7027 12C18.7027 12.7862 18.6123 13.5723 18.4316 14.3428C17.9557 16.3716 16.3716 17.9557 14.3428 18.4316C12.8018 18.7931 11.1982 18.7931 9.6572 18.4316C7.62839 17.9557 6.04429 16.3716 5.56839 14.3428C5.20693 12.8019 5.20693 11.1982 5.56839 9.65719C6.04429 7.62839 7.62839 6.04428 9.65719 5.56839Z" fill="#4F4F4F"/>
<path d="M15.8919 4C15.5337 4 15.2432 4.29041 15.2432 4.64865C15.2432 5.00689 15.5337 5.2973 15.8919 5.2973H17.7854L13.7035 9.37917C13.4502 9.63249 13.4502 10.0432 13.7035 10.2965C13.9568 10.5498 14.3675 10.5498 14.6208 10.2965L18.7027 6.21463V8.10811C18.7027 8.46635 18.9931 8.75676 19.3514 8.75676C19.7096 8.75676 20 8.46635 20 8.10811V4.64865C20 4.29041 19.7096 4 19.3514 4H15.8919Z" fill="#4F4F4F"/>
</svg>
