<svg width="118" height="141" viewBox="0 0 118 141" fill="none" xmlns="http://www.w3.org/2000/svg">
<g opacity="0.3">
<path d="M115.553 105.204C117.751 106.473 117.763 108.535 115.579 109.804L64.1114 139.714C61.9238 140.986 58.3669 140.983 56.1688 139.714L4.36453 109.805C2.16248 108.534 2.15073 106.475 4.33868 105.204L55.8061 75.2944C57.9901 74.0254 61.547 74.0231 63.7487 75.2944L115.553 105.204Z" fill="#8499B1"/>
</g>
<path d="M115.663 97.6797C115.625 97.6566 115.592 97.6323 115.553 97.6095L63.7491 67.7005C61.5471 66.429 57.9902 66.4314 55.8062 67.7005L4.33877 97.6104C4.3 97.6326 4.26748 97.6569 4.23067 97.6797H2.70544V99.9103C2.71014 100.743 3.2636 101.575 4.36463 102.211L56.1689 132.12C58.367 133.389 61.9239 133.391 64.1115 132.12L115.579 102.21C116.607 101.613 117.142 100.841 117.198 100.057H117.209V97.6797H115.663Z" fill="#7F99AE"/>
<path d="M115.553 95.4526C117.751 96.722 117.763 98.7842 115.579 100.053L64.1114 129.963C61.9238 131.235 58.3669 131.232 56.1688 129.963L4.36453 100.054C2.16248 98.7827 2.15073 96.7243 4.33868 95.4533L55.8061 65.5435C57.9901 64.2744 61.547 64.2721 63.7487 65.5435L115.553 95.4526Z" fill="url(#paint0_linear_4346_6348)"/>
<path opacity="0.3" d="M30.3231 99.1563C30.9271 99.5052 30.9298 100.072 30.33 100.42L24.8555 103.602C24.2556 103.951 23.2773 103.951 22.6737 103.602L17.1632 100.42C16.5582 100.071 16.5564 99.5052 17.1562 99.1563L22.6307 95.9749C23.2306 95.6264 24.2076 95.626 24.8125 95.9749L30.3231 99.1563Z" fill="#8499B1"/>
<path d="M30.3234 90.0317C30.9274 90.3806 30.9302 90.9471 30.3303 91.2957L24.8558 94.477C24.256 94.8259 23.2776 94.8259 22.6741 94.477L17.1635 91.2957C16.5586 90.9467 16.5567 90.3806 17.1566 90.0321L22.6311 86.8508C23.231 86.5019 24.2079 86.5014 24.8129 86.8503L30.3234 90.0317Z" fill="#D3E3F4"/>
<path d="M28.9545 90.6683L27.7488 91.3676L24.2356 93.4098C24.1548 93.4569 23.9773 93.5046 23.7656 93.5046C23.5387 93.5046 23.3677 93.4528 23.291 93.4074L19.7376 91.3564L18.5323 90.6614L23.2508 87.9177C23.3317 87.8705 23.5091 87.8235 23.7208 87.8235C23.9477 87.8235 24.1187 87.8747 24.1954 87.9201L28.9545 90.6683Z" fill="url(#paint1_linear_4346_6348)"/>
<path d="M27.7485 91.3675L24.2353 93.4097C24.1544 93.4569 23.977 93.5045 23.7653 93.5045C23.5384 93.5045 23.3674 93.4527 23.2907 93.4073L19.7373 91.3564L23.2505 89.3142C23.3314 89.267 23.5088 89.22 23.7205 89.22C23.9474 89.22 24.1184 89.2716 24.1951 89.3165L27.7485 91.3675Z" fill="#425C8A"/>
<path d="M30.7834 90.7137C30.782 90.7299 30.7811 90.7461 30.7779 90.7627C30.7756 90.7757 30.7714 90.7891 30.7682 90.802C30.764 90.8172 30.7603 90.833 30.7548 90.8482C30.7506 90.8607 30.7446 90.8732 30.739 90.8861C30.7321 90.9018 30.7252 90.918 30.7164 90.9338C30.7104 90.9453 30.703 90.9568 30.6956 90.9684C30.6845 90.9865 30.673 91.0044 30.6596 91.022C30.6517 91.0326 30.6434 91.0428 30.6346 91.0534C30.6147 91.0769 30.593 91.1005 30.5694 91.1237C30.5607 91.132 30.5528 91.1402 30.5436 91.1486C30.5292 91.1616 30.5126 91.1745 30.4969 91.1874C30.4826 91.199 30.4687 91.2105 30.4535 91.2216C30.4359 91.2341 30.4169 91.2461 30.3984 91.2581C30.379 91.2711 30.3606 91.284 30.3393 91.296L24.8653 94.4774C24.819 94.5042 24.7701 94.5282 24.7197 94.5509C24.7053 94.5573 24.6906 94.5639 24.6758 94.5698C24.6365 94.5864 24.5963 94.6018 24.5552 94.6155C24.5399 94.6206 24.5256 94.6263 24.5103 94.6309C24.4844 94.6391 24.4576 94.6461 24.4308 94.6534C24.411 94.659 24.3906 94.6651 24.3698 94.6701C24.3421 94.6766 24.3135 94.6821 24.2853 94.6881C24.2659 94.6918 24.2464 94.6964 24.2266 94.6997C24.1688 94.7103 24.1101 94.7182 24.051 94.7242C24.0329 94.726 24.0145 94.7275 23.9964 94.7288C23.9618 94.7321 23.9266 94.7343 23.892 94.7357C23.8693 94.7367 23.8472 94.7372 23.8245 94.7376C23.7968 94.7381 23.7686 94.7385 23.7404 94.7381C23.7168 94.7381 23.6933 94.7372 23.6692 94.7362C23.6433 94.7352 23.617 94.7339 23.5911 94.7321C23.5671 94.7302 23.5435 94.7284 23.52 94.726C23.4941 94.7237 23.4687 94.7205 23.4428 94.7173C23.4197 94.7145 23.3966 94.7112 23.3735 94.7076C23.3462 94.7034 23.3189 94.6988 23.2921 94.6937C23.2704 94.6896 23.2491 94.6854 23.2279 94.6803C23.1955 94.6733 23.1637 94.6655 23.1318 94.6572C23.1142 94.6521 23.0966 94.6479 23.0791 94.6428C23.0227 94.6263 22.9673 94.6078 22.9136 94.5869C22.9062 94.5842 22.8989 94.5804 22.8915 94.5777C22.8184 94.5481 22.7482 94.5153 22.683 94.4774L17.1729 91.2961C16.8684 91.1204 16.7168 90.8903 16.7173 90.6602L16.6997 96.9494C16.6988 97.1795 16.8508 97.4097 17.1549 97.5857L22.665 100.767C22.7302 100.805 22.8009 100.837 22.8739 100.867C22.8785 100.869 22.8827 100.872 22.8873 100.873L22.8956 100.876C22.9492 100.897 23.0047 100.915 23.0615 100.932L23.0745 100.937C23.0874 100.94 23.1008 100.943 23.1142 100.946C23.1456 100.955 23.1775 100.963 23.2099 100.97C23.2187 100.972 23.227 100.974 23.2353 100.976C23.2482 100.979 23.2612 100.98 23.2741 100.983C23.3014 100.988 23.3282 100.993 23.3559 100.997C23.3665 100.999 23.3776 101.001 23.3883 101.003C23.4007 101.004 23.4128 101.005 23.4252 101.007C23.4507 101.01 23.4761 101.013 23.502 101.015C23.5144 101.017 23.5265 101.018 23.5389 101.019C23.55 101.02 23.562 101.02 23.5736 101.021C23.5995 101.023 23.6253 101.025 23.6517 101.025C23.6646 101.026 23.6776 101.027 23.691 101.028C23.7016 101.028 23.7122 101.027 23.7224 101.027C23.7506 101.028 23.7788 101.028 23.807 101.027C23.8208 101.027 23.8352 101.027 23.849 101.027C23.8573 101.026 23.8657 101.025 23.874 101.025C23.9091 101.024 23.9438 101.021 23.9789 101.018C23.9927 101.017 24.0066 101.017 24.0205 101.015L24.0334 101.014C24.0926 101.007 24.1513 101 24.209 100.989L24.2178 100.988C24.2345 100.985 24.2506 100.981 24.2673 100.977C24.2959 100.972 24.3241 100.966 24.3523 100.959C24.3731 100.954 24.393 100.948 24.4133 100.943C24.4396 100.936 24.4664 100.928 24.4923 100.92L24.5099 100.915C24.5191 100.912 24.5279 100.908 24.5371 100.905C24.5783 100.891 24.6185 100.876 24.6578 100.859C24.6726 100.853 24.6873 100.847 24.7021 100.84C24.752 100.818 24.801 100.794 24.8472 100.767L30.3218 97.5852L30.3402 97.5742C30.3546 97.5658 30.367 97.5566 30.3804 97.5473C30.3994 97.5354 30.4183 97.5233 30.4355 97.5109C30.4507 97.4998 30.4646 97.4882 30.4789 97.4767C30.4951 97.4637 30.5112 97.4512 30.526 97.4379L30.5353 97.43C30.5413 97.4245 30.5454 97.4185 30.5514 97.413C30.575 97.3898 30.5972 97.3662 30.6166 97.3427C30.6212 97.3376 30.6268 97.3325 30.6309 97.3274C30.6351 97.3219 30.6379 97.3163 30.6416 97.3112C30.655 97.2937 30.667 97.2756 30.6781 97.2576C30.6827 97.2498 30.6887 97.2428 30.6933 97.235C30.6952 97.2313 30.6966 97.2271 30.6989 97.2234C30.7072 97.2073 30.7141 97.191 30.721 97.1749C30.7252 97.1656 30.7307 97.1564 30.7345 97.1471L30.7372 97.1374C30.7423 97.1222 30.7465 97.107 30.7502 97.0913C30.7529 97.0811 30.7571 97.0704 30.7594 97.0602L30.7603 97.052C30.7631 97.0358 30.7645 97.0196 30.7659 97.0034C30.7668 96.9928 30.7691 96.9822 30.7696 96.9716V96.9581L30.7876 90.6684C30.7876 90.6837 30.7848 90.6985 30.7834 90.7137L30.7834 90.7137Z" fill="#809AB2"/>
<path d="M30.7696 96.0608V96.0741C30.7691 96.0848 30.7668 96.0954 30.7659 96.106C30.7645 96.1222 30.7631 96.1384 30.7603 96.1545L30.7594 96.1629C30.7571 96.1735 30.7529 96.1837 30.7502 96.1938C30.7465 96.2096 30.7423 96.2248 30.7372 96.2401L30.7345 96.2498C30.7307 96.2595 30.7252 96.2683 30.7215 96.2775C30.7141 96.2937 30.7072 96.3098 30.6989 96.3261C30.6966 96.3297 30.6952 96.3338 30.6933 96.3376C30.6887 96.3455 30.6827 96.3528 30.6781 96.3602C30.667 96.3783 30.6549 96.3962 30.6416 96.4138C30.6379 96.4194 30.6351 96.4249 30.6309 96.43C30.6268 96.435 30.6212 96.4401 30.6166 96.4452C30.5967 96.4692 30.575 96.4924 30.5514 96.5155C30.5454 96.521 30.5413 96.527 30.5353 96.5326L30.526 96.5404C30.5112 96.5538 30.4951 96.5664 30.4789 96.5792C30.4646 96.5909 30.4512 96.6024 30.4354 96.6134C30.4183 96.6264 30.3994 96.638 30.3804 96.6504C30.367 96.6592 30.3546 96.6685 30.3402 96.6773L30.3218 96.6883L24.8472 99.8697C24.801 99.8965 24.752 99.9205 24.7021 99.9432C24.6873 99.9496 24.6726 99.9557 24.6578 99.9617C24.6185 99.9783 24.5783 99.9936 24.5371 100.007C24.5279 100.011 24.5191 100.015 24.5099 100.018L24.4923 100.023C24.4664 100.031 24.4401 100.038 24.4133 100.045C24.393 100.051 24.3726 100.057 24.3523 100.062C24.3241 100.069 24.2954 100.074 24.2673 100.08C24.2506 100.084 24.2344 100.088 24.2173 100.091L24.209 100.092C24.1512 100.102 24.0926 100.11 24.0334 100.116L24.0205 100.118C24.0066 100.12 23.9927 100.12 23.9789 100.121C23.9438 100.124 23.9091 100.126 23.874 100.128C23.8657 100.128 23.8573 100.129 23.849 100.129C23.8351 100.13 23.8208 100.129 23.807 100.13C23.7788 100.13 23.7506 100.13 23.7224 100.13C23.7122 100.13 23.7016 100.13 23.691 100.13C23.6776 100.13 23.6646 100.129 23.6517 100.128C23.6253 100.127 23.5995 100.126 23.5736 100.124C23.562 100.123 23.55 100.123 23.5385 100.122C23.5264 100.121 23.5144 100.119 23.5019 100.118C23.4761 100.116 23.4507 100.113 23.4252 100.11C23.4128 100.108 23.4007 100.107 23.3883 100.105C23.3776 100.104 23.3665 100.101 23.3559 100.1C23.3282 100.095 23.3014 100.091 23.2741 100.086C23.2612 100.083 23.2482 100.081 23.2353 100.079C23.227 100.077 23.2187 100.074 23.2099 100.073C23.1775 100.065 23.1456 100.057 23.1142 100.049C23.1008 100.045 23.0874 100.043 23.0745 100.039L23.0615 100.035C23.0047 100.019 22.9492 100 22.8961 99.9787L22.8873 99.976C22.8827 99.9742 22.8785 99.9714 22.8739 99.9696C22.8009 99.9399 22.7306 99.9072 22.665 99.8697L17.1549 96.6883C16.8642 96.5206 16.7145 96.3025 16.702 96.0825L16.6997 96.9494C16.6988 97.1796 16.8508 97.4098 17.1549 97.5858L22.665 100.767C22.7306 100.805 22.8009 100.837 22.8739 100.867C22.8785 100.869 22.8827 100.872 22.8873 100.873L22.8961 100.876C22.9492 100.897 23.0047 100.916 23.0615 100.932L23.0745 100.937C23.0874 100.94 23.1008 100.943 23.1142 100.947C23.1456 100.955 23.1775 100.963 23.2099 100.97C23.2187 100.972 23.227 100.974 23.2353 100.976C23.2482 100.979 23.2612 100.98 23.2741 100.983C23.3014 100.988 23.3282 100.993 23.3559 100.997C23.3665 100.999 23.3776 101.001 23.3883 101.003C23.4007 101.004 23.4128 101.005 23.4252 101.007C23.4507 101.01 23.4761 101.013 23.5019 101.015C23.5144 101.017 23.5264 101.019 23.5385 101.02C23.55 101.02 23.562 101.02 23.5736 101.021C23.5995 101.023 23.6253 101.025 23.6517 101.026C23.6646 101.026 23.6776 101.027 23.691 101.028C23.7016 101.028 23.7122 101.027 23.7224 101.027C23.7506 101.028 23.7788 101.028 23.807 101.027C23.8208 101.027 23.8352 101.027 23.849 101.027C23.8573 101.026 23.8657 101.026 23.874 101.025C23.9091 101.024 23.9438 101.021 23.9789 101.018C23.9927 101.017 24.0066 101.017 24.0205 101.015L24.0334 101.014C24.0926 101.007 24.1513 101 24.209 100.989L24.2173 100.988C24.2345 100.985 24.2506 100.981 24.2673 100.977C24.2954 100.972 24.3241 100.966 24.3523 100.959C24.3726 100.954 24.393 100.948 24.4133 100.943C24.4401 100.936 24.4664 100.928 24.4923 100.92L24.5099 100.916C24.5191 100.912 24.5279 100.908 24.5372 100.905C24.5783 100.891 24.6185 100.876 24.6578 100.859C24.6726 100.853 24.6873 100.847 24.7021 100.841C24.752 100.818 24.801 100.794 24.8472 100.767L30.3218 97.5853L30.3402 97.5743C30.3546 97.5659 30.367 97.5567 30.3804 97.5474C30.3994 97.5354 30.4183 97.5234 30.4355 97.511C30.4512 97.4999 30.4646 97.4883 30.4789 97.4768C30.4951 97.4638 30.5112 97.4513 30.526 97.438L30.5353 97.4301C30.5413 97.4245 30.5454 97.4186 30.5514 97.413C30.575 97.3899 30.5967 97.3663 30.6166 97.3427C30.6212 97.3377 30.6268 97.3326 30.6309 97.3275C30.6351 97.322 30.6379 97.3163 30.6416 97.3112C30.655 97.2938 30.667 97.2757 30.6781 97.2577C30.6827 97.2499 30.6887 97.2429 30.6933 97.2351C30.6952 97.2314 30.6966 97.2272 30.6989 97.2235C30.7072 97.2073 30.7141 97.1911 30.7215 97.175C30.7252 97.1657 30.7307 97.1564 30.7345 97.1472L30.7372 97.1375C30.7423 97.1223 30.7465 97.107 30.7502 97.0913C30.7529 97.0812 30.7571 97.0705 30.7594 97.0603L30.7603 97.0521C30.7631 97.0358 30.7645 97.0197 30.7659 97.0035C30.7668 96.9928 30.7691 96.9822 30.7696 96.9716V96.9582L30.7696 96.0608Z" fill="#3D5878"/>
<path d="M23.1141 92.15C23.5471 92.3021 24.0166 92.0465 24.1072 91.5963C24.3295 90.4932 24.5712 88.4676 23.7181 87.1982C22.7924 85.82 21.1315 85.7752 19.8241 83.8703C19.6305 83.5875 19.1877 83.7132 19.173 84.0556C19.1157 85.3492 19.0713 87.3105 19.2695 88.153C19.5473 89.3337 20.7775 91.3293 23.1141 92.15Z" fill="url(#paint2_linear_4346_6348)"/>
<path d="M24.5333 92.0375C24.0411 92.5653 23.2457 92.5043 22.8437 91.8892C21.8575 90.3812 20.2732 87.4975 20.6407 84.9963C21.0399 82.2821 23.2628 81.069 23.8516 77.298C23.9389 76.7384 24.6164 76.6224 24.8494 77.128C25.7293 79.0361 27.0071 81.9601 27.2617 83.3649C27.6185 85.3356 27.1896 89.1893 24.5333 92.0375Z" fill="url(#paint3_linear_4346_6348)"/>
<path d="M24.1652 92.3474C23.7192 92.4556 23.2774 92.1542 23.2321 91.6976C23.1212 90.5775 23.0833 88.538 24.0594 87.36C25.1181 86.0818 26.7754 86.2033 28.2662 84.4383C28.4876 84.1768 28.9151 84.3459 28.8961 84.6883C28.8236 85.9806 28.6715 87.9368 28.3901 88.7552C27.9954 89.9028 26.5716 91.7646 24.1652 92.3474H24.1652Z" fill="url(#paint4_linear_4346_6348)"/>
<mask id="mask0_4346_6348" style="mask-type:alpha" maskUnits="userSpaceOnUse" x="54" y="64" width="17" height="43">
<rect x="54.8267" y="64.7263" width="15.7279" height="41.5637" fill="black"/>
</mask>
<g mask="url(#mask0_4346_6348)">
<mask id="mask1_4346_6348" style="mask-type:alpha" maskUnits="userSpaceOnUse" x="54" y="64" width="17" height="43">
<rect x="54.8276" y="64.7263" width="15.7278" height="41.5637" fill="black"/>
</mask>
<g mask="url(#mask1_4346_6348)">
<path d="M66.3011 92.723C66.3293 93.416 66.4358 94.0689 66.6187 94.6823C66.8943 95.6012 66.9855 98.2355 66.9855 99.611C66.9855 100.987 67.1556 101.778 67.3208 102.09C67.4861 102.402 67.0367 104.226 66.3011 104.838C65.565 105.451 65.0153 105.719 64.3972 105.584C63.7796 105.451 63.6817 105.494 63.7309 105.249C63.7634 105.085 63.9095 104.913 64.1694 104.733C64.8634 104.653 65.2656 103.907 65.374 102.498C65.5373 100.383 64.7927 96.9343 64.1694 95.4804C63.5456 94.0265 62.6586 90.9543 63.3225 90.2665C63.7648 89.808 64.7574 90.6272 66.3011 92.723" fill="#8C6239"/>
<path d="M69.0286 90.6545C69.0286 90.6545 69.1915 92.3014 69.5507 93.465C69.9099 94.629 69.5746 96.6661 69.4055 98.0231C69.2364 99.3805 69.1882 100.834 69.3692 101.485C69.4905 101.919 68.8471 102.099 67.4395 102.025C67.6545 100.416 67.708 99.1832 67.6005 98.3278C67.4395 97.0449 66.7312 93.3786 67.0851 91.4092C67.4395 89.4408 69.0286 90.6545 69.0286 90.6545" fill="#8C6239"/>
</g>
<path d="M69.9648 72.4956C68.3513 75.1242 67.8761 76.6588 68.5386 77.0997C69.5321 77.7603 70.2356 77.7139 70.4744 75.894C70.5256 75.5034 70.5518 75.1098 70.5537 74.7138V74.6293C70.5504 73.8221 70.4444 73.0034 70.2356 72.1729L69.9648 72.4956Z" fill="#687D94"/>
<mask id="mask2_4346_6348" style="mask-type:alpha" maskUnits="userSpaceOnUse" x="68" y="72" width="3" height="6">
<path d="M69.9646 72.4954C68.3511 75.1239 67.8758 76.6585 68.5383 77.0994C69.5318 77.76 70.2354 77.7136 70.4742 75.8938C70.5253 75.5031 70.5516 75.1096 70.5535 74.7136V74.629C70.5501 73.8218 70.4441 73.0031 70.2354 72.1726L69.9646 72.4954Z" fill="black"/>
</mask>
<g mask="url(#mask2_4346_6348)">
<path d="M71.3318 72.8249L68.1888 70.1895L67.0985 77.1081L70.2415 79.7434L71.3318 72.8249Z" fill="#687D94"/>
</g>
<mask id="mask3_4346_6348" style="mask-type:alpha" maskUnits="userSpaceOnUse" x="54" y="64" width="17" height="43">
<rect x="54.8276" y="64.7263" width="15.7278" height="41.5637" fill="black"/>
</mask>
<g mask="url(#mask3_4346_6348)">
<path d="M62.5293 84.1209C62.6134 88.9393 62.8503 91.6647 63.24 92.2976C63.8242 93.2457 65.4386 93.9187 67.1868 92.9568C68.3527 92.3153 69.0295 91.8358 69.2177 91.5172C69.1312 89.4055 69.1809 88.0208 69.3672 87.3627C69.6466 86.3763 70.3998 83.2659 69.7369 81.7332L62.5293 84.1209Z" fill="#687D94"/>
</g>
<mask id="mask4_4346_6348" style="mask-type:alpha" maskUnits="userSpaceOnUse" x="62" y="70" width="9" height="16">
<path d="M63.8214 73.2596C62.6636 74.1452 63.0281 77.7653 63.1604 78.6517C63.2927 79.5382 63.2874 81.1832 62.8623 82.2231C62.5791 82.9161 62.4797 83.5624 62.5638 84.1617L63.1604 85.1213C65.0681 84.8925 66.6147 84.573 67.7997 84.1617C69.5779 83.5456 70.099 81.7721 69.7876 80.6535C69.4757 79.5348 69.0119 77.1017 69.7876 75.61C70.5628 74.118 70.6913 71.746 69.7876 71.0859C69.6606 70.9927 69.4748 70.9517 69.245 70.9517C67.8412 70.9521 64.8168 72.4983 63.8214 73.2596Z" fill="black"/>
</mask>
<g mask="url(#mask4_4346_6348)">
<path d="M73.1722 72.5314L63.3955 66.3062L59.9989 83.5413L69.7757 89.7666L73.1722 72.5314Z" fill="#8499B1"/>
</g>
<mask id="mask5_4346_6348" style="mask-type:alpha" maskUnits="userSpaceOnUse" x="54" y="64" width="17" height="43">
<rect x="54.8276" y="64.7263" width="15.7278" height="41.5637" fill="black"/>
</mask>
<g mask="url(#mask5_4346_6348)">
<path d="M67.4807 106.29H67.1722V104.356C66.8087 104.952 66.5503 105.366 66.3969 105.599C66.1667 105.948 65.4789 106.217 64.1568 105.908C62.8342 105.599 62.9149 105.048 63.597 104.884C64.0513 104.775 64.3206 104.705 64.4047 104.673C64.1286 104.868 64.0914 105.025 64.2929 105.144C64.5953 105.323 65.5444 105.44 65.9709 104.356C66.3969 103.273 67.0972 101.249 67.4807 102.08C67.8642 102.912 67.8881 103.716 67.7224 104.356C67.6116 104.783 67.5313 105.428 67.4807 106.29" fill="#2E3B4A"/>
<path d="M67.3563 102.144C67.6587 101.047 68.0059 100.499 68.3995 100.499C68.9894 100.499 69.5902 100.669 69.5902 101.583C69.5902 102.496 69.0754 103.245 68.9173 103.911C68.8117 104.356 68.7477 104.763 68.7248 105.132H68.3995V103.911L67.5746 104.387L67.2083 102.815L67.3563 102.144Z" fill="#2E3B4A"/>
<path d="M54.8275 72.9018L59.2255 70.1846L64.0764 74.2728L59.4519 76.9098L54.8275 72.9018Z" fill="white"/>
<path d="M60.2773 77.0404C60.2147 76.759 60.0867 76.5384 59.8933 76.3775C59.6033 76.1362 59.3392 75.9136 59.2413 75.7096C59.1434 75.5057 58.9103 75.5072 58.7856 75.6524C58.6605 75.7976 58.8644 76.2107 58.9919 76.3775C59.077 76.4887 59.1338 76.5751 59.162 76.6364C58.6882 76.3392 58.3639 76.0899 58.189 75.8898C58.0133 75.6891 57.8695 75.5268 57.7563 75.4031C57.709 75.6155 57.709 75.831 57.7563 76.0498C57.8275 76.3775 57.7415 76.8914 58.0257 77.1484C58.3099 77.4053 59.3693 78.1486 59.8933 78.1486C60.2424 78.1486 60.3704 77.7793 60.2773 77.0404Z" fill="#8C6239"/>
</g>
<mask id="mask6_4346_6348" style="mask-type:alpha" maskUnits="userSpaceOnUse" x="59" y="73" width="6" height="8">
<path d="M62.9539 74.2038C62.8689 74.9876 62.802 76.2586 62.7533 78.0177L60.9168 76.9311C60.4129 76.7162 60.0728 76.7692 59.8965 77.0888C59.7198 77.4092 59.631 77.8033 59.631 78.2709C61.19 79.4736 62.2972 80.1862 62.9539 80.4084C63.9388 80.7422 64.8258 80.8646 64.8258 79.6284C64.8258 78.3923 65.078 74.6452 64.5951 73.7945C64.3835 73.4209 64.0663 73.228 63.7654 73.228C63.3814 73.228 63.0251 73.5437 62.9539 74.2038" fill="black"/>
</mask>
<g mask="url(#mask6_4346_6348)">
<path d="M67.0413 74.4128L60.4761 70.4509L57.6671 79.6791L64.2323 83.6411L67.0413 74.4128Z" fill="#687D94"/>
</g>
<mask id="mask7_4346_6348" style="mask-type:alpha" maskUnits="userSpaceOnUse" x="54" y="64" width="17" height="43">
<rect x="54.8276" y="64.7263" width="15.7278" height="41.5637" fill="black"/>
</mask>
<g mask="url(#mask7_4346_6348)">
<path d="M65.48 69.3333C65.48 69.8549 65.1748 70.6616 64.5644 71.753C64.4483 71.186 64.3155 70.7991 64.1655 70.5919C63.9411 70.2813 63.61 69.5086 63.7815 69.0152C63.9525 68.5218 63.8517 67.8669 63.7815 67.427C63.7113 66.9871 63.7232 66.0099 64.6312 65.8957C65.5397 65.7825 65.48 68.5499 65.48 69.3333Z" fill="#8C6239"/>
<path d="M64.2066 65.7088C63.7486 66.3833 63.6831 67.0467 64.0113 67.6982C64.5028 68.675 64.625 72.0628 63.7166 74.2342C66.1578 74.6011 68.065 74.2418 69.4387 73.1561C69.9068 70.9805 69.9703 69.0538 69.6293 67.3753C69.1177 64.8572 67.2678 64.7263 66.271 64.7263C65.6061 64.7263 64.9183 65.0535 64.2066 65.7088" fill="black"/>
</g>
</g>
<mask id="mask8_4346_6348" style="mask-type:alpha" maskUnits="userSpaceOnUse" x="0" y="0" width="51" height="76">
<rect width="50.0969" height="75.1343" fill="black"/>
</mask>
<g mask="url(#mask8_4346_6348)">
<mask id="mask9_4346_6348" style="mask-type:alpha" maskUnits="userSpaceOnUse" x="0" y="0" width="51" height="76">
<rect width="50.0969" height="75.1343" fill="black"/>
</mask>
<g mask="url(#mask9_4346_6348)">
<mask id="mask10_4346_6348" style="mask-type:alpha" maskUnits="userSpaceOnUse" x="-1" y="0" width="52" height="76">
<rect x="-0.0012207" width="50.0969" height="75.1343" fill="black"/>
</mask>
<g mask="url(#mask10_4346_6348)">
<g opacity="0.199997">
<mask id="mask11_4346_6348" style="mask-type:alpha" maskUnits="userSpaceOnUse" x="-1" y="0" width="39" height="68">
<rect x="-0.00244141" y="0.000732422" width="37.5128" height="67.1966" fill="black"/>
</mask>
<g mask="url(#mask11_4346_6348)">
<mask id="mask12_4346_6348" style="mask-type:alpha" maskUnits="userSpaceOnUse" x="-1" y="0" width="39" height="68">
<path d="M35.5237 0.273978C36.5558 -0.362127 37.3968 0.147847 37.3999 1.41576L37.5096 42.7213C37.5131 43.9896 36.6776 45.5328 35.6459 46.1689L1.98256 66.9227C0.949295 67.56 0.10991 67.0492 0.106385 65.781L-0.00328709 24.4754C-0.00642057 23.2072 0.827085 21.6655 1.86074 21.0282L35.5237 0.273978Z" fill="black"/>
</mask>
<g mask="url(#mask12_4346_6348)">
<rect x="-0.00622559" y="-0.361816" width="37.5196" height="67.922" fill="url(#paint5_linear_4346_6348)"/>
</g>
</g>
</g>
<g opacity="0.399994">
<mask id="mask13_4346_6348" style="mask-type:alpha" maskUnits="userSpaceOnUse" x="4" y="2" width="38" height="68">
<rect x="4.17285" y="2.60449" width="37.5128" height="67.1966" fill="black"/>
</mask>
<g mask="url(#mask13_4346_6348)">
<mask id="mask14_4346_6348" style="mask-type:alpha" maskUnits="userSpaceOnUse" x="4" y="2" width="38" height="68">
<path d="M39.6999 2.87823C40.7319 2.24174 41.5725 2.75171 41.576 4.01962L41.6857 45.3256C41.6892 46.5935 40.8534 48.1367 39.8217 48.7728L6.1587 69.5266C5.12505 70.1639 4.28567 69.6532 4.28253 68.3852L4.17286 27.0797C4.16973 25.8114 5.00323 24.269 6.0365 23.6321L39.6999 2.87823Z" fill="black"/>
</mask>
<g mask="url(#mask14_4346_6348)">
<rect x="4.16919" y="2.24219" width="37.5196" height="67.922" fill="url(#paint6_linear_4346_6348)"/>
</g>
</g>
</g>
<g opacity="0.600006">
<mask id="mask15_4346_6348" style="mask-type:alpha" maskUnits="userSpaceOnUse" x="8" y="5" width="38" height="68">
<rect x="8.34778" y="5.20776" width="37.5128" height="67.1967" fill="black"/>
</mask>
<g mask="url(#mask15_4346_6348)">
<mask id="mask16_4346_6348" style="mask-type:alpha" maskUnits="userSpaceOnUse" x="8" y="5" width="38" height="68">
<path d="M43.8755 5.48182C44.9072 4.84572 45.7482 5.35531 45.7513 6.62312L45.8614 47.9291C45.8645 49.197 45.029 50.7402 43.9973 51.3763L10.3344 72.1301C9.30071 72.7674 8.46133 72.2566 8.45819 70.9887L8.34852 29.6828C8.345 28.4149 9.17889 26.8725 10.2122 26.2356L43.8755 5.48182Z" fill="black"/>
</mask>
<g mask="url(#mask16_4346_6348)">
<rect x="8.34497" y="4.84546" width="37.5196" height="67.9217" fill="url(#paint7_linear_4346_6348)"/>
</g>
</g>
</g>
</g>
<path d="M47.442 8.10001L14.3282 28.8068C13.2781 29.4637 12.4266 31.0614 12.4297 32.3684L12.5378 73.5807C12.5397 74.2428 12.754 74.7406 13.1422 74.9822C13.3047 75.0841 13.4888 75.1346 13.6866 75.1346C13.9624 75.1346 14.2659 75.0359 14.5777 74.8408L14.448 74.598C13.996 74.8808 13.5785 74.9305 13.2714 74.739C12.9667 74.5494 12.7987 74.1374 12.7971 73.58L12.689 32.3677C12.6859 31.1503 13.4794 29.6619 14.4578 29.0501L47.5717 8.34291C48.0233 8.06129 48.4412 8.01156 48.7479 8.2031C49.0526 8.39264 49.2211 8.80431 49.2226 9.36123L49.4819 9.36047C49.48 8.69855 49.2653 8.2011 48.8771 7.95907C48.7142 7.85761 48.5301 7.80664 48.3323 7.80664C48.0566 7.80664 47.7534 7.90542 47.442 8.10002" fill="url(#paint8_linear_4346_6348)"/>
<path d="M47.442 8.10001L14.3282 28.8068C13.2781 29.4637 12.4266 31.0614 12.4297 32.3684L12.5378 73.5807C12.5397 74.2428 12.754 74.7406 13.1422 74.9822C13.3047 75.0841 13.4888 75.1346 13.6866 75.1346C13.9624 75.1346 14.2659 75.0359 14.5777 74.8408L14.448 74.598C13.996 74.8808 13.5785 74.9305 13.2714 74.739C12.9667 74.5494 12.7987 74.1374 12.7971 73.58L12.689 32.3677C12.6859 31.1503 13.4794 29.6619 14.4578 29.0501L47.5717 8.34291C48.0233 8.06129 48.4412 8.01156 48.7479 8.2031C49.0526 8.39264 49.2211 8.80431 49.2226 9.36123L49.4819 9.36047C49.48 8.69855 49.2653 8.2011 48.8771 7.95907C48.7142 7.85761 48.5301 7.80664 48.3323 7.80664C48.0566 7.80664 47.7534 7.90542 47.442 8.10002" stroke="white" stroke-width="0.381476"/>
<mask id="mask17_4346_6348" style="mask-type:alpha" maskUnits="userSpaceOnUse" x="12" y="7" width="38" height="69">
<path d="M47.442 8.10001L14.3282 28.8068C13.2781 29.4637 12.4266 31.0614 12.4297 32.3684L12.5378 73.5807C12.5397 74.2428 12.754 74.7406 13.1422 74.9822C13.3047 75.0841 13.4888 75.1346 13.6866 75.1346C13.9624 75.1346 14.2659 75.0359 14.5777 74.8408L14.448 74.598C13.996 74.8808 13.5785 74.9305 13.2714 74.739C12.9667 74.5494 12.7987 74.1374 12.7971 73.58L12.689 32.3677C12.6859 31.1503 13.4794 29.6619 14.4578 29.0501L47.5717 8.34291C48.0233 8.06129 48.4412 8.01156 48.7479 8.2031C49.0526 8.39264 49.2211 8.80431 49.2226 9.36123L49.4819 9.36047C49.48 8.69855 49.2653 8.2011 48.8771 7.95907C48.7142 7.85761 48.5301 7.80664 48.3323 7.80664C48.0566 7.80664 47.7534 7.90542 47.442 8.10002" fill="black"/>
</mask>
<g mask="url(#mask17_4346_6348)">
<rect x="12.4268" y="7.80688" width="37.0554" height="67.3277" fill="url(#paint9_linear_4346_6348)"/>
</g>
</g>
</g>
<path d="M19.0372 37.3129L15.2297 39.5973V35.0285L19.0372 32.7439V37.3129Z" fill="white"/>
<path d="M19.037 42.6435L15.2296 44.9278V40.3591L19.037 38.0745V42.6435Z" fill="white"/>
<path d="M19.0372 47.9738L15.2297 50.2582V45.6894L19.0372 43.4048V47.9738Z" fill="white"/>
<path d="M19.037 53.3043L15.2296 55.5887V51.02L19.037 48.7354V53.3043Z" fill="white"/>
<path d="M21.3706 34.3533L21.3214 34.1005L40.462 22.0833L40.5112 22.3361L21.3706 34.3533Z" fill="white" stroke="white" stroke-width="0.381476" stroke-linejoin="round"/>
<path d="M21.3706 39.7698L21.3214 39.517L40.462 27.4998L40.5112 27.7526L21.3706 39.7698Z" fill="white" stroke="white" stroke-width="0.381476" stroke-linejoin="round"/>
<path d="M21.3706 45.1868L21.3214 44.934L40.462 32.9167L40.5112 33.1696L21.3706 45.1868Z" fill="white" stroke="white" stroke-width="0.381476" stroke-linejoin="round"/>
<path d="M21.3706 50.6036L21.3214 50.3507L40.462 38.3335L40.5112 38.5864L21.3706 50.6036Z" fill="white" stroke="white" stroke-width="0.381476" stroke-linejoin="round"/>
<defs>
<linearGradient id="paint0_linear_4346_6348" x1="59.9574" y1="64.5908" x2="59.9574" y2="130.916" gradientUnits="userSpaceOnUse">
<stop stop-color="#DCE9F4"/>
<stop offset="1" stop-color="#B8CCDD"/>
</linearGradient>
<linearGradient id="paint1_linear_4346_6348" x1="18.5322" y1="93.5043" x2="28.9543" y2="93.5043" gradientUnits="userSpaceOnUse">
<stop stop-color="#2E3B4A"/>
<stop offset="0.397653" stop-color="#323F50"/>
<stop offset="0.938023" stop-color="#3D4E61"/>
<stop offset="1" stop-color="#3F5064"/>
</linearGradient>
<linearGradient id="paint2_linear_4346_6348" x1="21.7211" y1="83.7144" x2="21.7211" y2="92.194" gradientUnits="userSpaceOnUse">
<stop stop-color="#94BCDD"/>
<stop offset="1" stop-color="#D3EBFF"/>
</linearGradient>
<linearGradient id="paint3_linear_4346_6348" x1="23.9783" y1="76.8064" x2="23.9783" y2="92.3955" gradientUnits="userSpaceOnUse">
<stop stop-color="#94BCDD"/>
<stop offset="1" stop-color="#D3EBFF"/>
</linearGradient>
<linearGradient id="paint4_linear_4346_6348" x1="26.0367" y1="84.3108" x2="26.0367" y2="92.3695" gradientUnits="userSpaceOnUse">
<stop stop-color="#94BCDD"/>
<stop offset="1" stop-color="#D3EBFF"/>
</linearGradient>
<linearGradient id="paint5_linear_4346_6348" x1="-117.627" y1="-2027.72" x2="-117.359" y2="-2027.72" gradientUnits="userSpaceOnUse">
<stop offset="5.09986e-09" stop-color="#5CC7F7"/>
<stop offset="1" stop-color="#5CC7F7"/>
</linearGradient>
<linearGradient id="paint6_linear_4346_6348" x1="-117.63" y1="-2027.73" x2="-117.363" y2="-2027.73" gradientUnits="userSpaceOnUse">
<stop offset="5.09986e-09" stop-color="#5CC7F7"/>
<stop offset="1" stop-color="#5CC7F7"/>
</linearGradient>
<linearGradient id="paint7_linear_4346_6348" x1="-117.633" y1="-2027.74" x2="-117.366" y2="-2027.74" gradientUnits="userSpaceOnUse">
<stop offset="5.09986e-09" stop-color="#5CC7F7"/>
<stop offset="1" stop-color="#5CC7F7"/>
</linearGradient>
<linearGradient id="paint8_linear_4346_6348" x1="12.4297" y1="75.1346" x2="49.4819" y2="75.1346" gradientUnits="userSpaceOnUse">
<stop offset="0.0157332" stop-color="white"/>
<stop offset="0.348583" stop-color="#9EDDFA"/>
<stop offset="0.590587" stop-color="#5CC7F7"/>
<stop offset="1" stop-color="#8499B1"/>
<stop offset="1" stop-color="#2E3B4A"/>
</linearGradient>
<linearGradient id="paint9_linear_4346_6348" x1="-125.344" y1="-2042.29" x2="-125.097" y2="-2042.29" gradientUnits="userSpaceOnUse">
<stop stop-color="#5CC7F7"/>
<stop offset="0.131151" stop-color="#69CBF7"/>
<stop offset="0.377257" stop-color="#8DD8F9"/>
<stop offset="0.70879" stop-color="#C7EBFC"/>
<stop offset="1" stop-color="white"/>
</linearGradient>
</defs>
</svg>
