<svg width="119" height="143" viewBox="0 0 119 143" fill="none" xmlns="http://www.w3.org/2000/svg">
<g opacity="0.3">
<path d="M117.318 106.809C119.55 108.098 119.562 110.192 117.344 111.48L65.0907 141.847C62.8697 143.138 59.2585 143.135 57.0268 141.847L4.4312 111.481C2.1955 110.19 2.18357 108.1 4.40495 106.81L56.6586 76.4433C58.876 75.1548 62.4872 75.1525 64.7225 76.4433L117.318 106.809Z" fill="#8499B1"/>
</g>
<path d="M117.429 99.171C117.391 99.1475 117.358 99.1228 117.318 99.0997L64.7228 68.7338C62.4872 67.443 58.8759 67.4454 56.6585 68.7338L4.40492 99.1006C4.36555 99.1232 4.33254 99.1479 4.29517 99.171H2.74664V101.436C2.75141 102.281 3.31333 103.126 4.43117 103.772L57.0268 134.138C59.2585 135.426 62.8697 135.428 65.0907 134.138L117.344 103.771C118.388 103.165 118.931 102.38 118.988 101.585H119V99.171H117.429Z" fill="#4AB0A6"/>
<path d="M117.318 96.9094C119.55 98.1982 119.562 100.292 117.344 101.58L65.0908 131.947C62.8698 133.238 59.2586 133.236 57.0269 131.947L4.43126 101.581C2.19557 100.29 2.18364 98.2005 4.40501 96.9101L56.6586 66.5434C58.876 65.2549 62.4873 65.2526 64.7226 66.5434L117.318 96.9094Z" fill="#E7F5F5"/>
<path opacity="0.3" d="M30.7861 100.671C31.3994 101.025 31.4022 101.6 30.7931 101.954L25.235 105.184C24.626 105.538 23.6327 105.538 23.0199 105.184L17.4252 101.954C16.811 101.6 16.8091 101.025 17.4181 100.671L22.9763 97.4409C23.5853 97.087 24.5772 97.0865 25.1914 97.4409L30.7861 100.671Z" fill="#8499B1"/>
<path d="M30.7866 91.4065C31.3998 91.7608 31.4026 92.336 30.7936 92.6898L25.2355 95.9198C24.6265 96.274 23.6332 96.274 23.0204 95.9198L17.4257 92.6898C16.8115 92.3355 16.8096 91.7608 17.4186 91.407L22.9768 88.1771C23.5858 87.8228 24.5777 87.8223 25.1919 88.1765L30.7866 91.4065Z" fill="#D3E3F4"/>
<path d="M29.3967 92.0514L28.1725 92.7614L24.6057 94.8347C24.5236 94.8826 24.3434 94.9309 24.1285 94.9309C23.8981 94.9309 23.7245 94.8784 23.6466 94.8323L20.0389 92.75L18.8153 92.0444L23.6058 89.2587C23.6879 89.2109 23.8681 89.1631 24.083 89.1631C24.3134 89.1631 24.487 89.2151 24.5648 89.2611L29.3967 92.0514Z" fill="#2B5D61"/>
<path d="M28.1724 92.7629L24.6055 94.8362C24.5234 94.8841 24.3433 94.9325 24.1284 94.9325C23.898 94.9325 23.7244 94.8799 23.6465 94.8338L20.0388 92.7515L23.6057 90.6782C23.6878 90.6303 23.868 90.5825 24.0828 90.5825C24.3132 90.5825 24.4868 90.635 24.5647 90.6806L28.1724 92.7629Z" fill="#42868A"/>
<path d="M31.2536 92.1003C31.2522 92.1167 31.2513 92.1332 31.248 92.15C31.2457 92.1632 31.2414 92.1768 31.2382 92.1899C31.2339 92.2054 31.2302 92.2214 31.2246 92.2369C31.2203 92.2495 31.2142 92.2622 31.2086 92.2753C31.2016 92.2913 31.1945 92.3076 31.1856 92.3237C31.1795 92.3354 31.172 92.347 31.1645 92.3588C31.1532 92.3772 31.1415 92.3954 31.1279 92.4133C31.1199 92.424 31.1115 92.4343 31.1026 92.4451C31.0824 92.4691 31.0603 92.493 31.0364 92.5165C31.0275 92.525 31.0195 92.5333 31.0101 92.5418C30.9956 92.555 30.9787 92.5681 30.9627 92.5812C30.9482 92.593 30.9341 92.6047 30.9186 92.6159C30.9008 92.6286 30.8816 92.6408 30.8628 92.653C30.8431 92.6662 30.8243 92.6792 30.8027 92.6915L25.2451 95.9215C25.1982 95.9486 25.1484 95.973 25.0973 95.9961C25.0827 96.0026 25.0677 96.0092 25.0527 96.0153C25.0128 96.0321 24.972 96.0477 24.9303 96.0617C24.9148 96.0669 24.9002 96.0726 24.8847 96.0773C24.8585 96.0856 24.8313 96.0927 24.804 96.1002C24.7839 96.1058 24.7632 96.112 24.7421 96.1171C24.7139 96.1237 24.6849 96.1293 24.6562 96.1354C24.6365 96.1391 24.6168 96.1438 24.5967 96.1472C24.538 96.1579 24.4784 96.1659 24.4184 96.172C24.4001 96.1738 24.3813 96.1753 24.363 96.1767C24.3278 96.18 24.2921 96.1823 24.257 96.1837C24.234 96.1847 24.2114 96.1852 24.1884 96.1856C24.1603 96.1861 24.1317 96.1866 24.1031 96.1861C24.0791 96.1861 24.0552 96.1852 24.0308 96.1842C24.0045 96.1832 23.9778 96.1819 23.9515 96.18C23.9271 96.1781 23.9032 96.1763 23.8792 96.1739C23.853 96.1716 23.8272 96.1682 23.8009 96.165C23.7774 96.1622 23.754 96.1588 23.7305 96.1552C23.7028 96.1509 23.6751 96.1462 23.6479 96.1411C23.6259 96.1368 23.6043 96.1326 23.5827 96.1275C23.5499 96.1204 23.5175 96.1125 23.4851 96.104C23.4673 96.0988 23.4495 96.0946 23.4316 96.0894C23.3744 96.0726 23.3181 96.0538 23.2637 96.0326C23.2561 96.0299 23.2486 96.0261 23.2411 96.0233C23.167 95.9932 23.0957 95.96 23.0295 95.9215L17.4353 92.6915C17.1261 92.5132 16.9722 92.2796 16.9726 92.0459L16.9548 98.4312C16.9539 98.6649 17.1082 98.8985 17.417 99.0772L23.0112 102.307C23.0774 102.345 23.1492 102.379 23.2233 102.409C23.228 102.41 23.2322 102.413 23.2369 102.415L23.2454 102.418C23.2998 102.439 23.3561 102.458 23.4138 102.475L23.427 102.48C23.4401 102.483 23.4537 102.486 23.4673 102.489C23.4992 102.498 23.5316 102.506 23.5644 102.513C23.5733 102.515 23.5818 102.517 23.5902 102.519C23.6034 102.522 23.6165 102.524 23.6296 102.526C23.6573 102.532 23.6845 102.536 23.7127 102.54C23.7235 102.542 23.7347 102.545 23.7455 102.547C23.7582 102.548 23.7704 102.549 23.7831 102.551C23.8089 102.554 23.8347 102.557 23.861 102.559C23.8736 102.561 23.8858 102.562 23.8985 102.563C23.9098 102.564 23.922 102.564 23.9337 102.565C23.96 102.567 23.9862 102.569 24.013 102.57C24.0261 102.57 24.0393 102.571 24.0529 102.572C24.0637 102.572 24.0745 102.571 24.0848 102.571C24.1134 102.572 24.142 102.572 24.1706 102.571C24.1847 102.571 24.1993 102.571 24.2133 102.571C24.2218 102.57 24.2302 102.57 24.2387 102.569C24.2743 102.568 24.3095 102.565 24.3452 102.562C24.3593 102.561 24.3733 102.561 24.3874 102.559L24.4006 102.558C24.4606 102.551 24.5202 102.543 24.5788 102.533L24.5878 102.532C24.6046 102.528 24.6211 102.524 24.638 102.521C24.667 102.515 24.6957 102.509 24.7243 102.502C24.7454 102.497 24.7656 102.491 24.7862 102.486C24.813 102.478 24.8402 102.471 24.8665 102.463L24.8843 102.458C24.8937 102.455 24.9026 102.45 24.912 102.447C24.9537 102.433 24.9945 102.418 25.0344 102.401C25.0494 102.395 25.0645 102.388 25.0795 102.381C25.1301 102.358 25.1799 102.334 25.2268 102.307L30.7849 99.0768L30.8037 99.0655C30.8183 99.0571 30.8309 99.0477 30.8445 99.0383C30.8638 99.0261 30.883 99.0139 30.9004 99.0013C30.9158 98.9901 30.9299 98.9783 30.9445 98.9666C30.9609 98.9534 30.9773 98.9407 30.9923 98.9272L31.0017 98.9191C31.0078 98.9135 31.012 98.9075 31.0181 98.9019C31.0421 98.8784 31.0646 98.8544 31.0843 98.8305C31.089 98.8253 31.0946 98.8202 31.0988 98.815C31.1031 98.8094 31.1059 98.8037 31.1096 98.7985C31.1232 98.7808 31.1354 98.7624 31.1467 98.7441C31.1514 98.7362 31.1575 98.7291 31.1622 98.7212C31.1641 98.7174 31.1655 98.7132 31.1678 98.7094C31.1763 98.693 31.1833 98.6765 31.1903 98.6601C31.1945 98.6507 31.2002 98.6414 31.2039 98.632L31.2067 98.6221C31.2119 98.6066 31.2161 98.5912 31.2199 98.5753C31.2227 98.565 31.2269 98.5541 31.2293 98.5438L31.2302 98.5354C31.233 98.5189 31.2344 98.5025 31.2358 98.486C31.2368 98.4753 31.2391 98.4645 31.2396 98.4537V98.4401L31.2579 92.0542C31.2579 92.0698 31.2551 92.0848 31.2537 92.1003L31.2536 92.1003Z" fill="#80B2B2"/>
<path d="M31.2396 97.5278V97.5413C31.2391 97.5522 31.2368 97.563 31.2358 97.5738C31.2344 97.5901 31.233 97.6066 31.2302 97.623L31.2293 97.6315C31.2269 97.6423 31.2227 97.6526 31.2199 97.6629C31.2161 97.6789 31.2119 97.6944 31.2067 97.7099L31.2039 97.7197C31.2002 97.7296 31.1945 97.7385 31.1908 97.7479C31.1833 97.7643 31.1762 97.7806 31.1678 97.7971C31.1655 97.8008 31.164 97.805 31.1622 97.8088C31.1575 97.8168 31.1514 97.8243 31.1467 97.8318C31.1354 97.8502 31.1232 97.8684 31.1096 97.8863C31.1059 97.8919 31.103 97.8975 31.0988 97.9026C31.0946 97.9078 31.089 97.913 31.0843 97.9181C31.0641 97.9425 31.0421 97.966 31.0181 97.9895C31.012 97.9951 31.0078 98.0012 31.0017 98.0069L30.9923 98.0148C30.9773 98.0284 30.9609 98.0411 30.9445 98.0542C30.9299 98.066 30.9163 98.0777 30.9004 98.0889C30.883 98.1021 30.8638 98.1139 30.8445 98.1265C30.8309 98.1354 30.8182 98.1448 30.8037 98.1537L30.7849 98.165L25.2268 101.395C25.1799 101.422 25.1301 101.446 25.0795 101.47C25.0645 101.476 25.0494 101.482 25.0344 101.488C24.9945 101.505 24.9537 101.521 24.912 101.535C24.9026 101.538 24.8937 101.542 24.8843 101.546L24.8664 101.551C24.8402 101.559 24.8134 101.566 24.7862 101.573C24.7656 101.579 24.7449 101.585 24.7243 101.59C24.6957 101.597 24.6666 101.603 24.6379 101.608C24.6211 101.612 24.6046 101.616 24.5873 101.619L24.5788 101.621C24.5202 101.631 24.4606 101.639 24.4005 101.645L24.3874 101.647C24.3733 101.649 24.3592 101.649 24.3452 101.65C24.3095 101.653 24.2743 101.655 24.2387 101.657C24.2302 101.657 24.2218 101.659 24.2133 101.659C24.1992 101.659 24.1847 101.659 24.1706 101.659C24.142 101.66 24.1134 101.66 24.0848 101.66C24.0744 101.659 24.0636 101.66 24.0529 101.66C24.0393 101.659 24.0261 101.658 24.013 101.657C23.9862 101.656 23.96 101.655 23.9337 101.653C23.922 101.653 23.9098 101.652 23.898 101.651C23.8858 101.65 23.8736 101.648 23.8609 101.647C23.8347 101.645 23.8089 101.642 23.7831 101.638C23.7704 101.637 23.7582 101.636 23.7455 101.634C23.7347 101.633 23.7235 101.63 23.7127 101.629C23.6845 101.624 23.6573 101.619 23.6296 101.614C23.6165 101.612 23.6034 101.61 23.5902 101.607C23.5818 101.605 23.5733 101.603 23.5644 101.601C23.5316 101.593 23.4992 101.585 23.4673 101.577C23.4537 101.573 23.4401 101.571 23.4269 101.567L23.4138 101.562C23.3561 101.546 23.2998 101.527 23.2458 101.506L23.2369 101.503C23.2322 101.501 23.228 101.498 23.2233 101.496C23.1492 101.466 23.0779 101.433 23.0112 101.395L17.417 98.165C17.1218 97.9946 16.9698 97.7732 16.9572 97.5498L16.9548 98.43C16.9539 98.6637 17.1082 98.8974 17.417 99.0761L23.0112 102.306C23.0779 102.344 23.1492 102.377 23.2233 102.407C23.228 102.409 23.2322 102.412 23.2369 102.414L23.2458 102.417C23.2998 102.438 23.3561 102.457 23.4138 102.474L23.4269 102.478C23.4401 102.482 23.4537 102.484 23.4673 102.488C23.4992 102.497 23.5316 102.505 23.5644 102.512C23.5733 102.514 23.5818 102.516 23.5902 102.518C23.6034 102.521 23.6165 102.522 23.6296 102.525C23.6573 102.53 23.6845 102.535 23.7127 102.539C23.7235 102.541 23.7347 102.544 23.7455 102.545C23.7582 102.547 23.7704 102.548 23.7831 102.55C23.8089 102.553 23.8347 102.556 23.861 102.558C23.8736 102.559 23.8858 102.561 23.898 102.562C23.9098 102.563 23.922 102.563 23.9337 102.564C23.96 102.566 23.9862 102.567 24.013 102.568C24.0261 102.569 24.0393 102.57 24.0529 102.571C24.0637 102.571 24.0745 102.57 24.0848 102.57C24.1134 102.571 24.142 102.571 24.1706 102.57C24.1847 102.57 24.1992 102.57 24.2133 102.57C24.2218 102.569 24.2302 102.568 24.2387 102.568C24.2743 102.567 24.3095 102.564 24.3452 102.561C24.3592 102.56 24.3733 102.559 24.3874 102.558L24.4005 102.557C24.4606 102.55 24.5202 102.542 24.5788 102.532L24.5873 102.53C24.6047 102.527 24.6211 102.523 24.638 102.52C24.6666 102.514 24.6957 102.508 24.7243 102.501C24.7449 102.496 24.7656 102.49 24.7862 102.484C24.8134 102.477 24.8402 102.47 24.8665 102.461L24.8843 102.457C24.8937 102.453 24.9026 102.449 24.912 102.446C24.9537 102.432 24.9945 102.416 25.0344 102.399C25.0494 102.393 25.0645 102.387 25.0795 102.381C25.1301 102.357 25.1799 102.333 25.2268 102.306L30.7849 99.0756L30.8037 99.0644C30.8183 99.0559 30.8309 99.0465 30.8445 99.0371C30.8638 99.025 30.883 99.0127 30.9004 99.0001C30.9163 98.9889 30.9299 98.9771 30.9445 98.9654C30.9609 98.9523 30.9773 98.9395 30.9923 98.926L31.0017 98.918C31.0078 98.9124 31.012 98.9063 31.0181 98.9007C31.0421 98.8772 31.0641 98.8533 31.0843 98.8294C31.089 98.8242 31.0946 98.819 31.0988 98.8139C31.1031 98.8083 31.1059 98.8025 31.1096 98.7974C31.1232 98.7796 31.1354 98.7613 31.1467 98.743C31.1514 98.7351 31.1575 98.728 31.1622 98.7201C31.1641 98.7163 31.1655 98.712 31.1678 98.7083C31.1763 98.6919 31.1833 98.6754 31.1908 98.659C31.1946 98.6496 31.2002 98.6402 31.2039 98.6308L31.2068 98.621C31.2119 98.6055 31.2161 98.59 31.2199 98.5741C31.2227 98.5638 31.2269 98.5529 31.2293 98.5426L31.2302 98.5343C31.233 98.5178 31.2344 98.5014 31.2358 98.4849C31.2368 98.4741 31.2391 98.4634 31.2396 98.4526V98.439L31.2396 97.5278Z" fill="#389494"/>
<path d="M23.4671 93.5576C23.9067 93.7121 24.3834 93.4526 24.4754 92.9955C24.7011 91.8756 24.9465 89.8191 24.0803 88.5302C23.1405 87.131 21.4542 87.0855 20.1269 85.1515C19.9303 84.8644 19.4808 84.992 19.4658 85.3397C19.4076 86.653 19.3625 88.6442 19.5638 89.4996C19.8458 90.6983 21.0948 92.7244 23.4671 93.5576Z" fill="url(#paint0_linear_5042_4846)"/>
<path d="M24.908 93.4433C24.4083 93.9791 23.6008 93.9172 23.1926 93.2926C22.1914 91.7617 20.5829 88.8339 20.956 86.2945C21.3613 83.5389 23.6182 82.3072 24.216 78.4786C24.3046 77.9104 24.9925 77.7927 25.229 78.306C26.1223 80.2433 27.4197 83.212 27.6782 84.6382C28.0404 86.639 27.605 90.5516 24.908 93.4433Z" fill="url(#paint1_linear_5042_4846)"/>
<path d="M24.5343 93.7575C24.0815 93.8674 23.633 93.5614 23.587 93.0978C23.4744 91.9606 23.4359 89.8899 24.4269 88.6939C25.5018 87.3962 27.1844 87.5195 28.698 85.7276C28.9227 85.4621 29.3568 85.6338 29.3375 85.9815C29.2639 87.2934 29.1095 89.2795 28.8237 90.1104C28.423 91.2755 26.9774 93.1659 24.5343 93.7575H24.5343Z" fill="url(#paint2_linear_5042_4846)"/>
<mask id="mask0_5042_4846" style="mask-type:alpha" maskUnits="userSpaceOnUse" x="55" y="65" width="17" height="43">
<rect x="55.6642" y="65.7153" width="15.9682" height="42.1987" fill="black"/>
</mask>
<g mask="url(#mask0_5042_4846)">
<mask id="mask1_5042_4846" style="mask-type:alpha" maskUnits="userSpaceOnUse" x="55" y="65" width="17" height="43">
<rect x="55.6652" y="65.7144" width="15.9681" height="42.1987" fill="black"/>
</mask>
<g mask="url(#mask1_5042_4846)">
<path d="M67.3138 94.1394C67.3424 94.843 67.4505 95.5059 67.6363 96.1286C67.9161 97.0615 68.0087 99.736 68.0087 101.133C68.0087 102.529 68.1813 103.333 68.3491 103.649C68.5169 103.966 68.0606 105.819 67.3138 106.44C66.5665 107.061 66.0083 107.334 65.3808 107.197C64.7538 107.061 64.6544 107.105 64.7043 106.856C64.7373 106.69 64.8857 106.516 65.1495 106.333C65.8541 106.251 66.2624 105.495 66.3725 104.064C66.5384 101.917 65.7823 98.415 65.1495 96.9389C64.5162 95.4628 63.6157 92.3436 64.2897 91.6453C64.7388 91.1798 65.7465 92.0115 67.3138 94.1394" fill="#8C6239"/>
<path d="M70.0831 92.0393C70.0831 92.0393 70.2484 93.7114 70.6131 94.8927C70.9778 96.0745 70.6373 98.1427 70.4657 99.5204C70.294 100.899 70.245 102.375 70.4288 103.035C70.552 103.476 69.8988 103.658 68.4697 103.584C68.6879 101.949 68.7422 100.698 68.6331 99.8298C68.4697 98.5274 67.7505 94.805 68.1099 92.8056C68.4697 90.8071 70.0831 92.0393 70.0831 92.0393" fill="#8C6239"/>
</g>
<path d="M71.0335 73.6036C69.3954 76.2723 68.9129 77.8303 69.5855 78.278C70.5942 78.9487 71.3085 78.9015 71.551 77.0539C71.6029 76.6573 71.6295 76.2577 71.6315 75.8557V75.7698C71.6281 74.9503 71.5204 74.1191 71.3085 73.2759L71.0335 73.6036Z" fill="#4B998B"/>
<mask id="mask2_5042_4846" style="mask-type:alpha" maskUnits="userSpaceOnUse" x="69" y="73" width="3" height="6">
<path d="M71.0334 73.6036C69.3953 76.2723 68.9127 77.8303 69.5854 78.278C70.594 78.9487 71.3083 78.9015 71.5508 77.0539C71.6027 76.6573 71.6294 76.2577 71.6313 75.8557V75.7698C71.6279 74.9503 71.5202 74.1191 71.3083 73.2759L71.0334 73.6036Z" fill="black"/>
</mask>
<g mask="url(#mask2_5042_4846)">
<path d="M72.4214 73.9389L69.2304 71.2632L68.1234 78.2875L71.3144 80.9631L72.4214 73.9389Z" fill="#4B998B"/>
</g>
<mask id="mask3_5042_4846" style="mask-type:alpha" maskUnits="userSpaceOnUse" x="55" y="65" width="17" height="43">
<rect x="55.6652" y="65.7144" width="15.9681" height="42.1987" fill="black"/>
</mask>
<g mask="url(#mask3_5042_4846)">
<path d="M63.4845 85.4052C63.5698 90.2971 63.8103 93.0642 64.206 93.7067C64.7991 94.6694 66.4382 95.3526 68.2131 94.376C69.3968 93.7247 70.084 93.2379 70.275 92.9145C70.1872 90.7705 70.2377 89.3647 70.4268 88.6965C70.7105 87.695 71.4752 84.5371 70.8021 82.981L63.4845 85.4052Z" fill="#4B998B"/>
</g>
<mask id="mask4_5042_4846" style="mask-type:alpha" maskUnits="userSpaceOnUse" x="63" y="72" width="9" height="15">
<path d="M64.7965 74.3823C63.621 75.2814 63.991 78.9567 64.1253 79.8568C64.2597 80.7568 64.2543 82.4269 63.8227 83.4827C63.5352 84.1863 63.4343 84.8424 63.5197 85.4509L64.1253 86.4252C66.0622 86.1929 67.6324 85.8685 68.8355 85.4509C70.6409 84.8253 71.17 83.0248 70.8538 81.8891C70.5372 80.7533 70.0663 78.2831 70.8538 76.7686C71.6409 75.2538 71.7713 72.8456 70.8538 72.1753C70.7248 72.0807 70.5362 72.0391 70.3029 72.0391C68.8777 72.0395 65.8071 73.6093 64.7965 74.3823Z" fill="black"/>
</mask>
<g mask="url(#mask4_5042_4846)">
<path d="M74.2903 73.6422L64.3641 67.3218L60.9157 84.8202L70.8418 91.1406L74.2903 73.6422Z" fill="#69CDC1"/>
</g>
<mask id="mask5_5042_4846" style="mask-type:alpha" maskUnits="userSpaceOnUse" x="55" y="65" width="17" height="43">
<rect x="55.6652" y="65.7144" width="15.9681" height="42.1987" fill="black"/>
</mask>
<g mask="url(#mask5_5042_4846)">
<path d="M68.5115 107.914H68.1982V105.951C67.8292 106.556 67.5668 106.976 67.4112 107.213C67.1774 107.567 66.4791 107.84 65.1368 107.526C63.794 107.213 63.876 106.653 64.5685 106.486C65.0296 106.376 65.3032 106.304 65.3885 106.272C65.1082 106.47 65.0704 106.629 65.275 106.75C65.582 106.932 66.5456 107.051 66.9786 105.951C67.4112 104.851 68.1221 102.796 68.5115 103.64C68.9009 104.484 68.9251 105.3 68.7569 105.951C68.6444 106.384 68.5629 107.038 68.5115 107.914" fill="#2E4A47"/>
<path d="M68.3852 103.704C68.6922 102.59 69.0447 102.034 69.4443 102.034C70.0432 102.034 70.6532 102.207 70.6532 103.135C70.6532 104.062 70.1305 104.822 69.97 105.499C69.8628 105.95 69.7978 106.363 69.7745 106.738H69.4443V105.499L68.6068 105.982L68.2349 104.386L68.3852 103.704Z" fill="#2E4A47"/>
<path d="M55.6652 74.0151L60.1303 71.2563L65.0553 75.4071L60.3602 78.0843L55.6652 74.0151Z" fill="white"/>
<path d="M61.1982 78.217C61.1347 77.9314 61.0047 77.7074 60.8083 77.544C60.514 77.299 60.2458 77.073 60.1464 76.8659C60.047 76.6589 59.8103 76.6604 59.6837 76.8078C59.5567 76.9552 59.7638 77.3747 59.8932 77.544C59.9795 77.6569 60.0373 77.7447 60.0659 77.8068C59.5848 77.5051 59.2555 77.252 59.0781 77.0489C58.8996 76.8451 58.7536 76.6803 58.6387 76.5547C58.5907 76.7704 58.5907 76.9892 58.6387 77.2113C58.711 77.544 58.6237 78.0657 58.9122 78.3267C59.2007 78.5875 60.2763 79.3421 60.8083 79.3421C61.1628 79.3421 61.2928 78.9672 61.1982 78.217Z" fill="#8C6239"/>
</g>
<mask id="mask6_5042_4846" style="mask-type:alpha" maskUnits="userSpaceOnUse" x="60" y="74" width="6" height="8">
<path d="M63.9155 75.3393C63.8292 76.1351 63.7613 77.4255 63.7118 79.2115L61.8472 78.1083C61.3356 77.8901 60.9903 77.9439 60.8114 78.2684C60.632 78.5937 60.5418 78.9938 60.5418 79.4685C62.1246 80.6896 63.2487 81.4131 63.9155 81.6387C64.9154 81.9776 65.8159 82.1018 65.8159 80.8467C65.8159 79.5918 66.072 75.7875 65.5817 74.9238C65.3669 74.5445 65.0449 74.3486 64.7394 74.3486C64.3495 74.3486 63.9877 74.6691 63.9155 75.3393" fill="black"/>
</mask>
<g mask="url(#mask6_5042_4846)">
<path d="M68.0653 75.5512L61.3998 71.5288L58.5479 80.8979L65.2134 84.9204L68.0653 75.5512Z" fill="#4B998B"/>
</g>
<mask id="mask7_5042_4846" style="mask-type:alpha" maskUnits="userSpaceOnUse" x="55" y="65" width="17" height="43">
<rect x="55.6652" y="65.7144" width="15.9681" height="42.1987" fill="black"/>
</mask>
<g mask="url(#mask7_5042_4846)">
<path d="M66.4804 70.3915C66.4804 70.921 66.1705 71.7401 65.5507 72.8481C65.4329 72.2725 65.2981 71.8797 65.1458 71.6693C64.9179 71.354 64.5818 70.5694 64.7559 70.0685C64.9295 69.5676 64.8272 68.9027 64.7559 68.4561C64.6847 68.0094 64.6968 67.0173 65.6186 66.9014C66.541 66.7864 66.4804 69.5961 66.4804 70.3915Z" fill="#8C6239"/>
<path d="M65.1874 66.7118C64.7224 67.3966 64.6559 68.0701 64.9891 68.7316C65.4881 69.7234 65.6122 73.1629 64.6899 75.3675C67.1684 75.74 69.1047 75.3752 70.4994 74.273C70.9747 72.0641 71.0391 70.1079 70.6929 68.4038C70.1735 65.8472 68.2954 65.7144 67.2833 65.7144C66.6083 65.7144 65.91 66.0466 65.1874 66.7118" fill="black"/>
</g>
</g>
<mask id="mask8_5042_4846" style="mask-type:alpha" maskUnits="userSpaceOnUse" x="0" y="0" width="51" height="77">
<rect width="50.8622" height="76.282" fill="black"/>
</mask>
<g mask="url(#mask8_5042_4846)">
<mask id="mask9_5042_4846" style="mask-type:alpha" maskUnits="userSpaceOnUse" x="0" y="0" width="51" height="77">
<rect width="50.8622" height="76.282" fill="black"/>
</mask>
<g mask="url(#mask9_5042_4846)">
<mask id="mask10_5042_4846" style="mask-type:alpha" maskUnits="userSpaceOnUse" x="-1" y="0" width="52" height="77">
<rect x="-0.00119019" width="50.8622" height="76.282" fill="black"/>
</mask>
<g mask="url(#mask10_5042_4846)">
<g opacity="0.199997">
<mask id="mask11_5042_4846" style="mask-type:alpha" maskUnits="userSpaceOnUse" x="-1" y="0" width="40" height="69">
<rect x="-0.00253296" y="0.00292969" width="38.0859" height="68.2231" fill="black"/>
</mask>
<g mask="url(#mask11_5042_4846)">
<mask id="mask12_5042_4846" style="mask-type:alpha" maskUnits="userSpaceOnUse" x="-1" y="0" width="40" height="69">
<path d="M36.0664 0.281333C37.1143 -0.364488 37.9681 0.153276 37.9713 1.44055L38.0826 43.3771C38.0862 44.6647 37.238 46.2315 36.1905 46.8774L2.0129 67.9482C0.963846 68.5952 0.111639 68.0766 0.10806 66.789L-0.00328696 24.8525C-0.0064683 23.5648 0.83977 21.9996 1.88922 21.3526L36.0664 0.281333Z" fill="black"/>
</mask>
<g mask="url(#mask12_5042_4846)">
<rect x="-0.00622559" y="-0.364258" width="38.0927" height="68.9596" fill="url(#paint3_linear_5042_4846)"/>
</g>
</g>
</g>
<g opacity="0.399994">
<mask id="mask13_5042_4846" style="mask-type:alpha" maskUnits="userSpaceOnUse" x="4" y="2" width="39" height="69">
<rect x="4.23679" y="2.646" width="38.0859" height="68.2231" fill="black"/>
</mask>
<g mask="url(#mask13_5042_4846)">
<mask id="mask14_5042_4846" style="mask-type:alpha" maskUnits="userSpaceOnUse" x="4" y="2" width="39" height="69">
<path d="M40.3065 2.92758C41.3543 2.28137 42.2077 2.79913 42.2113 4.08641L42.3226 46.0233C42.3262 47.3106 41.4776 48.8774 40.4301 49.5232L6.25293 70.5941C5.2035 71.2411 4.35129 70.7225 4.34811 69.4353L4.23676 27.4987C4.23358 26.2111 5.07982 24.6451 6.12887 23.9985L40.3065 2.92758Z" fill="black"/>
</mask>
<g mask="url(#mask14_5042_4846)">
<rect x="4.23309" y="2.28174" width="38.0927" height="68.9596" fill="url(#paint4_linear_5042_4846)"/>
</g>
</g>
</g>
<g opacity="0.600006">
<mask id="mask15_5042_4846" style="mask-type:alpha" maskUnits="userSpaceOnUse" x="8" y="5" width="39" height="69">
<rect x="8.4754" y="5.28662" width="38.0859" height="68.2232" fill="black"/>
</mask>
<g mask="url(#mask15_5042_4846)">
<mask id="mask16_5042_4846" style="mask-type:alpha" maskUnits="userSpaceOnUse" x="8" y="5" width="39" height="69">
<path d="M44.5459 5.56267C45.5934 4.91684 46.4472 5.43422 46.4504 6.7214L46.5621 48.6583C46.5653 49.9456 45.7171 51.5124 44.6696 52.1582L10.4924 73.2291C9.44294 73.8761 8.59074 73.3575 8.58755 72.0703L8.47621 30.1333C8.47263 28.8461 9.31926 27.2801 10.3683 26.6335L44.5459 5.56267Z" fill="black"/>
</mask>
<g mask="url(#mask16_5042_4846)">
<rect x="8.47272" y="4.91699" width="38.0927" height="68.9593" fill="url(#paint5_linear_5042_4846)"/>
</g>
</g>
</g>
</g>
<path d="M48.1667 8.22412L14.547 29.2472C13.4809 29.9141 12.6164 31.5363 12.6195 32.8632L12.7293 74.7051C12.7313 75.3773 12.9488 75.8827 13.3429 76.128C13.5079 76.2314 13.6948 76.2827 13.8957 76.2827C14.1756 76.2827 14.4838 76.1825 14.8003 75.9844L14.6687 75.7379C14.2098 76.025 13.7859 76.0755 13.4741 75.881C13.1647 75.6886 12.9941 75.2703 12.9926 74.7043L12.8828 32.8625C12.8796 31.6266 13.6853 30.1154 14.6787 29.4942L48.2983 8.47073C48.7568 8.18481 49.1812 8.13432 49.4925 8.32879C49.8019 8.52122 49.9729 8.93917 49.9745 9.50461L50.2378 9.50384C50.2358 8.8318 50.0179 8.32675 49.6238 8.08103C49.4583 7.97802 49.2714 7.92627 49.0706 7.92627C48.7906 7.92627 48.4829 8.02656 48.1667 8.22413" fill="url(#paint6_linear_5042_4846)"/>
<path d="M48.1667 8.22461L14.547 29.2477C13.4809 29.9146 12.6164 31.5367 12.6195 32.8637L12.7293 74.7056C12.7313 75.3777 12.9488 75.8832 13.3429 76.1285C13.5079 76.2319 13.6948 76.2832 13.8957 76.2832C14.1756 76.2832 14.4838 76.183 14.8003 75.9849L14.6687 75.7384C14.2098 76.0255 13.7859 76.076 13.4741 75.8815C13.1647 75.6891 12.9941 75.2708 12.9926 74.7048L12.8828 32.863C12.8796 31.627 13.6853 30.1159 14.6787 29.4947L48.2983 8.47122C48.7568 8.1853 49.1812 8.13481 49.4925 8.32928C49.8019 8.52171 49.9729 8.93966 49.9745 9.5051L50.2378 9.50432C50.2358 8.83229 50.0179 8.32724 49.6238 8.08151C49.4583 7.97851 49.2714 7.92676 49.0706 7.92676C48.7906 7.92676 48.4829 8.02705 48.1667 8.22462" stroke="white" stroke-width="0.381476"/>
<mask id="mask17_5042_4846" style="mask-type:alpha" maskUnits="userSpaceOnUse" x="12" y="7" width="39" height="70">
<path d="M48.1667 8.22461L14.547 29.2477C13.4809 29.9146 12.6164 31.5367 12.6195 32.8637L12.7293 74.7056C12.7313 75.3777 12.9488 75.8832 13.3429 76.1285C13.5079 76.2319 13.6948 76.2832 13.8957 76.2832C14.1756 76.2832 14.4838 76.183 14.8003 75.9849L14.6687 75.7384C14.2098 76.0255 13.7859 76.076 13.4741 75.8815C13.1647 75.6891 12.9941 75.2708 12.9926 74.7048L12.8828 32.863C12.8796 31.627 13.6853 30.1159 14.6787 29.4947L48.2983 8.47122C48.7568 8.1853 49.1812 8.13481 49.4925 8.32928C49.8019 8.52171 49.9729 8.93966 49.9745 9.5051L50.2378 9.50432C50.2358 8.83229 50.0179 8.32724 49.6238 8.08151C49.4583 7.97851 49.2714 7.92676 49.0706 7.92676C48.7906 7.92676 48.4829 8.02705 48.1667 8.22462" fill="black"/>
</mask>
<g mask="url(#mask17_5042_4846)">
<rect x="12.6165" y="7.92676" width="37.6214" height="68.3562" fill="url(#paint7_linear_5042_4846)"/>
</g>
</g>
</g>
<path d="M19.328 37.882L15.4624 40.2012V35.5627L19.328 33.2432V37.882Z" fill="white"/>
<path d="M19.328 43.2955L15.4624 45.6148V40.9763L19.328 38.6567V43.2955Z" fill="white"/>
<path d="M19.328 48.7042L15.4624 51.0235V46.3849L19.328 44.0654V48.7042Z" fill="white"/>
<path d="M19.328 54.1173L15.4624 56.4366V51.798L19.328 49.4785V54.1173Z" fill="white"/>
<path d="M21.6972 34.877L21.6473 34.6202L41.0802 22.4194L41.1302 22.6762L21.6972 34.877Z" fill="white" stroke="white" stroke-width="0.381476" stroke-linejoin="round"/>
<path d="M21.6972 40.3775L21.6473 40.1207L41.0802 27.9199L41.1302 28.1766L21.6972 40.3775Z" fill="white" stroke="white" stroke-width="0.381476" stroke-linejoin="round"/>
<path d="M21.6972 45.8755L21.6472 45.6188L41.0802 33.418L41.1302 33.6747L21.6972 45.8755Z" fill="white" stroke="white" stroke-width="0.381476" stroke-linejoin="round"/>
<path d="M21.6972 51.376L21.6473 51.1193L41.0802 38.9185L41.1302 39.1752L21.6972 51.376Z" fill="white" stroke="white" stroke-width="0.381476" stroke-linejoin="round"/>
<defs>
<linearGradient id="paint0_linear_5042_4846" x1="22.0529" y1="84.9932" x2="22.0529" y2="93.6024" gradientUnits="userSpaceOnUse">
<stop stop-color="#94DDD4"/>
<stop offset="1" stop-color="#D3FFFA"/>
</linearGradient>
<linearGradient id="paint1_linear_5042_4846" x1="24.3446" y1="77.9795" x2="24.3446" y2="93.8068" gradientUnits="userSpaceOnUse">
<stop stop-color="#94DDD4"/>
<stop offset="1" stop-color="#D3FFFA"/>
</linearGradient>
<linearGradient id="paint2_linear_5042_4846" x1="26.4345" y1="85.5981" x2="26.4345" y2="93.7799" gradientUnits="userSpaceOnUse">
<stop stop-color="#94DDD4"/>
<stop offset="1" stop-color="#D3FFFA"/>
</linearGradient>
<linearGradient id="paint3_linear_5042_4846" x1="-119.424" y1="-2058.69" x2="-119.152" y2="-2058.69" gradientUnits="userSpaceOnUse">
<stop offset="5.09986e-09" stop-color="#5CF7E4"/>
<stop offset="1" stop-color="#5CF7E4"/>
</linearGradient>
<linearGradient id="paint4_linear_5042_4846" x1="-119.427" y1="-2058.7" x2="-119.155" y2="-2058.7" gradientUnits="userSpaceOnUse">
<stop offset="5.09986e-09" stop-color="#5CF7DB"/>
<stop offset="1" stop-color="#5CF7E4"/>
</linearGradient>
<linearGradient id="paint5_linear_5042_4846" x1="-119.43" y1="-2058.72" x2="-119.158" y2="-2058.72" gradientUnits="userSpaceOnUse">
<stop offset="5.09986e-09" stop-color="#B8EDE0"/>
<stop offset="1" stop-color="#77EDD8"/>
</linearGradient>
<linearGradient id="paint6_linear_5042_4846" x1="12.6195" y1="76.2828" x2="50.2377" y2="76.2828" gradientUnits="userSpaceOnUse">
<stop offset="0.0157332" stop-color="white"/>
<stop offset="0.348583" stop-color="#9EFADE"/>
<stop offset="0.590587" stop-color="#5CF7DB"/>
<stop offset="1" stop-color="#8499B1"/>
<stop offset="1" stop-color="#169485"/>
</linearGradient>
<linearGradient id="paint7_linear_5042_4846" x1="-127.259" y1="-2073.49" x2="-127.008" y2="-2073.49" gradientUnits="userSpaceOnUse">
<stop stop-color="#5CF7DB"/>
<stop offset="0.131151" stop-color="#69F7E6"/>
<stop offset="0.377257" stop-color="#8DF9E6"/>
<stop offset="0.70879" stop-color="#C7FCEC"/>
<stop offset="1" stop-color="white"/>
</linearGradient>
</defs>
</svg>
