<svg width="24" height="24" viewBox="0 0 24 24" fill="none" xmlns="http://www.w3.org/2000/svg">
<path d="M4.34257 14.8011L5.07047 14.6204L4.34257 14.8011ZM4.34257 9.19889L5.07047 9.37963L4.34257 9.19889ZM20.5463 9.19889L21.2742 9.01815L20.5463 9.19889ZM20.5463 14.8011L19.8184 14.6204L20.5463 14.8011ZM15.2138 19.6968L15.0516 18.9646V18.9646L15.2138 19.6968ZM9.67505 19.6968L9.8373 18.9646L9.67505 19.6968ZM9.67505 4.30315L9.8373 5.03539L9.67505 4.30315ZM15.2138 4.30315L15.3761 3.57092V3.57092L15.2138 4.30315ZM9.27161 19.6074L9.10935 20.3397L9.27161 19.6074ZM15.6173 19.6075L15.7795 20.3397H15.7795L15.6173 19.6075ZM15.6173 4.39255L15.455 5.12479L15.6173 4.39255ZM9.27161 4.39255L9.10935 3.66031V3.66031L9.27161 4.39255ZM9.45922 9.92319C9.12218 9.68239 8.65376 9.76041 8.41297 10.0974C8.17218 10.4345 8.2502 10.9029 8.58723 11.1437L9.45922 9.92319ZM11.3081 12.1659L11.7441 11.5556L11.3081 12.1659ZM13.5808 12.1659L14.0167 12.7761L13.5808 12.1659ZM16.3017 11.1437C16.6387 10.9029 16.7167 10.4345 16.4759 10.0974C16.2351 9.76041 15.7667 9.68239 15.4297 9.92319L16.3017 11.1437ZM9.43386 5.12479L9.8373 5.03539L9.51279 3.57091L9.10935 3.66031L9.43386 5.12479ZM15.0516 5.03539L15.455 5.12479L15.7795 3.66031L15.3761 3.57092L15.0516 5.03539ZM15.455 18.8752L15.0516 18.9646L15.3761 20.4291L15.7795 20.3397L15.455 18.8752ZM9.8373 18.9646L9.43386 18.8752L9.10935 20.3397L9.5128 20.4291L9.8373 18.9646ZM5.07047 14.6204C4.64318 12.8996 4.64318 11.1004 5.07047 9.37963L3.61468 9.01814C3.12844 10.9763 3.12844 13.0237 3.61468 14.9819L5.07047 14.6204ZM19.8184 9.37964C20.2457 11.1004 20.2457 12.8996 19.8184 14.6204L21.2742 14.9819C21.7604 13.0237 21.7604 10.9763 21.2742 9.01815L19.8184 9.37964ZM15.0516 18.9646C13.3343 19.3451 11.5546 19.3451 9.8373 18.9646L9.5128 20.4291C11.4438 20.857 13.4451 20.857 15.3761 20.4291L15.0516 18.9646ZM9.8373 5.03539C11.5546 4.65487 13.3343 4.65487 15.0516 5.03539L15.3761 3.57092C13.4451 3.14303 11.4438 3.14303 9.51279 3.57092L9.8373 5.03539ZM9.43386 18.8752C7.29004 18.4002 5.5998 16.7521 5.07047 14.6204L3.61468 14.9819C4.28118 17.666 6.40953 19.7414 9.10935 20.3397L9.43386 18.8752ZM15.7795 20.3397C18.4794 19.7415 20.6077 17.666 21.2742 14.9819L19.8184 14.6204C19.2891 16.7521 17.5988 18.4002 15.455 18.8752L15.7795 20.3397ZM15.455 5.12479C17.5988 5.59983 19.2891 7.24792 19.8184 9.37964L21.2742 9.01815C20.6077 6.33401 18.4794 4.25855 15.7795 3.66031L15.455 5.12479ZM9.10935 3.66031C6.40954 4.25855 4.28118 6.33401 3.61468 9.01814L5.07047 9.37963C5.5998 7.24792 7.29005 5.59983 9.43386 5.12479L9.10935 3.66031ZM8.58723 11.1437L10.8721 12.7761L11.7441 11.5556L9.45922 9.92319L8.58723 11.1437ZM14.0167 12.7761L16.3017 11.1437L15.4297 9.92319L13.1448 11.5556L14.0167 12.7761ZM10.8721 12.7761C11.8127 13.4481 13.0762 13.4481 14.0167 12.7761L13.1448 11.5556C12.7258 11.8549 12.1631 11.8549 11.7441 11.5556L10.8721 12.7761Z" fill="#4F4F4F"/>
</svg>
