<svg width="26" height="26" viewBox="0 0 26 26" fill="none" xmlns="http://www.w3.org/2000/svg">
<path d="M6.90174 7.10255C7.56989 4.25412 9.79397 2.03005 12.6424 1.3619C14.6995 0.879368 16.8404 0.879367 18.8975 1.3619C21.7459 2.03005 23.97 4.25413 24.6381 7.10255C25.1206 9.15965 25.1206 11.3005 24.6381 13.3576C23.97 16.206 21.7459 18.4301 18.8974 19.0983C16.8403 19.5808 14.6995 19.5808 12.6424 19.0983C9.79397 18.4301 7.56989 16.206 6.90174 13.3576C6.41921 11.3005 6.41921 9.15965 6.90174 7.10255Z" fill="#279F70" fill-opacity="0.15"/>
<path d="M6.56417 9.4141C6.45277 9.43683 6.34163 9.4612 6.23076 9.48721C3.78925 10.0599 1.8829 11.9663 1.3102 14.4078C0.8966 16.171 0.8966 18.006 1.3102 19.7692C1.8829 22.2108 3.78925 24.1171 6.23076 24.6898C7.99399 25.1034 9.829 25.1034 11.5922 24.6898C14.0337 24.1171 15.9401 22.2108 16.5128 19.7692C16.5388 19.6584 16.5632 19.5472 16.5859 19.4358C15.2661 19.5146 13.9376 19.4021 12.6424 19.0983C9.79397 18.4301 7.56989 16.206 6.90174 13.3576C6.59792 12.0624 6.4854 10.7339 6.56417 9.4141Z" fill="#279F70" fill-opacity="0.15"/>
<path d="M6.90174 13.3576C6.41921 11.3005 6.41921 9.15965 6.90174 7.10255C7.56989 4.25412 9.79397 2.03005 12.6424 1.3619C14.6995 0.879368 16.8404 0.879367 18.8975 1.3619C21.7459 2.03005 23.97 4.25413 24.6381 7.10255C25.1206 9.15965 25.1206 11.3005 24.6381 13.3576C23.97 16.206 21.7459 18.4301 18.8974 19.0983C16.8403 19.5808 14.6995 19.5808 12.6424 19.0983M6.90174 13.3576C7.56989 16.206 9.79397 18.4301 12.6424 19.0983M6.90174 13.3576C6.59792 12.0624 6.4854 10.7339 6.56417 9.4141C6.45277 9.43683 6.34163 9.4612 6.23076 9.48721C3.78925 10.0599 1.8829 11.9663 1.3102 14.4078C0.8966 16.171 0.8966 18.006 1.3102 19.7692C1.8829 22.2108 3.78925 24.1171 6.23076 24.6898C7.99399 25.1034 9.829 25.1034 11.5922 24.6898C14.0337 24.1171 15.9401 22.2108 16.5128 19.7692C16.5388 19.6584 16.5632 19.5472 16.5859 19.4358C15.2661 19.5146 13.9376 19.4021 12.6424 19.0983" stroke="#4AB0A6" stroke-width="1.5"/>
</svg>
