<svg width="40" height="40" viewBox="0 0 40 40" fill="none" xmlns="http://www.w3.org/2000/svg">
<rect width="40" height="40" rx="20" fill="#2E2E2E"/>
<path fill-rule="evenodd" clip-rule="evenodd" d="M16.5 16.5C16.5 14.5654 18.0654 13 20 13C21.9346 13 23.5 14.5654 23.5 16.5C23.5 18.4346 21.9346 20 20 20C18.0654 20 16.5 18.4346 16.5 16.5ZM13 24.9492C13 24.9492 14.0972 22.2319 17.4023 21.2305C17.5835 22.5054 18.6772 23.5 20 23.5C21.3228 23.5 22.4165 22.5054 22.5977 21.2305C25.9028 22.2319 27 24.9492 27 24.9492V27H13V24.9492Z" fill="white"/>
</svg>
