<svg width="32" height="32" viewBox="0 0 32 32" fill="none" xmlns="http://www.w3.org/2000/svg">
<g opacity="0.5">
<path d="M4.4705 11.7773C5.33916 8.14717 8.23068 5.31273 11.9339 4.46122C14.6083 3.84626 17.3917 3.84626 20.0661 4.46121C23.7693 5.31273 26.6608 8.14717 27.5295 11.7773C28.1568 14.3989 28.1568 17.1273 27.5295 19.749C26.6608 23.3791 23.7693 26.2135 20.0661 27.0651C17.3917 27.68 14.6083 27.68 11.9339 27.0651C8.23068 26.2135 5.33917 23.3791 4.4705 19.749C3.84317 17.1273 3.84317 14.3989 4.4705 11.7773Z" fill="#fff"/>
<path d="M4.4705 19.749L5.19991 19.5744L4.4705 19.749ZM4.4705 11.7773L5.19991 11.9518L4.4705 11.7773ZM27.5295 11.7773L26.8001 11.9518L27.5295 11.7773ZM27.5295 19.749L26.8001 19.5744L27.5295 19.749ZM20.0661 27.0651L19.898 26.3341L20.0661 27.0651ZM11.9339 27.0651L11.7658 27.796L11.9339 27.0651ZM11.9339 4.46122L12.102 5.19214L11.9339 4.46122ZM20.0661 4.46121L19.898 5.19214L20.0661 4.46121ZM5.19991 19.5744C4.60003 17.0675 4.60003 14.4587 5.19991 11.9518L3.7411 11.6028C3.0863 14.3391 3.0863 17.1871 3.7411 19.9235L5.19991 19.5744ZM26.8001 11.9518C27.4 14.4587 27.4 17.0675 26.8001 19.5744L28.2589 19.9235C28.9137 17.1871 28.9137 14.3391 28.2589 11.6028L26.8001 11.9518ZM19.898 26.3341C17.3342 26.9237 14.6658 26.9236 12.102 26.3341L11.7658 27.796C14.5509 28.4364 17.4491 28.4364 20.2342 27.796L19.898 26.3341ZM12.102 5.19214C14.6658 4.60262 17.3342 4.60262 19.898 5.19214L20.2342 3.73029C17.4491 3.0899 14.5509 3.0899 11.7658 3.73029L12.102 5.19214ZM12.102 26.3341C8.66996 25.545 6.00078 22.9213 5.19991 19.5744L3.7411 19.9235C4.67755 23.837 7.79141 26.8821 11.7658 27.796L12.102 26.3341ZM20.2342 27.796C24.2086 26.8821 27.3225 23.837 28.2589 19.9235L26.8001 19.5744C25.9992 22.9212 23.33 25.545 19.898 26.3341L20.2342 27.796ZM19.898 5.19214C23.3301 5.98129 25.9992 8.60502 26.8001 11.9518L28.2589 11.6028C27.3225 7.68932 24.2086 4.64416 20.2342 3.73029L19.898 5.19214ZM11.7658 3.73029C7.7914 4.64416 4.67755 7.68931 3.7411 11.6028L5.19991 11.9518C6.00078 8.60502 8.66995 5.98129 12.102 5.19214L11.7658 3.73029ZM19.5241 28C19.5241 26.0555 19.5257 24.6742 19.6694 23.6262C19.81 22.6014 20.0737 22.0078 20.5178 21.5724L19.4678 20.5012C18.6932 21.2605 18.3475 22.2257 18.1834 23.4224C18.0224 24.5959 18.0241 26.0988 18.0241 28H19.5241ZM27.0962 19.0921C25.1555 19.0921 23.6259 19.0906 22.4324 19.2479C21.2188 19.4078 20.2403 19.7439 19.4678 20.5012L20.5178 21.5724C20.9641 21.1349 21.5757 20.8737 22.6284 20.735C23.7011 20.5936 25.1139 20.5921 27.0962 20.5921V19.0921Z" fill="#828282"/>
<path d="M12 11.25C11.5858 11.25 11.25 11.5858 11.25 12C11.25 12.4142 11.5858 12.75 12 12.75V11.25ZM16 12.75C16.4142 12.75 16.75 12.4142 16.75 12C16.75 11.5858 16.4142 11.25 16 11.25V12.75ZM12 15.25C11.5858 15.25 11.25 15.5858 11.25 16C11.25 16.4142 11.5858 16.75 12 16.75V15.25ZM18.6667 16.75C19.0809 16.75 19.4167 16.4142 19.4167 16C19.4167 15.5858 19.0809 15.25 18.6667 15.25V16.75ZM12 12.75H16V11.25H12V12.75ZM12 16.75H18.6667V15.25H12V16.75Z" fill="#828282"/>
</g>
</svg>
