<svg width="24" height="24" viewBox="0 0 24 24" fill="none" xmlns="http://www.w3.org/2000/svg">
<path d="M9.33337 9.33337H12.8889M9.33337 14.6667H12M9.33337 12H14.6667" stroke="#828282" stroke-width="1.5" stroke-linecap="round"/>
<path d="M4.31367 9.28927C4.89278 6.82045 6.82045 4.89277 9.28927 4.31367C11.0722 3.89544 12.9278 3.89544 14.7107 4.31367C17.1795 4.89278 19.1072 6.82045 19.6863 9.28928C20.1046 11.0722 20.1046 12.9278 19.6863 14.7107C19.1072 17.1795 17.1795 19.1072 14.7107 19.6863C12.9278 20.1046 11.0722 20.1046 9.28928 19.6863C6.82045 19.1072 4.89278 17.1796 4.31367 14.7107C3.89544 12.9278 3.89544 11.0722 4.31367 9.28927Z" stroke="#828282" stroke-width="1.5"/>
</svg>
