<svg width="24" height="24" viewBox="0 0 24 24" fill="none" xmlns="http://www.w3.org/2000/svg">
<path d="M4.28065 13.5832L5.01083 13.4119L4.28065 13.5832ZM4.28065 8.73244L5.01083 8.90372L4.28065 8.73244ZM18.035 8.73245L18.7651 8.56117L18.035 8.73245ZM18.035 13.5832L18.7651 13.7544L18.035 13.5832ZM13.5832 18.035L13.4119 17.3048L13.5832 18.035ZM8.73245 18.035L8.56117 18.7651L8.73245 18.035ZM8.73245 4.28065L8.56117 3.55047L8.73245 4.28065ZM13.5832 4.28065L13.7544 3.55047L13.5832 4.28065ZM19.4697 20.5303C19.7626 20.8232 20.2374 20.8232 20.5303 20.5303C20.8232 20.2374 20.8232 19.7626 20.5303 19.4697L19.4697 20.5303ZM5.01083 13.4119C4.66306 11.9293 4.66306 10.3863 5.01083 8.90372L3.55047 8.56117C3.14984 10.2691 3.14984 12.0465 3.55047 13.7544L5.01083 13.4119ZM17.3048 8.90372C17.6525 10.3863 17.6525 11.9293 17.3048 13.4119L18.7651 13.7544C19.1658 12.0465 19.1658 10.2691 18.7651 8.56117L17.3048 8.90372ZM13.4119 17.3048C11.9293 17.6525 10.3863 17.6525 8.90372 17.3048L8.56117 18.7651C10.2691 19.1658 12.0465 19.1658 13.7544 18.7651L13.4119 17.3048ZM8.90372 5.01083C10.3863 4.66306 11.9293 4.66306 13.4119 5.01083L13.7544 3.55047C12.0465 3.14984 10.2691 3.14984 8.56117 3.55047L8.90372 5.01083ZM8.90372 17.3048C6.97213 16.8517 5.46392 15.3435 5.01083 13.4119L3.55047 13.7544C4.13366 16.2407 6.07493 18.1819 8.56117 18.7651L8.90372 17.3048ZM13.7544 18.7651C16.2407 18.1819 18.1819 16.2407 18.7651 13.7544L17.3048 13.4119C16.8517 15.3435 15.3435 16.8517 13.4119 17.3048L13.7544 18.7651ZM13.4119 5.01083C15.3435 5.46392 16.8517 6.97213 17.3048 8.90372L18.7651 8.56117C18.1819 6.07493 16.2407 4.13366 13.7544 3.55047L13.4119 5.01083ZM8.56117 3.55047C6.07493 4.13366 4.13366 6.07493 3.55047 8.56117L5.01083 8.90372C5.46392 6.97212 6.97213 5.46392 8.90372 5.01083L8.56117 3.55047ZM16.212 17.2727L19.4697 20.5303L20.5303 19.4697L17.2727 16.212L16.212 17.2727Z" fill="#4F4F4F"/>
</svg>
