<svg width="24" height="24" viewBox="0 0 24 24" fill="none" xmlns="http://www.w3.org/2000/svg">
<path d="M19.23 9.97247C19.23 9.55826 18.8942 9.22247 18.48 9.22247C18.0658 9.22247 17.73 9.55826 17.73 9.97247H19.23ZM6.26999 9.97247C6.26999 9.55826 5.93421 9.22247 5.51999 9.22247C5.10578 9.22247 4.76999 9.55826 4.76999 9.97247H6.26999ZM14.234 19.7397L14.0616 19.0097L14.234 19.7397ZM9.76598 19.7397L9.93841 19.0097L9.76598 19.7397ZM14.5142 5.79042L13.982 6.31887L14.5142 5.79042ZM19.4678 11.8437C19.7596 12.1377 20.2345 12.1394 20.5284 11.8475C20.8224 11.5556 20.8241 11.0808 20.5322 10.7868L19.4678 11.8437ZM9.48584 5.79042L10.018 6.31887L9.48584 5.79042ZM3.46779 10.7868C3.17594 11.0808 3.17762 11.5556 3.47155 11.8475C3.76548 12.1394 4.24035 12.1377 4.53221 11.8437L3.46779 10.7868ZM9.97193 17.618L10.7091 17.7564V17.7564L9.97193 17.618ZM9.98912 17.5265L9.252 17.3881V17.3881L9.98912 17.5265ZM14.0109 17.5265L13.2738 17.6648L13.2738 17.6648L14.0109 17.5265ZM14.0281 17.618L14.7652 17.4797L14.7652 17.4797L14.0281 17.618ZM13.7705 19.6017L13.0932 19.2794L13.0932 19.2794L13.7705 19.6017ZM12.9894 19.4975C12.8115 19.8715 12.9704 20.319 13.3444 20.497C13.7184 20.675 14.1659 20.5161 14.3439 20.1421L12.9894 19.4975ZM10.2295 19.6017L9.55231 19.924L9.55231 19.924L10.2295 19.6017ZM9.65611 20.1421C9.83411 20.5161 10.2816 20.675 10.6556 20.497C11.0296 20.319 11.1886 19.8715 11.0106 19.4975L9.65611 20.1421ZM11.4321 15.9489L11.2315 15.2262L11.4321 15.9489ZM12.5679 15.9489L12.7685 15.2262H12.7685L12.5679 15.9489ZM17.73 9.97247V14.3443H19.23V9.97247H17.73ZM6.26999 14.3443V9.97247H4.76999V14.3443H6.26999ZM14.0616 19.0097C12.7056 19.3301 11.2944 19.3301 9.93841 19.0097L9.59355 20.4696C11.1763 20.8435 12.8236 20.8435 14.4064 20.4696L14.0616 19.0097ZM9.93841 19.0097C7.79278 18.5029 6.26999 16.573 6.26999 14.3443H4.76999C4.76999 17.2618 6.76439 19.8012 9.59355 20.4696L9.93841 19.0097ZM14.4064 20.4696C17.2356 19.8012 19.23 17.2618 19.23 14.3443H17.73C17.73 16.573 16.2072 18.5029 14.0616 19.0097L14.4064 20.4696ZM13.982 6.31887L19.4678 11.8437L20.5322 10.7868L15.0464 5.26198L13.982 6.31887ZM8.95364 5.26198L3.46779 10.7868L4.53221 11.8437L10.018 6.31887L8.95364 5.26198ZM15.0464 5.26198C14.4687 4.68025 13.9834 4.18921 13.5457 3.8529C13.091 3.50346 12.5997 3.25 12 3.25V4.75C12.1366 4.75 12.3099 4.79494 12.6318 5.04231C12.9708 5.30281 13.3744 5.70698 13.982 6.31887L15.0464 5.26198ZM10.018 6.31887C10.6256 5.70698 11.0292 5.30281 11.3682 5.04231C11.6901 4.79494 11.8634 4.75 12 4.75V3.25C11.4003 3.25 10.909 3.50346 10.4542 3.8529C10.0166 4.18921 9.53125 4.68025 8.95364 5.26198L10.018 6.31887ZM10.7091 17.7564L10.7262 17.6648L9.252 17.3881L9.23481 17.4797L10.7091 17.7564ZM13.2738 17.6648L13.2909 17.7564L14.7652 17.4797L14.748 17.3881L13.2738 17.6648ZM13.0932 19.2794L12.9894 19.4975L14.3439 20.1421L14.4477 19.924L13.0932 19.2794ZM9.55231 19.924L9.65611 20.1421L11.0106 19.4975L10.9068 19.2794L9.55231 19.924ZM13.2909 17.7564C13.3878 18.2725 13.3184 18.8062 13.0932 19.2794L14.4477 19.924C14.8095 19.1638 14.9206 18.3075 14.7652 17.4797L13.2909 17.7564ZM9.23481 17.4797C9.07942 18.3075 9.19053 19.1638 9.55231 19.924L10.9068 19.2794C10.6816 18.8062 10.6122 18.2725 10.7091 17.7564L9.23481 17.4797ZM11.6326 16.6716C11.8731 16.6049 12.1269 16.6049 12.3674 16.6716L12.7685 15.2262C12.2656 15.0867 11.7344 15.0867 11.2315 15.2262L11.6326 16.6716ZM14.748 17.3881C14.553 16.3491 13.7869 15.5088 12.7685 15.2262L12.3674 16.6716C12.83 16.8 13.1834 17.1836 13.2738 17.6648L14.748 17.3881ZM10.7262 17.6648C10.8166 17.1836 11.17 16.8 11.6326 16.6716L11.2315 15.2262C10.2131 15.5088 9.44701 16.3491 9.252 17.3881L10.7262 17.6648Z" fill="#4AB0A6"/>
</svg>
