<svg width="24" height="24" viewBox="0 0 24 24" fill="none" xmlns="http://www.w3.org/2000/svg">
<path d="M15.2598 18.5774L14.8851 17.9276L14.8851 17.9277L15.2598 18.5774ZM12.5166 19.8987L12.3603 19.1652L12.5166 19.8987ZM7.85136 18.5774L7.47672 19.2271L7.47672 19.2271L7.85136 18.5774ZM10.5945 19.8987L10.7508 19.1652L10.5945 19.8987ZM18.9204 14.8873L18.1993 14.6811L18.9204 14.8873ZM15.4069 18.4925L15.7816 19.1422L15.7816 19.1422L15.4069 18.4925ZM17.7684 16.9066L17.2252 16.3894L17.7684 16.9066ZM15.4069 5.50748L15.7816 4.85775L15.7816 4.85775L15.4069 5.50748ZM17.7684 7.09342L17.2252 7.61058L17.7684 7.09342ZM18.9204 9.11266L18.1993 9.31888L18.9204 9.11266ZM7.85136 5.42262L7.47672 4.7729V4.7729L7.85136 5.42262ZM10.5945 4.10132L10.7508 4.83485L10.5945 4.10132ZM15.2598 5.42262L14.8851 6.07235L14.8851 6.07235L15.2598 5.42262ZM12.5166 4.10132L12.3603 4.83485L12.5166 4.10132ZM4 12H3.25H4ZM4.19071 9.11266L4.9118 9.31888L4.19071 9.11266ZM7.7042 5.50748L8.07884 6.15721L7.7042 5.50748ZM5.34275 7.09342L4.79957 6.57626L5.34275 7.09342ZM4.19071 14.8873L3.46962 15.0936L4.19071 14.8873ZM7.7042 18.4925L8.07884 17.8428H8.07884L7.7042 18.4925ZM5.34275 16.9066L4.79957 17.4237L5.34275 16.9066ZM8.07884 6.15721L8.226 6.07235L7.47672 4.7729L7.32956 4.85775L8.07884 6.15721ZM14.8851 6.07235L15.0323 6.15721L15.7816 4.85775L15.6344 4.7729L14.8851 6.07235ZM15.0323 17.8428L14.8851 17.9276L15.6344 19.2271L15.7816 19.1422L15.0323 17.8428ZM8.22601 17.9277L8.07884 17.8428L7.32955 19.1422L7.47672 19.2271L8.22601 17.9277ZM14.8851 17.9277C13.4901 18.732 12.9334 19.043 12.3603 19.1652L12.673 20.6322C13.5326 20.449 14.327 19.9809 15.6344 19.2271L14.8851 17.9277ZM7.47672 19.2271C8.78408 19.9809 9.57851 20.449 10.4382 20.6322L10.7508 19.1652C10.1777 19.043 9.621 18.732 8.226 17.9277L7.47672 19.2271ZM12.3603 19.1652C11.8294 19.2783 11.2817 19.2783 10.7508 19.1652L10.4382 20.6322C11.1752 20.7893 11.936 20.7893 12.673 20.6322L12.3603 19.1652ZM18.3611 12C18.3611 13.5251 18.3542 14.1394 18.1993 14.6811L19.6415 15.0936C19.868 14.3016 19.8611 13.4355 19.8611 12H18.3611ZM15.7816 19.1422C17.0007 18.4393 17.7457 18.0181 18.3115 17.4237L17.2252 16.3894C16.8441 16.7897 16.3304 17.0943 15.0323 17.8428L15.7816 19.1422ZM18.1993 14.6811C18.0151 15.3254 17.68 15.9117 17.2252 16.3894L18.3115 17.4237C18.9352 16.7687 19.3913 15.9683 19.6415 15.0936L18.1993 14.6811ZM15.0323 6.15721C16.3304 6.90574 16.8441 7.21027 17.2252 7.61058L18.3115 6.57626C17.7457 5.98192 17.0007 5.56071 15.7816 4.85775L15.0323 6.15721ZM19.8611 12C19.8611 10.5645 19.868 9.69843 19.6415 8.90644L18.1993 9.31888C18.3542 9.8606 18.3611 10.4749 18.3611 12H19.8611ZM17.2252 7.61058C17.68 8.08832 18.0151 8.67465 18.1993 9.31888L19.6415 8.90644C19.3913 8.03166 18.9352 7.23135 18.3115 6.57626L17.2252 7.61058ZM8.226 6.07235C9.621 5.26797 10.1777 4.95696 10.7508 4.83485L10.4382 3.36778C9.57851 3.55097 8.78408 4.01906 7.47672 4.7729L8.226 6.07235ZM15.6344 4.7729C14.327 4.01906 13.5326 3.55097 12.6729 3.36778L12.3603 4.83485C12.9334 4.95696 13.4901 5.26797 14.8851 6.07235L15.6344 4.7729ZM10.7508 4.83485C11.2817 4.72172 11.8294 4.72172 12.3603 4.83485L12.6729 3.36778C11.936 3.21074 11.1752 3.21074 10.4382 3.36778L10.7508 4.83485ZM4.75 12C4.75 10.4749 4.75688 9.8606 4.9118 9.31888L3.46962 8.90644C3.24312 9.69843 3.25 10.5645 3.25 12H4.75ZM7.32956 4.85775C6.11044 5.56071 5.36543 5.98192 4.79957 6.57626L5.88594 7.61057C6.26706 7.21027 6.78068 6.90574 8.07884 6.15721L7.32956 4.85775ZM4.9118 9.31888C5.09604 8.67465 5.43108 8.08832 5.88594 7.61057L4.79957 6.57626C4.17587 7.23135 3.71979 8.03166 3.46962 8.90644L4.9118 9.31888ZM3.25 12C3.25 13.4355 3.24312 14.3016 3.46962 15.0936L4.9118 14.6811C4.75688 14.1394 4.75 13.5251 4.75 12H3.25ZM8.07884 17.8428C6.78068 17.0943 6.26706 16.7897 5.88594 16.3894L4.79957 17.4237C5.36543 18.0181 6.11044 18.4393 7.32956 19.1422L8.07884 17.8428ZM3.46962 15.0936C3.71979 15.9683 4.17587 16.7687 4.79957 17.4237L5.88594 16.3894C5.43108 15.9117 5.09604 15.3254 4.9118 14.6811L3.46962 15.0936ZM11.5556 13.6704C10.6832 13.6704 9.94444 12.9401 9.94444 12H8.44444C8.44444 13.7333 9.81992 15.1704 11.5556 15.1704V13.6704ZM13.1667 12C13.1667 12.9401 12.4279 13.6704 11.5556 13.6704V15.1704C13.2912 15.1704 14.6667 13.7333 14.6667 12H13.1667ZM11.5556 10.3296C12.4279 10.3296 13.1667 11.0599 13.1667 12H14.6667C14.6667 10.2667 13.2912 8.82965 11.5556 8.82965V10.3296ZM11.5556 8.82965C9.81992 8.82965 8.44444 10.2667 8.44444 12H9.94444C9.94444 11.0599 10.6832 10.3296 11.5556 10.3296V8.82965Z" fill="#8499B1"/>
</svg>
