<svg width="24" height="24" viewBox="0 0 24 24" fill="none" xmlns="http://www.w3.org/2000/svg">
<path d="M4 17.8294C4 16.0496 5.2932 14.5337 7.0507 14.2532L7.20901 14.2279C8.61632 14.0033 10.0503 14.0033 11.4577 14.2279L11.616 14.2532C13.3735 14.5337 14.6667 16.0496 14.6667 17.8294C14.6667 18.5986 14.0431 19.2222 13.2738 19.2222H5.39286C4.6236 19.2222 4 18.5986 4 17.8294Z" stroke="#8499B1" stroke-width="1.5"/>
<path d="M12.4444 8.11111C12.4444 9.82933 11.0516 11.2222 9.33333 11.2222C7.61511 11.2222 6.22222 9.82933 6.22222 8.11111C6.22222 6.39289 7.61511 5 9.33333 5C11.0516 5 12.4444 6.39289 12.4444 8.11111Z" stroke="#8499B1" stroke-width="1.5"/>
<path d="M14.6666 11.2222C16.3848 11.2222 17.7777 9.82933 17.7777 8.11111C17.7777 6.39289 16.3848 5 14.6666 5M16.791 19.2222H18.6071C19.3764 19.2222 20 18.5986 20 17.8294C20 16.0496 18.7068 14.5337 16.9493 14.2532V14.2532C16.8439 14.2364 16.7372 14.2279 16.6304 14.2279C16.3462 14.2279 16.2579 14.2279 15.7699 14.2279" stroke="#8499B1" stroke-width="1.5" stroke-linecap="round"/>
</svg>
