<svg width="24" height="24" viewBox="0 0 24 24" fill="none" xmlns="http://www.w3.org/2000/svg">
<path d="M9.00809 17.2475L9.09188 16.5022L8.19455 16.4013L8.26007 17.3019L9.00809 17.2475ZM14.3252 17.2475L15.0733 17.3019L15.1388 16.4013L14.2415 16.5022L14.3252 17.2475ZM14.2446 17.7575L14.9729 17.9366V17.9366L14.2446 17.7575ZM14.1717 18.0538L13.4434 17.8748V17.8748L14.1717 18.0538ZM12.2923 19.9262L12.4668 20.6556H12.4668L12.2923 19.9262ZM11.041 19.9262L10.8665 20.6556L11.041 19.9262ZM9.16162 18.0538L8.43331 18.2329L9.16162 18.0538ZM9.08876 17.7575L9.81706 17.5784L9.08876 17.7575ZM6.35804 9.00675L7.08194 9.20289L6.35804 9.00675ZM10.0297 5.15753L10.2609 5.87099H10.2609L10.0297 5.15753ZM5.83333 10.9433L5.10943 10.7472L5.1048 10.7643L5.10098 10.7816L5.83333 10.9433ZM5.41795 12.8244L6.15031 12.9862L5.41795 12.8244ZM6.58897 16.8508L6.73869 16.1159L6.58897 16.8508ZM6.91572 16.9174L7.06544 16.1825L7.06544 16.1825L6.91572 16.9174ZM16.4176 16.9174L16.2679 16.1825V16.1825L16.4176 16.9174ZM16.7444 16.8508L16.8941 17.5857L16.7444 16.8508ZM17.9154 12.8244L17.183 12.9862V12.9862L17.9154 12.8244ZM17.5 10.9433L18.2324 10.7816L18.2292 10.7672L18.2254 10.753L17.5 10.9433ZM16.9816 8.96742L16.2562 9.15775L16.9816 8.96742ZM13.4152 5.163L13.6504 4.45083L13.4152 5.163ZM18.3092 14.5861L17.5682 14.7021L18.3092 14.5861ZM5.02417 14.5861L4.28319 14.4701L5.02417 14.5861ZM12.4167 4C12.4167 3.58579 12.0809 3.25 11.6667 3.25C11.2525 3.25 10.9167 3.58579 10.9167 4H12.4167ZM10.9167 4.8931C10.9167 5.30731 11.2525 5.6431 11.6667 5.6431C12.0809 5.6431 12.4167 5.30731 12.4167 4.8931H10.9167ZM8.9243 17.9928C10.7468 18.1977 12.5865 18.1977 14.409 17.9928L14.2415 16.5022C12.5303 16.6945 10.803 16.6945 9.09188 16.5022L8.9243 17.9928ZM14.9729 17.9366C15.0242 17.7281 15.0577 17.5157 15.0733 17.3019L13.5772 17.193C13.5678 17.3229 13.5474 17.4518 13.5163 17.5784L14.9729 17.9366ZM14.9 18.2329L14.9729 17.9366L13.5163 17.5784L13.4434 17.8748L14.9 18.2329ZM12.4668 20.6556C13.6672 20.3685 14.6051 19.4325 14.9 18.2329L13.4434 17.8748C13.2818 18.5319 12.7692 19.041 12.1178 19.1968L12.4668 20.6556ZM10.8665 20.6556C11.3926 20.7815 11.9408 20.7815 12.4668 20.6556L12.1178 19.1968C11.8212 19.2677 11.5121 19.2677 11.2155 19.1968L10.8665 20.6556ZM8.43331 18.2329C8.72827 19.4325 9.6661 20.3685 10.8665 20.6556L11.2155 19.1968C10.5641 19.041 10.0515 18.5319 9.88993 17.8748L8.43331 18.2329ZM8.36045 17.9366L8.43331 18.2329L9.88993 17.8748L9.81706 17.5784L8.36045 17.9366ZM8.26007 17.3019C8.27563 17.5157 8.30918 17.7281 8.36045 17.9366L9.81706 17.5784C9.78594 17.4518 9.76556 17.3229 9.75611 17.193L8.26007 17.3019ZM7.08194 9.20289C7.5079 7.63078 8.71496 6.37212 10.2609 5.87099L9.7984 4.44408C7.77395 5.10031 6.19365 6.74564 5.63414 8.8106L7.08194 9.20289ZM6.55723 11.1394L7.08194 9.20289L5.63414 8.8106L5.10943 10.7472L6.55723 11.1394ZM6.15031 12.9862L6.56569 11.105L5.10098 10.7816L4.68559 12.6627L6.15031 12.9862ZM5.75 14.8981C5.75 14.8309 5.75522 14.7655 5.76515 14.7021L4.28319 14.4701C4.2613 14.61 4.25 14.753 4.25 14.8981H5.75ZM6.73869 16.1159C6.16587 15.9992 5.75 15.4918 5.75 14.8981H4.25C4.25 16.2 5.1631 17.3257 6.43925 17.5857L6.73869 16.1159ZM7.06544 16.1825L6.73869 16.1159L6.43925 17.5857L6.766 17.6523L7.06544 16.1825ZM16.2679 16.1825C13.2313 16.8011 10.102 16.8011 7.06544 16.1825L6.766 17.6523C10.0002 18.3112 13.3331 18.3112 16.5673 17.6523L16.2679 16.1825ZM16.5946 16.1159L16.2679 16.1825L16.5673 17.6523L16.8941 17.5857L16.5946 16.1159ZM17.5833 14.8981C17.5833 15.4918 17.1675 15.9992 16.5946 16.1159L16.8941 17.5857C18.1702 17.3257 19.0833 16.2 19.0833 14.8981H17.5833ZM17.5682 14.7021C17.5781 14.7655 17.5833 14.8309 17.5833 14.8981H19.0833C19.0833 14.753 19.072 14.61 19.0501 14.4701L17.5682 14.7021ZM16.7676 11.105L17.183 12.9862L18.6477 12.6627L18.2324 10.7816L16.7676 11.105ZM16.2562 9.15775L16.7746 11.1336L18.2254 10.753L17.707 8.77709L16.2562 9.15775ZM13.18 5.87517C14.6911 6.37424 15.8498 7.60898 16.2562 9.15775L17.707 8.77709C17.1724 6.73918 15.6463 5.11003 13.6504 4.45083L13.18 5.87517ZM10.2609 5.87099C11.2082 5.56394 12.2378 5.56401 13.18 5.87517L13.6504 4.45083C12.4021 4.03856 11.0456 4.03981 9.7984 4.44408L10.2609 5.87099ZM19.0501 14.4701C18.9545 13.8589 18.7595 13.169 18.6477 12.6627L17.183 12.9862C17.3271 13.6387 17.4803 14.1407 17.5682 14.7021L19.0501 14.4701ZM4.68559 12.6627C4.57381 13.169 4.37886 13.8589 4.28319 14.4701L5.76515 14.7021C5.85302 14.1407 6.00621 13.6387 6.15031 12.9862L4.68559 12.6627ZM10.9167 4V4.8931H12.4167V4H10.9167Z" fill="#8499B1"/>
</svg>
