<svg width="24" height="24" viewBox="0 0 24 24" fill="none" xmlns="http://www.w3.org/2000/svg">
<path d="M8.63159 9.05225L12 9.05225" stroke="#8499B1" stroke-width="1.5" stroke-linecap="round"/>
<path d="M4.32454 14.2326L5.05244 14.0519L4.32454 14.2326ZM4.32454 8.92526L5.05244 9.10601L4.32454 8.92526ZM19.6755 8.92527L20.4034 8.74452L19.6755 8.92527ZM19.6755 14.2326L18.9476 14.0519L19.6755 14.2326ZM14.6236 18.8707L14.4614 18.1385V18.1385L14.6236 18.8707ZM9.37636 18.8707L9.53861 18.1385L9.37636 18.8707ZM9.37636 4.2872L9.53861 5.01944V5.01944L9.37636 4.2872ZM14.6236 4.2872L14.7859 3.55496V3.55496L14.6236 4.2872ZM8.99415 18.786L8.8319 19.5182L8.99415 18.786ZM15.0058 18.786L15.1681 19.5182L15.0058 18.786ZM15.0058 4.37189L14.8436 5.10413L15.0058 4.37189ZM8.99415 4.37189L8.8319 3.63965L8.99415 4.37189ZM17.6365 13.6873L17.502 14.4251L17.502 14.4251L17.6365 13.6873ZM17.5871 13.6783L17.7217 12.9404H17.7217L17.5871 13.6783ZM17.5871 9.47961L17.7217 10.2174L17.7217 10.2174L17.5871 9.47961ZM17.6365 9.47061L17.502 8.73277L17.502 8.73277L17.6365 9.47061ZM19.5315 10.4136C19.911 10.5796 20.3532 10.4065 20.5192 10.027C20.6852 9.64753 20.5122 9.20531 20.1327 9.03931L19.5315 10.4136ZM20.1327 14.1186C20.5122 13.9526 20.6852 13.5104 20.5192 13.1309C20.3532 12.7514 19.911 12.5783 19.5315 12.7443L20.1327 14.1186ZM15.8553 12.108L15.1341 12.314L15.8553 12.108ZM15.8553 11.0499L16.5764 11.2559L15.8553 11.0499ZM9.15641 5.10413L9.53861 5.01944L9.21411 3.55496L8.8319 3.63965L9.15641 5.10413ZM14.4614 5.01944L14.8436 5.10413L15.1681 3.63965L14.7859 3.55496L14.4614 5.01944ZM14.8436 18.0538L14.4614 18.1385L14.7859 19.6029L15.1681 19.5182L14.8436 18.0538ZM9.53861 18.1385L9.15641 18.0538L8.8319 19.5182L9.21411 19.6029L9.53861 18.1385ZM5.05244 14.0519C4.64919 12.4279 4.64919 10.73 5.05244 9.10601L3.59665 8.74451C3.13445 10.6059 3.13445 12.552 3.59665 14.4134L5.05244 14.0519ZM18.9476 9.10601C19.3508 10.73 19.3508 12.4279 18.9476 14.0519L20.4034 14.4134C20.8655 12.552 20.8655 10.6059 20.4034 8.74452L18.9476 9.10601ZM14.4614 18.1385C12.8401 18.4977 11.1599 18.4977 9.53861 18.1385L9.21411 19.6029C11.0491 20.0095 12.9509 20.0095 14.7859 19.6029L14.4614 18.1385ZM9.53861 5.01944C11.1599 4.66019 12.8401 4.66019 14.4614 5.01944L14.7859 3.55496C12.9509 3.14835 11.0491 3.14835 9.21411 3.55496L9.53861 5.01944ZM9.15641 18.0538C7.14005 17.607 5.5503 16.0569 5.05244 14.0519L3.59665 14.4134C4.23168 16.9708 6.25955 18.9482 8.8319 19.5182L9.15641 18.0538ZM15.1681 19.5182C17.7405 18.9482 19.7683 16.9708 20.4034 14.4134L18.9476 14.0519C18.4497 16.0569 16.8599 17.607 14.8436 18.0538L15.1681 19.5182ZM14.8436 5.10413C16.8599 5.55092 18.4497 7.10103 18.9476 9.10601L20.4034 8.74452C19.7683 6.18712 17.7405 4.20965 15.1681 3.63965L14.8436 5.10413ZM8.8319 3.63965C6.25955 4.20965 4.23168 6.18711 3.59665 8.74451L5.05244 9.10601C5.5503 7.10103 7.14006 5.55092 9.15641 5.10413L8.8319 3.63965ZM17.771 12.9494L17.7217 12.9404L17.4526 14.4161L17.502 14.4251L17.771 12.9494ZM17.7217 10.2174L17.771 10.2084L17.502 8.73277L17.4526 8.74177L17.7217 10.2174ZM17.771 10.2084C18.3652 10.1001 18.9782 10.1715 19.5315 10.4136L20.1327 9.03931C19.3058 8.67762 18.3898 8.57089 17.502 8.73277L17.771 10.2084ZM17.502 14.4251C18.3898 14.587 19.3058 14.4803 20.1327 14.1186L19.5315 12.7443C18.9782 12.9864 18.3652 13.0578 17.771 12.9494L17.502 14.4251ZM16.5764 11.902C16.5161 11.6908 16.5161 11.467 16.5764 11.2559L15.1341 10.8439C14.9969 11.3243 14.9969 11.8336 15.1341 12.314L16.5764 11.902ZM17.4526 8.74177C16.3427 8.94414 15.444 9.7591 15.1341 10.8439L16.5764 11.2559C16.7296 10.7199 17.1736 10.3174 17.7217 10.2174L17.4526 8.74177ZM17.7217 12.9404C17.1736 12.8405 16.7296 12.438 16.5764 11.902L15.1341 12.314C15.444 13.3988 16.3427 14.2138 17.4526 14.4161L17.7217 12.9404Z" fill="#8499B1"/>
</svg>
